<?xml version="1.0" encoding="UTF-8" standalone="no"?>
<!-- Created with Inkscape (http://www.inkscape.org/) -->

<svg
   width="36.930664mm"
   height="13.773201mm"
   viewBox="0 0 36.930664 13.773201"
   version="1.1"
   id="svg992"
   xmlns="http://www.w3.org/2000/svg"
   >
  <defs
     id="defs989" />
  <g
     id="layer1"
     transform="translate(-220.36255,-77.313406)">
    <path
       id="path220"
       d="m 257.14214,90.542283 c -0.003,0.0017 -0.005,0.0017 -0.007,0.0033 -0.22777,0.138611 -0.51004,0.145233 -0.77564,0.148383 -11.5014,0.130424 -23.00421,0.260857 -34.50545,0.391282 -0.35818,0.005 -0.73118,0.005 -1.04815,-0.163505 -0.3152,-0.166663 -0.54295,-0.55952 -0.39941,-0.887792 0.0693,-0.16193 0.2493,-0.251087 0.42424,-0.256124 -0.3301,-0.371123 -0.41596,-1.044684 -0.3103,-1.541506 0.0313,-0.148697 0.0842,-0.288892 0.15347,-0.42247 0.23275,-0.452403 0.66194,-0.807139 1.13393,-1.016956 0.61237,-0.270624 1.29406,-0.33174 1.96258,-0.35978 0.93257,-0.03969 1.88987,-0.01985 2.76302,0.313783 0.72292,0.278812 1.38155,0.81029 1.69846,1.505269 0,-0.259274 0.10397,-0.541552 0.23936,-0.747592 0.14023,-0.211394 0.37468,-0.351587 0.62388,-0.396323 -0.46545,-0.115624 -0.87477,-0.47036 -1.05146,-0.92087 -0.23434,-0.592594 -0.0907,-1.300807 0.30381,-1.80267 0.22933,-0.290469 0.53311,-0.511626 0.87144,-0.665052 -0.11389,-0.373011 -0.17826,-0.760826 -0.18157,-1.152109 -0.0132,-1.923017 1.26767,-3.728527 2.98755,-4.588589 1.59609,-0.797372 3.49756,-0.843371 5.21584,-0.344973 0.002,0.0016 0.003,0.0016 0.005,0.0016 0.13209,0.0397 0.26249,0.08096 0.39289,0.125385 1.5465,0.534942 2.99249,1.555049 3.70218,3.030703 0.28225,0.585981 0.42096,1.245995 0.41104,1.899707 v 0.005 c 0.24258,-0.130429 0.49845,-0.244472 0.74938,-0.351589 0.9705,-0.419323 2.09618,-0.815327 3.04855,-0.358203 0.0166,0.0082 0.033,0.01638 0.0495,0.02646 0.6965,0.358206 1.12237,1.15022 1.13226,1.935937 0.005,0.561405 -0.18159,1.107684 -0.48696,1.578043 0,0.0016 0,0.0016 -0.002,0.0016 0.19811,-0.01165 0.39781,-0.0082 0.59755,0.01323 0.80052,0.0857 1.60103,0.519817 1.94759,1.246304 0.15689,0.330168 0.18997,0.716405 0.11247,1.071142 0.22589,-0.08254 0.4735,-0.107429 0.71137,-0.04946 0.60708,0.146809 0.9867,0.744439 1.52669,1.059485 0.38938,0.226194 0.84495,0.29708 1.29073,0.363239 1.52196,0.227777 3.04519,0.455555 4.56873,0.683333 0.15029,0.023 0.25078,0.131999 0.28385,0.259274 0.0347,0.130433 -0.007,0.278816 -0.14019,0.362926" />
  </g>
</svg>
