<?xml version="1.0" encoding="UTF-8" standalone="no"?>
<!-- Created with Inkscape (http://www.inkscape.org/) -->

<svg
   width="40.31398mm"
   height="22.198538mm"
   viewBox="0 0 40.31398 22.198538"
   version="1.1"
   id="svg992"
   xmlns="http://www.w3.org/2000/svg"
   >
  <defs
     id="defs989" />
  <g
     id="layer1"
     transform="translate(-218.2622,-25.194368)">
    <g
       transform="matrix(0.00621518,0,0,-0.00621518,157.2931,118.57967)"
       id="g82">
      <path
         id="path84"
         d="m 16295.8,11847.4 c 4.2,-61.1 -38.9,-118 -92,-148.2 -53.4,-30.2 -115.9,-39.2 -176.6,-47.2 -1001.6,-131.9 -2018,-147.8 -3023.1,-47.5 -234.3,-65.6 -523,-170.8 -764.9,-147.5 -242.3,22.9 -467.1,163.4 -555.2,390.4 -126.4,-101.7 -285.7,-161.4 -447.4,-167.3 -161.7,-6.2 -317.2,42 -450.5,133.6 -275.2,-53.1 -558.4,-62.8 -836.3,-28.8 -60.41,7.3 -135.06,31.6 -139.9,92.3 -4.17,57.3 59.68,93.4 114.2,111.8 257.9,87.1 536.9,110.3 805.8,67.3 -208.2,152.7 -442.1,306.1 -573.6,528.2 -131.3,222.1 -160.4,526.1 1,727.4 31.6,39.6 69.4,73.6 111.4,101 122.2,80.5 279.7,109.7 425.1,82.9 41.3,-7.6 81.2,-19.4 120.1,-34.7 -13.5,63.9 -22.5,129.1 -25.7,195.8 -20.5,426.5 174.2,858.2 507.7,1125.1 113.5,90.9 245.4,163.1 384.9,204.8 113.8,34 233.2,47.1 351.6,32.9 273.1,-33.3 511.9,-207.2 690.6,-416.4 123.2,-144.1 223.8,-309.6 291.8,-486.2 1.1,0.7 1.8,1.7 2.8,2.4 115.6,102.7 240.2,194.3 376.9,266.5 245.7,129.5 532.1,193.7 804.8,142.6 124.2,-23.2 244.3,-72.5 349.1,-143.3 0.4,0 0.8,0 1.1,-0.7 124.9,-84.3 228,-199.9 288.4,-338.3 79.8,-182.6 78.4,-386.6 22.9,-579.3 1.4,0.4 2.4,0.4 3.8,0.7 265.8,53.5 541,58.3 807.2,9.1 45.2,-8.4 90.9,-18.8 136,-32.7 177.8,-52.4 345.3,-147.5 420,-312.7 70.1,-154 40.6,-339.7 -43.4,-486.5 -83.6,-146.8 -215.5,-260.3 -354,-357.5 -77.3,-54.1 -157.9,-103.7 -240.5,-149.5 -1.1,-0.4 -1.7,-1.1 -2.8,-1.4 170.1,-27.1 338.4,-64.9 503.6,-114.9 72.2,-21.9 153.4,-57.9 188.1,-119 9.3,-16.3 15.6,-34.7 17,-55.2" />
    </g>
  </g>
</svg>
