<?xml version="1.0" encoding="UTF-8" standalone="no"?>
<!-- Created with Inkscape (http://www.inkscape.org/) -->

<svg
   viewBox="0 0 13.174438 22.52986"
   version="1.1"
   id="svg992"
   xmlns="http://www.w3.org/2000/svg"
   >
  <defs
     id="defs989" />
  <g
     id="layer1"
     transform="translate(-337.1164,3.2234286)">
    <path
       id="path24"
       d="m 349.18449,1.7234861 c 0.0172,0.03014 0.002,0.07942 -0.0444,0.083087 0.0466,0.00407 0.0812,0.074533 0.0273,0.097341 -0.0689,0.03014 -0.29019,0.1010068 -0.27174,-0.052944 0.0136,-0.1172982 0.15509,-0.1930531 0.2572,-0.2276723 0.0647,-0.021991 0.0928,0.075755 0.0316,0.100192 z m -0.34143,0.5767162 c -0.044,0.026472 -0.0999,0.039101 -0.12255,-0.019144 -0.0149,-0.040322 0.0311,-0.098563 0.0484,-0.1323679 0.0317,-0.060279 0.12524,-0.00692 0.0935,0.053351 -0.003,0.00613 -0.006,0.010996 -0.01,0.016697 0.02,0.023218 0.0238,0.061093 -0.009,0.081457 z m 0.26336,2.1818276 c -0.009,0.00733 -0.0183,0.012623 -0.0272,0.017917 -0.002,0.019144 -0.001,0.039508 -0.0139,0.055391 -0.0267,0.036247 -0.0609,0.045209 -0.10492,0.047243 -0.0368,0.00161 -0.061,-0.03462 -0.0528,-0.066795 -0.006,0.00692 -0.0134,0.013036 -0.022,0.017104 -0.0379,0.017104 -0.0816,0.01507 -0.12431,0.01507 -0.0394,0 -0.0689,-0.04643 -0.0467,-0.080235 0.0145,-0.021991 0.0321,-0.040728 0.0502,-0.057425 -0.002,-0.0334 0.0238,-0.068424 0.0649,-0.054985 0.007,0.00245 0.0125,0.00368 0.0187,0.00446 0.0537,-0.017917 0.11437,-0.013443 0.1749,0.01833 0.004,0.00207 0.005,0.00568 0.009,0.00733 0.052,-0.041135 0.1261,0.030953 0.0742,0.07657 z m -0.54344,-0.1608778 c -0.0262,0 -0.0394,-0.016697 -0.0457,-0.035027 0.007,-0.00284 0.0138,-0.00529 0.0205,-0.00978 0.0108,-0.00692 0.02,-0.013443 0.0304,-0.021178 0.0105,-0.00733 0.0176,-0.01751 0.0263,-0.026472 0.0337,0.026879 0.0247,0.092454 -0.0314,0.092454 z m -0.35426,0.1633217 c -0.0739,-0.019551 -0.0477,-0.096934 -0.058,-0.1490668 -0.0134,-0.066387 0.0904,-0.09449 0.10407,-0.027692 0.002,0.00815 0.003,0.017104 0.003,0.025659 0.0353,-0.030546 0.0942,0.00368 0.0876,0.048877 5.8e-4,0.00323 0.002,0.00692 0.003,0.012623 0.001,0.00774 0.001,0.015477 0.003,0.022811 0.003,0.019957 -0.015,0.044803 -0.0314,0.054171 -0.0302,0.01751 -0.0793,0.021178 -0.11184,0.012623 z m -1.41866,0.105487 c -0.005,0.014256 -0.0127,0.026879 -0.0233,0.037061 -0.0302,0.028919 -0.0751,0.020771 -0.11,0.00856 -0.0289,-0.010182 -0.044,-0.035027 -0.0379,-0.064758 0.004,-0.018737 0.0134,-0.033807 0.0174,-0.052538 0.005,-0.020771 0.0306,-0.041542 0.0526,-0.039915 0.008,0.00207 0.039,0.011809 0.0449,0.00774 0.0292,-0.018737 0.0574,-0.00407 0.0715,0.018737 0.0143,0.022398 0.0136,0.055391 -0.0172,0.072904 0.0145,-0.00896 0.005,4.074e-4 0.002,0.012216 z m -0.25255,-0.3127951 c -0.0225,0.037061 -0.0433,0.079828 -0.0801,0.1046722 -0.0378,0.025252 -0.0847,0.026065 -0.1287,0.026879 -0.0279,0 -0.0563,-0.024032 -0.055,-0.052538 0.003,-0.060279 0.0342,-0.095712 0.0746,-0.1242216 0.002,-0.03462 0.0398,-0.068424 0.0799,-0.044803 0.024,-0.010996 0.0458,-0.00446 0.0616,0.00978 0.006,0.00123 0.0106,0.00123 0.0152,0.00323 0.0326,0.010996 0.0513,0.046023 0.0326,0.076977 z m -0.22267,0.5343581 c -0.0444,-0.013036 -0.0569,-0.044396 -0.0581,-0.085937 -0.002,-0.06598 0.10012,-0.067609 0.10696,-0.00529 0.038,0.032987 0.009,0.1083377 -0.0489,0.091232 z m -0.9102,0.4003618 c 0.003,-0.00284 0.007,-0.00613 0.0103,-0.00856 0.0597,-0.032173 0.12121,-0.061499 0.18413,-0.09001 0.005,0.00407 0.009,0.00733 0.0141,0.010589 -0.07,0.028512 -0.13995,0.057018 -0.20857,0.087974 z m -2.32031,5.3635414 c 0.0434,0.02036 0.0893,0.0334 0.13465,0.02892 0.0898,-0.01059 0.16169,-0.02606 0.23806,-0.07413 0.0312,-0.01955 0.061,-0.04154 0.088,-0.06639 -2.3e-4,0.193868 0.008,0.389365 0.036,0.587306 -0.14471,-0.217898 -0.31198,-0.366557 -0.49677,-0.475709 z m -1.10716,8.311472 c -0.0123,-0.0081 -0.0251,-0.01506 -0.038,-0.02118 -0.0139,-0.0053 -0.0275,-0.01018 -0.0414,-0.01386 -0.0145,-0.0041 -0.0283,-0.0053 -0.0424,-0.0081 -0.007,-0.0012 -0.0145,-0.0012 -0.0222,-0.002 l -0.0216,-0.002 c -0.009,0 -0.0185,0 -0.0275,0 0.0154,-0.002 0.0308,-0.0061 0.0464,-0.0069 0.0178,-0.0012 0.0352,-0.0012 0.0532,0 0.009,0 0.0178,0 0.0264,0.0025 0.009,8.4e-4 0.0176,0.0012 0.026,0.0032 l 0.0266,0.0045 0.0249,0.0073 c 0.009,0.002 0.0165,0.0061 0.0251,0.009 0.004,0.0012 0.007,0.0028 0.0105,0.0045 -0.0143,0.0085 -0.0284,0.01791 -0.0429,0.02606 -6.5e-4,-8.39e-4 -0.002,-0.002 -0.003,-0.0028 z m 0.074,-0.08634 c -0.0119,-0.01141 -0.0247,-0.02282 -0.0374,-0.03219 -0.006,-0.0049 -0.0128,-0.01018 -0.02,-0.01424 -0.007,-0.0045 -0.0132,-0.009 -0.0211,-0.01344 l -0.0218,-0.01102 c -0.007,-0.0037 -0.0152,-0.0061 -0.0227,-0.0093 -0.003,-8.4e-4 -0.005,-0.0016 -0.007,-0.0028 0.005,8.39e-4 0.0108,4.62e-4 0.0161,0.0012 0.0169,0.0037 0.0344,0.0073 0.0504,0.01386 0.0174,0.0049 0.0339,0.0118 0.0487,0.01872 0.0163,0.0081 0.0312,0.0171 0.0457,0.02607 0.007,0.0049 0.0139,0.01141 0.0209,0.01631 0.003,0.0028 0.007,0.0057 0.01,0.0085 -0.0121,0.009 -0.0238,0.01914 -0.0361,0.0277 -0.008,-0.0098 -0.0167,-0.01996 -0.0256,-0.02932 z m -1.30713,-9.1875477 c -0.0145,-0.00491 -0.0288,-0.00937 -0.0449,-0.012623 -0.009,0.027286 -0.0385,0.043582 -0.0636,0.038695 0.006,-0.040322 -0.006,-0.083086 -0.0321,-0.1152617 0.006,-0.00814 0.0143,-0.01629 0.0258,-0.022398 0.0436,-0.023218 0.10208,-0.00368 0.14499,0.00978 0.0658,0.020364 0.0378,0.1221858 -0.0302,0.1018216 z m -0.2464,-1.9847017 c 0.0229,-0.00896 0.0249,-0.010182 0.005,-0.00323 -0.003,8.394e-4 -0.005,0.00284 -0.007,0.00368 0.003,-0.00245 0.006,-0.00323 0.008,-0.00613 0.009,-0.00978 0.0178,-0.020364 0.0266,-0.03014 2.4e-4,0 2.4e-4,0 2.4e-4,0 0.003,0.00613 0.005,0.013443 0.009,0.019958 -0.0136,0.00446 -0.0277,0.00896 -0.0409,0.015883 z m 0.89018,-1.6205886 c 0.0303,-0.030546 0.0632,-0.058646 0.10166,-0.079013 0.0594,-0.032987 0.11327,0.055391 0.0558,0.09001 0.013,0.029733 -0.003,0.07494 -0.0469,0.078606 -0.0374,0.00284 -0.0662,0.01507 -0.10007,-0.00733 -0.0275,-0.019144 -0.0364,-0.057425 -0.0106,-0.082272 z m 0.34213,-0.3351958 c 0.0167,-0.01507 0.0358,-0.015883 0.0523,-0.010589 0.007,-0.00896 0.0139,-0.015477 0.026,-0.019957 0.0352,-0.011809 0.0673,-0.028512 0.10561,-0.021991 0.0468,0.00774 0.0752,0.044803 0.099,0.081049 0.0114,0.017104 0.01,0.038288 0,0.053357 -0.0669,0.1221852 -0.20087,0.1523247 -0.33047,0.1120031 -0.0217,-0.00613 -0.0416,-0.027286 -0.0402,-0.050504 0.005,-0.066795 0.0418,-0.099378 0.0878,-0.1433649 z m 0.56148,0.2663643 h 0.0358 c 0.0685,0 0.0689,0.102229 0.002,0.1050803 -0.0174,-0.033807 -0.0486,-0.055798 -0.0847,-0.068017 0.006,-0.019551 0.0194,-0.037061 0.0466,-0.037061 z m 1.15971,0.00491 c -4.7e-4,0.017917 -0.002,0.037061 -0.002,0.054985 -6.5e-4,0.085122 0.003,0.1698377 0.004,0.2545532 -0.003,0.040322 -0.005,0.080643 -0.007,0.1209636 -0.009,-0.00407 -0.0174,-0.00937 -0.0268,-0.012623 -0.0189,-0.00733 -0.0396,-0.011809 -0.0616,-0.010589 -0.006,-0.00123 -0.0114,-0.00207 -0.0216,-0.00323 -0.003,0 -0.0113,0.00207 -0.0218,0.00491 -0.0119,0 -0.0242,0.00161 -0.0378,0.00446 l -4.6e-4,8.393e-4 h 0.0147 c -0.0114,0.00245 -0.0229,0.00491 -0.0327,0.00733 -0.0343,0.012216 -0.0594,0.0334 -0.0783,0.061499 -0.0167,-0.011402 -0.0334,-0.021991 -0.0506,-0.031767 0.003,-0.00123 0.006,-0.00161 0.008,-0.00245 0.1738,-0.08105 0.26996,-0.2724741 0.31349,-0.4488285 z m -1.3155,-4.8809078 c 0.002,0.013443 -4.6e-4,0.028106 -0.0139,0.041542 -0.0438,0.04765 -0.0768,0.060686 -0.13709,0.037875 0.003,-0.00692 0.007,-0.015476 0.0114,-0.026879 0,-8.394e-4 0,-8.394e-4 6.4e-4,-0.00245 0.0154,-0.033807 0.0165,-0.069239 0.009,-0.1026358 0.0172,-0.00446 0.0345,-0.00774 0.0513,-0.01507 0.0493,-0.020771 0.0933,0.030953 0.0787,0.067609 z m -0.24351,2.0726751 c 0.0411,-0.038281 0.077,-0.082272 0.10536,-0.1287018 0.035,0.023625 0.0722,0.043989 0.11026,0.063946 -0.0775,0.010996 -0.15095,0.03136 -0.21562,0.064758 z m -0.0676,-0.6850538 c -0.0356,0.037061 -0.0402,0.091232 -0.0721,0.1319605 -0.0411,0.051724 -0.10977,0.048057 -0.16919,0.039508 -0.0269,-0.00368 -0.0477,-0.040322 -0.0378,-0.065166 0.013,-0.03258 0.0295,-0.064353 0.0609,-0.084308 0.0176,-0.010589 0.042,-0.01507 0.0525,-0.032987 0.0139,-0.024845 0.0381,-0.028919 0.0597,-0.023218 0.008,-0.013849 0.0176,-0.027286 0.0299,-0.040728 0.0475,-0.050097 0.12435,0.024845 0.0761,0.074941 z m -0.13686,0.8683293 c -0.0233,0.035434 -0.0394,0.073719 -0.0506,0.1140401 -0.006,-0.045616 -0.0251,-0.089196 -0.0539,-0.1254438 0.0636,-0.019144 0.1243,-0.044803 0.17908,-0.076977 -0.0269,0.026065 -0.0513,0.055391 -0.0746,0.088381 z m -0.15469,-1.4173534 c 0.017,0.00368 0.081,0.026472 0.0915,0.028919 h 10e-4 c 0,0.00161 -10e-4,0.00161 -10e-4,0.00245 -0.009,0.016697 -0.0191,0.032993 -0.0306,0.049283 0.0158,-0.024031 -0.0191,0.00774 -0.0165,0.010182 -0.004,0.00161 -0.006,0.00368 -0.007,0.00446 -0.007,0.00161 -0.0145,0.00446 -0.022,0.00613 -0.007,-0.038695 -0.0241,-0.07494 -0.0482,-0.1050797 0.0114,8.394e-4 0.0268,0.00323 0.0332,0.00368 z m -0.0865,-1.56153186 c -0.0269,0.0276925 -0.0471,0.0635332 -0.0843,0.0798278 -0.0482,0.0219913 -0.0977,0.001614 -0.14365,-0.0187371 -0.0163,-0.007741 -0.0275,-0.0289192 -0.0269,-0.0456161 0.001,-0.0342137 0.009,-0.0651658 0.0387,-0.0867516 0.01,-0.007335 0.0444,-0.0118092 0.0497,-0.0187371 0.0264,-0.0435822 0.0834,-0.0252519 0.0979,0.0101821 0.0477,-0.0346204 0.11421,0.0329869 0.0684,0.0798281 z m 7.54679,3.73887986 c 0.004,-0.00207 0.008,0 0.0117,-0.00123 -0.0269,0.029326 -0.0389,0.069646 -0.0375,0.1091525 -0.0185,-0.00692 -0.0345,-0.020771 -0.042,-0.044803 -0.0136,-0.045209 0.0311,-0.071682 0.0677,-0.063127 z m -0.3962,0.6255902 c -0.005,0.015477 -0.0187,0.034214 -0.0381,0.036247 -0.0364,0.00568 -0.0631,0.014256 -0.10056,0 -0.0309,-0.011402 -0.0521,-0.046023 -0.0314,-0.076976 0.0138,-0.021991 0.0306,-0.031767 0.048,-0.042762 5.7e-4,-0.052951 0.0814,-0.073719 0.10117,-0.021991 0.0172,0.011809 0.0275,0.030546 0.024,0.048877 0.005,0.019551 0.005,0.037061 -0.003,0.056612 z m -4.30819,1.0491669 c -0.0156,-0.100192 -0.0306,-0.1991624 -0.0458,-0.2985395 0.0938,-0.6076699 0.1494,-1.2206349 0.21342,-1.8327844 0.0262,0.00446 0.0524,0.00774 0.0775,0.00692 0.0964,-0.00245 0.18213,-0.026065 0.26339,-0.077384 0.11326,-0.07209 0.19842,-0.158434 0.26265,-0.2667723 0.0464,0.024031 0.0933,0.041949 0.14215,0.055391 0.0645,0.068423 0.15664,0.1046722 0.25255,0.1124105 -0.0271,0.013849 -0.0532,0.029326 -0.0774,0.046836 -0.14149,0.1034507 -0.23411,0.2500735 -0.2451,0.412173 -0.17379,-0.037875 -0.32717,0.036247 -0.39515,0.2016062 -0.0198,0.04765 -0.009,0.099378 0.017,0.14255 -0.005,0.00733 -0.0114,0.013443 -0.0158,0.021178 -6.5e-4,8.394e-4 -6.5e-4,0.00207 -0.001,0.00284 -0.0165,-0.026065 -0.0435,-0.045616 -0.0845,-0.045616 -0.13774,0 -0.13774,0.2085303 0,0.2085303 0.0172,0 0.0321,-0.00323 0.0449,-0.00896 -0.002,0.1755402 0.13184,0.3453778 0.33357,0.3404908 0.13289,-0.00368 0.26713,-0.03258 0.37116,-0.096119 -4.7e-4,0.063533 0.0136,0.1274802 0.0337,0.1893877 -0.49221,0.1551753 -0.87257,0.4740797 -1.14696,0.8858452 z m -2.40481,0.6154088 c 6.4e-4,-0.00323 10e-4,-0.00692 0.002,-0.00978 10e-4,8.394e-4 0.003,0.00245 0.005,0.00368 0.0136,0.010182 0.0315,0.016697 0.0495,0.021991 -0.0136,0.00613 -0.0274,0.011402 -0.0402,0.019551 -0.005,-0.013036 -0.01,-0.024438 -0.0156,-0.035434 z m 1.55269,0.6056334 c 0.005,0.1352186 0.0134,0.2724735 0.0335,0.4166526 10e-4,0.00855 0.0123,0.026472 0.0271,0.047243 10e-4,0.022398 0.002,0.044803 0.003,0.066795 -0.0843,-0.1038581 -0.17798,-0.200792 -0.27545,-0.2948748 0.0966,-0.051317 0.16874,-0.1291092 0.21142,-0.2358179 z m -0.003,-0.2386698 c -0.003,-0.00815 -0.005,-0.015883 -0.008,-0.023212 0.003,-0.00123 0.005,-0.00323 0.008,-0.00407 -2.4e-4,0.00896 -4.6e-4,0.017917 -4.6e-4,0.027286 z m -1.44968,-5.5940647 c 0,-8.394e-4 6.4e-4,-0.00123 6.4e-4,-0.00161 -4.6e-4,8.394e-4 -4.6e-4,8.394e-4 -6.4e-4,0.00207 0,0 0,0 0,-4.042e-4 z m 3.86436,3.2493229 h -0.0785 c -0.0693,0 -0.0693,-0.1054871 0,-0.1054871 h 0.17998 c 0.0382,0 0.0575,0.0334 0.0526,0.067202 -0.003,0.023625 -0.0169,0.039915 -0.0376,0.053351 -0.0125,0.00855 -0.0298,0.00446 -0.0418,0.013036 -0.0327,0.022811 -0.0646,8.394e-4 -0.0746,-0.028106 z m -1.00741,-1.4238695 h 0.0543 c 0.0698,0 0.0698,0.1054871 0,0.1054871 h -0.0543 c -0.0693,0 -0.0693,-0.1054871 0,-0.1054871 z m -0.64771,2.1626851 c 5.9e-4,-0.00651 10e-4,-0.01303 0.002,-0.019551 -4.6e-4,0.00896 -6.4e-4,0.01833 -6.4e-4,0.027693 -4.7e-4,-0.00284 -6.5e-4,-0.00529 -0.001,-0.00815 z m -0.13338,-1.6613171 c 0.001,-0.026879 0.003,-0.053358 0.004,-0.07942 4.6e-4,-0.010182 -0.005,-0.015477 -0.0119,-0.018737 -0.005,-0.2048648 -0.0108,-0.4093216 -0.0165,-0.6137791 0.013,-0.1682087 0.0316,-0.336418 0.0519,-0.5042192 4.6e-4,-0.00284 0.002,-0.00568 0.003,-0.00856 0.0148,0.00446 0.0284,0.00978 0.0438,0.014663 0.0383,0.00978 0.0766,0.01507 0.11506,0.01833 0.006,0.054578 0.0314,0.105487 0.0799,0.1323679 -0.0904,0.3510797 -0.18198,0.7037891 -0.26889,1.059349 z m -0.35222,0.2834711 c -0.0214,-0.036247 -0.0442,-0.072497 -0.0682,-0.1075235 -0.0451,-0.064353 -0.0986,-0.1242222 -0.15529,-0.1816494 -0.0528,-0.074126 -0.11311,-0.1449939 -0.18748,-0.2093445 0.06,-0.033807 0.1142,-0.077791 0.15819,-0.1331827 0.0999,-0.1250365 0.14894,-0.2561822 0.1441,-0.4048415 0.0722,-0.014663 0.1419,-0.041949 0.20396,-0.085123 0.0185,-0.013443 0.036,-0.029326 0.0541,-0.043989 -0.0467,0.3889574 -0.10781,0.7762859 -0.14939,1.1656508 z m -0.42353,-0.4924081 c 0.0361,0.031767 0.0656,0.067609 0.0955,0.1030432 -0.0374,-0.032173 -0.0768,-0.063533 -0.11656,-0.094083 0.007,-0.00323 0.0145,-0.00568 0.0211,-0.00896 z m -0.79275,-1.019028 c 0.0136,-0.046836 0.0348,-0.090011 0.0819,-0.1120038 0.0356,-0.017917 0.0788,-0.019144 0.11815,-0.030139 0.0355,-0.011402 0.0607,0.014256 0.0649,0.042355 0.0152,0.00161 0.03,0.00491 0.0447,0.00978 0.0398,0.015883 0.0597,0.074533 0.0128,0.096934 -0.0403,0.019551 -0.0834,0.044802 -0.12895,0.052538 -0.0471,0.00774 -0.0933,0.00692 -0.14169,0.00692 -0.0348,0 -0.0609,-0.0334 -0.0517,-0.066388 z m 5.99859,-0.4463853 c -0.009,0.021585 -0.0271,0.038288 -0.0533,0.038288 h -0.13485 c -0.0281,0 -0.055,-0.024032 -0.0539,-0.052538 0.001,-0.038288 0.009,-0.084715 0.0411,-0.1091518 0.013,-0.011402 0.026,-0.019144 0.0423,-0.025659 0.002,-0.00123 0.004,-0.00161 0.006,-0.00245 0.0125,-0.019551 0.0352,-0.024032 0.0566,-0.017924 0.017,-0.00651 0.0374,-0.00613 0.0546,0.011809 0.0414,0.042355 0.0622,0.1018216 0.0414,0.1576198 z m -2.79028,-1.32408424 c 0.0143,0.0244383 0.035,0.0460228 0.0544,0.0676093 -0.0112,0.008555 -0.0231,0.0162901 -0.0361,0.0240316 -0.003,-0.0313598 -0.009,-0.0619061 -0.0183,-0.0916389 z m 2.0673,0.37592414 c 0.0563,-0.0244383 0.10956,-0.0545779 0.15819,-0.0908247 0.0121,0.005294 0.0236,0.0118092 0.0355,0.0166968 -0.022,0.0334001 -0.0389,0.0708679 -0.0517,0.11037409 -0.0451,-0.015883 -0.0933,-0.0272857 -0.1419,-0.0362475 z m -1.13506,0.4252056 c -0.0328,-0.083086 0.007,-0.1466222 0.10251,-0.1502883 0.0689,-0.00407 0.0689,0.1018217 0,0.1046729 -0.005,4.036e-4 -0.007,0 -0.009,-0.00161 10e-4,8.393e-4 10e-4,8.393e-4 10e-4,0.00161 0.013,0.029326 -0.003,0.056612 -0.0244,0.070867 -0.0222,-0.011809 -0.0455,-0.020364 -0.0704,-0.025252 z m -0.40134,1.0617935 c 0.004,0.018737 0.004,0.037061 -0.002,0.056205 -0.0281,0.093676 -0.16719,0.216676 -0.27215,0.1441791 -0.0596,-0.041135 -0.0788,-0.1172982 -0.0578,-0.1836852 6.5e-4,-0.00651 0.004,-0.011809 0.007,-0.018737 0.004,-0.00733 0.006,-0.01629 0.0101,-0.024031 0.0708,-0.1050797 0.20502,-0.1067087 0.31837,-0.076977 0.0589,0.015477 0.0449,0.093675 -0.005,0.1030433 z m -0.69108,-4.0687814 c 6.5e-4,0.00161 0.002,0.00284 0.003,0.00445 -0.003,8.394e-4 -0.007,0.00123 -0.0103,0.00245 -0.003,-0.00368 -0.007,-0.00529 -0.0105,-0.00896 0.005,0.00123 0.009,0.00284 0.0141,0.00284 0.001,0 0.003,-4.042e-4 0.004,-8.394e-4 z m -4.92551,3.0073954 c 0.0332,-0.026879 0.10209,-0.04969 0.11948,-0.051724 0.0218,-0.00323 0.0387,-0.013443 0.0504,-0.025659 0.0418,0.050504 0.0922,0.09449 0.14388,0.1287019 -0.11134,-0.021178 -0.21388,-0.040728 -0.31374,-0.051317 z m 4.78272,1.376625 c -0.0818,0.013849 -0.20088,0.00123 -0.20352,-0.1038581 -0.001,-0.039915 0.0353,-0.055391 0.0662,-0.048063 0.0218,-0.00651 0.046,-8.394e-4 0.0592,0.019144 6.5e-4,0 0.004,0.00207 0.0136,0.00446 0.0117,0.00284 0.0244,0.00651 0.0361,0.010996 0.0202,0.00774 0.0346,0.015883 0.0517,0.028512 0.0314,0.024032 0.0147,0.082679 -0.0233,0.088788 z m 1.6717,1.3159391 c -0.008,-0.019957 -0.0183,-0.039508 -0.0286,-0.058245 -0.007,-0.010996 -0.0154,-0.021585 -0.024,-0.031767 0.002,-0.013443 0.009,-0.023625 0.018,-0.030953 6.5e-4,-8.393e-4 10e-4,-0.00123 0.002,-0.00207 0.0317,-0.021991 0.0871,-0.00896 0.0856,0.039915 -6.5e-4,0.039915 -0.0147,0.069238 -0.053,0.083086 z m -4.1612,6.4355161 c 0.006,0.01426 0.0121,0.02729 0.0203,0.04073 0.0231,0.0387 0.0598,0.07413 0.10117,0.103451 -0.042,-0.0224 -0.0851,-0.04317 -0.12915,-0.06231 0.006,-0.02566 0.009,-0.05294 0.008,-0.08186 z m 0.5166,1.813642 c -0.005,0.03951 -0.009,0.07861 -0.0141,0.118113 0.004,-0.0444 0.007,-0.0892 0.009,-0.134405 10e-4,0.0053 0.003,0.011 0.005,0.01629 z m -0.59471,-2.029503 c 0.004,0 0.008,0 0.0123,8.39e-4 0.0205,0.0016 0.0402,-0.0037 0.0588,-0.01059 -0.0128,0.03787 -0.0176,0.07698 -0.0163,0.115262 -0.0136,-0.03829 -0.0321,-0.07494 -0.0548,-0.105487 z m -0.60812,-0.2504809 c 0.0264,-0.02403 0.0405,-0.05499 0.0495,-0.087566 0.005,-0.00245 0.0101,-0.00692 0.0154,-0.010182 0.0134,0.00245 0.0262,0.00733 0.0396,0.00774 0.0198,8.393e-4 0.0376,-0.00368 0.0557,-0.00733 -0.001,0.00491 -0.003,0.010182 -0.007,0.015477 -0.0132,0.018331 -0.0101,0.046023 -0.0194,0.067203 -0.0116,0.02606 -0.0292,0.04317 -0.0537,0.05702 -0.0161,0.0098 -0.0394,0.011 -0.0546,0 -0.0163,-0.01059 -0.0367,-0.01221 -0.0566,-0.01751 0.0106,-0.0086 0.0216,-0.01588 0.0315,-0.02484 z m 0.0887,-0.6630607 c 0.005,0.011809 0.0119,0.022398 0.0194,0.032587 -0.0114,-0.00368 -0.0231,-0.00568 -0.0348,-0.00774 0.003,-0.00692 0.007,-0.013849 0.011,-0.021178 0.001,-0.00123 0.003,-0.00207 0.005,-0.00368 z m 0.14716,0.1242222 c -0.003,-0.00896 -0.005,-0.01751 -0.009,-0.024845 -2.3e-4,-4.041e-4 -4.6e-4,-8.393e-4 -5.7e-4,-8.393e-4 0.008,8.393e-4 0.0158,0.00284 0.0246,0.00284 0.0106,0 0.0197,-0.00207 0.0295,-0.00368 -0.0134,0.010589 -0.0284,0.018737 -0.0442,0.026472 z m -0.35947,9.2323414 0.0132,0.01874 c 0.004,0.0053 0.007,0.0093 0.0105,0.01506 l 0.008,0.01629 c 0.005,0.01099 0.0116,0.02159 0.0154,0.03339 l 0.0121,0.03462 c 0.002,0.0061 0.003,0.01303 0.005,0.01916 -0.0123,0.01018 -0.0247,0.01914 -0.0372,0.02849 -0.004,-0.0041 -0.008,-0.0077 -0.0121,-0.01138 -0.008,-0.0049 -0.015,-0.01182 -0.0227,-0.01629 -0.0152,-0.0094 -0.0303,-0.01955 -0.0471,-0.02649 -0.0165,-0.0081 -0.0336,-0.01506 -0.0502,-0.02036 -0.0178,-0.0057 -0.0354,-0.0098 -0.0532,-0.01343 -0.0112,-0.002 -0.0229,-8.39e-4 -0.0344,-0.0025 0.0669,-0.01914 0.1305,-0.04561 0.19212,-0.07535 z m 0.37926,-0.186126 c -0.0468,0.05783 -0.0973,0.11485 -0.14959,0.169439 0,-0.0033 0,-0.0065 2.2e-4,-0.009 l 0.002,-0.03748 -0.0198,0.03013 -0.0194,0.02853 c -0.007,0.0094 -0.01,0.01995 -0.0152,0.02973 -0.003,0.0057 -0.005,0.0114 -0.007,0.0175 -0.0185,0.01792 -0.0372,0.03462 -0.0563,0.05132 -0.003,-0.0045 -0.005,-0.0098 -0.008,-0.01467 -0.006,-0.01099 -0.0116,-0.02199 -0.0205,-0.03055 -0.008,-0.01018 -0.0143,-0.02078 -0.0238,-0.02851 l -0.0139,-0.01303 c -0.004,-0.0045 -0.009,-0.0077 -0.0143,-0.0118 -0.003,-0.0028 -0.007,-0.0049 -0.0106,-0.0069 0.0522,-0.02647 0.10271,-0.05538 0.15115,-0.08838 0.0704,-0.02321 0.13948,-0.0505 0.20457,-0.08634 z m -0.29984,0.311988 c -10e-4,-0.0041 -0.002,-0.0081 -0.003,-0.01264 l -0.0126,-0.03585 c -0.004,-0.01262 -0.011,-0.02321 -0.0167,-0.03502 l -0.009,-0.0171 c -6.5e-4,-0.0025 -0.003,-0.0045 -0.005,-0.0069 6.4e-4,8.39e-4 0.002,0.0012 0.003,0.002 l 0.0123,0.01303 c 0.009,0.0065 0.0156,0.0167 0.0229,0.02525 0.008,0.0094 0.0136,0.01916 0.0189,0.02934 0.003,0.0069 0.006,0.01303 0.01,0.01956 -0.007,0.0057 -0.0136,0.01262 -0.0209,0.01833 z M 339.47831,4.2014295 c -0.027,0.071275 -0.092,0.1368482 -0.17602,0.1356266 -0.0666,-0.00161 -0.13506,-0.041135 -0.14695,-0.1095599 -0.0101,-0.056612 0.0176,-0.1038581 0.0577,-0.1421427 -0.007,-0.024845 0.002,-0.053764 0.036,-0.061499 0.0631,-0.013443 0.13049,-0.011402 0.18439,0.026879 0.0256,0.019144 0.0645,0.041135 0.0645,0.076569 0,0.024845 -0.0106,0.051317 -0.0196,0.074126 z m -0.41297,0.4362032 c -0.0325,0.00245 -0.0541,0.010996 -0.0873,-0.00207 -0.0303,-0.011809 -0.0522,-0.045616 -0.0314,-0.077385 0.0312,-0.048877 0.0665,-0.046429 0.11882,-0.043989 0.0372,0.00245 0.0537,0.0334 0.0511,0.061499 0.002,0.028513 -0.015,0.059059 -0.0511,0.061906 z m -0.19645,-0.5253983 c -0.0262,0.028106 -0.0411,0.066387 -0.0713,0.091639 -0.037,0.0334 -0.079,0.045209 -0.12873,0.04643 -0.042,0.00161 -0.0666,-0.045209 -0.0469,-0.079421 0.0207,-0.035434 0.051,-0.067202 0.0794,-0.096527 0.002,-8.393e-4 0.002,-0.00207 0.002,-0.00207 2.3e-4,-8.394e-4 6.4e-4,-0.00123 0.002,-0.00207 0.022,-0.019551 0.0471,-0.017104 0.0655,-0.00568 0.006,-0.00856 0.0134,-0.01833 0.0218,-0.027286 0.048,-0.049283 0.1243,0.025252 0.0761,0.074941 z m -0.61737,0.2985402 c -0.001,-0.00207 -0.005,-0.00407 -0.008,-0.00651 -0.024,0.00245 -0.0491,-0.00692 -0.0589,-0.034214 -0.0163,-0.037061 0.007,-0.08105 0.0512,-0.08105 0.0352,0 0.068,0.026065 0.0922,0.04765 0.0519,0.045616 -0.0251,0.1201487 -0.0768,0.074126 z m 11.08774,-1.8230097 c 0.0418,0.040728 0.0874,0.064353 0.13575,0.079828 0.0389,0.029326 0.0825,0.054578 0.13244,0.074533 0.17713,0.070461 0.40705,-0.012623 0.49221,-0.1804272 0.0101,-0.019551 0.0169,-0.039101 0.0242,-0.058652 0.0422,-0.039101 0.0812,-0.083086 0.11966,-0.1348111 0.0861,-0.119742 0.0467,-0.3013915 -0.0537,-0.3991396 -0.06,-0.059466 -0.13555,-0.087974 -0.21317,-0.092454 -0.0333,-0.044802 -0.0795,-0.079013 -0.13225,-0.1010062 0.0365,-0.058652 0.0431,-0.1311463 0.0231,-0.1971266 -0.001,-0.014256 -0.004,-0.028099 -0.008,-0.041949 -0.0156,-0.053764 -0.0437,-0.1010068 -0.0843,-0.1413284 -0.006,-0.00446 -0.0112,-0.00774 -0.0167,-0.012216 -0.007,-0.054578 -0.0227,-0.1083377 -0.0455,-0.1620994 0.0821,-0.024032 0.15444,-0.061906 0.22372,-0.1164834 0.0832,-0.064759 0.1215,-0.18205681 0.125,-0.28265624 0.005,-0.11526176 -0.0513,-0.19794079 -0.12039,-0.28469266 -0.006,-0.007735 -0.013,-0.0154765 -0.0213,-0.022398 -0.044,-0.0537643 -0.0953,-0.10345065 -0.15819,-0.13196053 -0.0794,-0.035434 -0.15754,-0.0443958 -0.23321,-0.037061 -0.0737,-0.0427622 -0.15998,-0.0386946 -0.23521,8.3936e-4 0,-8.3936e-4 0,-0.001227 0,-0.002066 0.007,-0.004455 0.0134,-0.008555 0.0196,-0.0109956 -0.0128,0.002454 -0.0238,0.006515 -0.0359,0.008962 -0.0324,0.009369 -0.0654,0.0171036 -0.0983,0.0256586 -0.0264,0.006515 -0.0541,0.0130359 -0.0817,0.0203642 -0.003,8.3936e-4 -0.006,0.002841 -0.01,0.004068 -0.0134,-0.007741 -0.0268,-0.0166968 -0.0403,-0.0236248 -0.0323,-0.014663 -0.0658,-0.0289192 -0.0994,-0.0415419 -0.007,-0.003228 -0.0143,-0.005682 -0.0205,-0.008148 0.0691,0.029326 0.0544,0.023218 -0.042,-0.0162901 -0.0344,-0.0142562 -0.0689,-0.0256586 -0.10585,-0.0342137 -0.0132,-0.00368 -0.026,-0.002841 -0.0387,-0.004455 0.0858,-0.0264722 0.15358,-0.10793025 0.15358,-0.19916238 0,-0.0818642 -0.0533,-0.15395373 -0.12389,-0.18857287 0.006,-0.0248451 0.0105,-0.0509105 0.01,-0.079421 0,-0.0313598 -0.006,-0.0631264 -0.013,-0.0936753 0.007,-0.0126292 0.013,-0.0252519 0.0192,-0.0407284 -0.0356,0.0871593 0.01,-0.0191439 0.0218,-0.0496902 0.0374,-0.0948976 -0.0418,-0.19956979 -0.13224,-0.22563648 -0.0236,-0.007328 -0.0475,-0.0150698 -0.0711,-0.022398 -0.0183,-0.005682 -0.0374,-0.008148 -0.0566,-0.008962 -0.0253,-0.007335 -0.0532,-0.0105889 -0.0843,-0.008142 -0.0352,0.002841 -0.0702,0.007328 -0.10448,0.0134427 0.12672,-0.14214263 0.12032,-0.3747026 -0.0412,-0.4883353 -0.0176,-0.015477 -0.0374,-0.03136 -0.0616,-0.047243 0.0227,0.01629 0.0451,0.0334 0.0682,0.05091 -0.0143,-0.011402 -0.0264,-0.023218 -0.0389,-0.035841 -0.10936,-0.1063013 -0.29199,-0.1063013 -0.4,0 -0.022,0.021584 -0.042,0.044396 -0.0607,0.068424 -0.005,8.393e-4 -0.009,8.393e-4 -0.0141,0.00161 h -4.6e-4 c -0.006,-0.099785 -0.0352,-0.1983482 -0.0889,-0.279805 -0.1432,-0.216676 -0.37051,-0.3123883 -0.62176,-0.3425272 -0.19163,-0.023625 -0.40154,0.040322 -0.5232,0.1877587 -0.006,-0.00368 -0.0139,-0.00491 -0.0194,-0.00896 0.006,-0.00733 0.0123,-0.014663 0.0189,-0.022811 0.0475,-0.061906 0.0572,-0.1490661 0.0424,-0.2293013 0.0126,-0.052538 0.013,-0.1083383 -0.001,-0.1608778 -0.0367,-0.1278877 -0.17294,-0.2472223 -0.31618,-0.2337821 -0.0616,0.00568 -0.11706,0.00651 -0.17884,0.01507 -6.4e-4,0 -10e-4,0 -10e-4,0 -0.0154,-0.020364 -0.0332,-0.040322 -0.0508,-0.059059 0.009,-0.00733 0.0196,-0.01507 0.032,-0.024032 0.0484,-0.037875 0.0968,-0.1274803 0.10532,-0.186129 0.003,-0.021991 0.0154,-0.07657 0.0123,-0.1103748 -0.006,-0.082678 -0.013,-0.097341 -0.0475,-0.1722815 -0.0321,-0.069646 -0.1166,-0.1221852 -0.18857,-0.1417352 -0.0519,-0.013849 -0.10361,-0.012216 -0.1533,-0.00123 -0.0172,-0.00284 -0.0339,-0.00284 -0.0508,-0.00323 -0.006,-0.145808 -0.0986,-0.2887655 -0.25631,-0.3217556 -0.10585,-0.022811 -0.2051,-0.013036 -0.30077,0.027286 -0.0597,-0.053764 -0.14634,-0.078606 -0.2282,-0.060686 -0.10073,0.023625 -0.18015,0.097341 -0.20764,0.1950895 -0.0258,0.090825 0.006,0.1877587 0.071,0.2533316 -0.0172,0.00529 -0.0339,0.010996 -0.0506,0.016697 -0.02,-0.072497 -0.0722,-0.1380698 -0.15139,-0.158434 -0.24839,-0.064353 -0.54275,0.014663 -0.61736,0.283063 -0.0101,0.035434 -0.0118,0.07046 -0.0114,0.1038581 -0.15269,-0.133997 -0.33707,-0.2354112 -0.55199,-0.2240075 -0.0247,8.394e-4 -0.0502,0.00491 -0.0757,0.00896 -0.009,-0.067609 -0.0464,-0.1319605 -0.11287,-0.1682087 -0.0282,-0.015883 -0.0563,-0.032173 -0.0872,-0.044396 -0.0273,-0.011809 -0.0544,-0.023625 -0.0827,-0.033807 -0.003,-0.00161 -0.004,-0.00161 -0.006,-0.00207 -0.068,-0.024032 -0.1406,-0.029326 -0.21118,-0.00774 -0.1107,0.032993 -0.19163,0.1164833 -0.22596,0.2154537 -0.003,-0.00284 -0.008,-0.00613 -0.01,-0.00613 -0.0592,-0.026879 -0.11131,-0.035027 -0.16634,-0.035027 -6.4e-4,-4.042e-4 -10e-4,-8.393e-4 -0.002,-0.00123 -0.0583,-0.037468 -0.13115,-0.034214 -0.19143,-0.00207 -0.0513,0.027286 -0.0817,0.083901 -0.0823,0.1392914 v 0.00651 c 0,0.00161 4.6e-4,0.00284 4.6e-4,0.00407 -0.0594,0.1099673 -0.0515,0.2586266 0.0167,0.3681865 0.0174,0.027693 0.0376,0.052944 0.0598,0.075755 -0.002,0.00123 -0.004,0.00161 -0.006,0.00245 -0.011,-0.00123 -0.0216,-0.00284 -0.0335,-0.00284 -0.11722,0 -0.23231,0.038695 -0.33307,0.093675 -0.0442,0.023625 -0.0841,0.053351 -0.12056,0.086344 -0.008,-0.00613 -0.0172,-0.012629 -0.026,-0.017924 -0.0777,-0.044803 -0.15399,-0.045209 -0.23891,-0.030953 -0.0682,0.011402 -0.13335,0.03258 -0.19762,0.057019 -4.6e-4,4.042e-4 -6.4e-4,4.042e-4 -10e-4,4.042e-4 -0.0303,0.011809 -0.0607,0.022811 -0.0904,0.035841 -0.11198,0.050097 -0.17889,0.1893877 -0.17889,0.304242 0,0.069238 0.0211,0.1327747 0.0575,0.1877587 -0.003,0.019551 -0.007,0.038695 -0.007,0.059465 0,0.00245 10e-4,0.00446 10e-4,0.00692 -0.005,-4.041e-4 -0.01,-0.00123 -0.0154,-0.00123 -0.17712,0.00245 -0.34102,0.046836 -0.5056,0.1063019 -0.1254,0.04643 -0.22483,0.1242216 -0.26161,0.2553679 -0.044,0.15721176 0.0271,0.3319371 0.17208,0.41380195 0.007,0.003228 0.0154,0.006515 0.022,0.009775 -0.0138,0.0635397 0.003,0.13318277 0.0519,0.18205684 0.0211,0.0199574 0.0467,0.0317666 0.0718,0.0443958 -0.003,0.001227 -0.005,0.002454 -0.007,0.004068 -0.0147,-0.008148 -0.0316,-0.0130359 -0.0519,-0.0138495 -0.0249,-0.0130359 -0.0488,-0.0276989 -0.0783,-0.0346204 -0.15138,-0.0378746 -0.28581,0.0488767 -0.38393,0.15436179 -0.0546,0.0586455 -0.0799,0.13521853 -0.0577,0.21382473 0.0238,0.08593705 0.12014,0.17391051 0.21804,0.161692 0.042,-0.004907 0.0854,-0.0150698 0.12826,-0.0272857 0.001,0.009369 -2.3e-4,0.0187371 0.001,0.0285125 -0.0308,0.004068 -0.0613,0.0109956 -0.0908,0.022398 -0.22378,0.084308 -0.32893,0.26921581 -0.35335,0.49281522 -0.0196,0.16983833 0.0794,0.34619269 0.22134,0.44882847 -0.0755,0.060279 -0.13707,0.1445865 -0.17095,0.2402989 -0.14061,-0.034214 -0.28582,-0.050911 -0.42884,-0.059059 -0.31287,-0.01833 -0.55379,0.096527 -0.73395,0.341305 -0.12653,0.1698383 -0.0825,0.3901797 0.031,0.5526865 -0.16283,-0.00733 -0.3285,0.093269 -0.37405,0.2614773 -0.0352,0.1327753 0.0205,0.2793975 0.1448,0.3466 0.0283,0.015477 0.0585,0.027693 0.0893,0.037468 0.0875,0.028106 0.21755,0.00123 0.27717,-0.071683 0.005,-0.00529 0.009,-0.00896 0.0137,-0.013036 0.0526,-0.043169 0.0777,-0.1030433 0.0863,-0.1661729 0.0178,-0.028099 0.0325,-0.057832 0.0433,-0.092454 0.007,-0.022811 0.008,-0.046023 0.007,-0.070053 0.0194,0.010589 0.0386,0.021991 0.0594,0.03014 -0.0537,0.123 -0.0453,0.2973179 0.0698,0.3844772 0.0636,0.04765 0.10934,0.077384 0.18567,0.1054871 0.0606,0.021178 0.15074,0.01507 0.21012,-0.00123 0.0387,-0.010182 0.0807,-0.03136 0.11773,-0.055798 0.0889,-0.021585 0.16503,-0.076569 0.21164,-0.1519174 0.0216,0.01833 0.0451,0.036247 0.07,0.051317 -0.0361,0.038288 -0.0618,0.081457 -0.0823,0.1254439 -0.0387,0.021584 -0.0759,0.045616 -0.10977,0.074126 -0.0325,0.019551 -0.0644,0.041949 -0.0946,0.069239 -0.0706,0.06272 -0.11465,0.1417352 -0.1371,0.2256359 -0.0294,0.00207 -0.0583,0.00692 -0.0908,0.012623 -0.0611,0.012216 -0.11574,0.037468 -0.16589,0.070868 -0.24378,-0.057832 -0.52323,-0.015477 -0.72364,0.1132253 -0.04,-0.028106 -0.0849,-0.050911 -0.13619,-0.070053 -0.14477,-0.052131 -0.31509,-0.00161 -0.44862,0.071275 -0.20419,0.068017 -0.38194,0.2146396 -0.46048,0.4081001 -0.0775,0.1902019 -0.0148,0.360855 0.11331,0.4810038 -0.003,0.00651 -0.007,0.012629 -0.0112,0.019144 -0.037,-0.00407 -0.0744,-0.00161 -0.10914,0.011402 -0.005,0.00161 -0.0103,0.00491 -0.0156,0.00613 -0.0464,-0.00692 -0.0937,-0.010182 -0.1386,-0.00529 -0.0862,0.010589 -0.10692,0.015883 -0.18659,0.050097 -0.0609,0.026879 -0.0992,0.079828 -0.13749,0.1303309 -0.0409,0.054578 -0.0704,0.1543612 -0.0618,0.2219711 0.0125,0.089195 0.0114,0.107116 0.0546,0.1893877 0.0295,0.055798 0.0854,0.1079302 0.14011,0.1401062 0.10498,0.064353 0.22024,0.066794 0.33773,0.048057 0.0768,-0.013029 0.17363,-0.06272 0.23014,-0.121371 0.0198,0.014256 0.0416,0.025659 0.0625,0.037875 -0.0205,0.027692 -0.0395,0.059059 -0.0561,0.092861 -0.0717,0.1494735 -0.0581,0.3747026 0.12209,0.4541229 0.15818,0.069646 0.28644,0.082272 0.45455,0.058239 0.0314,0.035841 0.0686,0.067202 0.11267,0.090825 0.15886,0.087974 0.36146,0.067202 0.508,-0.034214 0.18282,-0.1250365 0.30955,-0.3364174 0.31047,-0.541689 0.11683,-0.03462 0.22747,-0.096934 0.31966,-0.1804278 0.0378,-0.033807 0.07,-0.074533 0.0992,-0.1172982 0.0818,0.053351 0.18635,0.076162 0.30495,0.053351 0.21275,-0.039508 0.48687,-0.1678013 0.57994,-0.3718513 0.0383,-0.083494 0.0533,-0.1673945 0.0498,-0.2484445 0.0657,0.041135 0.1386,0.07046 0.21667,0.082679 0.1679,0.026472 0.32432,-8.394e-4 0.46667,-0.066794 0.0119,-0.00207 0.0242,-0.00446 0.0369,-0.00651 0.0781,-0.01629 0.14104,-0.068017 0.18462,-0.1327753 0.001,0.00284 0.003,0.00446 0.005,0.00692 0.12036,0.1563975 0.29394,0.2569969 0.49971,0.2586259 0.16939,0.00161 0.35616,-0.073311 0.46462,-0.2016062 0.12675,-0.1482519 0.20332,-0.342934 0.18943,-0.5380235 -0.008,-0.1107822 -0.0303,-0.1836859 -0.0759,-0.2830637 -0.0147,-0.03258 -0.0345,-0.058239 -0.0577,-0.084308 0.002,-0.00407 0.004,-0.00856 0.006,-0.012629 0.66905,0.3926236 0.74496,1.1346972 0.7925,1.8979498 0.005,0.080643 0.007,0.158434 0.008,0.2358186 -0.009,0.1136327 -0.0185,0.2260432 -0.0253,0.3356031 -0.028,-0.1164839 -0.1142,-0.2032352 -0.2451,-0.2561827 -0.143,-0.057832 -0.29809,-0.074126 -0.44973,-0.050097 -0.0241,-0.082679 -0.0682,-0.1621001 -0.1344,-0.2325599 -0.18462,-0.1954976 -0.47677,-0.2248217 -0.72957,-0.1914241 -0.20373,0.026472 -0.34652,0.1979401 -0.36766,0.386921 -0.003,0.026065 -10e-4,0.04969 0.003,0.071275 -0.006,0.01507 -0.013,0.029326 -0.0176,0.044803 -0.0116,0.039101 -0.018,0.079014 -0.0218,0.1177055 -0.0289,0.00284 -0.0588,0.00733 -0.0885,0.017104 -0.0858,0.027286 -0.14259,0.063127 -0.21187,0.1193346 -0.0608,0.049283 -0.0911,0.114447 -0.11948,0.1824636 -0.0105,-0.010996 -0.0205,-0.021178 -0.0334,-0.029733 -0.13309,-0.088381 -0.26047,-0.1429575 -0.4255,-0.1193346 -0.18965,0.027286 -0.34169,0.2105661 -0.38875,0.3836624 -0.0308,0.1132253 -10e-4,0.2464081 0.0889,0.32705 0.0882,0.080643 0.1879,0.1401063 0.29834,0.1641365 10e-4,0.00161 0.003,0.00284 0.004,0.00407 -0.0247,0.04969 -0.044,0.1050796 -0.0555,0.1612852 -0.02,0 -0.0407,4.042e-4 -0.0594,0.00613 -0.0629,0.01629 -0.12847,0.01833 -0.19009,0.035841 -0.1254,0.037061 -0.20746,0.1172981 -0.28515,0.2166759 -0.0544,0.069238 -0.0586,0.1625069 -0.0312,0.2464075 -0.005,0.00368 -0.011,0.00568 -0.016,0.00978 -0.0856,-0.031767 -0.18572,-0.03014 -0.26208,0.021584 -5.8e-4,4.036e-4 -0.001,4.036e-4 -0.004,0.00161 -0.0675,0.045209 -0.11835,0.099377 -0.14078,0.1796123 -0.0284,0.1014143 0,0.2178976 0.0794,0.2912094 4.6e-4,4.042e-4 10e-4,8.393e-4 0.003,0.00245 0.0959,0.089196 0.22945,0.1042655 0.33992,0.060279 0.0286,0.00978 0.0586,0.01751 0.0858,0.021178 0.11726,0.013443 0.24485,-0.020771 0.3199,-0.1120037 0.0385,0.084715 0.0902,0.1384772 0.1846,0.1714673 10e-4,0.00123 0.005,0.00123 0.009,0.00161 -0.0283,0.027693 -0.0495,0.069238 -0.0453,0.1050797 0.0112,0.1311457 0.13355,0.1783908 0.25281,0.1502883 0.0691,-0.01629 0.12321,-0.074126 0.15817,-0.1344044 0.0103,-0.00855 0.0187,-0.01833 0.0269,-0.028512 0.0103,0.014256 0.0231,0.026879 0.0361,0.039915 0.12012,0.1099674 0.29681,0.1437723 0.4528,0.089603 0.077,-0.027286 0.14128,-0.068017 0.19427,-0.119742 0.17008,0.077791 0.37605,0.083901 0.54544,-0.014663 0.0994,-0.058245 0.16588,-0.1376624 0.20702,-0.2268581 0.0968,0.019551 0.20067,0.00774 0.28424,-0.045616 0.0742,-0.046836 0.13844,-0.1225932 0.15689,-0.2093451 0.0152,-0.064758 0.001,-0.121371 -0.007,-0.1849075 -0.0103,-0.068017 -0.083,-0.1258512 -0.14674,-0.1433642 -0.0493,-0.013443 -0.0979,-0.016697 -0.1461,-0.014256 -0.003,-0.00161 -0.006,-0.00368 -0.009,-0.00491 -0.0508,-0.03462 -0.12475,-0.04969 -0.17819,-0.03014 -0.0101,0.00368 -0.0194,0.00692 -0.0289,0.010996 -0.011,-0.01385 -0.0242,-0.026472 -0.0365,-0.039508 0.0194,-0.042355 0.0339,-0.085937 0.0427,-0.1303316 0.0271,-0.00896 0.0519,-0.022805 0.0761,-0.037061 0.0194,0.011809 0.0387,0.022805 0.0581,0.03462 0.072,0.092454 0.17033,0.1580266 0.28164,0.1914242 0.1166,0.08553 0.22841,0.1759469 0.32672,0.2773611 0.29769,0.3066859 0.37011,0.7502199 0.43588,1.153025 0.016,0.099378 0.0273,0.1987549 0.0345,0.2973186 -0.0504,-0.1185205 -0.20438,-0.1437723 -0.28555,-0.059059 -0.0284,-0.00245 -0.0574,-0.00323 -0.0862,-4.042e-4 0.001,-0.00323 0.003,-0.00568 0.004,-0.00855 0.0468,-0.056612 0.0671,-0.1291093 0.0468,-0.1999772 -0.0185,-0.067202 -0.083,-0.1445865 -0.15774,-0.1543612 -0.0156,-0.00207 -0.0308,-0.00446 -0.0464,-0.00568 -0.0779,-0.03014 -0.15489,-0.032173 -0.23322,-0.00323 -0.0255,-0.037468 -0.0618,-0.06598 -0.10671,-0.085937 h -6.4e-4 v 0 c 0.005,0.00123 0.004,0 -0.003,-0.00323 -0.0277,-0.025252 -0.0588,-0.047243 -0.0904,-0.068017 -0.0803,-0.052131 -0.17358,-0.050097 -0.25414,-0.01507 -0.0286,-0.022398 -0.0607,-0.041542 -0.0968,-0.054578 0.0392,0.01507 -0.0205,-0.01507 -0.0226,-0.017104 -0.0361,-0.017924 -0.0746,-0.031767 -0.1127,-0.046836 0.0892,0.03462 -0.0314,-0.012623 -0.0625,-0.024845 -0.0268,-0.010589 -0.0541,-0.019144 -0.0814,-0.028919 -0.1065,-0.035841 -0.23541,0.00529 -0.31243,0.080643 -0.0259,0.025659 -0.0466,0.054578 -0.0616,0.084715 -0.031,0.03014 -0.0559,0.067203 -0.0699,0.1144476 -0.005,0.019958 -0.007,0.041542 -0.008,0.06272 -0.006,0.00207 -0.0125,0.00207 -0.0185,0.00529 -0.0488,-0.041135 -0.12141,-0.050504 -0.17929,-0.01751 -0.0394,0.022398 -0.0753,0.049283 -0.10846,0.07942 -0.013,0.00491 -0.0238,0.011402 -0.0344,0.01833 -0.0488,-0.014663 -0.10074,-0.021991 -0.15024,-0.026879 -0.11575,-0.010589 -0.21322,0.045209 -0.29966,0.1124105 -0.0354,0.027692 -0.0597,0.065165 -0.0753,0.1063012 -0.0396,0.027699 -0.0713,0.064353 -0.0873,0.1120037 -0.005,0.013443 -0.003,0.028106 -0.003,0.041949 -0.0444,-0.00368 -0.0896,-0.00284 -0.13531,0.010182 -0.12959,0.037881 -0.22003,0.1498809 -0.22003,0.2834705 0,0.00323 0.001,0.00568 0.001,0.00896 -0.009,0.039101 -0.001,0.080643 0.0266,0.1107815 -0.0682,0.048877 -0.10317,0.1221858 -0.10232,0.2020136 -4.6e-4,0.00123 -10e-4,0.00207 -0.002,0.00284 -0.0272,0.00161 -0.053,0.00161 -0.0783,0.00245 -0.0121,-0.00284 -0.0233,-0.00407 -0.0352,-0.00407 0.011,0 0.022,0.00123 0.0333,0.00446 h -10e-4 c -0.011,-0.00161 -0.022,-0.00323 -0.0328,-0.00446 -0.0394,-0.00245 -0.0801,0.00284 -0.11725,0.015477 -0.004,-0.00774 -0.0116,-0.014256 -0.0167,-0.021991 6.5e-4,-0.00245 0.002,-0.00568 0.002,-0.00896 0.006,-0.04765 -0.046,-0.087566 -0.0902,-0.087566 -0.006,0 -0.009,0.00368 -0.0141,0.00446 -0.0396,-0.022805 -0.083,-0.038281 -0.13137,-0.032173 -0.0917,0.011809 -0.1714,0.04969 -0.19975,0.1445864 -0.0387,0.1352186 0.0609,0.2525167 0.1892,0.2879497 0.0284,0.0073 0.0561,0.0086 0.0819,0.0041 0.004,0.04969 0.0171,0.09734 0.0433,0.1494737 0.0196,0.03828 0.0524,0.06883 0.0889,0.09571 0.0139,0.04969 0.0539,0.09123 0.1219,0.09123 0.0244,0 0.0444,-0.0065 0.0618,-0.01548 0.0183,0.0028 0.0365,0.0077 0.0539,0.0077 0.0979,0.0037 0.18744,-0.02036 0.2746,-0.06272 0.0325,-0.0167 0.0598,-0.04073 0.0836,-0.06802 10e-4,0.160471 0.0794,0.321755 0.21099,0.42765 0.0167,0.05132 0.0316,0.103043 0.0438,0.156397 0.0543,0.233782 0.40132,0.333974 0.57774,0.182057 0.0324,0.09775 0.11506,0.175132 0.22136,0.212603 0.22901,0.07738 0.50251,-0.01955 0.63537,-0.201607 0.11929,0.03625 0.24775,0.0448 0.36655,0.0025 0.0746,-0.02647 0.13599,-0.06395 0.19057,-0.107524 0.42134,0.424799 0.50406,1.214118 0.57179,1.745218 0.005,0.03788 0.005,1.337118 0.003,1.401876 -0.007,0.148252 -0.0125,0.296504 -0.0181,0.444756 -0.006,-0.06395 -0.0132,-0.125037 -0.0211,-0.180835 -0.005,-0.02973 -0.006,0.7938 -0.006,0.823531 0.002,0.06761 0.001,0.13644 6.4e-4,0.205272 -0.002,0.07616 -0.005,0.152321 -0.007,0.228478 -0.0282,0.592205 -0.13905,1.217801 -0.28783,1.770071 -0.0966,0.359222 -0.24375,0.711939 -0.48621,1.001112 -0.0301,0.03665 -0.0619,0.07005 -0.0942,0.101405 -0.14564,0.110778 -0.31088,0.187352 -0.50075,0.207321 -0.0387,0.0041 -0.0398,0.05619 0,0.05906 0.0323,0.0028 0.0636,8.39e-4 0.0953,8.39e-4 -0.14564,0.06558 -0.30233,0.113228 -0.46728,0.155179 -0.009,0.0032 -0.006,0.01506 0.003,0.01588 0.12935,0.0069 0.25056,-0.0065 0.36546,-0.03503 0.008,8.39e-4 0.0154,0.0016 0.0233,0.0037 l 0.0225,0.0069 c 0.008,8.39e-4 0.0154,0.0045 0.0227,0.0073 0.007,0.0032 0.0154,0.0053 0.0218,0.0093 l 0.0214,0.0106 c 0.007,0.0037 0.0141,0.0086 0.0203,0.01221 0.007,0.0037 0.0134,0.0081 0.0198,0.01344 0.0128,0.0098 0.0242,0.01995 0.0359,0.03135 0.009,0.009 0.0165,0.01793 0.0242,0.02728 -0.0105,0.0073 -0.0216,0.01303 -0.0324,0.01997 -0.006,-0.0028 -0.0116,-0.0053 -0.0174,-0.0077 -0.009,-0.0025 -0.0167,-0.0065 -0.0256,-0.0081 l -0.0269,-0.0073 -0.0263,-0.0049 c -0.009,-0.0012 -0.0181,-0.0016 -0.0264,-0.0028 -0.009,-3.47e-4 -0.0185,-0.0016 -0.0273,-0.0016 -0.0187,-8.4e-4 -0.0365,0 -0.0539,0.0012 -0.0366,0.0025 -0.0722,0.0073 -0.1065,0.0171 l 10e-4,0.0057 0.0425,-0.0033 c 0.0143,-3.46e-4 0.0288,-3.46e-4 0.0435,-8.4e-4 l 0.0216,0.0016 c 0.007,8.39e-4 0.0141,3.46e-4 0.0214,0.0012 0.0141,0.0025 0.0283,0.0037 0.0431,0.0086 0.0141,0.0025 0.0271,0.0073 0.0405,0.01222 0.0141,0.0061 0.0263,0.01262 0.0385,0.01955 0.001,8.39e-4 0.002,0.002 0.003,0.0028 -0.12695,0.07167 -0.26339,0.116886 -0.40993,0.116075 -0.0389,0 -0.049,0.06109 -0.009,0.0676 0.063,0.0106 0.1252,0.01386 0.18683,0.01386 0.002,0.01629 0.008,0.03217 0.0196,0.04113 0.34102,0.298958 1.08073,0.105496 1.44509,-0.06475 0.006,-0.0037 0.0116,-0.0061 0.018,-0.0094 0,8.4e-4 -6.4e-4,8.4e-4 -6.4e-4,0.0012 -0.0233,0.04114 0.0295,0.07616 0.0634,0.04806 0.0757,-0.06313 0.14544,-0.13399 0.20858,-0.212202 0.11225,-0.07942 0.2273,-0.175133 0.32521,-0.280612 0.022,0.122597 0.0444,0.245182 0.0726,0.366556 0.0422,0.182865 0.31304,0.131556 0.32143,-0.04196 0.006,-0.09979 0.007,-0.19876 0.008,-0.297734 0.0141,0.01508 0.0299,0.0277 0.0446,0.04196 0.0557,0.116492 0.12056,0.226458 0.19342,0.324207 0.0442,0.06191 0.1443,0.02567 0.12605,-0.05255 -0.005,-0.02238 -0.0123,-0.0452 -0.0183,-0.06882 0.008,0.0098 0.0185,0.01222 0.0286,0.0094 0.0521,0.02076 0.10606,0.04112 0.16609,0.05417 0.0522,0.06556 0.10716,0.129504 0.16573,0.188164 0.11176,0.112002 0.27695,0.112814 0.40504,0.04725 0.0682,0.01466 0.13681,0.02442 0.20593,0.02933 0.0488,0.02851 0.0988,0.05335 0.15134,0.07371 0.15009,0.05702 0.10785,-0.0093 0.052,-0.07331 0.1421,-0.009 0.2862,-0.03869 0.43123,-0.09081 0.0205,-0.0069 0.036,-0.01916 0.0493,-0.03219 0.0724,0.0073 0.14694,0.0106 0.22482,0.0073 0.0566,-0.0032 0.0671,-0.06151 0.0374,-0.09205 0.0673,-0.01263 0.1349,-0.03055 0.20174,-0.05987 0.011,-0.0045 0.005,-0.01955 -0.005,-0.01955 -0.36696,-0.02403 -0.65251,-0.04684 -0.96319,-0.261059 -0.21501,-0.147038 -0.3857,-0.347007 -0.53029,-0.562884 -0.14254,-0.30505 -0.28559,-0.610513 -0.3848,-0.940414 -0.20303,-0.67202 -0.29968,-1.370099 -0.35487,-2.066973 -0.006,-0.07942 -0.009,-0.158434 -0.0143,-0.238262 0.0132,0.0077 0.0359,4.04e-4 0.0344,-0.01792 -0.0867,-0.89277 0.008,-1.785946 0.0322,-2.679938 0.0236,-0.918428 0.003,-1.841745 0,-2.7609866 -0.001,-0.2908019 -0.0121,-0.5820106 -0.0244,-0.8736273 6.4e-4,-0.4858915 -0.009,-0.9709681 -0.0421,-1.4519719 0,-0.099378 -0.003,-0.1987557 -4.7e-4,-0.2985409 0.009,-0.3938445 0.11156,-0.7302625 0.37886,-1.0296175 0.096,-0.1067086 0.20267,-0.2032352 0.31113,-0.2973179 0.16939,-0.1063019 0.35381,-0.195497 0.53464,-0.2830637 0.097,0.058239 0.21053,0.092861 0.32428,0.1010068 0.0469,0.00323 0.0951,-0.00123 0.1419,-0.00978 -0.0316,0.055798 -0.0479,0.1201488 -0.0479,0.1759469 0,0.1678019 0.11155,0.2720668 0.25875,0.3319378 0.1056,0.042762 0.25606,0.050504 0.36321,0.012629 0.0566,-0.019957 0.11001,-0.044802 0.16414,-0.070053 0.0312,-0.020364 0.0614,-0.042355 0.0905,-0.066795 -0.081,0.062313 -0.0139,0.012623 0.005,8.394e-4 0.11775,-0.074941 0.18311,-0.2036426 0.15668,-0.3388618 0.0381,-0.012623 0.0753,-0.028512 0.10801,-0.04969 -0.14935,0.1792056 -0.14805,0.4634908 0.011,0.6341433 0.24755,0.2679939 0.68978,0.046023 0.89526,-0.160063 0.13908,-0.1401062 0.18922,-0.3164605 0.16547,-0.4814112 0.0174,0.00774 0.0349,0.011809 0.0526,0.01833 0.0246,0.027692 0.0612,0.046023 0.11021,0.046023 0.0161,0 0.0291,-0.00446 0.0425,-0.00855 0.0928,0.012623 0.18747,0.00855 0.28314,-0.012216 0.0876,-0.018737 0.18218,-0.066387 0.24466,-0.1303309 0.084,-0.08553 0.12255,-0.1873513 0.12255,-0.2981334 0.0521,0.054171 0.12015,0.09612 0.20067,0.1120037 0.1344,0.026472 0.25125,0 0.37226,-0.057832 0.15774,-0.074533 0.29394,-0.283063 0.22441,-0.4541229 -0.0297,-0.072089 -0.0689,-0.1250371 -0.1221,-0.1600636 0.0147,-0.070053 0.005,-0.1437717 -0.0282,-0.2105661 0.008,-0.01385 0.0161,-0.027699 0.0201,-0.041949 0.022,-0.07657 -0.0113,-0.1747254 -0.0874,-0.2113809 -0.027,-0.011809 -0.0513,-0.021584 -0.0787,-0.026472 -0.0548,-0.049283 -0.13925,-0.048063 -0.18393,0.012629 -0.0367,-0.010589 -0.0759,-0.017517 -0.11929,-0.019144 -0.0229,-0.00161 -0.046,8.393e-4 -0.0704,0.00446 -2.3e-4,-0.015883 -0.003,-0.03136 -0.005,-0.046429 0.003,-0.00692 0.007,-0.012623 0.009,-0.019957 l 0.006,-0.025252 c 0.0152,-0.060279 -0.0147,-0.1217785 -0.0677,-0.1486593 -0.0414,-0.087566 -0.10475,-0.1637285 -0.18682,-0.2235995 0.003,-0.041949 -0.0136,-0.085123 -0.0561,-0.1046722 -0.0611,-0.028512 -0.11987,-0.043169 -0.17888,-0.046023 0.006,-0.014663 0.0103,-0.029733 0.013,-0.044803 0.005,-0.025659 0.008,-0.052131 0.0105,-0.080235 0.099,-0.012216 0.19122,-0.046836 0.27659,-0.1058944 0.11286,-0.076569 0.17733,-0.198755 0.1397,-0.3347884 -10e-4,-0.00368 -0.004,-0.00733 -0.004,-0.010996 0.0314,-0.00978 0.0616,-0.021584 0.0915,-0.03462 0.003,0.00284 0.005,0.00651 0.007,0.00937" />
  </g>
</svg>
