<?xml version="1.0" encoding="UTF-8" standalone="no"?>
<svg
   viewBox="0 0 672.10175 72.059967"
   
   id="svg2"
   version="1.1"
   xmlns="http://www.w3.org/2000/svg"
   ><path
     id="rect898"
     style="fill:#ffffff;stroke:#ffffff;stroke-width:0.75"
     d="M 656.71492,0.13606489 C 614.79613,-1.0155351 563.76333,8.2454749 508.08016,19.979815 c 2.47323,0.84242 4.94643,1.68482 7.41992,2.52734 9.3414,3.27614 18.46834,6.93338 27.5918,10.5957 13.45565,-1.40853 26.88963,-3.39391 40.22656,-5.90429 16.52758,-3.11097 22.13494,-4.66923 38.26758,-8.54883 17.34432,-4.61157 34.584,-9.8894801 50.47656,-16.9609401 v -0.61719 C 667.09172,0.58813489 661.97324,0.28051489 656.71492,0.13606489 Z M 0.03914268,1.0716049 V 72.020828 H 672.06258 v -0.115235 c -3.5455,-0.470205 -6.93857,-0.918901 -11.96289,-1.71875 -14.4666,-2.303018 -28.96601,-5.333712 -43.35352,-9.080077 -5.27643,0.225682 -10.51598,0.50804 -15.80664,0.6875 -16.53862,0.394355 -22.99599,0.626184 -39.78515,0.708984 -27.14842,0.133889 -54.40619,-0.548274 -81.14453,-2.271484 -16.37101,-1.132198 -20.227,-1.313539 -36.03321,-2.732422 C 424.79183,55.777183 406.24785,53.49881 386.93367,51.889969 375.5239,50.985234 370.93111,50.638148 361.34969,50.085281 235.85903,72.130674 103.84101,78.110941 0.03914268,1.0716049 Z M 672.06258,11.304035 c -12.19262,4.3066 -24.80297,7.96426 -37.46094,11.30468 -15.98618,3.80558 -22.2019,5.47651 -38.53515,8.58008 -13.96003,2.65262 -28.02659,4.72029 -42.11719,6.19727 1.93932,0.75542 3.85292,1.55552 5.80469,2.28906 13.37297,5.02602 14.34911,5.18668 28.21875,9.757813 10.11198,3.210308 20.3292,6.001682 30.58789,8.421875 10.01575,-0.614475 19.83022,-1.41743 29.21875,-2.53125 7.82457,-0.928279 9.35449,-1.288683 16.1914,-2.47461 2.94196,-0.566163 5.47928,-1.252258 8.0918,-1.916015 z m -170.50195,10.04687 c -18.35213,3.90404 -37.03525,7.95001 -56.25977,12.07617 7.17991,0.54361 14.34927,1.12083 21.58789,1.47266 17.40075,0.84576 18.62943,0.6184 36.55274,0.59961 11.31223,-0.16012 22.65996,-0.87645 34,-1.92383 -3.94582,-1.53729 -7.9092,-3.04359 -11.91993,-4.4668 -10.16129,-3.51554 -12.34973,-4.41612 -22.78515,-7.43945 -0.39061,-0.11317 -0.78493,-0.20645 -1.17578,-0.31836 z m -70.20313,14.98828 c -20.39823,4.31199 -41.07463,8.53223 -62.04492,12.333987 1.54644,0.123598 3.10032,0.238247 4.65039,0.357422 19.4312,1.582301 38.0834,3.845434 57.28906,5.626953 17.31222,1.605882 18.57417,1.601572 36.5293,2.892578 26.71406,1.77499 53.98573,2.51514 81.15625,2.400391 16.98485,-0.07173 22.81618,-0.300888 39.51172,-0.714844 6.17944,-0.214371 12.29433,-0.551311 18.4375,-0.845703 -3.15936,-0.905396 -6.32625,-1.77406 -9.46875,-2.757813 -12.64594,-4.090908 -15.62433,-4.908242 -27.83399,-9.416011 -7.16808,-2.64645 -14.21971,-5.49746 -21.27929,-8.33399 -10.69085,0.99018 -21.38906,1.71169 -32.0625,1.91406 -16.3271,0.12457 -20.14418,0.3602 -36.01563,-0.29882 -16.40355,-0.68112 -32.50583,-2.34767 -48.86914,-3.15821 z m 240.70508,20.376956 c -2.71707,0.42201 -5.44568,0.799084 -10.28711,1.328125 -10.01336,1.094188 -20.44455,1.858775 -31.04687,2.453125 6.64266,1.371116 13.29028,2.644868 19.93359,3.71289 9.17788,1.475496 14.83251,2.164933 21.40039,2.916016 z" /></svg>
