<?xml version="1.0" encoding="UTF-8" standalone="no"?>
<!-- Created with Inkscape (http://www.inkscape.org/) -->

<svg
   width="54.295143mm"
   height="54.331722mm"
   viewBox="0 0 54.295143 54.331722"
   version="1.1"
   id="svg772"
   xmlns="http://www.w3.org/2000/svg"
   >
  <defs
     id="defs769" />
  <g
     id="layer1"
     transform="translate(-31.124459,-13.717897)">
    <g
       transform="matrix(0.01401451,0,0,-0.01401451,-142.93855,84.129349)"
       id="g732">
      <path
         id="path734"
         style="fill:#000000;fill-opacity:1;fill-rule:nonzero;stroke:none"
         d="m 12604.2,3854.39 0.3,0.34 c 5.6,4.08 35.8,73.05 15.6,8.34 -2.8,-9.17 -5.8,-18.51 -7.8,-26.52 -0.5,1.25 -1.3,2 -2.3,2.17 -2.2,-1.08 -4.6,-3 -7.1,-5.42 -0.5,5.42 0,12.59 1.3,21.09 z m 2865.8,803.04 v 0 l -1.1,0.75 h -0.1 l -0.1,0.08 0.2,-0.08 h 0.1 z m -1361.8,308.04 c 0.7,0 1.3,0.08 2.1,0.16 l -1.3,-0.33 z M 15472,1763.67 c -9.4,-8.67 -19.6,-16.26 -29.3,-24.6 7.6,6.42 15.1,12.85 22.1,19.52 4.7,5.25 8.2,10 11.2,14.42 3.3,2.09 6.5,4.34 9.7,6.59 4.8,2.67 9.9,5.84 15.2,9.42 z m -251.2,-186.79 22.2,9.59 c -7.4,-3.59 -14.8,-6.84 -22.2,-9.59 z m -845.8,-425.53 -0.7,-0.17 c 16.5,2.25 14.5,6.09 12.1,10.01 -6.3,2.33 -15,3.75 -26.3,4.17 -35.7,7.17 -68.1,14.93 -106.6,22.76 -68.1,12.26 -87.8,28.77 -84.2,45.2 1.9,8.26 8.5,13.68 22.8,16.51 14.3,2.58 36.4,4.26 69,3.34 13.2,-0.17 26.6,-1.25 39.9,-1.34 13.4,-0.16 26.9,-0.25 40.2,-0.08 6.3,0.08 14.8,1.33 17.2,2.75 5.9,3.34 -4.8,6.01 -15.5,6.42 -13.6,0.5 -26.9,1.33 -39.2,2.5 -12.4,0.92 -23.8,3.42 -33.8,5.59 -20,4.59 -34.3,10.42 -38.9,17.76 -2.5,4.25 -7.1,8.34 -12.9,12.26 -5.7,3.92 -12.7,7.76 -20,12.01 -14.8,8.34 -31.5,16.51 -44.7,24.85 -11.7,13.42 -17.4,26.52 -26.9,40.02 -9.4,13.85 -22.5,28.02 -48.2,43.28 -18,12.26 -9.2,21.02 -12.6,31.44 v 0 0 l 28.8,12.59 v 0 l 34.7,0.42 c 4.4,0.17 8.9,0.25 13.7,0.33 4.7,0.26 9.4,0.5 14,0.84 9.3,0.58 17.8,1.5 23.7,3.5 15.3,-1.17 30.6,-2.67 45.9,-3.59 4,6.84 -16.3,11.43 -32.7,16.77 -16.5,5.33 -32.9,10.59 -48.5,16.09 -2.1,0.92 -4.3,1.75 -6.5,2.67 81.2,-12.85 164.5,-19.6 249.3,-19.6 695.7,0 1286.6,448.55 1499.3,1072.22 1.3,2.25 2.7,4.42 4.2,6.33 4.1,12.26 8.7,24.43 12.6,36.78 5.5,23.43 11.9,46.36 18.8,68.96 6.2,22.85 12.4,45.45 19.3,67.96 2.7,6.59 4.1,13.34 4.1,20.18 l -0.9,4.5 v 0.34 l 4.4,34.19 c 11.1,61.04 17.2,122.83 21.4,184.7 v 0 c 0.9,13.6 0.8,27.35 1.2,41.03 v 0 0 0 0 0.25 l 1.5,21.68 c 1,9.59 2,19.26 1.8,29.35 -0.7,11.35 -1.8,22.68 -2.9,34.03 l -0.8,28.68 -0.3,14.35 -1.1,14.25 c 0.4,5.93 1.1,11.76 2.3,17.6 3.1,10.17 7.5,12.59 12.3,11.67 0.9,-0.41 1.8,-0.83 2.7,-1.16 -0.4,-3 -0.6,-6.17 -0.9,-9.68 2,-32.44 1.1,-64.96 1.7,-97.39 0.5,-16.18 -0.4,-32.44 -0.8,-48.62 l -1.4,-48.7 -3.4,-48.61 c -1.2,-16.18 -1.7,-32.44 -3.9,-48.54 -4.1,-32.19 -6.7,-64.62 -12.8,-96.48 -1.6,-9.92 -3.5,-20.59 -5.3,-31.44 -0.8,-5.5 -1.8,-11 -2.6,-16.42 -0.9,-5.51 -1.9,-10.93 -2.8,-16.26 -3.4,-21.43 -4.9,-41.61 -1.1,-56.46 1.5,5.92 3.1,11.84 4.6,17.76 l 0.2,1 c 4.3,-18.92 13.2,5.42 21.9,27.61 -12.4,-84.64 -37.6,-168.28 -70.1,-249.25 -15.6,-40.11 -33.3,-79.56 -51.5,-118.67 -9.8,-19.18 -19.8,-38.27 -30,-57.12 -10.6,-18.59 -22.5,-36.44 -34.5,-54.03 -6.2,-9.42 -11.9,-19.35 -18.1,-29.11 -10.8,-17.26 -21.1,-34.43 -31.2,-51.61 -10.2,-17.02 -21,-33.44 -31.2,-50.2 -5.2,-8.26 -10.1,-16.76 -15.4,-24.94 -5.4,-8.08 -10.7,-16.17 -16.1,-24.26 l -16,-24.27 c -5.3,-8.17 -10.6,-16.34 -16.3,-24.01 -11.4,-15.76 -22.9,-31.44 -34.3,-47.2 -5.6,-8.01 -11.9,-15.43 -18,-23.1 -6.3,-7.59 -12.5,-15.18 -18.8,-22.76 -6.3,-7.59 -12.6,-15.18 -19.1,-22.77 -6.6,-7.34 -13.5,-14.59 -20.5,-21.85 -7,-7.26 -14,-14.51 -21.1,-21.76 -7.1,-7.26 -14.1,-14.68 -22,-21.43 -15.2,-16.35 -27.1,-31.36 -33.3,-44.12 -0.3,-1.08 -0.2,-1.83 -0.3,-2.75 -11.2,-9.92 -23.4,-18.68 -35.2,-27.93 l -35.5,-27.44 c -24.4,-17.26 -48.7,-34.61 -73,-51.87 -51.5,-34.1 -106.4,-64.62 -171.8,-103.65 43.2,14.68 76.2,39.11 104,46.95 l -0.5,-0.25 c 13.2,6.17 25.6,13.59 38.3,20.35 12.6,6.92 25.3,13.92 38,20.84 25.1,14.68 49.6,30.94 74.3,48.54 -14.5,-10.76 -28.6,-21.69 -42.7,-32.69 l -21.2,-16.6 -21.8,-15.59 c -14.6,-10.43 -29.3,-20.76 -44.2,-30.94 -15.2,-9.59 -31,-18.76 -47,-27.77 -1.6,-2.08 -3.2,-4.17 -4.6,-6.25 v 0 c -5.8,-3.75 -13.7,-8.67 -20.4,-12.76 -6.9,-3.92 -12.4,-7.26 -12.9,-8.59 -4.8,-11.76 20.3,3.75 32.3,10.34 87.2,41.95 170.4,93.31 248.5,156.44 5.6,4.42 11.3,9.01 17.1,13.76 5.5,4.92 11.2,9.92 16.8,14.92 11.4,10.09 22.9,20.1 34.5,29.69 11.8,9.26 22.8,19.1 34.3,27.27 11.4,8.26 22.9,15.43 34.4,20.85 2.7,1.25 6.4,3.91 10.7,7.42 4.1,3.67 8.9,8.25 13.8,13.26 9.8,9.92 20.6,21.43 29.8,30.35 -6,-12.93 -19.1,-28.6 -31.1,-43.95 -14.5,-17.84 -28.3,-34.35 -35.4,-48.69 -9.5,-9.35 -19,-18.93 -29.3,-27.69 -10.2,-8.76 -20.6,-17.51 -30.8,-26.27 -10.2,-8.75 -20,-17.84 -29.7,-26.77 -9.9,-8.67 -19.3,-17.59 -27.9,-27.01 l -34.1,-27.6 c -2.3,-6.17 -0.3,-8.09 5.2,-6.43 5.4,1.75 13.9,7.34 25,15.76 95.2,71.88 183.4,153.61 259.6,245.58 26.5,29.27 50.1,60.79 74.7,91.65 11.9,15.76 23.1,32.02 34.6,47.95 l 17.1,24.1 c 5.6,8.17 10.8,16.51 16.2,24.76 l 32,49.78 29.6,51.29 c 4.9,8.59 10,17.01 14.6,25.68 l 13.6,26.36 c 9,17.59 18.3,34.93 26.8,52.78 l 4.9,11.17 c -0.9,-3.58 -1.7,-7.17 -2.5,-10.84 10.2,10.68 18,24.27 24.8,39.2 6.6,15.01 12.5,31.1 16.9,47.86 6.1,18.1 12.6,35.94 19.6,53.7 3.7,8.76 6.8,17.77 10.1,26.69 3.3,8.92 6.7,17.76 10.3,26.68 4.5,10.93 9.4,21.6 14.1,32.36 4.9,10.75 8.9,21.85 13,33.02 4,11.17 7.9,22.68 11.2,34.69 3.3,11.92 6.3,24.35 7.5,37.69 -4.1,-0.5 -6.6,0.92 -7.8,3.75 l 5.5,12.35 c 4.7,14.5 8.5,30.6 12.5,46.28 2.2,7.75 3.9,15.59 5.7,23.09 2,7.43 4.2,14.6 6.8,21.18 l 5.8,32.44 c 2,10.84 4,21.69 5.2,32.61 0.2,15.93 1.3,31.77 3.3,47.53 2,15.76 5.1,31.44 7.6,47.2 l 3.4,42.11 c 1.1,30.94 0.1,61.71 1,92.39 1.3,30.69 0.9,61.3 2.7,92.06 v 0.67 l 1.3,28.1 c 0,9.34 -0.2,18.77 -0.5,28.19 -0.5,18.85 -1.2,37.78 -2.2,56.7 -1.2,18.93 -3.7,37.78 -5.8,56.79 -2.5,18.85 -4.1,37.94 -7.9,56.71 -3.4,18.76 -6.9,37.6 -10.3,56.45 l -2.7,14.09 c -0.9,4.67 -2.2,9.34 -3.2,14.01 l -6.5,27.94 -6.6,27.93 c -2.2,9.34 -4.2,18.68 -6.9,27.85 -5,18.43 -10,36.78 -15,55.21 -43.3,130.5 -100,255.17 -162.6,377.5 -8.3,15.92 -16.2,32.02 -25.9,47.53 -12,18.26 -23.9,36.36 -35.8,54.62 -5.5,8.76 -11.5,16.93 -17.9,25.02 -21.5,26.76 -38.4,55.62 -58.6,82.22 -16.2,21.18 -32.1,42.53 -50.6,61.7 -11.9,12.51 -22.4,21.6 -31.8,28.36 -3.9,7.34 -6.9,14.51 -9.2,20.26 4.3,-4.25 8.3,-8.92 12.6,-13.43 163.2,-169.44 287,-378.66 356,-603.9 7.3,-21.76 14.7,-44.27 21.9,-65.62 6.8,-21.43 14.4,-41.28 24.5,-57.46 2.8,-2 5.4,-3.67 7.9,-5.17 27.7,-104.07 46,-210.64 54.9,-317.88 -0.3,-1.08 -0.7,-2.25 -1,-3.33 -2.1,-19.85 0.7,-38.61 4.4,-57.12 v 0 c 2.7,-8.26 3.8,-20.02 5.3,-30.94 -1.5,-13.68 -0.8,-28.1 2,-43.28 0.9,-13.92 0.4,-27.85 0.6,-41.78 v 0 0 c -0.8,-23.09 -0.9,-46.19 -2.2,-69.21 v 0 c -6.8,-123.92 -26,-247.5 -58.6,-367.49 l -18.4,-64.3 c -6.4,-21.43 -14,-42.36 -20.9,-63.62 -3.6,-10.51 -6.9,-21.18 -10.7,-31.69 l -12,-31.19 -12.1,-31.19 -6.1,-15.59 c -2,-5.25 -4.4,-10.26 -6.6,-15.34 l -27.2,-61.21 c -9.4,-20.18 -19.9,-39.86 -29.9,-59.79 -5.2,-9.92 -10.1,-20.01 -15.6,-29.68 l -16.7,-28.94 -16.9,-28.85 c -2.9,-4.84 -5.6,-9.68 -8.6,-14.43 l -9.1,-14.01 c -6.9,-17.26 -28.6,-44.94 -23.7,-53.78 5.5,0.58 14.8,13.51 23.2,23.09 4.1,6.18 8.1,12.35 12.1,18.68 54.8,93.06 103.6,189.8 144.1,290.2 40.4,100.31 72.4,204.21 93.5,310.37 1.5,14.26 3.4,28.52 5.6,42.78 17.4,75.72 24.9,153.6 29.7,231.32 2.3,77.8 2.1,155.68 -3.9,233.24 -1.9,9.75 -3.6,16.67 -5.2,21.34 l -1.7,23.1 c -0.5,7.67 -1.6,15.34 -2.5,23.02 l -5.6,45.94 -2.8,23.02 c -1.1,7.67 -2.5,15.26 -3.7,22.85 l -7.9,45.7 c -0.6,8.17 -1.3,17.01 -2.1,25.51 -1.1,8.51 -2.1,16.68 -2.5,23.52 -0.6,13.67 1.2,22.26 9.6,17.6 7.2,-4.01 5.3,20.59 1.9,43.77 -6.9,33.27 -16.5,64.55 -29.1,88.89 3.5,-3.33 6.7,-4.5 9.4,-3.25 11.2,13.84 20.1,-30.43 29.9,-60.95 3.7,-10.93 6.4,-22.18 9,-33.36 2.7,-11.17 5.2,-22.43 7.6,-33.69 l 6.9,-33.86 5.4,-34.1 c 3.5,-22.77 7.1,-45.45 10.6,-68.13 3,-22.68 6.7,-45.36 11.4,-67.88 1.6,-17.01 2.5,-33.27 4.6,-48.61 2.1,-15.26 4.9,-29.61 8.6,-43.03 3.4,-4.09 6.5,-9.42 9.1,-17.18 2.6,-7.84 4.4,-18.1 5.5,-32.02 4.2,-128.5 -4.8,-257.51 -26.2,-384.67 l -11.1,-61.8 -13.9,-61.28 -7.2,-30.61 -8.4,-30.27 -17.2,-60.37 -19.9,-59.63 -10.2,-29.68 -11.4,-29.27 c -7.7,-19.52 -15.3,-39.03 -23.2,-58.37 l -25.8,-57.29 c -4.4,-9.51 -8.4,-19.18 -13.2,-28.52 l -14.1,-28.02 c -9.7,-18.59 -18.9,-37.44 -29,-55.7 -20.9,-36.28 -40.9,-73.05 -64.1,-107.99 l -16.9,-26.43 c -5.6,-8.76 -11.3,-17.6 -17.5,-26.02 l -36.2,-51.2 -9.2,-12.76 -9.6,-12.43 -19.3,-24.68 c -13.1,-16.43 -25.6,-33.19 -39.5,-48.78 -12.8,-14.93 -31.7,-33.11 -37.3,-48.7 23.1,15.92 45.1,40.53 65.2,65.46 15.1,19.26 30.2,38.44 45.5,56.87 15,18.6 29.3,37.11 44.8,53.87 9.4,13.26 18.8,26.6 27.3,40.44 11.5,17.1 22.8,34.44 33.9,51.79 11.1,17.43 20.7,35.69 31,53.62 3.7,7.17 7.8,14.17 12.3,20.84 3.9,4.92 7.8,9.84 11.2,15.1 3.4,5.17 6.4,10.59 9.3,16.01 5.6,10.92 10.2,22.35 13.5,34.19 7.4,14.59 15.5,28.85 22.2,43.86 10.6,23.52 21.6,46.61 32.7,69.63 10.3,23.51 20.5,46.86 30.7,70.29 l 7.6,17.6 6.8,18.01 c 4.4,12.01 8.8,24.1 13.2,36.11 4.3,12.17 8.7,24.35 12.5,36.69 3.6,12.43 7.1,24.93 10.4,37.52 5.3,19.18 11.3,38.2 16,57.55 2.9,13.09 5.9,26.09 8.9,39.1 3,13.35 6.1,26.69 8.5,39.78 2.5,13.01 3.4,25.85 3.7,37.86 0.6,20.43 3.3,41.53 6.7,63.04 2.7,21.6 5.5,43.61 8.1,65.38 9.9,95.06 20.7,191.04 11.8,286.27 -0.9,4.09 -1.8,7.25 -2.6,9.84 -0.3,11.09 -0.1,22.18 -0.8,33.27 l -2,33.36 c -1.5,22.26 -2.5,44.53 -4.8,66.63 -5.2,44.27 -9.8,88.72 -18.3,132.58 l -5.9,33.02 -3,16.43 -3.7,16.35 -15.4,65.29 c -5.4,21.68 -12.2,42.95 -18.4,64.46 l -9.7,32.02 c -3.5,10.68 -7.4,21.1 -11.1,31.69 v 0 c -1.2,6.25 -3.2,12.43 -6,18.51 -1.6,9.01 -3.6,17.85 -5.8,26.6 -2.3,8.76 -4.8,17.43 -8.2,25.77 -6.6,16.84 -14.4,33.1 -23.6,48.87 v 0.08 c -2.2,7 -5,13.09 -8.2,18.26 -8,21.02 -17.4,41.45 -26.4,62.04 l -13.7,30.77 -15.4,30.11 c -10.3,19.93 -20.3,40.11 -31.4,59.62 l -34.1,58.12 c -7.7,16.85 -17.9,32.44 -27.8,48.28 -10.1,15.6 -20.5,31.19 -31.4,46.28 v 0.09 c -1.7,4.42 -2.9,8.42 -3.5,12.01 l -28.2,40.02 c -4.5,6.92 -9,13.84 -13.6,20.77 -4.8,6.75 -9.7,13.42 -14.7,20.09 -9.9,13.26 -20.1,26.52 -30.4,39.78 -10.1,13.42 -21.3,26.02 -32.3,38.69 l -33.3,38.11 c -6.9,10.09 -14.8,19.26 -22.6,29.1 l -27,28.94 c -9,9.67 -17.8,19.51 -27.3,28.77 -18.6,18.84 -37,37.86 -55.7,56.54 -19.4,18.09 -38.9,36.1 -58.6,53.86 -19.9,17.43 -40.9,33.69 -61.8,49.87 -1.8,2.5 -3.3,4.67 -3.8,6.42 -3.8,12.76 -15.6,25.35 -31.7,38.53 -16.2,13 -36,27.18 -57.4,40.94 l -41.4,26.52 c -13.9,8.75 -27.5,18.01 -41.8,26.1 l -42.4,25.02 -21.4,12.34 c -7.1,4.17 -14.5,7.75 -21.8,11.59 -23.6,12.26 -47.2,24.93 -71.2,36.6 l -72.8,33.36 c -17,8.34 -34.9,15.35 -52.7,22.77 l -27,10.84 -13.4,5.42 -13.7,4.92 c -18.1,6.5 -36.1,13.17 -53.6,20.26 -8.8,3.59 -17.4,7.17 -26,10.76 -8.6,3.33 -17.1,6.92 -25.4,10.67 -17.3,7.59 -46.8,15.93 -70.1,20.85 -17,3.42 -34,6.84 -51.1,10.25 -17.1,3.26 -34,7.18 -51.2,9.35 -17.1,2.5 -34.1,4.66 -50.9,6.58 -16.7,1.92 -33.3,3.5 -49.5,3.59 l -35.1,4.75 c -39.6,13.26 -82.7,21.6 -129,28.69 -11.6,2 -23.4,2.83 -35.4,3.92 -11.9,0.91 -24.1,1.75 -36.5,2.5 -12.3,0.67 -24.9,1.25 -37.7,1.58 -12.8,0.09 -25.7,-0.33 -38.9,-0.75 -8.5,-1.5 -12.5,-3.33 -11.6,-5.34 -22.2,-1.25 -39.8,-4.25 -56.9,-8.08 -17.2,-4.17 -33.9,-8.42 -54.8,-11.18 -10.1,-2.66 -21.2,-4.67 -32.8,-6.17 -11.7,-1.67 -23.9,-3.58 -36.1,-5.08 -34.5,-4.42 -69,-8.34 -103.1,-15.01 l -51.4,-9.18 c -17.1,-3.25 -34,-7.5 -50.9,-11.25 l -0.6,-0.17 c -1.4,-2 -3.4,-4.09 -6.4,-6.26 -6.6,-1.16 -12.6,-2.83 -18.1,-5 -25.2,-6 -50.6,-13.68 -75.6,-21.01 -12.5,-3.76 -24.8,-7.59 -36.9,-11.76 -12,-4.5 -23.5,-9.59 -34.6,-14.84 l -1,-0.51 -39.7,-14 c 0.1,0.83 0.5,2.08 0.1,1.83 0.4,2.17 0.8,4.59 0.7,6.67 -4.3,10.01 -19.8,15.18 -69.9,-1.66 -113,-42.03 -223.5,-96.74 -322.4,-162.78 -16.3,-11.09 -33.9,-22.43 -51.7,-34.02 -17.5,-12.01 -34.8,-24.69 -51.2,-37.28 -8.3,-6.34 -16.2,-12.59 -23.8,-18.93 -7.5,-6.33 -14.3,-13.17 -20.6,-19.68 -12.8,-13.17 -23.2,-26.1 -30.3,-38.61 l 3.8,1.59 -3.3,-2.59 0.1,0.09 c -46.2,-37.78 -91.1,-77.39 -133.3,-119.5 -6.4,-6.17 -12.8,-12.34 -19.1,-18.59 -6.3,-6.34 -12.4,-12.93 -18.3,-19.43 -11.9,-13.1 -23,-26.27 -32.3,-39.53 v -0.08 l -4,-4.26 c -3,-2.08 -6,-4.08 -8.9,-5.75 -11.2,-7.25 -22.3,-14.26 -35.6,-25.43 -13.6,-12.43 -25.8,-20.77 -39.9,-35.28 -7,-7.92 -13.6,-16.26 -19.8,-24.85 -10.8,-16.18 -19.2,-30.44 -19.5,-38.36 -13.2,-8.42 -25,-20.51 -36,-34.44 -10.9,-13.92 -20.9,-29.85 -29.6,-46.61 7,21.68 29.2,51.28 51.6,80.14 23,28.43 44.8,57.28 50.2,79.8 -10.9,2.75 -25.9,-10.84 -46.6,-45.36 -10,-13.01 -20.5,-25.61 -30,-39.03 -57.8,-73.88 -108.4,-153.43 -153.6,-235.99 -44.4,-83.06 -81.8,-169.7 -113.6,-258.25 -32.8,-92.65 -59,-187.55 -78.7,-283.61 -18.5,-96.4 -30.1,-193.88 -35.2,-291.44 -0.5,-16.01 1,-31.86 1.5,-47.7 -0.7,-7.43 -0.5,-14.18 0.5,-20.27 -0.3,-9.75 -0.5,-19.59 -0.7,-29.35 -0.3,-9.84 0.2,-19.59 0.2,-29.44 0.4,-19.59 0.9,-39.19 1.6,-58.7 0.4,-19.51 2.7,-38.94 4.8,-58.12 2.2,-19.1 4.9,-38.11 8.2,-56.71 v 0 c 3.7,-29.02 7.6,-58.04 11.5,-86.97 1.8,-14.51 4.9,-28.77 7.5,-43.11 2.9,-14.35 5.7,-28.6 8.6,-42.78 4.4,-23.52 10.7,-46.53 16.6,-69.63 6.3,-23.1 11.6,-46.28 19.1,-68.97 l 21.5,-68.2 c 7.8,-22.52 16.2,-44.78 24.4,-67.13 4.2,-11.18 7.9,-22.52 12.6,-33.44 l 13.7,-33.03 13.8,-33.02 7,-16.42 7.5,-16.26 c 10.1,-21.6 20.2,-43.28 30.4,-64.97 10.6,-21.34 21.8,-42.52 32.7,-63.87 11,-22.27 24.3,-43.61 37.3,-64.21 79,-124.08 168,-242.33 269.9,-350.48 l 45,-46.87 c 15.4,-15.09 31.3,-29.77 47.2,-44.36 l 23.8,-21.68 c 8.4,-6.84 16.7,-13.59 25,-20.35 16.6,-13.43 33.3,-26.68 50.3,-39.19 v 0 0 c 33.7,-27.35 67,-55.29 102.8,-79.97 l 26.4,-18.93 c 8.8,-6.25 17.7,-12.59 26.9,-18.35 l 55,-35.02 c 74.5,-44.61 151.1,-85.89 231,-120.16 l 26.4,-12.59 c 8.8,-4.26 18,-7.68 27,-11.51 l 54.3,-22.02 c 9.1,-3.75 18.3,-7 27.5,-10.09 l 27.8,-9.5 c 18.5,-6.09 36.9,-12.76 55.7,-18.1 l 56.5,-15.67 c 9.5,-2.51 18.8,-5.17 28.3,-7.51 l 28.6,-6.42 57.2,-12.34 c 19.1,-3.75 38.5,-6.59 57.6,-9.92 -3,14.09 -3.5,15.26 -37.1,19.84 -11.1,1.42 -21.6,3.59 -31.5,5.76 -9.9,2.25 -19.2,4.58 -27.7,7.16 -16.8,5.18 -30.6,11.26 -39.9,19.1 27.3,-1.83 55.1,-5.92 83.5,-11.59 28.6,-5 57.8,-10.59 87.6,-17.76 12.9,-6.01 28.2,-9.26 44.5,-12.18 16.5,-2.83 34,-4.75 51.6,-6.58 3.9,-0.67 7.7,-1.34 11.6,-1.84 4,-0.33 7.9,-0.5 11.8,-0.58 l 41.7,-4.25 c 2.2,-2.42 3.7,-4.76 10.8,-6.84 9.9,-1.42 19.9,-2.84 29.8,-4.34 9.9,-1.08 19.8,-1.75 29.7,-2.25 19.7,-0.83 39.2,-0.17 57.8,3.67" />
    </g>
  </g>
</svg>
