<?xml version="1.0" encoding="UTF-8" standalone="no"?>
<!-- Created with Inkscape (http://www.inkscape.org/) -->

<svg
   width="51.19722mm"
   height="51.633327mm"
   viewBox="0 0 51.19722 51.633327"
   version="1.1"
   id="svg772"
   xmlns="http://www.w3.org/2000/svg"
   xmlns:svg="http://www.w3.org/2000/svg">
  <defs
     id="defs769" />
  <g
     id="layer1"
     transform="translate(-154.67992,-12.790459)">
    <g
       transform="matrix(0.01616392,0,0,-0.01616392,-57.581451,76.021986)"
       id="g674">
      <path
         id="path676"
         style="fill:#000000;fill-opacity:1;fill-rule:nonzero;stroke:none"
         d="m 16117.5,1832.1 c 0,2.56 -0.3,4.74 -0.7,6.61 4,7.53 9.5,14.2 13.8,21.55 -3.2,-9.78 -6.5,-19.37 -8.9,-29.03 -2,-2.49 -4.2,-4.98 -6.3,-7.53 0.8,2.67 1.6,5.48 2.1,8.4 z m 21.5,62.36 v 0 0 l 2.3,6.48 c -0.6,-3.24 -1.3,-6.48 -2.1,-9.72 0,1.12 0,2.18 -0.2,3.24 z m 80.4,79.86 1.3,2.12 0.9,1.12 c -0.7,-1.19 -1.5,-2.24 -2.2,-3.3 z m -147.6,69.52 c -3.2,-15.39 -7.7,-30.4 -12,-45.48 -4.4,-15.01 -8.2,-30.21 -13.1,-45.1 3.4,11.03 5.3,22.37 7.2,33.64 l 4,14.95 c 4.3,8.6 7.4,16.32 8.2,22.12 0.7,5.29 -1,8.91 -5,10.4 0.6,2.24 1.1,4.48 1.7,6.73 7.1,7.35 10.6,17.88 13.2,29.21 2.7,12.27 4.6,25.36 7.5,36.88 l -0.2,15.01 v 0 0 l 6,35.82 c 2.2,11.9 3.3,24.05 5,36.01 l 4.7,36.13 c 1.4,12.02 2,24.17 3,36.25 l 2.3,36.26 c 0.4,12.08 0.2,24.17 0,36.25 -0.1,9.34 -0.4,18.63 -0.8,27.97 0.2,15.01 0.1,30.03 -0.3,45.04 -0.1,5.67 -0.4,11.34 -0.5,17 -0.3,5.67 -0.4,11.34 -0.7,17.01 -0.4,7.6 -0.9,15.14 -1.3,22.68 -0.3,3.61 -0.5,7.22 -0.7,10.83 -0.6,8.1 -1.3,16.14 -2.1,24.17 0.2,1 0.3,2 0.6,2.93 1.4,-13.58 3.2,-27.03 5.2,-40.36 0.9,-6.67 2.2,-13.33 3,-20 0.8,-6.67 1.7,-13.33 2.5,-20 6.7,-96.93 -2.4,-194.6 -18.3,-290.41 -2.9,-15.38 -5.3,-30.89 -8.6,-46.16 z m -45.5,-150.44 -5.7,-14.64 -11.3,-29.4 c 3.3,9.9 7,19.69 10.9,29.46 l 5.8,14.64 c 2,4.86 3.6,9.91 5.5,14.83 -1.8,-4.98 -3.3,-9.97 -5.2,-14.89 z m -47.9,-129.44 c -7.4,-15.7 -15.3,-31.34 -23.7,-46.91 l -5.6,-11.03 -6.2,-10.84 -12.1,-21.61 c -4,-7.23 -7.7,-14.58 -10.9,-22.05 -4,-13.96 -13.6,-28.91 -19.5,-43.17 -2.4,-1.81 -5,-3.37 -7.8,-4.3 l -3.6,-2.8 0.7,1.24 v 0 c 0,0 2.9,1.56 2.9,1.56 3.7,9.34 7.5,18.56 11.8,27.72 4.3,9.03 8.7,18.13 13.1,27.28 8.9,18.32 19.9,35.82 32.2,53.45 7.7,9.16 13.6,19.06 14.8,30.65 0.3,2.49 1.4,4.92 3.1,7.29 2.1,5.23 1.9,8.22 -0.2,9.34 2.3,3.18 4.4,6.61 6.4,10.16 1.8,3.67 3.6,7.35 5.4,11.02 3.6,7.29 7.4,14.39 12.3,20.12 l 5.1,11.4 c -5.4,-16.26 -11.4,-32.51 -18.2,-48.52 z m -83.8,-180.97 -0.4,-0.31 v 0 0 0 l 0.4,0.56 z m -297.9,-291.15 c -7.2,-6.54 -14.6,-12.9 -22.4,-19.07 -53.7,-49.02 -111.8,-94.18 -169.3,-137.23 4,4.61 7.1,9.47 8.9,14.52 0.1,1.24 -0.1,2.3 -0.5,3.24 l 8.9,5.17 c 8.1,4.04 15.8,8.09 22.4,13.2 6.7,5.11 12.5,10.72 17.4,16.82 v 0 l 32.3,22.8 c 8.5,9.84 19.9,17.51 31.2,25.29 11.3,7.79 22.8,15.32 30.2,25.98 2.1,3.11 4.9,6.04 8.3,8.78 17.7,13.52 35.7,26.66 52.4,41.3 -6.3,-7.04 -12.6,-14.32 -19.8,-20.8 z m -777.3,-350.153 0.4,-0.438 -2.1,-0.124 v 0 0 z m 697.1,210.423 c -15.7,-11.4 -31,-23.05 -46,-34.76 -15.4,-11.15 -30.2,-22.61 -44.1,-34.7 v 0 l -11.8,-8.22 -12.2,-7.66 v 0 c -39.5,-28.84 -91.6,-46.66 -129.8,-74.752 -15.1,-7.287 -31.9,-9.903 -48.1,-13.828 -16.3,-3.49 -32.3,-7.787 -46.2,-20.058 l -20.1,-18.002 c -6.8,-5.794 -13.7,-11.339 -20.7,-17.07 -63.1,-18.252 -127.3,-35.259 -192.6,-43.417 -0.2,0.683 -0.5,1.309 -1.2,1.929 -7.1,1.808 -14.1,2.679 -21.1,3.241 -7.1,0.684 -14.1,0.623 -21.1,-0.063 -14.2,-1.37 -28.3,-5.482 -42.7,-12.084 -0.8,-0.686 -1.4,-1.433 -2,-2.119 l -0.6,1.62 c -2.7,1.993 -6.7,3.614 -12.2,4.485 -8.4,0.871 -17.1,1.494 -26.1,1.621 l -6,-0.499 -5.3,0.81 c -11.5,0.496 -22.8,-0.126 -34.2,0.061 -11.3,0.063 -22.6,-0.312 -33.8,-0.935 -11.3,-0.559 -22.5,-1.681 -33.7,-2.367 l -33.6,-1.806 c -2.8,-0.997 -5.4,-2.056 -7.8,-3.114 -12.8,2.243 -25.7,3.925 -38.4,6.915 l -1.6,-0.499 1.2,0.56 -0.7,13.456 -28.3,1.682 c -11.2,-1.682 -23.3,-1.246 -35.4,0.063 -6.1,0.56 -11.7,0.436 -16.8,-0.499 -3.5,-0.562 -7.3,-0.747 -11.4,-0.435 -9.1,-5.171 0.1,-9.656 10.4,-14.08 22.6,-6.604 45.3,-8.285 67.1,-5.17 -6.4,-2.366 -11.2,-5.232 -10.9,-9.843 1.3,-2.988 5.1,-5.356 11.3,-7.164 10.1,-1.307 20.2,-2.616 28.8,0.251 l 16,1.246 c 1,-1.122 2.3,-2.244 4.2,-3.49 13.9,-4.421 27.7,-4.983 41.5,-4.236 13.8,0.562 27.4,3.613 41.1,4.548 37,1.058 73.8,5.107 110.5,8.721 -0.4,-0.185 -0.7,-0.312 -1,-0.499 -6.9,-3.487 -13.3,-7.225 -23.2,-9.218 0.4,-2.243 0.5,-4.484 0.2,-6.728 l 0.4,-0.063 c 0.9,-0.311 1.9,-0.56 2.9,-0.871 -17.6,-1.494 -34.7,-5.171 -51.3,-11.775 -25.1,1.309 -50.9,0.81 -75.1,4.112 -8.7,1.246 -17.5,2.429 -26.4,3.363 l -41.6,-0.56 c -13.9,0.373 -27.8,1.183 -41.7,1.93 -13.8,0.937 -27.7,1.436 -41.5,3.241 -13.8,1.745 -27.6,3.675 -41.4,5.794 2.8,0 5.5,0.248 7.6,0.934 11.6,-1.121 23.4,-2.679 34.8,-3.489 11.5,-0.81 22.7,0.063 32.9,2.429 -5.7,6.044 -14.7,9.47 -25.2,11.711 -10.6,2.618 -22.7,4.049 -35.1,5.419 -10.4,-0.061 -21.6,1.185 -32.5,1.871 -10.9,0.808 -21.5,1.867 -31.1,0.249 0,0.248 0,0.435 0,0.683 -1.2,2.867 -3.8,5.733 -7.7,8.473 -3.2,1.806 -6.6,3.363 -10,4.796 13.6,-1.929 27.2,-3.363 40.8,-4.548 1.9,4.672 -1.4,9.408 -10.2,14.08 l -47.6,8.472 c -8.6,-3.114 -28,1.37 -28.8,-6.044 -7.4,1.372 -14.9,2.555 -22.4,3.738 -6.4,0.374 -12.2,0.25 -17.8,-0.436 -2.2,-0.684 -4.1,-1.246 -6.3,-1.869 -0.7,-0.559 -1.2,-1.119 -1.6,-1.744 -14.7,3.489 -29.3,8.037 -43.9,12.023 l -21.9,6.168 -10.9,3.115 -10.9,3.55 c 3.9,-0.251 7.9,-0.499 11.9,-0.749 4,-0.122 7.9,-0.249 11.7,-0.185 7.6,0.063 14.6,0.747 19.3,3.178 4.8,3.55 5.2,8.095 0.8,13.765 -7.5,5.606 -17.4,9.407 -28.2,13.33 -14.7,3.053 -29.5,5.981 -44.4,9.531 -7.4,1.745 -14.9,3.677 -22.3,5.794 -7.4,2.428 -14.7,5.107 -22.1,8.098 l -31.4,14.575 c -14.1,5.171 -27.1,12.277 -40.1,19.067 -12.9,7.04 -25.7,14.01 -38.6,20.99 8.5,-2.74 17.3,-4.8 26.1,-6.35 93.4,-35.201 187.5,-68.153 284.8,-91.264 89.8,-13.145 179.9,-29.526 271.1,-30.461 9.1,1.742 19.2,2.18 29.7,2.18 5.2,-0.126 10.5,-0.25 15.9,-0.311 5.3,0.061 10.7,0.124 16,0.185 l 15.3,-0.124 c 37.2,0.063 74.1,4.173 111,7.726 57.8,3.238 116.1,10.402 172.6,26.847 12.4,3.053 24,6.728 33.6,11.959 l -1.8,-2.117 c 2.7,-0.187 5.3,-0.248 7.9,-0.248 2,1.806 4.8,2.803 8.2,3.115 0.4,0.934 0.9,1.866 1.5,2.803 6.7,1.307 13.1,3.363 19.1,6.103 0.7,0.438 1.2,0.81 1.7,1.185 7.2,1.681 14.4,3.175 21.6,4.484 3.6,-0.311 7.5,-0.25 12,0.188 3.1,0.934 6.4,1.744 9.6,2.616 1.6,0.187 3.3,0.435 4.9,0.498 l -0.7,-1.433 c 6.6,0.124 13.1,0.995 19.9,1.869 4.9,1.557 9.7,2.803 14.5,3.677 l 25.7,10.775 c 8.6,3.55 17.2,7.039 25.5,11.212 l 50.2,23.986 v 0 c 20.5,13.21 43.3,24.6 66.2,35.63 22.4,12.02 44.5,24.42 63.4,39.24 l 36.9,23.67 v 0 0 l 21.5,12.28 20.9,13.2 v 0 c 11,5.86 21.4,10.41 30.5,10.91 z M 15367,1032.13 c -6.9,-4.73 -14.1,-8.34 -21.5,-11.52 l 13.3,7.29 13.1,7.85 z m -478.6,-186.376 c 0.3,0.126 0.7,0.311 1,0.498 0.3,-0.187 0.5,-0.372 0.8,-0.559 -0.6,0 -1.1,0 -1.8,0.061 z m -531.6,42.984 0.3,0.621 c 1.6,-0.499 2.5,-0.871 2.2,-0.935 -0.4,-0.185 -0.9,-0.248 -1.4,-0.372 z m -121.9,176.042 c 2.5,-0.94 5.2,-1.87 7.8,-2.74 2.4,-0.88 4.8,-1.75 7.2,-2.56 8.9,-3.11 17.9,-6.1 26.9,-9.03 1.3,-0.44 2.5,-0.87 3.8,-1.25 10,-3.23 20,-6.29 30.1,-9.28 0.3,-0.12 0.7,-0.25 1.1,-0.37 54.4,-16.07 110.2,-28.97 167.2,-38.44 4.5,-2.488 9.6,-4.668 16.4,-6.412 l -0.4,-0.125 c 4.8,-0.747 9.6,-1.744 14.4,-2.43 l 14.6,-1.806 29.1,-3.674 c 6.4,-0.687 10.9,-0.127 13.8,1.494 8.4,-4.86 18.5,-7.288 32.6,-6.293 16.3,-1.307 32.7,-3.299 49,-4.049 4.8,0.251 9.1,0.998 12.8,2.307 l -0.6,-3.115 c 3.9,1.307 8.3,1.869 13.4,1.682 12.6,3.611 25.2,1.932 37.9,-0.499 l 41,0.995 20.5,0.562 c 6.8,0.248 13.6,0.935 20.4,1.37 16,4.237 32.9,5.047 49.8,6.042 6.5,0.686 12.9,1.37 19.3,2.18 -5.4,-1.37 -10.6,-2.803 -14.8,-5.107 -2.7,-5.483 -4.9,-14.077 11.8,-11.461 19.5,3.299 36.3,3.363 52.4,2.117 3.9,-0.312 7.9,-0.747 11.8,-1.183 3.9,-0.25 7.7,-0.562 11.6,-0.871 3.8,-0.314 7.6,-0.625 11.4,-0.873 -7.1,-0.935 -14.1,-1.933 -21.1,-3.052 -5.1,-0.747 -10.3,-1.684 -15.4,-2.368 -5.1,-0.686 -10.3,-1.372 -15.4,-2.18 -10.3,-1.557 -20.5,-3.489 -30.7,-5.794 -1.6,-1.557 -4.8,-2.679 -8.8,-3.613 l 8.8,3.55 c -73.6,-3.239 -147.1,-1.557 -219.7,6.105 v 0 0 c -4.5,0.998 -9.2,2.244 -14.3,2.867 -10.6,5.854 -23,8.782 -36.2,10.59 -6.7,0.934 -13.4,1.557 -20.3,2.056 -6.8,0.871 -13.6,1.681 -20.4,2.552 -13,1.745 -26.1,3.302 -39.2,4.86 -13.2,1.433 -26,4.049 -39.1,6.042 -13,2.243 -26,4.175 -38.9,6.854 -12.9,2.99 -25.7,6.1 -38.4,9.47 -7.5,2.3 -14.9,4.54 -22.4,6.85 -7.3,2.62 -14.6,5.29 -22,7.91 -14.7,5.3 -29.6,10.03 -45,14.2 -25.4,6.61 -49.7,16.01 -73.8,25.92 z m -86.8,33.45 c 0.1,0.31 0.4,0.62 0.5,0.93 3.7,-1.62 7.3,-3.18 11,-4.73 1.8,-0.75 3.6,-1.62 5.4,-2.37 -2.7,0.94 -5.3,1.93 -8.1,2.81 z m -363.4,229.92 c -5.3,4.05 -11,7.85 -16.2,12.03 -3.3,2.49 -6.4,4.92 -9.6,7.41 -5.9,6.23 -11.6,12.39 -17.4,18.25 -4.9,4.86 -9.7,9.72 -14.5,14.45 -4.8,4.67 -9.5,9.35 -13.9,14.14 -9.1,9.47 -18,18.69 -26.8,27.85 -4.4,4.54 -8.8,9.09 -13.2,13.58 -4.1,4.73 -8.3,9.47 -12.4,14.14 -17.1,16.38 -30.6,38.31 -49.6,53.32 0.1,-0.12 0.2,-0.31 0.3,-0.5 -17.7,22.24 -34.8,44.92 -51.2,67.97 -8.9,12.89 -18.2,25.54 -26.7,38.68 l -24.9,39.87 c -8.6,13.08 -16,26.91 -23.7,40.61 -7.5,13.71 -15.5,27.16 -22.5,41.18 5.3,-10.22 12,-19.63 18.6,-28.91 l 7.8,-13.33 c 3,-9.16 6.3,-16.82 9.8,-21.49 3.3,-4.23 7.1,-5.79 10.9,-3.92 1.2,-2 2.4,-3.93 3.6,-5.86 0.2,-10.21 5,-20.18 11.2,-30.02 6.8,-10.53 14.7,-21.12 20.8,-31.4 l 10.8,-10.4 v 0 0 l 21,-29.65 c 6.9,-9.91 14.8,-19.25 22,-28.97 l 22.2,-28.84 c 7.5,-9.53 15.7,-18.5 23.5,-27.72 l 24,-27.35 c 8.3,-8.78 17,-17.19 25.6,-25.6 6.7,-6.54 13.5,-12.9 20.4,-19.25 10.5,-10.72 21.2,-21.31 32.1,-31.65 4.1,-3.86 8.2,-7.66 12.3,-11.46 4.2,-3.92 8.3,-7.85 12.6,-11.65 5.6,-5.1 11.3,-10.09 17,-15.07 2.7,-2.43 5.4,-4.86 8.2,-7.23 6.1,-5.29 12.2,-10.46 18.5,-15.63 0.5,-0.81 1.1,-1.68 1.6,-2.49 -10.6,8.59 -21.3,16.88 -32.2,24.91 z m -431.7,381.36 c 0.8,-0.68 1.6,-1.43 2.5,-2.18 v 0 l 2.9,-6.1 c -1.8,2.74 -3.6,5.48 -5.4,8.28 z m -30.9,64.6 c 1.3,-2.43 2.8,-4.92 4.4,-7.41 1.9,-1.81 3.6,-3.12 5.2,-4.12 2.5,-8.15 3.4,-16.75 5.6,-24.98 -4.8,9.1 -9.2,18.26 -14.4,26.79 -0.2,3.18 -0.5,6.42 -0.8,9.72 z m -97.1,361.55 c 0.2,-0.37 0.3,-0.75 0.5,-1.12 3.8,-21.74 7.2,-43.54 11.5,-65.16 l 14.5,-64.54 c 3.4,-10.46 7.3,-20.74 11,-31.14 0.1,-0.07 0.1,-0.19 0.1,-0.25 -1.6,3.49 -3.3,6.85 -5.1,9.96 -3.4,4.92 -6.9,9.41 -10.6,13.96 -1.9,7.41 -4.1,14.82 -5.9,22.3 -4.1,24.79 -9.1,48.84 -19.7,69.58 v 0.06 c -0.9,10.47 -5,22.86 -0.9,30.47 2.8,3.17 4.1,8.84 4.6,15.88 z m -31.6,295.77 0.8,24.79 1.9,24.79 c -4.7,14.14 -3,33.33 -3.7,50.71 v 0 0 l 9.6,75.25 c 2.3,14.01 4.8,28.09 7.3,42.11 0.1,-0.44 0,-0.87 0.1,-1.31 l -1.4,-32.2 c -0.5,-10.66 -1.2,-21.31 -0.9,-32.09 4,-15.94 0.2,-40.86 6.5,-54 -6.4,-102.04 9.1,-197.66 26.9,-293.4 0,-5.55 0.8,-10.72 2.5,-15.64 l 2.1,-33.02 c 1.2,-7.84 2.3,-15.76 3.7,-23.6 l 4.6,-23.43 c -3,-10.96 -1,-21.99 4.6,-32.83 2,-4.98 2.6,-10.21 2.9,-15.57 6.4,-21.18 11.2,-43.92 20.6,-62.17 v 0 0 c 2.2,-13.33 4.8,-26.6 7.2,-39.99 2.7,-13.27 4.7,-26.79 7.9,-39.99 l 11.3,-13.83 10.9,-30.15 c 1.6,-5.05 3.1,-10.16 4.7,-15.14 l 5.4,-14.95 10.7,-29.9 0.2,-1 c -0.1,-12.33 3.6,-23.85 12.6,-33.82 v -0.06 c 0.2,-2.74 1.3,-5.17 3.2,-7.17 v -0.06 l 2.8,-21.05 8,-17.2 4.1,-8.59 4.4,-8.41 c 1.9,-8.85 5.4,-18.01 9.4,-27.23 0,-0.81 0.1,-1.61 0.1,-2.49 2,-12.15 6.1,-22.8 11.7,-32.39 5.8,-9.47 12.8,-18 19.7,-26.41 5.8,-9.91 12,-19.38 18.8,-27.79 3,-5.04 6.5,-9.71 9.6,-14.51 -2.6,-10.46 5.5,-28.78 7.1,-42.48 1.1,-4.42 2.5,-9.03 4.3,-13.83 l -20.8,32.45 c -6.7,10.9 -14.1,21.49 -20.2,32.77 -4.3,-4.42 -6.2,-9.41 -6.4,-14.83 l -4.8,7.17 c -6.8,9.34 -13,19.18 -18.8,29.65 -3.3,6.66 -6.2,13.39 -9.1,20.12 l 10.9,-16.88 c 2,0.18 3.5,0.99 4.8,2.43 -4.9,9.28 -10.1,18.44 -14.8,27.84 l -13.6,28.53 v 0 c -8,17.19 -17.9,34.33 -20.6,51.46 0.5,0.37 1,0.87 1.5,1.43 2,4.17 1.8,10.46 -0.8,18.81 l -10.2,23.86 -6.5,10.59 -5.8,10.78 -11.8,21.74 c -4.5,13.52 -9.8,26.47 -16,37.87 0.1,0.13 0.1,0.19 0.1,0.31 -0.9,7.35 -2.3,14.83 -4.5,22.55 -2.9,9.72 -6.7,18.51 -10.7,27.23 -1.1,2.55 -2.3,5.16 -3.5,7.78 0.1,-0.06 0.2,-0.18 0.3,-0.18 l -5.6,29.34 c 1.6,1.12 3,2.86 4.1,5.23 l -5.1,22.61 c -1.7,7.54 -2.7,15.2 -4.2,22.8 l -2,-1.62 -10.5,48.15 c -3.3,16.07 -5.5,32.33 -8.3,48.47 -6.2,32.26 -8.9,64.97 -12.8,97.48 -1.5,8.35 -2,16.7 -2.9,25.11 l -2.4,25.16 -5.5,1.94 c -5.2,-5.92 -8.2,-15.27 -10.1,-26.23 -1,-5.54 -1.7,-11.46 -2.2,-17.63 -0.3,-3.42 -0.4,-6.97 -0.5,-10.53 l -3.3,8.66 c -2.1,5.36 -4,10.78 -5.8,16.2 1.7,6.73 2.3,15.2 2.5,24.67 0.9,10.21 0.2,19.93 -1.3,29.59 -1.5,9.59 -3,19.12 -4.8,28.65 -3.3,19.06 -6.6,38.44 -1.5,58.87 z m 105.2,454.99 -4.2,-14.58 -3.7,-14.76 0.9,5.98 c 1.5,8.16 4.1,15.88 7,23.36 z m 53.4,-44.67 c 0.5,7.16 0.4,13.89 -0.9,19.87 8.7,1.62 15.8,18.32 23.2,31.34 0.4,-4.05 1.5,-7.42 3.4,-9.78 0.7,0 1.4,0.25 2,0.43 l -0.4,-0.99 c -8,-7.04 -13.9,-16.95 -19,-27.91 -4.9,-11.03 -8.2,-23.49 -12.2,-35.32 1.8,7.66 3.3,15.2 3.9,22.36 z m 56.8,203.33 c 2.2,1.37 4.6,3.49 7.2,6.47 l 1.8,2.93 -1.3,-4.23 c -0.9,-4.93 -1.7,-9.91 -2.5,-14.89 -4.3,-4.73 -8.4,-10.28 -12.1,-17.19 z m 2662,-334.33 c 1.3,-1.43 2.6,-2.87 3.6,-4.36 2.6,-7.35 5,-14.89 7.2,-22.55 0.3,-6.11 -0.2,-12.33 -0.7,-18.5 0,-6.17 -0.4,-12.77 0,-19.5 0.4,-5.79 1.1,-11.65 1.9,-17.5 -0.6,2.61 -1.3,5.29 -1.8,7.91 -1.1,5.54 -2.1,11.21 -3.3,16.75 -1.2,7.98 -3.5,15.39 -5.9,22.12 -0.9,3.55 -1.6,7.1 -2.3,10.65 0,1.5 -0.1,2.99 0,4.48 -0.3,8.54 -1.7,16.45 -4,23.86 1.8,-1.3 3.5,-2.43 5.3,-3.36 z m -1151,-1715.678 c 1.2,-0.063 2.5,-0.187 3.7,-0.435 l -0.7,0.061 c 8.6,-3.427 18.7,-1.122 28.9,2.554 l 23.4,4.738 23.1,5.79 c -0.6,1.68 -1.4,2.99 -2.6,4.11 37.2,7.79 73.7,17.01 109.6,27.66 0.4,0.12 0.8,0.25 1.1,0.37 4.8,1.37 9.6,2.74 14.3,4.24 4,0.06 7.9,0.18 11.6,0.18 -3.2,-1.92 -6.5,-3.92 -10.2,-5.35 4.4,-14.2 6.8,-27.6 -43.3,-32.77 -18.3,-2.18 -34.1,-4.61 -46.7,-10.089 -8.1,-3.426 -14.7,-7.911 -20.2,-13.269 -8,-1.869 -16,-3.677 -23.9,-5.234 v 0 0 c -5.6,-0.932 -11.3,-1.743 -16.9,-2.553 6.4,2.553 8.6,5.047 -5.3,6.977 -10.5,1.433 -25.2,0.747 -35.3,2.304 -8.1,1.185 -13.1,4.236 -10.6,10.716 z m -952.5,198.778 c 6.3,-5.8 12.8,-10.47 19.7,-14.08 -2.1,-0.31 -4.2,-0.68 -6.1,-1.31 -1.9,0 -3.9,0.19 -5.7,0.5 -7,3.36 -14,7.04 -21,10.84 -4.5,4.11 -8.5,8.91 -12.6,13.64 -4.3,4.36 -8.7,9.28 -13.7,13.77 -4.4,3.8 -9.1,7.47 -13.7,11.03 2.3,-1.38 4.5,-2.87 6.8,-4.3 4.6,-3.18 9.4,-6.42 14.2,-9.6 6.5,-4.73 13.3,-8.41 19.8,-11.34 3.1,-1.99 6.1,-3.98 9.2,-5.91 1.1,-1.06 2.1,-2.12 3.1,-3.24 z m -538.9,608.67 6.2,-14.52 c 2.1,-4.8 4.5,-9.53 6.7,-14.33 -2.3,4.74 -4.7,9.41 -6.9,14.21 l -6.3,14.38 -12.8,28.78 c 4.6,-9.34 9,-18.87 13.1,-28.52 z m 2215.3,-460.48 c 0.5,0.56 1.1,1.06 1.7,1.62 2.1,1.87 4.2,3.86 6.3,5.73 3.9,2.99 7.7,5.98 11.6,9.04 -7.2,-6.73 -14.1,-13.89 -21.6,-20.31 l -4.9,-4.48 c 2.3,2.8 4.6,5.6 6.9,8.4 z m 232.1,1808.56 c -0.1,2.8 -0.7,5.67 -1.6,8.6 0.1,-0.19 0.2,-0.31 0.3,-0.44 1.9,-3.05 3.7,-6.17 5.6,-9.22 -1.5,0.19 -2.9,0.25 -4,0.25 z m -541.7,-2061.53 -20.9,-10.09 -13.2,-5.79 c -4.2,-1.25 -8.5,-2.56 -12.6,-3.68 2.6,3.11 4.2,6.23 4.5,9.28 -0.5,0.44 -1.1,0.81 -1.7,1.13 l 0.9,0.37 c 10.7,-0.63 21.9,2.12 33.2,6.35 11.3,4.36 22.4,10.78 33.6,16.32 -4.1,-2.61 -8.1,-5.29 -11.9,-8.03 -4,-1.93 -7.9,-3.93 -11.9,-5.86 z m -1999.9,1648.22 c 2,7.78 3.4,16.01 3.5,24.85 0.1,0.31 0.1,0.69 0.1,1 0.5,-6.17 1.7,-11.78 4,-16.64 0.8,-0.93 1.7,-1.49 2.6,-1.93 l -2.6,-9.96 c -2.8,-8.54 -5.5,-16.88 -6.5,-25.17 -1.1,-8.35 -1.3,-16.38 -0.4,-24.17 v 0 l -6.7,-38.93 c 0.2,-1.44 0,-2.87 0,-4.3 -2,-5.3 -3.5,-11.34 -4.7,-17.88 -0.8,-10.59 -2,-21.18 -3.3,-31.71 -0.9,-10.59 -1.9,-21.24 -3.1,-31.83 -0.9,-7.91 -1.9,-15.88 -2.9,-23.86 0.3,3.18 0.6,6.36 1,9.54 2.8,63.91 10.2,128.01 19,190.99 z m -26,-636.95 -0.2,0.19 0.1,0.43 z m 38.3,-89.52 c -2.3,7.98 -4.9,15.76 -7.9,23.3 -7,12.71 -10.8,30.09 -16.7,44.35 0.4,2.99 1.1,5.86 2.4,8.54 l 0.6,4.48 0.4,-1.3 v 0 c 0,-0.07 -1,-3.18 -1,-3.18 4.1,-9.22 7.8,-18.5 11.3,-27.91 3.4,-9.47 6.7,-19 10,-28.59 6.7,-19.19 11.3,-39.37 15,-60.61 1.1,-11.9 3.9,-23.11 11.3,-32.08 1.5,-2 2.5,-4.49 2.9,-7.36 2.2,-5.23 4.5,-7.22 6.7,-6.47 0.7,-3.86 1.6,-7.79 2.7,-11.71 1.4,-3.87 2.7,-7.73 4,-11.59 2.6,-7.73 4.9,-15.45 5.5,-22.99 l 4.4,-11.65 c -7.6,15.39 -14.9,31.09 -21.3,47.22 -6,16.32 -11.4,33.02 -16.5,49.9 l -3.8,11.77 -3.3,12.02 z m 2300.4,1459.47 -1.6,0.75 0.1,0.62 z m 29.4,81.54 c -0.3,0.19 -0.6,0.44 -0.9,0.62 l -9.8,10.28 c 5.1,-1.87 10.1,-3.36 14.9,-4.42 l 1.7,-1.37 c -2,0.75 -4,1.43 -6.1,1.87 -0.5,-2.18 -0.5,-4.49 0.2,-6.98 z m 6.7,16.63 c 6.8,-6.47 13.3,-13.2 20.4,-19.12 13.9,-12.09 29.2,-21.99 46.3,-29.4 16.9,-18.69 35.5,-36.57 50.2,-56.01 5.3,-7.03 10.7,-14.14 16.3,-21.11 l 29.9,-29.03 c 9.5,-10.03 18.8,-20.43 28,-30.77 9.2,-10.47 18.6,-20.68 27.1,-31.65 8.5,-11.02 16.9,-22.11 25.2,-33.33 -2,1.94 -4,3.62 -6.1,4.62 -7.4,9.03 -14.6,18.5 -22.2,27.15 -6.5,7.6 -14,14.08 -21.7,19.38 -3.6,4.73 -7.2,9.4 -11,14.01 -4.9,5.98 -10,11.9 -15.1,17.76 -5.1,5.92 -10.8,11.27 -16.2,16.88 -22,22.18 -43.6,44.6 -63.2,67.96 l -26,22.11 -8.9,8.73 -9.3,8.34 -18.5,16.57 -18.7,16.63 c -6.2,5.49 -12.3,11.09 -18.9,16.2 -3.2,2.62 -6.5,5.24 -9.7,7.85 2.5,0.68 3.1,3.12 2.2,6.79 6.5,-7.1 13.1,-14.02 19.9,-20.56 z m -935.8,-2850.592 37.8,4.484 c 12.6,1.37 25.1,3.986 37.6,5.918 v 0 l 35.7,3.487 17.8,1.745 17.8,2.555 c 23.6,3.55 47.3,6.728 70.8,10.777 64.6,14.95 128.6,31.894 190.5,54.256 14.7,5.419 29.9,10.091 44.8,15.573 14.9,5.67 29.7,11.4 44.1,17.442 7.2,2.991 14.3,6.105 21.2,9.283 6.9,3.115 13.5,6.977 19.9,10.651 12.9,7.414 25,15.386 35.6,24.107 v 0 0 c 18.8,7.227 37.1,16.011 53.6,25.168 8.3,4.609 15.9,9.468 22.8,14.7 3.4,2.618 6.7,5.358 9.6,8.161 2.9,2.991 5.6,6.042 8,9.22 v 0 c 22.7,9.967 44.6,20.681 57.4,36.441 20.9,12.396 42.2,24.295 62.8,37.004 20.1,13.33 39.2,27.72 55.8,43.67 l 0.1,0.06 c 7.9,5.73 15.3,12.15 22.9,18.31 l 22.8,18.63 c 7.5,6.23 15.1,12.33 22.5,18.69 l 21.7,19.62 c 13,10.34 26.2,20.43 38.9,31.02 1.2,3.11 2,6.04 2.5,8.72 v 0 l 21.4,20.75 27.3,22.11 35.2,42.73 c 7.3,7.85 14.6,15.7 21.5,23.98 l 1.6,3.24 c 0.5,-1.49 1.2,-2.99 2,-4.29 11.9,8.16 22,17.31 30.6,27.28 4.2,4.92 8.1,10.09 11.5,15.45 3.3,5.48 6.1,11.21 8.6,17.07 12.3,17.87 25.8,34.88 38.8,52.26 12.8,17.63 26,34.88 39.5,52.14 12.7,17.69 25.5,35.44 38.2,53.2 6.6,8.78 12.4,18.06 18.2,27.22 l 17.5,27.72 c 2.8,4.67 6.8,10.84 10.4,15.51 3.6,4.67 6.6,7.98 8.4,6.54 18.7,-15.26 28.5,23.99 41.5,46.97 6.3,10.97 12.6,13.89 18.5,15.64 5.8,15.01 13.6,29.77 21,44.54 1.8,3.74 3.7,7.41 5.5,11.09 1.6,3.79 3.2,7.6 4.6,11.4 2.9,7.6 5.5,15.2 7.3,22.92 v 0 0 l 13.3,28.41 5.1,9.03 4.8,9.22 9.1,18.62 c 6,12.52 11.6,25.17 16.8,38 9.7,25.92 17,52.76 21.7,80.17 v 0 l 8.4,30.4 c -0.9,-1.12 -1.8,-2.43 -2.7,-3.67 0.9,1.3 1.7,2.55 2.8,3.67 4.2,12.27 8.4,24.61 12.2,37 3.9,12.4 6.6,25.11 9.6,37.75 2.9,12.65 5.6,25.3 8,38.07 2.7,12.64 3.9,25.66 5.7,38.49 v 0 0 l 2.9,18.38 v 0 0 l 5,27.35 c 1.5,9.15 2.6,18.37 3.8,27.53 l 7.3,55.13 4.6,55.38 c 0.6,9.22 1.6,18.44 2,27.72 l 0.9,27.72 c 5.2,25.6 7.4,52.14 6.3,78.86 -0.8,26.72 -2,53.57 -4.5,80.23 -2.1,2.12 -3.7,2.56 -5,1.81 1,6.23 2.1,12.27 4.1,16.82 -1.3,13.7 -2,27.53 -3.9,41.24 l -5.5,41.11 c -4.6,15.45 -8.6,30.9 -16.4,39.68 l -9.2,45.72 -4.7,22.87 -5.7,22.61 -11.5,45.16 c -3.8,15.02 -8.8,29.78 -13.2,44.6 -5.5,23.92 -13.2,41.99 -25.9,48.16 -39.2,102.03 -78.7,203.88 -132.5,299.25 -29.2,59.37 -66.6,114.43 -106.4,167.38 -20.6,25.92 -40.8,52.21 -63.1,76.75 -11.1,12.33 -21.6,25.17 -33,37.19 l -33.9,36.25 -10.9,11.4 c -0.5,1.75 -1,3.37 -1.7,5.05 l -18.8,18.06 c -1.8,0.69 -3.6,1.25 -5.4,1.68 l -21.7,20.69 c 0.2,1.86 -1.3,4.67 -5.4,8.66 l -20.8,18.81 -25.8,22.05 c -4.4,3.61 -8.6,7.41 -13.1,10.9 l -13.4,10.4 c -10.2,4.37 -20,11.03 -29.7,18.13 -5,3.55 -9.8,7.16 -14.7,10.71 -4.9,3.43 -10.1,6.48 -15.1,9.22 -17.8,14.33 -36,28.41 -55,40.99 -19.3,12.28 -38.9,24.11 -58.6,35.57 -6.8,5.55 -14.5,10.97 -22.2,16.39 -14.2,8.78 -29,16.94 -43.9,24.98 -14.9,7.66 -29.6,15.69 -43.1,25.35 -7.3,3.49 -14.5,7.16 -21.8,10.53 -16.9,4.05 -33.4,10.65 -49.9,17.69 -8.3,3.36 -16.5,7.29 -24.9,10.28 -2.2,0.81 -4.4,1.55 -6.6,2.3 -4.4,2.06 -8.8,4.11 -13.3,6.11 v 0 c -30.7,15.51 -62.9,29.83 -96.5,40.42 l -25.1,8.41 c -8.4,2.75 -16.7,5.61 -25.2,7.92 -16.9,4.92 -33.8,9.9 -50.4,15.32 -10.8,2.86 -21.7,5.05 -32.6,7.23 -15.2,5.91 -21.4,3.73 -24.3,-1.31 8.1,-8.54 28.4,-10.03 40.1,-16.39 26.3,-7.72 52.6,-15.01 78.7,-23.29 7.5,-4.05 15.7,-7.48 24.4,-10.35 13.8,-3.61 28.1,-8.78 42.2,-13.82 13.9,-5.49 27.7,-10.59 41,-13.21 5.4,-2.06 10.8,-4.05 16.2,-6.04 -2.4,-3.8 0.3,-7.42 6.1,-10.97 8.1,-5.23 22.2,-9.78 34.5,-15.82 23.5,-10.65 47.8,-20.87 71,-32.39 4.2,-2.43 8.6,-4.61 13,-6.67 21.2,-11.27 41.1,-24.04 58.3,-39.8 6.7,-5.3 14,-10.16 22,-14.45 7.5,-3.8 14.5,-6.73 21.1,-8.79 9.1,-7.72 18.4,-15.2 27.9,-22.55 -7.1,4.18 -14.1,8.48 -21.1,12.9 -12.1,7.47 -23.7,15.76 -36.2,22.55 -12.4,7.1 -24.8,13.89 -37.4,19.93 -6.3,2.99 -12.7,5.86 -19.1,8.35 -6.6,2.3 -13.2,4.3 -19.9,5.98 17.5,-8.6 34.1,-18.63 51,-28.35 16.8,-9.78 33.8,-19.18 49.8,-30.02 36.4,-26.6 76,-51.33 109.3,-81.54 -0.1,0.06 -0.1,0.06 -0.1,0.06 -7.8,3.86 -11.7,3.55 -11.6,-0.87 3,-5.11 6.5,-9.78 10.2,-14.2 -2.7,1.37 -5.5,2.67 -8.3,3.92 -5.3,2.43 -11,4.42 -16.5,6.6 -18,12.65 -35.8,25.67 -54.1,37.94 l -55.9,35.44 c -9.8,4.93 -19.9,9.41 -29.8,14.15 -9.6,4.92 -19.8,15.88 -28.8,12.14 l 24.7,-16.82 c -0.3,-1.93 0,-4.17 0.8,-6.6 l 19.6,-12.33 c 6.5,-4.18 12.8,-8.85 19.1,-13.21 l 0.3,2.55 41.4,-26.6 c 13.7,-9.03 26.9,-18.93 40.3,-28.34 27.1,-18.56 52.2,-39.68 77.9,-59.93 6.9,-4.92 13.3,-10.4 19.8,-15.75 l 19.5,-16.08 5.3,2.5 c -0.5,7.91 -5,16.63 -11.4,25.78 -3.2,4.55 -7,9.22 -10.9,13.96 -1.1,1.31 -2.4,2.62 -3.6,3.86 2.2,-0.93 4.4,-1.87 6.7,-2.74 1.1,-0.06 2,0 3,0.13 l -0.9,-1.56 c 0.7,-3.3 2.4,-7.35 5.5,-11.84 5.4,-6.6 11.1,-13.14 17.4,-19.56 l 4.6,-3.92 3.2,-4.3 c 7.7,-8.53 16.2,-16.07 24,-24.23 8.1,-8.04 16.3,-15.76 24.6,-23.24 8.4,-7.54 17.1,-14.7 25.5,-22.18 l 25.1,-22.48 c 2.7,-1.25 5.3,-2.37 7.7,-3.3 7.5,-10.72 15.4,-21 22.4,-32.08 l 1.4,-0.75 -1.3,0.43 -9,-10.03 18.9,-21.18 c 9,-6.72 17.3,-15.57 24.8,-25.04 4,-4.73 8.1,-8.59 12.4,-11.58 2.8,-2.06 5.6,-4.61 8.3,-7.79 10.1,-2.68 6.7,6.98 2.6,17.44 -11.3,20.56 -26.1,37.81 -43.8,51.02 5.8,-2.62 10.9,-3.99 14,-1.31 8,-5.36 15.8,-13.08 23.5,-20.74 0.9,-1.5 1.7,-2.93 2.7,-4.42 5.6,-9.29 13.2,-18.94 20.9,-28.6 7.5,-7.35 14.5,-16.13 21.7,-24.42 3.8,-4.36 7.6,-8.72 11.4,-12.7 3,-4.36 6.1,-8.72 9.1,-13.09 -0.3,-2.36 -0.2,-5.1 0.3,-8.22 1,-3.55 2.3,-7.04 3.6,-10.46 -8.2,10.96 -16.8,21.61 -25.6,32.01 -4.6,-1.93 -5.6,-7.53 -2.8,-17.06 l 27.8,-39.68 c 8.2,-3.93 18.8,-20.75 24.6,-16.14 4.3,-6.16 8.7,-12.27 13.2,-18.44 4.3,-4.79 8.5,-8.84 12.9,-12.27 2,-1.06 3.8,-2.05 5.8,-3.11 0.4,-0.07 0.8,0 1.1,0.06 1.1,-1.75 2.2,-3.49 3.3,-5.23 3.8,-6.11 7.5,-12.15 11.3,-18.13 0.8,-1.43 1.6,-2.8 2.5,-4.17 2.2,-3.99 4.4,-8.04 6.7,-11.96 l 11.1,-19.88 5.5,-9.96 5.2,-10.16 c -2.6,2.93 -5.2,5.92 -7.9,8.91 -2.7,2.93 -5.4,5.79 -8.1,8.47 -5.5,5.36 -10.8,9.66 -15.9,11.34 -5.9,0.87 -9.4,-2.06 -10.4,-9.16 1.4,-9.28 5.8,-19 10.5,-29.34 8.4,-12.58 16.7,-25.16 24.7,-38.18 4,-6.48 8,-13.09 11.8,-19.87 3.4,-6.92 6.7,-14.02 9.8,-21.31 l 12,-32.58 c 6.2,-13.58 10.4,-27.78 14.8,-41.8 4.2,-14.07 8.3,-28.09 12.4,-42.11 -4.1,7.98 -8.7,15.58 -13.9,22.93 -41.2,90.95 -84.4,180.77 -136.8,265.93 -54.3,72.76 -106.4,148.07 -170.2,213.16 -7.7,5.3 -15.2,12.15 -22.5,19.56 -3.7,3.74 -7.3,7.6 -11.1,11.4 -3.8,3.74 -7.6,7.48 -11.4,11.15 l -10.8,10.97 c -26.4,26.22 -55.4,49.46 -84,73 -43.1,38.63 -89.4,74.76 -141,103.1 -10.9,6.54 -21.7,12.21 -32.2,15.32 l 2.8,0.19 c -1.8,1.99 -3.6,3.93 -5.4,5.79 -2.7,0.13 -5.4,1.37 -8,3.62 -0.9,-0.44 -2,-0.75 -3.1,-1 -5.6,3.86 -11.6,6.91 -17.8,9.22 -2.7,0.68 -4.8,0.87 -6.5,0.68 l -9.1,5.24 c -2.9,4.73 -7.2,9.71 -13.5,14.95 -21,11.02 -41.5,25.6 -62.6,37.37 -21.5,10.78 -43.7,18.75 -66.7,17.2 -6.2,-3.93 -14.3,-4.05 -23.3,-2.06 -12.6,9.03 -31.8,17.07 -45.5,25.98 -15,3.55 -30.2,7.78 -45.4,12.58 -7.6,2.43 -15.2,4.8 -22.8,7.23 -7.7,2.3 -15.5,4.17 -23.1,6.16 -15.4,3.93 -30.8,7.42 -45.8,9.78 -15.2,2 -30.2,2.18 -44.6,0.94 -12.9,0.12 -25,3.74 -37.2,6.97 -12.2,3.12 -24.3,6.73 -36.8,8.17 -10.3,1.05 -20.8,2.8 -31.4,4.04 -10.6,0.94 -21,1.81 -31.1,2.06 -10,0.25 -19.7,-0.12 -28.4,-1.62 -4.4,-0.75 -8.6,-1.68 -12.5,-3.11 -3.9,-1.5 -7.6,-3.37 -10.9,-5.61 l 5.8,-0.44 5.7,-0.62 c 6.7,0.81 13.6,0.38 20.7,-1.37 16.5,-0.37 33.1,-1.68 49.7,-3.49 16.5,-2.49 32.9,-5.61 49.3,-8.78 8.2,-1.62 16.5,-3.05 24.6,-4.8 l 24.4,-5.73 c 16.3,-3.8 32.7,-6.73 49.1,-9.9 l 15.3,-9.1 c 15.1,-2.49 30.1,-5.85 45,-9.72 14.8,-4.42 29.4,-9.47 44.1,-14.51 l 21.9,-7.66 21.6,-8.41 c 14.4,-5.61 28.9,-10.84 43.6,-15.45 21.9,-13.77 44.2,-25.79 67.2,-36.63 11.4,-5.79 22.8,-11.21 34.6,-16.2 11.7,-5.1 23.9,-9.21 35.7,-14.2 h -0.1 0.2 l 15.6,-9.09 v 0 c 5.7,-5.98 12,-11.34 18.7,-16.32 6.7,-4.93 13.9,-9.41 21,-14.27 14.3,-9.47 29.4,-18.19 43.5,-27.84 v 0.06 l 0.1,-0.06 c 7.6,-5.36 15,-11.03 22.3,-16.7 -2.6,1.5 -5,2.56 -6.6,2.62 -5.5,0.25 3.8,-7.54 8.6,-12.09 l 11.7,-1.06 c 4.6,-3.42 9.1,-6.91 13.8,-10.27 4.2,-3.12 8.5,-5.99 12.6,-9.16 4,-3.18 8.2,-6.29 12.4,-9.41 8.3,-6.1 16.9,-12.02 25.8,-17.5 2.3,-0.13 5.3,-1.56 8.8,-3.74 l -8.8,3.74 c 54.4,-49.77 105.2,-102.91 151.1,-159.72 v 0 0 c 2.5,-3.86 5,-8.1 8,-12.09 3.5,-11.64 10.1,-22.55 18.2,-33.14 4,-5.29 8.4,-10.59 12.9,-15.76 1.6,-2.05 3.2,-4.11 4.8,-6.16 l -4.4,5.1 -10.4,12.15 c -8.9,8.85 -17.3,18.69 -25.4,28.84 -4,5.11 -8.3,10.1 -12.7,14.89 -4.3,4.92 -8.6,9.78 -13,14.52 -8.8,9.46 -17.9,18.37 -27.5,26.03 -3.9,2.99 -8.1,5.67 -12.4,8.1 l -24.9,23.67 -14.9,14.14 c -5,4.61 -10.2,8.97 -15.4,13.46 -14.3,8.22 -26.8,19.62 -39.4,30.9 -11,8.97 -22,17.81 -33.7,24.98 -3,2.24 -6,4.48 -8.9,6.72 -2.4,2.99 -5.4,5.86 -8.5,8.66 -4,3.55 -8.2,6.98 -10.6,10.78 l 0.4,-0.56 c -3.7,8.53 -12.4,14.08 -22.3,18.69 l -19.8,13.2 -20.5,12.21 c -0.8,-1.55 -1.1,-3.11 -1.1,-4.73 -31.7,20.74 -64.1,40.05 -97.1,57.93 -0.3,0.19 -0.6,0.37 -0.9,0.56 -9.3,4.98 -18.5,9.91 -27.8,14.64 -1.2,0.62 -2.5,1.24 -3.6,1.87 -8.5,4.3 -16.9,8.47 -25.5,12.58 -2.3,1.12 -4.6,2.24 -6.8,3.3 -7.5,3.55 -14.9,7.04 -22.4,10.47 -3.6,1.62 -7.1,3.24 -10.7,4.8 -6.3,2.8 -12.5,5.54 -18.8,8.22 -5,2.12 -9.9,4.24 -14.9,6.29 -5,2.06 -9.9,4.05 -14.9,6.04 -6.3,2.56 -12.7,5.05 -19.2,7.54 -3.6,1.37 -7.3,2.8 -10.9,4.11 -7.7,2.93 -15.4,5.73 -23.2,8.47 -2.4,0.81 -4.8,1.68 -7.2,2.56 -8.9,3.05 -17.9,6.1 -26.9,9.03 -1.3,0.37 -2.6,0.81 -3.8,1.25 -10,3.17 -20,6.29 -30.1,9.28 -0.3,0.06 -0.7,0.18 -1.1,0.31 -63.6,18.81 -129.1,33.26 -196.1,42.92 -0.4,0.06 -0.6,0.06 -0.9,0.12 -10.5,1.5 -21.1,2.93 -31.8,4.18 -1,0.12 -2.2,0.25 -3.2,0.37 -9.9,1.18 -19.7,2.24 -29.6,3.18 -2.2,0.25 -4.4,0.37 -6.6,0.62 -7,0.62 -14,1.31 -21.1,1.87 -5.2,1.12 -12.4,1.56 -18.3,2.43 -5.9,0.37 -11.5,0.5 -16.9,-0.19 -1.2,0.06 -2.5,0.06 -3.7,0.13 -2.8,0.12 -5.7,0.25 -8.5,0.37 -17.8,2.43 -35.9,4.05 -54,5.11 0.9,0 1.9,0 2.8,-0.07 13.1,-0.24 25.9,-0.49 38.6,-0.74 6.3,-0.07 12.6,-0.19 18.9,-0.25 6.3,-0.44 12.5,-0.81 18.8,-1.25 23.7,0.56 48.7,-5.42 72.8,-2.68 -8.5,4.18 -18.1,6.42 -27.9,7.29 -9.9,0.88 -19.9,1.19 -29.1,2.93 -13.7,-0.19 -27.2,0.62 -40.4,1.37 -13.2,0.81 -26,2.62 -38.4,6.36 -7.5,-0.32 -15.2,0.06 -23.2,0.31 -8,-0.07 -16.1,0 -24.3,-0.38 -16.6,-0.87 -33.4,-2.86 -49.1,-11.71 14.9,-0.12 29.1,-1.06 43,-1.06 3.3,0 6.5,0 9.8,0 -15.3,-0.25 -30.6,-0.62 -45.9,-1.18 2.4,-1.81 6.6,-2.99 11.3,-3.93 -4.1,-0.18 -8.1,-0.31 -12.2,-0.49 -7.6,-0.38 -15.1,-0.88 -22.7,-1.37 -3.6,-0.19 -7.2,-0.38 -10.8,-0.69 -8.9,-0.62 -17.8,-1.37 -26.6,-2.18 -2.2,-0.25 -4.4,-0.37 -6.5,-0.62 -8.8,-0.81 -17.6,-1.81 -26.3,-2.81 -1,0.94 -2.4,1.87 -4.1,2.87 -23,-3.24 -46,-5.48 -68.7,-10.15 -3.7,-1.93 -7.6,-3.55 -11.7,-4.99 -51.3,-9.09 -101.6,-21.11 -150.8,-35.69 -0.4,-0.13 -0.8,-0.25 -1.1,-0.31 -10.1,-2.99 -20.1,-6.11 -30.1,-9.28 -1.3,-0.44 -2.5,-0.88 -3.8,-1.25 -9,-2.93 -18,-5.98 -26.9,-9.03 -2.4,-0.88 -4.8,-1.68 -7.2,-2.56 -7.8,-2.74 -15.5,-5.54 -23.2,-8.47 -3.7,-1.31 -7.3,-2.74 -10.9,-4.11 -6.4,-2.49 -12.9,-4.98 -19.2,-7.54 -5,-1.99 -9.9,-3.98 -14.9,-6.04 -5,-2.05 -10,-4.17 -14.9,-6.29 -6.3,-2.68 -12.6,-5.42 -18.8,-8.22 -3.6,-1.56 -7.2,-3.18 -10.7,-4.8 -7.5,-3.43 -15,-6.92 -22.4,-10.47 -2.3,-1.06 -4.6,-2.18 -6.8,-3.3 -8.6,-4.11 -17,-8.28 -25.5,-12.58 -1.2,-0.63 -2.4,-1.25 -3.6,-1.87 -9.3,-4.73 -18.5,-9.66 -27.7,-14.64 -0.4,-0.19 -0.7,-0.37 -1.1,-0.56 -58.3,-31.65 -114.8,-67.78 -169.1,-108.39 -0.2,-0.12 -0.4,-0.31 -0.7,-0.5 -8.5,-6.41 -17,-12.89 -25.4,-19.5 -0.8,-0.68 -1.7,-1.37 -2.6,-2.05 -7.7,-6.17 -15.4,-12.34 -23.1,-18.63 -1.7,-1.37 -3.4,-2.8 -5,-4.23 -6.8,-5.67 -13.6,-11.4 -20.3,-17.2 -2.8,-2.36 -5.5,-4.79 -8.2,-7.16 -5.7,-4.98 -11.4,-9.97 -17,-15.07 -4.3,-3.87 -8.4,-7.79 -12.6,-11.65 -4.1,-3.87 -8.2,-7.6 -12.3,-11.53 -16.7,-15.88 -33,-32.14 -48.9,-48.84 -3.8,-4.04 -7.6,-8.15 -11.4,-12.27 -3.9,-4.23 -7.9,-8.34 -11.7,-12.64 -5.1,-5.61 -10.1,-11.28 -15.1,-16.95 -2.3,-2.74 -4.8,-5.42 -7.1,-8.16 -5.9,-6.73 -11.5,-13.51 -17.2,-20.3 -1.4,-1.75 -2.9,-3.37 -4.2,-5.11 -6.4,-7.6 -12.6,-15.33 -18.7,-23.05 -0.2,-0.25 -0.3,-0.5 -0.5,-0.69 4.5,7.91 10.4,16.08 12.7,23.74 -2,5.85 -6.6,13.39 -16.5,-0.25 -11.4,-16.13 -23.3,-28.09 -35.5,-38.5 -3,-2.62 -6.1,-5.11 -9.2,-7.6 -2.9,-2.49 -5.9,-5.05 -8.8,-7.53 -5.9,-5.05 -11.8,-10.1 -17.8,-15.21 -5.3,-10.71 -14.1,-25.41 3.2,-12.45 8.4,6.41 18.3,17.31 26.5,23.36 7.7,5.67 14.1,6.6 16.3,-3.68 -37.6,-51.14 -71.2,-104.34 -100.8,-159.03 -0.2,-0.32 -0.4,-0.69 -0.6,-1 -2.3,-4.36 -4.8,-8.72 -7.1,-13.08 -2.7,-2.87 -5.4,-5.73 -8,-8.41 0.9,3.61 1.8,7.41 3.4,11.09 -13.2,6.91 -24.3,14.7 7.4,53.69 11.4,14.52 20.9,27.41 25.9,40.18 5.1,12.71 6.5,24.79 3.6,36.26 -1.4,4.98 3.7,15.94 6,24.17 0.3,13.51 -2.5,18.12 -7.8,15.44 -2.6,-1.36 -5.9,-4.54 -9.7,-9.34 -4,-4.73 -8.4,-11.02 -12.8,-19.06 -2.4,-0.56 -5,-1.37 -7.7,-2.37 -12.1,-16.44 -23.6,-34.2 -34.7,-51.95 -10.7,-17.94 -21.8,-35.38 -35.2,-50.39 l -0.5,1.49 c -4.6,-4.73 -8.6,-10.03 -12.7,-15.39 -2.3,-4.54 -4.9,-8.84 -7.6,-12.83 l -10.7,-25.85 c -3.5,-8.54 -7.1,-17.13 -10,-25.98 l -18.6,-52.45 v 0 c -5.1,-23.79 -13.2,-47.96 -21.6,-71.95 -7.3,-24.35 -14.3,-48.77 -17.1,-72.63 l -9.3,-42.73 v -0.07 0.07 l -6.5,-23.93 -5.5,-24.16 v 0 c -3.6,-11.84 -7.8,-22.49 -13.9,-29.22 v 0 c 3,19.12 5.7,38.25 8,57.12 2.9,18.75 5.3,37.32 6.6,55.69 v 0 l 2.6,14.21 3.2,14.07 v 0 c 7.6,48.28 31.7,97.68 38.9,144.59 5.5,15.88 15.6,29.52 24.2,43.79 9.1,14.02 17.3,28.34 18.5,46.84 l 1.5,26.91 c 0.6,8.97 1.7,17.76 2.6,26.73 37.4,67.96 77,135.8 128,194.48 l -3,0.62 21.9,26.6 v 0 0 c 3.6,4.61 6,8.91 7.9,12.83 2,3.93 3.3,7.6 4.5,11.28 2.4,7.28 4.3,14.51 9.8,22.8 -1.9,1.3 -3.5,2.92 -4.9,4.73 l -0.3,-0.25 c -6,-3.24 -12.1,-6.35 -18.7,-12.83 l -10.9,-10.78 -10.4,-11.27 c -1.3,-3.18 -2.3,-6.11 -3,-8.85 l -14.6,-18.62 v 0 0 c -6.9,-7.79 -13.5,-15.95 -19.7,-24.36 -5.9,-8.66 -11.6,-17.57 -17.2,-26.41 -11.1,-17.82 -23,-35.14 -34.7,-52.33 -3.8,-2.99 -7.4,-5.67 -10.4,-6.98 -4.6,-3.55 -9.1,-7.6 -13.7,-12.33 -7,-0.81 -13,-4.67 -18.2,-10.46 -2.6,-2.87 -5.2,-6.17 -7.4,-9.91 -2.2,-3.74 -4.3,-7.85 -6.3,-12.15 -7.8,-17.19 -14.4,-37.25 -23.3,-51.64 -5.8,-16.13 -17.4,-34.01 -17.8,-49.33 v 0 0 l -12.9,-26.17 v 0 c -10.8,-10.34 -14.8,-23.17 -15.6,-37 -2.6,-4.8 -4.3,-9.59 -5.2,-14.45 -9.9,-17.94 -13.9,-35.88 -15.3,-52.89 v 0 c -2.2,-4.17 -3.4,-8.22 -3.7,-12.27 v 0 0 c -3.6,-11.53 -7.8,-22.8 -10.9,-34.45 -8,-18.94 -13.3,-37.81 -13.8,-55.88 v -0.06 c -2.5,-8.91 -4.5,-18.06 -6.7,-27.16 -1.8,-7.47 -3.5,-14.95 -5.2,-22.42 -16.5,-62.05 -29.1,-125.09 -37.8,-188.63 2.1,-16.82 -3.5,-36.06 -2.5,-53.26 0.5,-1.24 1,-2.18 1.5,-2.93 -3.3,-14.76 -5.5,-30.02 -7,-45.41 -0.8,-7.72 -1.4,-15.45 -1.9,-23.23 -0.6,-7.79 -0.3,-15.58 -0.5,-23.42 -0.1,-25.11 -0.6,-50.15 -2.1,-74.76 l -1.6,13.08 -3.1,37.57 v 0 c -2.3,37.37 -1.5,74.63 -1.8,112.13 1.7,37.25 2.3,74.75 6,112 2.3,37.44 7.7,74.44 12.2,111.75 6.3,36.94 11.4,74.32 19.7,110.95 l 10.7,32.08 c -0.5,1.49 -1.1,2.93 -1.7,4.42 1.4,4.49 3.2,8.78 4.8,13.21 3.9,11.27 9.4,22.55 10.5,33.88 l -2.1,1 c 6.5,13.95 10.1,27.41 10,38.94 v 0 l 2.8,6.22 0.9,5.8 6.6,16.69 10.3,23.74 5.1,11.83 5.8,11.65 v 0 0 c 13.6,28.9 27.1,58.12 41.8,86.28 l 14.4,28.34 7.3,14.08 8,13.64 c 10.9,18.19 22,36.19 33.3,53.95 12.2,17.25 24.6,34.26 37.3,51.01 l 9.6,12.53 c 3.4,4.04 6.9,7.97 10.3,11.96 6.9,7.97 13.8,15.82 20.8,23.67 2.6,7.97 9.5,22.61 7.1,22.92 -7.6,0.94 -16.8,-14.45 -25.2,-24.29 -13.3,-8.16 -29.9,-23.99 -37.1,-17.07 17,23.54 32.5,47.59 48.7,71.39 17.2,23.04 34.3,46.4 54.7,67.96 2.9,4.92 4.3,8.84 3.9,11.65 21.7,19.93 19,37 35.5,56.5 -5.4,14.64 -21.4,-12.53 -32.7,-20.75 l -23.5,-29.96 c -7.9,-9.84 -15,-20.56 -22.4,-30.77 l -22.8,-27.66 -11.4,-13.89 -10.7,-14.33 c -14.2,-19.25 -28.8,-38.25 -42.5,-57.75 -35.1,-56.25 -68.4,-113.43 -96.3,-173.05 -6.6,-14.26 -14,-28.28 -20.7,-42.73 -6.5,-14.52 -12.9,-29.03 -18.8,-43.48 -3,-7.23 -5.8,-14.39 -8.4,-21.55 -2.8,-7.11 -4.6,-14.46 -6.6,-21.62 -3.9,-14.39 -6.8,-28.53 -8.1,-42.23 v 0 c -8.2,-18.38 -15,-37.57 -20.2,-55.69 -2.5,-9.1 -4.5,-17.94 -5.6,-26.54 -0.6,-4.24 -1,-8.41 -1.1,-12.52 0.1,-4.18 0.3,-8.16 0.9,-12.09 v 0 c -9,-23.17 -16.9,-46.22 -14.8,-66.4 -6,-23.55 -12.7,-47.09 -18.3,-70.58 -4.8,-23.67 -8,-47.34 -8.5,-70.39 v -0.06 c -1.6,-9.66 -2.3,-19.44 -3.4,-29.22 l -2.8,-29.21 c -0.9,-9.72 -2,-19.44 -2.7,-29.16 l -1.5,-29.21 c -1.9,-16.51 -4.1,-32.96 -5.6,-49.46 1.3,-3.06 2.8,-5.67 4.4,-7.85 v -0.07 l -0.4,-29.77 -3.7,-34.95 5.3,-55.07 c 0.3,-10.77 0.7,-21.48 1.8,-32.2 l 1.1,-3.49 c -1.4,0.75 -2.9,1.31 -4.5,1.68 -2.6,-14.2 -3.3,-27.84 -2.3,-40.92 0.5,-6.48 1.4,-12.9 2.8,-19.07 1.6,-6.22 3.6,-12.27 6,-18.12 3.9,-21.37 6.4,-42.92 9.5,-64.47 3.4,-21.5 6.3,-43.05 8.9,-64.73 3.6,-21.55 7.1,-43.1 10.6,-64.66 1.6,-10.84 4.1,-21.49 6.4,-32.14 l 7.3,-31.89 c 1.2,-5.36 2.8,-12.53 3.6,-18.38 0.7,-5.86 0.9,-10.34 -1.4,-10.59 -24,-2.37 -3.1,-37.07 3.9,-62.54 3.3,-12.21 1,-18.75 -2,-24.11 6.5,-14.76 11.4,-30.65 16.6,-46.41 1.3,-3.86 2.7,-7.79 4,-11.71 1.5,-3.8 3.1,-7.6 4.7,-11.28 3.4,-7.47 7,-14.63 11.2,-21.36 v 0 0 l 10.6,-29.47 2.7,-10.09 3.3,-9.84 6.7,-19.62 c 4.7,-13.09 9.6,-25.98 14.9,-38.75 11.6,-25.17 25.3,-49.34 41.3,-72.07 h 0.1 l 15.5,-27.47 c -0.1,1.49 -0.4,3.05 -0.6,4.6 0.3,-1.55 0.5,-3.11 0.6,-4.6 5.7,-11.72 11.5,-23.3 17.6,-34.76 5.9,-11.59 13.1,-22.43 19.8,-33.46 6.9,-11.02 14,-21.86 21.2,-32.64 7.1,-10.84 15.4,-20.86 23.3,-31.21 v 0 0 l 10.9,-15.07 v 0 0 l 15.8,-22.92 c 5.5,-7.48 11.2,-14.77 16.8,-22.12 l 33.8,-44.1 36,-42.42 c 6,-6.98 11.9,-14.21 18.1,-21 l 19,-20.3 c 14.4,-21.75 31.6,-42.05 51.3,-60.18 19.4,-18.38 39.3,-36.5 59.9,-53.51 3,-0.12 4.4,0.75 4.8,2.24 3.7,-5.17 7.2,-10.21 9,-14.82 10.6,-8.79 20.9,-18.01 31.9,-26.42 l 33,-25.1 c 14.2,-7.72 27.9,-15.82 39.7,-16.51 l 38.8,-25.85 19.5,-12.83 19.9,-12.02 40.1,-23.8 c 13.3,-7.91 27.3,-14.76 40.9,-22.18 20.8,-13.014 39.1,-20.302 52.4,-15.694 99.8,-44.476 199.8,-88.58 305.3,-117.982 62.6,-21.304 128,-33.825 193.6,-43.106 32.9,-3.74 65.8,-7.974 98.9,-9.595 16.6,-0.934 33.1,-2.555 49.6,-3.051 l 49.6,-1.557 15.8,-0.375 c 1.6,-0.874 3,-1.682 4.7,-2.431 l 26.1,0.499 c 1.8,0.873 3.5,1.744 5.1,2.679 l 29.9,0.747 c 1.1,-1.557 4.3,-2.368 9.9,-2.368 l 28.1,1.497 33.8,2.679 c 5.7,0.496 11.3,0.747 16.9,1.433 l 16.8,2.117 c 10.3,4.173 22,6.417 33.9,8.286 6,0.934 12,1.868 17.9,2.803 6,0.995 11.7,2.491 17.3,4.11 22.7,2.491 45.5,5.295 67.9,9.966 22.3,4.984 44.5,10.466 66.6,16.323 8.7,0.808 18,2.365 27.2,4.049 16.3,3.799 32.6,8.534 48.7,13.33 16,5.171 32.1,9.904 48.5,12.583 7.6,2.679 15.2,5.234 22.8,7.974 14.7,9.032 31.1,16.072 47.8,22.8 8.3,3.487 16.8,6.478 24.9,10.339 8.1,3.738 16.1,7.726 23.7,11.962 2.8,9.031 0,12.145 -5.7,12.084 7.6,4.422 14.4,9.468 20.6,14.763 h 0.1 c 4.5,1.37 8.2,3.427 11.2,6.106 h 0.1 v 0 c 10.6,5.543 21.6,10.526 32.1,16.568 19,7.787 36,17.382 49.2,29.842 v 0.06 c 8.1,4.49 16,9.53 23.9,14.45 8,4.86 16,9.78 23.8,14.83 7.7,5.04 15.2,10.21 22.3,15.63 7,5.67 13.4,11.71 19.4,18 v 0 c 20,12.9 40.1,25.36 54.8,42.18 l 23.8,21.74 c 7.9,7.29 15.9,14.33 23.3,22.11 8.4,14.14 28.8,29.03 33.6,42.86 76.7,67.59 133.4,146.14 188.5,226.44 3.9,3.86 7,8.16 9.2,12.83 l 22,24.85 c 4.6,6.42 9.5,12.71 14,19.25 l 13.3,19.81 c 9.8,5.73 16.3,14.95 19.9,26.54 2.2,4.92 5.5,9.03 9.1,13.02 10.4,19.5 23.1,38.99 29.4,58.49 v 0 0 c 7.8,11.03 15.4,22.24 23.1,33.45 7.5,11.22 15.7,22.18 22.7,33.83 l 1.8,17.81 13.6,29.03 c 2.4,4.67 5,9.28 7.4,14.02 l 6.7,14.33 13.6,28.71 0.6,0.94 c 8.8,8.59 14.2,19.43 15,32.76 v 0.06 c 1.8,2.06 2.8,4.49 2.9,7.29 v 0.07 l 12.9,16.88 6.5,17.88 3.2,8.9 2.8,9.1 c 4.9,7.6 8.9,16.5 12.6,25.85 0.6,0.56 1.1,1.18 1.7,1.87 7.2,10.03 11.8,20.43 14.6,31.14 2.6,10.78 3.7,21.68 4.8,32.58 2.8,11.16 5.1,22.18 6.3,33.02 1.5,5.61 2.3,11.34 3.5,17.07 9.2,5.48 16.5,24.17 25,35.01 2.4,3.86 4.6,8.16 6.8,12.77 l -8.4,-37.63 c -2.9,-12.46 -5.1,-25.16 -8.8,-37.44 6.2,0 11.1,2.25 15,5.92 l -1.6,-8.41 c -1.9,-11.4 -4.4,-22.8 -7.7,-34.26 -2.3,-7.16 -5.1,-13.89 -7.8,-20.74 l 4.3,19.74 c -1.5,1.19 -3.3,1.75 -5.1,1.62 -3.1,-10.03 -5.9,-20.18 -9.3,-30.15 l -10.5,-29.77 v 0 c -6.6,-17.82 -11.7,-36.88 -21.8,-50.96 -0.7,0.07 -1.4,0.13 -2.2,0.07 -4.4,-1.5 -8.6,-6.11 -12.7,-13.9 l -9.6,-24.11 -3,-11.96 -3.4,-11.83 -7.1,-23.67 c -6.3,-12.77 -11.8,-25.67 -15.5,-38.13 l -0.2,-0.18 c -4.6,-5.8 -8.9,-12.09 -12.8,-19.13 -4.9,-8.84 -8.4,-17.75 -11.7,-26.72 -1.7,-4.49 -3.4,-8.97 -5.1,-13.46 -1.8,-4.42 -3.9,-8.78 -6.1,-13.14 -3,-6.91 -5.5,-13.7 -7.3,-20.24 -1.1,-5.86 -1.7,-11.59 -2.4,-17.32 -3.9,-6.67 -7.6,-13.39 -11.5,-20 -14.7,-20.43 -28.2,-40.92 -35.3,-63.16 v 0 c -6.8,-8.04 -12.7,-19.75 -21,-22.18 -4.4,-0.31 -9.8,-3.74 -15.6,-8.91 l -13.8,-19.25 -14.5,-18.68 -17.3,-39 c -2.9,-6.6 -6,-12.96 -9.2,-19.31 l -9.7,-19.12 v 0 l -21.6,-30.72 c -7.4,-10.09 -15.2,-19.8 -22.8,-29.77 l -23.2,-29.78 -24.5,-28.71 v 0 c -24.7,-28.1 -51.6,-53.89 -77.9,-80.55 -27.6,-25.23 -54.5,-51.33 -83.4,-75 -28.2,-24.86 -58.2,-47.16 -87.7,-70.45 -30.6,-21.62 -60.6,-44.481 -92.4,-64.478 l -30.2,-15.075 c -0.7,-1.494 -1.4,-2.927 -2,-4.36 -4.2,-2.18 -8.5,-3.925 -12.7,-5.981 -10.8,-5.169 -22.6,-9.281 -31.4,-16.445 l 0.7,-2.18 c -14.4,-5.358 -26.5,-12.271 -34.6,-20.557 v 0 l -6.3,-2.428 -4.8,-3.489 -16.4,-7.101 -24,-9.47 -12.1,-4.733 -12.2,-4.173 v 0 0 c -30.1,-10.841 -60.3,-21.929 -90.7,-31.458 -10,-3.302 -20.1,-6.541 -30.2,-9.843 l -15.1,-4.796 -15.4,-3.989 c -20.4,-5.17 -41,-10.091 -61.6,-14.575 -20.8,-3.614 -41.6,-6.852 -62.5,-9.719 l -15.6,-2.056 c -5.3,-0.496 -10.5,-0.808 -15.7,-1.243 -10.5,-0.75 -21,-1.373 -31.5,-1.932 -7.5,-3.862 -22.7,-9.344 -21.2,-11.213 4.7,-6.042 22,-1.621 34.9,-0.623 15.3,-3.677 38.2,-4.237 38.4,-14.204 -28.7,-4.611 -56.7,-10.653 -85,-16.008 -28.3,-4.237 -57,-8.534 -86.6,-9.408 -5.6,-1.433 -9.3,-3.302 -11,-5.482 -29.5,1.248 -39.7,-12.707 -65.1,-14.824 -6.6,-14.142 24.1,-6.356 37.8,-8.409" />
    </g>
  </g>
</svg>
