<?xml version="1.0" encoding="UTF-8" standalone="no"?>
<!-- Created with Inkscape (http://www.inkscape.org/) -->

<svg
   width="50.881775mm"
   height="53.584522mm"
   viewBox="0 0 50.881775 53.584522"
   version="1.1"
   id="svg772"
   xmlns="http://www.w3.org/2000/svg"
   xmlns:svg="http://www.w3.org/2000/svg">
  <defs
     id="defs769" />
  <g
     id="layer1"
     transform="translate(-97.886126,-12.513757)">
    <g
       transform="matrix(0.0183497,0,0,-0.0183497,-150.2955,157.15747)"
       id="g262">
      <path
         id="path264"
         style="fill:#000000;fill-opacity:1;fill-rule:nonzero;stroke:none"
         d="m 15143.9,5032.8 c 12.3,-4.48 24.4,-1.26 36.3,3.92 l 2.2,0.7 2.3,0.5 c 11.7,-3.41 22.7,2.28 34,4.43 v 0 0 h 0.1 l 1.7,-7.9 v 0 c 0.2,-2.91 -0.8,-5.19 -2.8,-7.02 -2,0.44 -4.1,0.63 -6.4,0.51 -1,-0.13 -1.9,-0.38 -2.9,-0.64 -0.4,0.76 -0.9,1.46 -1.8,2.03 -2,0.95 -4.2,1.51 -6.6,1.64 -3.5,-0.19 -6.9,-0.88 -10.4,-1.64 -8.2,-1.46 -16.5,-2.28 -24.7,-3.42 -8.2,-1.07 -16.2,-2.78 -24,-6.76 2.1,4.61 5.4,9.17 3,13.65 z m -251.1,-2.71 c 0.9,-0.89 1.8,-1.77 2.5,-2.79 v -0.06 z m 84,9.99 c 1.9,0.63 3.8,1.39 5.6,2.14 l 11,0.57 c 3.1,2.09 3.9,3.86 2.3,5.44 2.2,1.26 4.3,2.59 5.7,4.49 0.9,-0.89 1.9,-1.84 3,-2.53 2.3,-1.52 5,-2.59 7.3,-3.98 1.4,-0.95 2.9,-1.84 4.3,-2.66 -2.2,-0.76 -4.1,-1.77 -5.6,-3.16 -3,-1.2 -6,-2.59 -9,-3.73 -7.8,1.77 -16.9,1.39 -24.6,3.42 z m 249.4,13.71 c -1,0.83 -2.1,1.46 -3.2,2.15 1.7,2.41 4.8,3.99 7.9,5.95 5,3.03 4.2,5.12 -1.6,5.56 -3.2,0.19 -5.7,1.71 -5.3,4.8 0.3,2.91 2.6,5 5.7,5.95 4.4,1.39 8.9,3.22 13.4,3.66 7.9,0.7 14.9,4.11 22.2,6.64 v 0 0 l 6,-1.83 c -12.4,-5.69 -20,-14.61 -24.3,-25.99 -0.1,-0.37 -0.1,-0.75 -0.1,-1.13 -7,-1.39 -12.4,-5.88 -17.9,-10.06 -0.6,1.58 -1.5,3.04 -2.8,4.3 z m -261.9,12.52 c 2,0.13 4,0.44 6,0.95 0.8,0.25 1.7,0.57 2.5,0.95 0.2,0.06 0.4,0.06 0.6,0.06 l 5.7,0.57 c 0.5,-0.38 0.8,-0.76 1.3,-1.08 2.1,-1.2 4.3,-1.64 6.6,-1.83 -2.6,-0.31 -5.2,-0.44 -7.6,0.25 -4.2,2.15 -10.7,-1.58 -15.1,0.13 z m -51.6,-6 c -0.9,0.44 -1.9,0.63 -3.1,0.63 -4.1,0.88 -8.2,2.4 -12.4,3.73 -17.6,0 -35,2.59 -52.7,1.45 -0.7,0.38 -1.4,0.89 -1.9,1.64 -4.7,1.21 -9.3,2.35 -14,3.48 6.6,-0.63 13.1,-1.83 19.6,-2.84 3.1,-0.7 6.1,-1.84 9.3,-1.84 5,0.07 9.9,0.19 14.8,0.26 2,0.06 4,0.12 5.8,0.44 2.8,0.38 5.5,0.88 8.2,1.71 1.8,0.37 3.4,0.88 5.1,1.58 2.2,0.82 4.4,1.83 6.9,2.21 1.6,0.06 3.2,0.19 4.8,0.44 2.3,0.19 4.5,-0.19 6.4,-1.39 1.3,-0.82 2.7,-1.7 4.1,-2.4 1.4,-0.76 2.9,-1.39 4.4,-1.9 -0.1,-2.65 0.6,-5.44 -1.1,-7.77 -1.4,0.12 -2.8,0.31 -4.2,0.57 z m 45,31.1 c -2.6,2.02 -5.4,3.6 -8.7,4.8 -0.3,0.07 -1.6,0.64 -1.9,0.64 -0.4,0 0.9,1.13 0.7,1.13 1.2,0.51 2.5,1.14 3.7,1.9 1.2,0.89 2.5,1.9 3.4,2.97 1,1.27 1.8,2.66 2.3,4.11 0.4,1.33 0.4,2.66 0.3,3.99 4.4,1.32 9,0.88 13.6,0.63 l 0.1,0.25 c 1.1,-4.55 1,-8.79 -3.8,-11.95 -4.5,-2.91 -4.9,-7.01 -4.8,-11.38 -1.7,0.76 -3.3,1.71 -4.9,2.91 z m -396.9,27.82 c 0.6,-0.13 1.2,-0.32 1.7,-0.51 1.2,-2.21 3.1,-4.23 5,-6.26 -2.6,-2.72 -5.5,-4.99 -10,-5.5 3.1,5.5 4.3,9.3 3.3,12.27 z m -36.2,0.82 c -2.2,0.69 -4.4,1.14 -6.6,1.64 v 0 l 0.7,1.58 -5.7,1.65 c -1.9,1.83 -4,3.54 -7.4,2.21 v 0 l 0.2,0.32 c -0.3,0 -0.5,-0.07 -0.8,-0.19 l -8.1,2.4 c -13.1,3.98 -25.8,9.42 -38.9,12.39 -1,0.19 -1.9,0.44 -2.7,0.7 -1.9,1.83 -3.9,3.66 -5.8,5.43 2,4.05 4.8,6.39 9.9,2.4 2.9,-2.33 5.2,-5.24 8.1,-7.64 2.4,-2.15 5.3,-2.41 8.1,-1.08 l 0.3,-0.12 c -0.8,1.83 -1.4,3.79 -2.7,5.5 -0.7,1.83 -1.9,3.53 -2.8,5.37 l -0.4,-0.13 c -6.3,3.98 -11.6,9.8 -20.2,8.66 h 0.1 c -3.4,5.12 -7.2,3.73 -10.9,1.65 -4.7,-2.72 -8.1,-0.76 -11.1,3.16 -1.2,1.71 -2.6,3.29 -4,4.93 -2.4,6.13 -7.6,10.68 -12.8,15.05 v 0 l 1.9,5.62 c 13.6,-10.56 28.9,-8.78 43.7,-6.89 l 1.2,0.44 c 2.2,-4.11 2.4,-8.97 5.6,-12.89 l 2.4,-1.65 c 3.4,-2.46 7.1,-3.92 11.2,-4.48 2,-0.13 4,-0.13 5.9,0.25 14.9,-0.07 28.7,3.6 41.7,8.41 v -0.07 c 0,0 -1.4,-1.26 -1.3,-1.26 -1.1,-0.57 -2.2,-1.33 -3,-2.21 -0.9,-0.89 -1.8,-1.96 -2.4,-3.04 -0.7,-1.26 -1.2,-2.59 -1.4,-3.98 -0.3,-1.52 -0.4,-3.1 -0.3,-4.68 0.2,-1.65 0.3,-3.29 0.9,-4.93 -0.7,-10.69 4.1,-18.84 13.4,-24.85 0.1,-0.5 0.2,-1.07 0.5,-1.71 2.6,-0.82 5.3,-1.58 8,-2.4 -2.9,-2.02 -4.5,-4.87 -4.1,-8.85 -3.1,1.01 -6.5,2.09 -10.4,3.29 z m -163.3,68.72 c -2.1,1.52 -3.6,3.41 -4.2,5.76 l -0.8,4.74 c -0.2,5.24 4.9,5.75 8.2,7.77 2.3,1.08 4.1,2.53 5.9,4.05 0.9,-1.84 2,-3.61 3.5,-5.19 0.3,-0.31 0.6,-0.69 0.9,-0.94 l -3.1,-6.07 v 0 c -4.3,-3.04 2.6,-6.13 1,-9.17 l 0.6,0.06 c 0.1,-0.94 0.3,-1.77 0.7,-2.52 -4.6,1.39 -9.1,2.78 -12.7,1.51 z m 149.3,19.41 0.2,-0.06 c 6.8,-10.31 12.8,-17.45 18.7,-21.94 -1.4,0.5 -2.9,0.82 -4.4,0.89 -0.2,0 -0.4,-0.07 -0.7,-0.13 l -1.2,1.83 c -7.1,5.38 -8.6,14.73 -16.9,19.16 -0.4,0.06 -0.7,0.06 -1.1,0.06 0.8,1.07 1.4,2.28 1.8,3.48 1.2,-1.14 2.3,-2.28 3.6,-3.29 z m 264.8,-0.44 v -0.07 l -0.1,0.19 z m -219,-26.11 c 1.5,-0.89 3.1,-1.84 4.8,-2.6 0.9,-0.37 1.8,-0.63 2.7,-0.94 l -2.4,-6.26 v 0 l -4,2.21 c -6.8,1.46 -13.5,3.29 -20.1,5.18 l -2.4,3.1 c -0.3,0.32 -0.6,0.64 -1,0.95 6.8,-3.48 13.7,-4.11 22.4,-1.64 z m 13.8,-4.43 c 6,0.44 11.3,-1.07 15.9,-4.93 1.6,-0.95 3.3,-1.83 5,-2.59 1.5,-0.57 2.9,-1.39 4.2,-2.21 l -5.4,-6.96 v 0 l -8.3,1.83 v 0 c 0.2,1.02 0.3,1.97 0.4,2.91 l -2.6,0.83 c -1.1,1.95 -2.2,3.85 -4.2,5.24 -1.8,0.82 -3.6,1.46 -5.4,1.9 l -0.8,0.06 -1.2,4.05 z m 270.1,-4.93 -1.6,-0.13 c -4.4,-0.31 -8.3,0.13 -11.6,1.52 4.1,-1.26 8.6,-1.39 13.2,-1.39 z m 21.9,-0.38 c 1.6,-0.44 3.2,-0.82 4.9,-1.01 3.3,-0.82 6.4,-2.09 9.7,-3.04 3.4,-1.13 7.1,-1.7 10.8,-2.27 -1.7,0.06 -3.5,0.32 -5.5,0.88 -6,1.71 -11.2,0.45 -15.8,-2.27 -1.8,1.83 -3.7,3.54 -6,4.87 -3.8,2.08 -7.8,2.97 -11.9,3.22 1.1,0 2.3,0 3.5,0 3.5,0 6.9,0.32 10.3,-0.38 z m -250.8,-14.6 c -1.9,0.12 -3.8,0.12 -5.6,0.25 l -2.5,0.38 0.8,4.05 c 2.6,-1.46 5.1,-2.79 7.3,-4.68 z m 412.6,1.96 h -0.1 v 0.31 z m 471.7,-13.15 -0.6,-0.57 0.6,0.69 z m -6.3,-5.19 -0.7,-0.12 c 1.8,1.01 3.5,2.21 5,3.47 -1.4,-1.2 -2.7,-2.4 -4.3,-3.35 z m -253.5,-4.61 c 0,0.12 1.7,-0.32 1.8,-0.25 l 0.9,-0.32 c -1.6,0.13 -3.2,0.38 -4.8,0.69 0.7,-0.06 1.4,-0.12 2.1,-0.12 z m -232.4,-41.6 v 0 0.06 l -0.1,-0.06 v 0 0.06 l 0.1,-0.06 v 0 l 0.6,-0.38 -0.6,0.38 v 0 0.06 z m 374.7,-5.31 c 0,0.44 0,0.82 0,1.32 6.8,5.82 15.8,7.34 23.7,11.32 l 0.4,0.06 c -8.1,-4.23 -17.5,-6.82 -24.1,-12.7 z m -324.7,-40.53 c 1.4,-0.69 2.9,-1.51 4.4,-2.15 l 1.7,-0.94 c -5,-1.9 -10.2,-3.36 -15.1,-5.5 -3.3,-1.65 -6.8,-1.58 -10.3,-0.96 0.9,1.21 1.8,2.35 2.8,3.48 1,0.51 2,1.01 3.1,1.65 1.6,0.94 3.2,1.89 4.6,3.1 2.7,2.21 5.5,3.03 8.8,1.32 z m -255.6,169.82 -0.3,-0.38 h -1.1 l -1.1,-0.19 c 0.8,0.31 1.6,0.5 2.5,0.57 z m -502.7,13.59 c -0.1,1.07 -0.3,2.08 -0.6,3.16 l 11.2,-6.01 c 1.6,-0.31 3,-0.75 4.5,-1.26 -2.3,0.06 -4.4,-0.26 -6.5,-0.95 -2.9,1.52 -5.7,3.35 -8.6,5.06 z m -56.4,19.09 c -1.8,1.01 -3.7,1.83 -5.8,2.34 -3.4,0.57 -7,1.26 -10.2,0.7 0.9,2.59 1.2,5.37 0.1,8.4 l -1.9,2.47 c -7.2,0.69 -14.7,0.13 -20.2,7.46 -3.5,4.87 -9,4.99 -14.1,5.75 -7,-0.06 -12.6,5.88 -20,8.16 0,1.45 -1.9,3.85 -3.5,4.61 -4.8,2.22 -10.5,-0.44 -15.4,3.23 -4.9,3.47 -8.1,9.35 -6.6,13.4 1.8,4.93 6,6.01 10.9,6.01 1.4,-0.07 2.9,0.25 4.4,0.38 v 0.25 c 1.6,-0.76 3.1,-1.64 4.7,-2.47 -1.4,-0.56 -2.8,-1.58 -4.3,-2.53 l 1,-6 8.9,-6.13 c 0.6,-2.03 1.8,-2.53 3.3,-1.33 0.7,1.83 1.6,3.6 1.9,5.5 0.3,1.83 0.1,3.54 -0.5,5.18 4.2,-2.4 8.4,-4.93 12.6,-7.46 -1.1,-2.91 -1.3,-5.94 3.1,-9.23 2.8,-2.08 4.9,-1.14 6.8,3.04 6.3,-4.11 12.5,-8.22 18.7,-12.52 l 3.6,-2.21 c 2.1,-2.03 4.7,-3.55 7.3,-5.13 3.3,-2.78 6.9,-4.86 10.7,-6.44 l 12.1,-7.78 c 0.4,-0.57 0.8,-1.14 1.3,-1.64 -4.5,-4.81 -1.9,-9.99 3.7,-14.23 0.8,-0.63 1.6,-1.33 2.3,-1.96 -5,3.35 -10.7,6.07 -14.9,10.18 z m 1507,68.47 c 2.7,2.85 6.3,4.17 9.3,6.57 l 1.1,0.89 c 7.7,-1.71 8.9,-0.76 13.1,7.58 0.2,0.45 0.3,0.96 0.5,1.4 l 2.5,1.32 c 1.6,1.21 3,2.47 4.3,3.99 2.4,2.84 4.5,5.81 6.5,8.97 1,1.4 2,2.85 2.8,4.37 1.4,2.27 3.5,3.73 5.7,4.99 0.7,0.44 1.6,0.95 2.2,1.39 l 1.4,0.95 c 0.1,-0.57 0.2,-1.14 0.3,-1.71 1.6,-2.97 1.7,-6.57 2.3,-10.05 0.8,-2.15 2.6,-3.6 4.1,-5.25 -3.6,-1.26 -7.2,-2.4 -10.6,-4.67 -10.7,-6.52 -17.4,-20.49 -31.6,-20.93 l -1.4,-0.82 c -4,1.33 -8.5,0.95 -13.3,-0.19 z m -1501.7,23.52 c 0.4,1.01 0.8,2.02 1.1,3.03 2.5,-1.26 5,-2.4 7.6,-3.41 -2.2,-1.01 -4.5,-2.09 -7,-2.59 -1.4,0.63 -1.9,1.7 -1.7,2.97 z m 119.4,-64.11 c 5.8,-2.72 7.7,-5.44 1.9,-10.75 -0.7,-0.63 -0.9,-1.64 -0.7,-2.65 v 0 c -12.4,3.41 -28.3,3.73 -23.4,22.76 0.2,0.69 0.3,1.45 0.5,2.15 7.1,-4.11 14.3,-7.97 21.7,-11.51 z m -160.9,92.43 c 1.1,-0.5 2.2,-1.01 3.3,-1.58 -0.5,-0.06 -1.1,-0.12 -1.6,-0.25 z m 1629.1,11.76 v 0 0 0.06 c 1.2,3.54 0.3,8.1 3.6,10.56 0.2,-0.19 0.3,-0.44 0.5,-0.7 6,-1.83 12.1,-3.28 18.3,-3.53 -4,-1.58 -8.2,-4.68 -12.5,-8.03 -2.4,-2.22 -5,-2.97 -7.6,-3.04 -0.3,1.77 -1.1,3.29 -2.3,4.68 z m -1858.1,-1.83 c 0.6,-0.7 1.1,-1.39 1.6,-2.15 0,-0.38 -0.2,-0.7 -0.2,-1.14 h -0.1 l 1.6,-1.26 v -0.19 c 0.3,-0.89 0.5,-1.71 0.7,-2.6 -3.4,3.61 -7.2,6.89 -9,11.51 0.2,-0.13 0.3,-0.25 0.5,-0.38 l 3.4,-3.86 c 0.5,0 1,0 1.5,0.07 z m 1830.1,15.55 0.6,0.32 c -0.3,-0.32 -0.7,-0.57 -1,-0.83 z m -1859.9,1.2 c -4.9,1.14 -4.3,3.54 -2.7,6.13 0,0.07 0,0.19 0,0.32 0.9,-2.47 2.3,-4.68 3.7,-6.89 -0.4,0.12 -0.6,0.31 -1,0.44 z m 1924.1,-13.4 c -1.7,2.78 -3.6,4.42 -5.6,5.24 3.1,0.45 6.3,1.27 9.6,2.6 -1.9,-2.41 -3.3,-5 -4,-7.84 z m -1887.6,-17.83 c 0.4,-0.63 0.7,-1.33 1.1,-1.96 9.5,-12.39 20.9,-22.32 33.7,-29.97 -3,1.08 -6.1,1.39 -9,-1.2 -0.3,-2.28 0.2,-4.36 1.7,-6.39 -2.5,0.45 -3.7,2.6 -5.1,4.3 -1.9,2.79 -4.2,5.38 -6.4,7.91 -6.5,7.71 -13.9,12.45 -23.1,12.71 -0.6,0.63 -1.1,1.2 -1.8,1.77 0.3,1.39 0,2.71 -0.9,3.72 -0.4,1.52 -1,3.04 -1.6,4.56 -0.7,1.52 -1.6,2.91 -2.7,4.3 0.3,0.12 0.6,0.31 0.9,0.57 0.3,0.63 0.5,1.32 0.7,1.95 3.2,-1.51 6.8,-2.4 10.9,-2.4 0.3,-0.25 0.8,-0.19 1.6,0.13 z m 190.4,-180.69 z m 0.7,-2.53 c -0.6,0.82 -1,1.65 -0.7,2.53 z m -231.1,226.08 c -0.2,0.45 -0.5,0.82 -0.7,1.21 0.5,0.12 1.1,0.12 1.6,0.31 l -0.1,-0.06 v 0 0 -0.07 l -0.6,-2.27 c -0.1,0.25 -0.1,0.57 -0.2,0.88 z m 0.1,33.13 c 0.1,0.7 0.4,1.27 0.6,1.9 0.7,-1.08 1.5,-2.09 2.2,-3.1 -0.9,0.44 -1.8,0.89 -2.8,1.2 z m 1959.5,68.09 c 1.7,1.96 3.5,3.86 5.3,5.69 1.3,0.32 2.4,0.82 3.6,1.2 -0.9,-0.57 -1.8,-1.2 -2.6,-1.96 -1.6,-3.92 -4.2,-5.88 -7.2,-7.4 0.3,0.83 0.6,1.65 0.9,2.47 z m -2102.9,58.67 c -1,0.82 -2,1.77 -2.8,2.85 l -0.5,-0.19 c -0.4,5.69 -3.5,11 -5.2,16.5 l -1.6,2.84 -1.9,2.59 -2.1,2.34 c -2.4,2.09 -5,3.54 -7.8,4.11 l -2.6,-0.12 c -2.9,4.61 -7.4,7.65 -10.6,11.95 -8.5,6.57 -13.3,15.55 -16,25.79 l -1.4,3.1 c 1,1.26 0.9,2.9 -2.7,5.62 l -0.6,0.57 c -3.9,7.08 -7.5,14.42 -12.7,20.68 -0.2,1.01 -0.5,2.08 -0.7,3.16 -1.4,6.45 -2.9,13.15 -4.5,19.66 l 0.3,0.5 c 0.9,1.77 1.5,3.74 1.8,5.82 0.3,3.35 0.4,6.64 -0.5,10.12 v 0.19 c 1.4,-1.78 3.1,-3.23 5.1,-4.11 v 0 l 6.7,-3.99 c 0,-1.01 0.2,-1.96 0.1,-2.97 -0.7,-1.96 -0.1,-3.35 1.8,-4.17 1.2,-2.02 2.5,-4.05 3.8,-6.07 2.4,-5.25 5.3,-10.24 7.8,-15.49 -0.1,-0.06 -0.3,-0.06 -0.5,-0.19 0.5,-0.57 1,-1.2 1.4,-1.77 1.2,-2.59 2.2,-5.25 3,-8.03 0.5,-1.96 0.9,-3.92 1.3,-5.88 0.4,-9.73 6.1,-16.81 12.7,-23.26 4.4,-3.35 8.1,-7.53 10.8,-12.71 0.5,-0.82 1,-1.71 1.5,-2.53 l 1.9,-2.4 0.4,-0.38 c -0.4,-0.44 -0.8,-0.95 -1.1,-1.71 -2,-16.44 15.5,-26.61 18.8,-41.41 -0.9,-0.32 -1.8,-0.76 -2.6,-1.33 z m -74,142.5 c 0.2,0.32 0.3,0.7 0.5,1.14 0.4,4.49 -1.1,8.53 -3.9,12.39 -1.4,1.71 -3,3.16 -4.7,4.36 -6.9,5.19 -10.8,12.08 -13.9,19.48 -2.9,6.63 -5.2,13.65 -8.1,20.29 0.2,-0.25 0.4,-0.44 0.5,-0.63 1.9,-1.96 4,-3.61 6.4,-4.75 3.5,-1.32 6.9,-1.07 10.1,0.38 l 0.2,-0.56 c -0.3,-4.56 0.5,-8.92 1.9,-13.15 0,-0.45 -0.1,-0.89 -0.1,-1.39 1.1,-8.86 6.5,-16.13 9.9,-24.09 1.2,-2.85 2.2,-5.76 2.3,-8.79 0.1,-1.45 0.3,-2.85 0.6,-4.24 l -1.7,-0.57 z m 2315.9,61.33 c 6.1,7.01 6.3,14.16 -2.7,20.98 l 2.3,1.59 1,1.7 c 0.1,-0.63 0.3,-1.2 0.6,-1.58 0.7,-0.82 2.6,-1.07 3.7,-0.76 2.1,0.64 4.1,1.84 6.1,2.79 0.5,0.75 1.1,1.39 1.7,2.02 -0.1,-1.01 -0.1,-2.02 -0.1,-3.04 0.7,-13.9 6.8,-16.81 18.1,-8.72 1.1,-0.89 2.2,-1.64 3.5,-2.09 1.9,-0.31 3.7,-0.25 5.7,0.19 1.4,0.45 2.7,1.08 4,1.77 v -0.38 c 2.9,-6 5.4,-12.33 6.1,-19.53 4.9,-6.07 4.6,-14.23 4.7,-22.19 l -1.2,-0.57 c -1.6,-1.08 -3.2,-2.28 -4.8,-3.67 -3.8,-2.91 -5.3,-8.34 -9.8,-10.49 l -3.3,0.25 c 1.3,1.64 2.6,3.35 3.9,5.12 1.3,1.83 2,4.11 0.1,5.25 -0.7,0.44 -2.9,-0.38 -3.4,-1.27 -2,-2.9 -3.7,-5.94 -5.4,-8.91 l -1,-0.06 c -1.7,-0.45 -3.3,-1.2 -4.6,-2.28 l -0.5,-0.44 c 1.5,2.59 3.2,5.06 5.2,7.33 1.2,1.83 2.3,3.79 3.3,5.69 1.1,2.09 2.2,4.17 3.3,6.26 2.8,7.14 7.6,14.04 8.3,21.62 2.1,1.08 2.3,2.22 0.1,3.35 l -0.1,0.13 c -0.1,1.07 -0.3,2.21 -0.7,3.35 -11.3,11.13 -20.1,1.27 -29,-8.41 -1.3,-2.97 -3,-5.81 -4.7,-8.6 -2.1,-0.56 -4.1,-1.45 -6,-2.9 0.5,2.02 0.9,4.04 1,5.94 0,4.04 -1.5,7.65 -5.4,10.56 z m -2351,1.7 v 0.26 c 0.2,-0.19 0.4,-0.38 0.5,-0.57 -0.1,0.06 -0.3,0.19 -0.5,0.31 z m 2454.6,37.05 c -1,-9.92 -1.9,-20.1 2,-28.7 -1.7,-0.82 -3.3,-2.03 -4.8,-3.29 -3,-2.59 -5.8,-5.44 -8.6,-8.22 -2.1,-2.34 -4.1,-4.74 -6,-7.27 v 0.26 c 0,2.33 -0.5,4.48 -1,6.63 1.4,2.4 2.9,4.81 4.2,7.27 4.1,2.85 6.8,8.54 5.4,12.02 0.5,1.64 1,3.22 1.3,4.93 0.9,6 3.6,11.63 7.5,16.37 z m -91,-106.15 -0.2,-0.13 c 0,0.07 0,0.19 0,0.26 v 0 c 0.2,0.13 0.3,0.13 0.4,0.25 0,-0.12 -0.1,-0.25 -0.2,-0.38 z m -2406.7,142.25 -1.2,4.24 c -2.9,7.45 -7.6,13.91 -9.8,21.74 l -0.4,1.27 c 0.8,-0.38 1.7,-1.08 2.6,-2.34 2.9,-4.17 6.5,-4.68 10.3,-4.36 1.6,-0.82 3,-0.38 4,1.01 0.2,1.83 -0.1,3.48 -1,5.12 2.3,-0.76 4.2,-0.95 5.8,-0.7 1.5,-4.42 2.9,-8.91 4,-13.4 2,-7.46 3.5,-14.86 4.1,-22.32 0.1,-2.02 0.4,-3.92 0.7,-5.88 -7,3.61 -12.3,11.64 -19.1,15.62 z m 2411.6,22.44 c -0.1,-0.44 -0.2,-0.82 -0.3,-1.26 -0.3,-0.06 -0.5,-0.19 -0.8,-0.25 -0.3,0.82 -1.5,1.45 -0.3,2.59 0.4,-0.38 0.9,-0.76 1.4,-1.08 z m 3.6,23.33 c -1.5,0.19 -3,0.38 -4.5,0.44 -0.2,-0.12 -1.6,1.08 -1.7,0.95 -0.8,1.08 -1.4,2.28 -2.1,3.35 -0.5,0.95 -1,1.84 -1.7,2.72 1.9,4.62 3.2,9.49 5.6,13.91 1.5,2.34 3.3,4.36 4.9,6.64 l 1.2,2.27 c 1,-0.5 1.7,-1.51 2.2,-3.41 0.5,-1.89 1.5,-4.74 2.7,-4.99 3.5,-0.64 3.9,3.35 5.1,5.81 1,2.03 1.7,4.24 2.5,6.33 l 1.1,4.23 c -0.9,1.83 -1.5,4.87 -2.8,5.19 -2.9,0.63 -4.5,1.77 -5,3.35 0.6,2.53 1.2,5.05 1.6,7.58 1.5,-3.35 4.2,-5.56 8.1,-6.38 2,-0.13 3.9,0.12 5.9,0.88 l 0.9,0.13 c 1.2,-1.39 2.7,-2.4 4.3,-3.29 -0.2,-0.69 -0.3,-1.33 -0.5,-1.96 -0.9,-5.18 -1.2,-10.18 1,-14.48 l -7.2,1.33 c -0.7,-2.84 -1.2,-6.07 2.1,-6.57 2.7,-0.45 4,2.46 5.3,4.86 0.5,-0.94 1.2,-1.83 2,-2.71 -1.1,-0.26 -2.1,-0.57 -3.1,-1.08 -1.8,-1.14 -3.5,-2.46 -4.9,-4.11 l -1.7,-2.59 c -0.7,-1.39 -1.2,-2.84 -1.6,-4.3 -3.4,-2.65 -6,-6.19 -8.5,-9.74 -0.7,-0.94 -1.5,-1.7 -2.2,-2.46 -3,-1.07 -6,-2.4 -9,-1.9 z m 52.5,19.73 c -1,0.5 -2.2,0.63 -3.4,0.44 -0.3,1.52 -0.7,3.03 -0.9,4.55 1.7,-1.39 3.1,-3.1 4.3,-4.99 z m 53.8,34.83 z m -20.3,135.04 c 1.5,-9.67 4.5,-18.14 9.1,-25.16 0.5,-0.82 1.1,-1.58 1.7,-2.34 -1.5,-7.08 -3,-14.22 -4.6,-21.37 0.6,-5.5 0,-10.81 -1,-16.12 l -2.2,-0.25 c -4.4,21.49 -5.9,42.8 -3,65.24 z m 93.2,-17.26 -4.8,-4.48 h -0.1 c 1.2,2.21 2.8,3.53 4.8,4.36 v 0 z m -53.1,-26.11 c -1.2,-0.69 -2.1,-1.64 -3,-2.65 0.4,1.52 0.8,2.97 1.1,4.49 0.7,-0.51 1.3,-1.08 1.9,-1.84 z m 37.2,77.83 0.2,1.45 c 0.1,1.58 0,3.16 -0.1,4.68 l 0.2,1.08 c 0.2,-2.66 0.6,-5.25 1.5,-7.65 -0.6,-0.07 -1.2,-0.13 -1.7,-0.32 0,0.25 -0.1,0.51 -0.1,0.76 z m 4,173.23 c -0.3,0 -1.2,1.2 -1.2,1.2 0,0 1.1,0.57 0.8,0.76 0.8,-0.51 1.6,-1.08 2.4,-1.58 -0.2,-0.32 -0.4,-0.7 -0.5,-1.08 -0.5,0.25 -1,0.51 -1.5,0.7 z m 29.1,74.11 0.7,3.75 0.2,1.22 c 0.3,-2.83 0.5,-5.64 1,-8.38 z m -48.3,38.84 c -0.8,0.69 -1.6,1.1 -2.4,1.38 l 0.4,1.05 v 0 c 0.8,-0.74 1.4,-1.56 2,-2.43 l 2.9,1.93 c 1.1,1.17 2.5,1.66 4,2.23 0.2,-4.35 1,-8.66 2.5,-12.95 -0.6,-0.76 -1.1,-1.42 -1.9,-1.88 -1.9,-2.91 -3.9,-5.73 -5.9,-8.55 -0.1,6.4 -1.2,12.81 -1.6,19.22 z m 17.7,165.86 0.4,-1.05 c -0.2,-0.01 -0.5,-0.02 -0.8,-0.03 z m -55.9,209.1 c -0.4,0.09 -0.7,0.13 -1.1,0.18 0.8,0.62 1.4,1.4 1.7,2.47 2.9,-3.59 4.8,-7.74 6,-12.37 -1.5,3.8 -2.9,7.62 -6.6,9.72 z m -2336.3,154.94 c 3.7,7.3 8.3,14.12 11.8,21.57 2.6,-1.14 5.3,-2.05 8.5,-1.29 v 0 l 0.1,-0.06 c 0,-1.61 -0.5,-3.15 -1.3,-4.74 -1.4,-2.28 -2.1,-4.78 -2.7,-7.34 -1,-0.84 -2,-1.81 -2.8,-3.11 -0.3,-0.63 -0.6,-1.26 -0.9,-1.88 0,-0.13 -0.2,-0.25 -0.4,-0.37 -0.2,1.33 -0.7,2.61 -1.7,3.76 -1.3,-0.01 -3.1,0.5 -3.8,-0.16 -1.4,-1.5 -2.7,-3.44 -3.3,-5.44 -1,-3.29 -1.6,-6.58 -0.5,-9.49 -0.1,-0.09 -0.1,-0.17 -0.1,-0.26 -0.7,-0.99 -1.5,-1.8 -2.2,-2.7 -3.2,2.94 -3,6.98 -0.7,11.51 z m 2250.3,36.43 -0.4,0.33 c -1,1.24 -2,2.46 -3.1,3.59 -0.4,0.62 -0.8,1.24 -1.2,1.88 1.3,-1.75 2.7,-3.44 4.1,-5.11 0.5,-0.58 1.2,-0.39 2.1,0.67 2,2.24 0.2,-3.42 -1.5,-1.36 z m -2281,2.03 c 0.2,0.85 0.2,1.7 0.2,2.53 0.2,0.62 0.3,1.22 0.3,1.83 2.4,9 8.1,16.37 12.9,24.14 l 3.3,5.17 c -0.6,-3.42 -1.7,-6.76 -4,-9.92 -1,-1.74 -1.9,-3.51 -2.6,-5.38 -1.6,-3.66 -3,-7.42 -4.3,-11.16 -1.3,-2.67 -2.7,-5.25 -4.2,-7.85 z m 2231.6,56.67 0.2,-0.1 c -0.4,-0.17 -0.7,-0.36 -0.9,-0.46 0.2,0.19 0.4,0.35 0.7,0.56 z m -58.2,50.03 -2,2.47 c 3.5,3.9 2.7,8.03 -0.5,12.94 -3.8,5.83 -8.4,11.35 -12.2,17.14 l -4.2,8.67 c -0.4,1.21 -0.8,2.44 -1,3.74 5.8,9.99 2.2,20.65 -4.5,28.59 l -11.7,14.2 -12,13.93 -24,27.84 c -7.9,9.37 -16.8,17.84 -25.6,26.37 -8.9,8.46 -18.1,16.61 -27.6,24.26 -2.1,1.57 -4.5,2.81 -6.9,3.75 -7.8,4.45 -14.7,10.35 -22.6,14.19 -9.6,4.69 -16.1,16.2 -26.8,18.26 -1.2,1.84 -2.4,3.58 -3.9,5.18 -0.7,1.03 -1.6,1.97 -2.3,2.95 l 4,6.2 c 1.5,0.01 3,0.21 4.4,0.81 -1.3,8.95 -6.4,15.54 -14.5,20.35 -6.8,4.06 -13.3,8.72 -20.1,12.81 -10.2,6.29 -20.4,12.15 -27.2,22.72 -3,4.53 -7.4,8.18 -11.3,12.23 -5.8,8.3 -14.8,7.96 -22.9,10.29 v 0 0 l -0.1,0.09 c -0.3,4.01 -2.7,6.74 -6.4,8.61 -1,1.25 -1.9,2.57 -2.7,3.94 -1.1,2.1 -1.5,4.51 -3.6,6.09 -1,0.73 -1.8,1.65 -2.3,2.74 -0.4,2.2 -1.6,3.3 -3.9,3.1 l -11.8,8.77 c -4.2,5.62 -9.1,10.09 -16.5,10.93 -1.4,0.13 -2.7,0.67 -3.8,1.65 -2.2,-3.37 -2.7,-6.58 0.7,-10.15 2.2,-2.22 3.6,-5.21 5.3,-7.83 l 35.4,-31.7 v 0 0 l 1.9,-1.46 1.9,-1.34 c 1,0.26 1.7,0.81 2.4,1.49 0.4,-7.01 5.8,-11 10.8,-15.16 -3.6,3 -7.3,5.97 -11,8.8 l -11.5,8.15 c -4.1,2.5 -8,5.63 -12.4,6.58 l -5.5,5.99 c -6.3,4.86 -13,9.38 -19.6,14.06 l -31.4,20.45 c -10.1,6.35 -20,13.05 -30.6,18.56 1.1,0.67 2.2,1.55 3.4,2.93 l -0.3,0.48 c -0.7,0.85 -1.2,1.76 -1.7,2.69 0.5,0.06 1,0.1 1.5,0.22 3.3,1.43 5.2,3.84 5.7,7.25 -0.2,2.17 -1,4.16 -2.3,6.02 -2.2,2.22 -4.6,3.88 -7.7,4.38 0.2,1.41 1.8,0.83 2.4,1.49 2.6,1.4 4.7,3.5 6.2,6.16 2.4,3.24 1.6,7.25 1.4,11.09 0.9,-1.57 2,-3.01 3.3,-4.31 -0.8,-0.78 -1.4,-1.74 -1.8,-2.92 -0.1,-1.93 0.5,-3.7 1.8,-5.32 l 2.1,-1.31 c -0.3,-0.65 0.2,-1.42 1.5,-2.34 0.1,-0.13 0.2,-0.32 0.4,-0.46 0.3,-1.82 1.1,-3.61 2.1,-5.4 -0.2,-3.98 -2.7,-6.71 -6.9,-8.42 v -0.02 c 2.2,-3.82 5,-6.26 8.7,-2.83 1,0.89 1.8,1.92 2.6,2.99 2.9,-3.31 6.5,-5.41 10.7,-6.88 6.6,-2.93 12.4,-7.2 18.6,-10.7 2.2,-1.15 4.4,-2.11 6.7,-2.79 l 3.6,-0.64 3.6,-0.55 c 0.5,0.04 0.9,-0.01 1.4,-0.02 1.7,-1.68 3.6,-3.08 5.7,-4.43 4.1,-2.71 8,-5.64 12,-8.42 4.1,-2.92 8.2,-5.88 12.5,-8.52 3.2,-1.83 6.3,-3.16 9.5,-3.15 0.8,-1.38 1.7,-2.72 2.7,-4 2.7,-2.79 5.8,-4.98 9.4,-6.46 3.4,-1.32 6.7,-2.86 9.9,-4.59 2.4,-5.71 7.1,-8.2 12.8,-9.46 1.7,-1.59 3.4,-3.24 4.9,-5.01 10,-10.11 21.3,-18.91 30.8,-29.4 20.1,-9.88 28.9,-32.36 48.5,-42.86 9.2,0.49 16.8,-1.21 25.4,-8.38 10.7,-8.92 21.2,-17.8 29.9,-27.98 -2,-0.89 -3.7,-3.04 -5.1,-5.54 l 1.5,-1.5 1.1,-1.86 c 0.5,-4.31 2.6,-6.78 7.1,-6.48 l -0.2,0.49 c 1.3,1.46 2.4,2.77 3.2,3.99 3.8,-6.28 6.8,-13.06 8.8,-20.54 l 0.4,-0.41 c 1,-1.96 2.5,-3.44 4.6,-4.36 8,-8.41 15,-18.11 23.2,-26.11 11.3,-13.04 24.2,-24.94 32.9,-40.05 2.5,-4.29 7.9,-6.15 13.2,-6.45 -0.5,-1.88 -0.8,-3.83 -0.6,-5.83 0.2,-3.3 0.9,-6.52 2.2,-9.61 1,-2.07 2.1,-4.01 3.7,-5.76 3.5,-4.28 6.6,-9.15 11.5,-11.8 0.7,-1.09 1.5,-2.16 2.4,-3.22 -1.4,-2.21 -2.3,-4.73 -2.6,-7.54 -0.4,-4.57 0.4,-8.68 1.7,-12.56 1.2,-3.96 3.1,-7.66 5.3,-11.27 4.3,-7.21 9.6,-14.05 12.6,-21.69 -2.2,1.17 -4.5,2.07 -7,1.47 -5,-0.97 -6.4,-4.57 -7.5,-8.38 -1.1,1.55 -2.2,3.12 -3.3,4.63 z m -1982.9,86.43 c 0.9,0.44 1.6,0.92 2.4,1.39 -0.6,-0.49 -1.2,-0.94 -2,-1.39 0,-0.07 -0.2,-0.05 -0.4,0 z m -118.4,9.61 -0.7,-1.33 c -1.1,-0.87 -2.2,-1.68 -3.3,-2.51 -0.3,0.15 -0.5,0.21 -0.8,0.33 l 0.5,0.18 c 1.6,0.94 3,2.06 4.3,3.33 z m -70.6,-7.36 c -1,1.13 -2.3,1.94 -3.7,2.36 1.9,2.52 3.3,5.27 4,8.33 1.4,0.29 2.9,1.12 4.3,1.77 0.1,0.24 1,-1.1 1.2,-0.85 -0.1,-1.26 0,-2.71 0.3,-3.92 0.2,-0.35 0.3,-0.64 0.5,-0.97 z m 217.3,25.16 c -1.2,-1.8 -2.2,-3.68 -2.7,-5.82 -0.4,-5.46 -4,-6.96 -7.7,-8.31 1.5,2.37 2.7,4.98 3.6,7.84 1.9,1.98 3.6,4.03 5.4,6.09 0.5,0.02 0.9,0.14 1.4,0.2 z m 1754.8,62.28 0.1,-0.06 -0.1,-0.02 3.1,-3.59 c 2.8,-7.76 7.4,-13.38 14.3,-16.76 1.2,-1.72 2.3,-3.53 3,-5.57 0.4,-1.12 0.9,-2.17 1.4,-3.19 -4.1,4.04 -8.3,8.03 -12.7,11.69 -6.2,5.05 -8.7,10.8 -9.1,17.5 z m -1776.8,38.32 0.2,-0.51 c 0.2,-2.26 1.2,-3.82 3.3,-4.61 -4.5,-0.91 -6.3,-6.91 -9.5,-9.35 3.6,4.37 5.5,9.25 6,14.47 z m -118.6,-105.42 c 0.4,2.12 0.6,4.23 0.6,6.34 0.7,7.69 0.6,14.97 -7.4,18.32 -3.6,0.86 -7.3,-0.89 -10.9,-1.39 0.7,0.89 1.2,1.81 1.8,2.8 1.2,3.04 2.9,6.45 2,9.16 -2.2,6.67 -2.6,12.14 -1.5,16.61 0.1,-3.23 1.8,-6.91 5.3,-11.35 l 7.3,5.44 c -0.7,7.8 6.1,12.22 9.5,18.11 -4.5,1.81 -9.1,0.8 -13.7,-1.42 -1.3,-0.63 -2.4,-1.36 -3.4,-2.06 4.6,4.36 11.9,6.73 20.7,8.12 3,0.47 5.6,3.03 8,5.28 6,6.26 10.3,13.23 12.1,21.58 0.1,0.99 0,1.95 -0.1,2.89 10.9,-1.76 12.2,-0.04 21.1,12.93 5.4,7.8 -3.4,12.99 -1.4,20.19 -0.3,0.23 -0.5,0.5 -0.8,0.74 l 0.7,1.01 c 0.7,-0.2 1.3,-0.37 1.9,-0.43 l -0.2,-1.41 c -0.5,-2.28 -0.5,-4.54 -0.2,-6.75 1.2,-4.5 3.8,-7.58 8.6,-8.32 13.7,-0.7 15.2,18.7 28.2,18.81 3.4,-1.23 6.4,-3.06 9,-5.37 1.3,-1.03 2.7,-1.96 4.3,-2.71 1.5,-0.88 3.1,-1.81 4.5,-2.83 -3,-1.86 -5.7,-4.5 -8.8,-6.14 -5.2,-3.53 -9.7,-7.81 -13.5,-12.82 -1.7,-2.89 -2.9,-5.91 -3.6,-9.1 -0.8,-3.79 -2.9,-6.96 -5.4,-9.84 -0.5,-0.65 -1,-1.35 -1.4,-2.05 -1.6,3.44 -3.1,7 -8.6,6.24 l 0.6,0.28 c -11.4,-0.61 -8.3,-10.48 -11,-16.5 -0.1,-1.19 -0.6,-2.1 -1.7,-2.75 -1.2,-2.1 -3.3,-4.13 -2.1,-6.4 -0.3,-0.02 -0.6,0 -0.8,-0.04 -1.8,-1.07 -2.6,-2.61 -2.4,-4.58 -0.7,-7.35 -9.8,-9.92 -10.7,-17.09 -0.7,-1.31 -1.5,-2.56 -2.4,-3.73 -1,-5.23 -6.2,-7.87 -8.4,-12.47 0,-1.69 0.5,-3.11 1.6,-4.25 l -0.6,-0.66 c -3,-0.57 -5.8,-1.66 -8.4,-3.68 -6.8,-6.53 -13.1,-13.54 -18.4,-21.45 -0.4,-0.97 -0.9,-1.9 -1.5,-2.83 0.7,1.8 1.3,3.64 1.5,5.57 z m -46.4,24.67 v -0.02 c -1,-0.5 -1.9,-0.73 -2.7,-0.76 0.9,0.14 1.8,0.38 2.7,0.78 z m 76,76.56 0.2,0.02 v 0 l -0.1,-0.12 z m 1781.5,34.82 c -1.7,1.4 -3.6,2.59 -5.6,3.5 -0.6,0.43 -1.3,0.8 -2,1.18 -1.6,2.63 -4.3,4.81 -6.3,7.29 3.5,0.4 6,2.66 8.6,5.03 3.1,-6.63 7.5,-12.57 13.8,-17.48 2.5,-2.04 5,-4.05 7.4,-6.2 2,-2 3.7,-4.23 4.9,-6.74 l 1.1,-2.39 c 0.6,-1.06 1.2,-2.07 1.9,-3.05 -6.6,4.4 -12.1,10.51 -18.7,14.75 -1.6,1.42 -3.3,2.82 -5.1,4.11 z m -1747.3,20.42 c 0,0 0.1,-0.36 0.2,-0.77 l -0.1,-0.15 c -0.1,0.48 -0.1,0.92 -0.1,0.92 z m 1692.5,8.92 0.5,0.11 3.5,1.87 c -0.3,-1.15 -0.8,-2.21 -1.8,-3.12 -0.7,0.49 -1.4,0.89 -2.2,1.14 z m -1498.2,14.47 v -0.27 l -0.1,-0.03 z m -51,-11.6 c 4.7,7.87 4,15.32 -0.1,22.5 l -2.3,1.98 c -2.7,1.52 -5.8,1.93 -9,1.81 -1.5,-0.04 -3,-0.42 -4.3,-0.94 0.7,3.43 0.7,6.88 -0.2,10.32 -0.5,1.93 -1.4,3.77 -2.5,5.42 -1.1,1.61 -2.4,3.09 -3.9,4.36 -2.2,1.95 -4.6,3.67 -7.3,4.96 l -1.1,0.4 c 1.9,1.99 2.9,4.31 2.7,7.14 l -3.3,-2.14 c 0,0.64 0,1.29 -0.1,1.92 -1.8,8.15 6.9,11.52 10.5,17.19 l 2.4,-2.99 c 3.8,-4.55 7.9,-6.84 13.9,-1.21 l 0.7,4.77 c 0.4,-0.28 0.9,-0.59 1.4,-0.79 6.9,-0.95 13.6,-2.56 20.3,-4.17 l -3,-1.27 -7.5,-5.9 c -4.5,-3.6 -9.3,-6.85 -13.4,-10.84 -2.1,-1.97 -1.6,-4.22 0.7,-5.65 6.9,9.33 18.7,9.91 27.7,15.33 0.8,-0.79 1.7,-1.5 2.8,-2.06 12,-2.05 17.1,5.48 21.8,13.81 0.8,-4.72 -1.6,-9.25 -7.6,-12.65 -14,-7.99 -22.5,-20.12 -31.8,-31.78 3.6,-4.31 7.3,-8.2 13.2,-5.69 1.9,-1.34 3.8,-2.26 5.6,-2.8 -10.3,-3.48 -19,-9.77 -25.2,-20.14 -0.3,-0.53 -0.5,-1.06 -0.5,-1.6 -0.2,0.23 -0.3,0.49 -0.6,0.71 z m -74.6,56.51 v 0.01 l 1.3,1.11 c -0.2,-0.35 -0.4,-0.74 -0.5,-1.17 l -0.8,0.06 z m 336.4,23.78 c 10,0.5 10.9,2.32 12.8,12.44 0.7,1.94 0.4,3.66 -1.1,5.15 -4,2.19 -7.7,1.14 -11.1,-1.39 -6.3,-4.52 -13.8,-5.05 -21,-6.56 -1.7,0.56 -3.4,1.16 -5,1.94 -3.1,2.13 -6.6,3.66 -10.1,5.24 -3.3,1.02 -6.7,1.14 -10.2,0.43 -1.5,-0.31 -2.9,-0.31 -4.4,-0.32 -5,6.11 -3.5,11.18 0.1,15.95 0.6,-15.59 4.5,-16.65 23.6,-14.26 5.3,5.7 8.9,12.42 11.6,19.64 -0.1,6.65 5.7,11.43 7,17.46 v 0.43 c 0.4,-0.74 0.9,-1.47 1.3,-2.26 4,0.92 7.4,2.46 9.7,5.39 1.7,0.74 3.3,1.7 4.6,2.98 l 0.7,1.39 0.1,-0.05 -0.1,-0.19 c 0.8,-1.27 1.9,-1.93 3,-2.1 -13.5,-4.35 -23,-12.1 -17.7,-26.41 4,-10.7 12.7,-16.12 25.4,-9.98 1,0.65 1.9,1.41 2.7,2.19 l 2.2,-1.67 c 3.1,-0.66 6,0.07 8.6,1.81 0.2,0.19 0.4,0.44 0.6,0.64 -0.3,-1.02 -0.6,-2.05 -0.7,-3.09 0,-0.77 -0.1,-1.55 -0.1,-2.32 -2.2,0.93 -4.8,0.12 -7.5,-1.07 -2.7,-2.04 -4.3,-4.74 -5,-7.97 -0.2,-2.13 0,-4.2 0.7,-6.23 1.4,-3.78 4,-5.67 7.1,-7.02 -9.8,-1.48 -12.4,-3.07 -10.5,-8.17 -7.9,-0.9 -15,1.2 -20.8,7.43 1,0.28 2.2,0.48 3.5,0.55 z m -215.8,56.52 c 0.6,-1.04 1.2,-2.14 2,-3.04 -0.1,-0.04 -0.3,-0.1 -0.3,-0.14 -0.5,1.08 -1.2,2.11 -1.7,3.18 z m 408.6,-16.61 c 1.4,-0.06 2.9,0.12 4.4,0.4 3,0.66 5.4,2.25 7.7,4.1 -2.8,-5.81 -5.9,-10.4 -12.1,-4.5 z m 940.1,28.09 c -11.4,4.23 -20.8,11.03 -31,17.23 -9.3,5.65 -19.7,12.7 -29.8,13.53 -12.9,0.73 -22.2,6.1 -32.5,11.68 l -2.8,9.68 c -1.3,0.87 -3,1.49 -3.8,2.65 -7.6,11.08 -17.4,17.32 -31.9,15.3 -4,-0.51 -8.8,2.92 -13.2,4.54 v -0.01 0.01 c -2.8,4.59 -7.7,6.79 -12.1,9.53 -4.3,7.85 -12.7,9.06 -20.3,11.59 -6.7,2.01 -14.4,1.35 -20,7.04 1,0.62 1.6,1.31 2,1.21 20.4,-4.7 40.3,-11.44 60.4,-17.42 3.8,-2.18 7.7,-4.25 11.7,-4.78 l 2.8,-1.41 c 2.9,-1.97 6,-3.43 9.3,-4.57 5.1,-1.61 10.1,-3.58 14.8,-5.9 l 3.1,-1.54 c 0.5,-1.02 1.1,-2.01 2.2,-2.93 2.7,-1.72 5.3,-3.36 8.1,-3.83 2.5,-2.11 5.1,-4.13 8.4,-5.43 15,-20.52 36.9,-22.87 59.6,-25.1 1.1,-0.8 2.1,-1.63 3.1,-2.53 2.9,-2.14 5.5,-4.5 8.1,-6.84 4.8,-3.6 10,-6.22 15.6,-8.25 3.3,-0.92 6.7,-1.31 10.1,-1.01 0.4,0.03 0.8,0.11 1.1,0.15 l -3.6,-6.49 c 1.9,-3.11 -1.1,-6.11 1.6,-9.23 v 0.12 c 3.6,-1.82 7.1,-3.75 10.7,-5.43 7.9,-3.7 10.6,-2.86 13,4.41 0.6,1.79 0.3,3.94 0.3,5.92 v 0.09 c -1.2,1.85 -1.9,3.84 -3.3,5.61 l -11.3,5.88 c 2.6,0.23 5.2,0.58 7.6,1.43 l 0.7,0.36 c 4.8,-3.21 8.9,-1.84 12.8,0.77 l 0.9,0.92 c 0.9,-0.25 1.7,-0.38 2.8,-0.37 4.4,-1.79 8.6,-2.45 11.8,-0.17 l 0.5,-0.24 c 5.4,-2.04 10.7,-2.84 16.1,-3.68 1.1,-0.26 2.3,-0.52 3.4,-0.77 0.3,-0.16 0.5,-0.34 0.7,-0.47 l -0.2,0.35 v -0.01 l 0.2,-0.34 0.2,-0.17 c -0.3,-0.2 -0.6,-0.34 -0.9,-0.57 -3.5,-2.74 -5.5,-7.42 -11.4,-6.35 -4.2,0.87 -8.2,0.81 -11.8,-1.41 l -2,-2.14 -1,-2.73 c -0.4,-2.94 0.4,-5.88 0.4,-8.84 -0.1,-3.07 0.5,-6.07 1.9,-8.97 1,-1.87 2.3,-3.59 3.9,-5.1 5.4,-3.22 10.8,-6.53 15.9,-10.11 -0.9,0.01 -1.8,-0.05 -2.8,-0.28 v -0.03 c 1.2,-1.86 1.5,-3.88 2.6,-5.75 l -0.5,-0.15 c 1.2,-2.35 2.5,-4.6 4.2,-6.74 1.4,-1.1 2.8,-2.12 4.2,-3.07 -7.6,1.38 -15,3.63 -22.2,6.17 -10.8,3.68 -21.3,8.13 -32.5,9.64 l -1.7,-0.84 v 0.04 c 0,0.06 0.2,0.11 0.2,0.11 6.5,9.45 -5.4,12.01 -8.4,17.92 l -20.3,11.19 c -1.9,2.38 -3.3,6.03 -5.7,6.93 z m -142.7,9.14 c -0.1,0.28 -0.1,0.54 -0.2,0.82 -0.5,0.7 -1.2,1.29 -1.8,1.86 0.3,0.43 0.6,0.88 0.8,1.36 0.7,0.15 1.4,0.36 2.1,0.65 0.5,0.31 1,0.66 1.5,1.05 0.2,-2.22 1.4,-3.83 3.1,-5.23 l -0.4,-0.53 -0.1,-0.11 c -1.4,0.46 -2.9,0.44 -4.3,-0.21 z m 11.4,9.6 c -2.6,2.53 -5.5,4.46 -8.6,6.07 -5.1,7.65 -18,7.01 -23.1,14.9 v 0.05 c 1.1,-0.16 2.3,-0.33 3.3,-0.57 11,-2.02 21,-13.89 33.2,-3.67 2.4,7.73 -1.9,10.97 -6.8,13.64 4.4,0.62 8.7,0.56 10.9,-6.19 -0.1,-1.67 -0.3,-3.36 -0.4,-5.05 0,-0.84 -0.3,-1.69 -0.4,-2.5 l -0.2,-1.27 v 0 -0.06 l -0.2,-1.27 c -0.1,-4.85 -1.3,-9.52 -2.4,-14.16 -0.1,-0.84 -0.1,-1.69 0,-2.54 -2.1,0.62 -4,1.35 -5.3,2.62 z m -58.8,47.33 c 3.7,0.02 7.2,-0.67 10.6,-1.49 -0.6,-0.57 -1.1,-1.22 -1.4,-2 -3.4,0.55 -6.3,2.02 -9.2,3.49 z m -902.7,-0.5 c 0.4,0.15 0.7,0.54 0.1,1.39 3,7.36 9,16.05 -0.8,21.53 -8.9,4.91 -17,-0.01 -23.3,-7.39 -2.2,-1.06 2.9,-3.29 -1.2,-4.01 -2.6,4.41 2.7,7.47 3.5,11.19 5.4,-0.26 8.4,4.33 12.7,6.43 14.5,2 27.9,6.55 40,14.73 1.2,-0.52 2.5,-0.97 3.9,-1.3 1.8,-0.37 3.6,-0.58 5.6,-0.66 1.8,-0.06 3.5,-0.15 5.4,-0.11 0.2,0.1 2,-0.35 2.4,-0.21 0.3,0.15 0.6,-1.53 0.9,-1.44 0.3,0.08 -1.6,-1.47 -1.3,-1.39 -2.6,-1.37 -4.9,-3 -6.7,-5.08 -3.5,-1.45 -7.1,-2.9 -10.6,-4.37 2.1,-3.64 5,-4.54 7.9,-5.14 0.2,-0.87 0.4,-1.72 0.8,-2.54 1.1,-1.7 2.5,-3.21 4.1,-4.48 0.8,-0.55 1.7,-1.01 2.7,-1.4 l -0.2,-0.01 c -2.1,0.02 -4.2,-0.09 -6.3,-0.46 -2.1,-0.39 -4,-0.86 -6,-1.59 -2.8,-0.86 -5.7,-1.7 -8.6,-1.71 -3,-0.11 -6.1,-0.37 -9,-1.05 -5.1,-1.16 -9.5,-3.34 -12.9,-7.32 -1.7,-0.85 0,-3.8 -2.8,-3.62 -0.1,0 -0.1,0 -0.3,0.01 z m -58,27.35 c -0.1,-0.19 -0.2,-0.37 -0.4,-0.53 l 0.1,0.39 z m -0.4,0.1 0.1,-0.24 -1.4,-0.94 c -0.1,-0.03 -0.3,-0.08 -0.4,-0.1 0.7,0.36 1.3,0.8 1.7,1.28 z m 21.8,8.55 c 3.2,1.16 6.2,2.67 8.2,5.52 0.7,-0.1 1.4,-0.17 2.1,-0.32 l 0.1,0.01 c -2,-2.3 -4.4,-4.36 -6.4,-6.73 -1.2,0.6 -2.6,1.11 -4,1.52 z m -70.8,-1.29 v 0 l 0.2,-0.04 z m 255,13.99 c 1.5,1.02 3.1,1.96 4.6,3.06 2.5,1.21 5.2,1.6 7.9,1.95 1.9,0.06 3.7,0.1 5.6,0.36 4.8,0.1 9.3,-0.53 14.1,-0.99 4.9,-0.26 9.7,0.46 14.3,1.93 2.6,0.81 5.2,1.57 7.7,2.28 1.7,0.16 3.3,0.14 5,0.25 1.7,-0.39 3.3,-0.96 5,-1.41 l 3.4,-1.87 c -12.3,-0.31 -24.7,-0.53 -37.1,-1.73 -12.3,-1.54 -24.4,-4.3 -36.3,-8.93 l -1.2,-0.46 -0.3,0.5 v 0.01 c 0.9,0.55 1.7,1.06 2.6,1.6 1.7,1.1 3.2,2.18 4.7,3.45 z m 640.6,13.12 c -7.4,2.34 -14.9,4.17 -22.3,6.27 v 0.01 l 1.8,6.82 c 2.3,0.34 4.3,1.23 5.5,3.07 2.8,-0.01 4.7,1.12 5.9,3.12 7.5,-10.2 19.6,-12.18 31.3,-14.82 l 1.3,0.05 c 0.4,-1.19 0.9,-2.33 1.6,-3.41 1.5,-1.59 3.1,-2.96 5.1,-4.02 4,-1.78 8.3,-2.71 12.5,-3.78 8.7,-2.39 18.3,-2.84 25,-8.76 l -4.2,1.29 c -6.6,0.54 -12.2,3.5 -18,6.15 -2,0.74 -4.3,1.36 -6.5,1.77 -2.2,0.41 -4.6,0.63 -6.9,0.59 -3.6,-0.62 -6.9,-1.69 -9.5,-3.87 l -16,3.93 c -0.1,0.28 -0.2,0.53 -0.3,0.82 -1.7,1.52 -3.7,2.52 -6,3.11 -0.1,0.56 -0.1,1.11 -0.3,1.66 z m -20.9,13.41 c 1.4,1.86 3.3,3.07 5.9,3.23 1.1,2.03 2.8,3.24 5.4,3.33 l 0.3,-0.36 -5.4,-3.11 0.1,0.19 v 0 l -0.4,-0.05 -0.2,-0.31 -5.3,-2.89 0.1,0.04 v 0.01 0 0 -0.01 c -0.2,0 -0.3,-0.05 -0.5,-0.07 l -0.1,-0.09 c -0.5,-0.17 -1.2,-0.32 -1.6,-0.62 -0.3,-0.17 -0.5,-0.36 -0.8,-0.55 0.6,0.69 1.4,1.14 2.5,1.26 z m 48.2,-39.94 c -1.2,0.79 -2.4,1.5 -3.8,2.01 -2.7,0.78 -5.5,1.05 -8.2,0.92 l -2,0.07 c 4.2,1.48 9.3,-0.07 13.7,0.84 l 2,-2.17 c 0.5,-0.58 1.1,-1.05 1.5,-1.58 -1.1,0.23 -2.2,0.23 -3.2,-0.09 z m 573.7,-163.57 0.1,-1.35 c -0.1,0.42 -0.1,0.87 -0.1,1.35 z m 51.6,-23.26 c 2.5,-2.31 3.9,-5.19 5.5,-8.02 9.2,-7.81 6.4,-20.8 16.1,-28.28 2,-1.15 4.1,-1.79 6.3,-1.87 l 0.9,0.31 1.5,-1.37 c -0.2,-2 -0.4,-4.02 0,-6.13 0.3,-0.74 0.6,-1.45 0.9,-2.17 -0.7,-0.34 -1.5,-0.47 -2.5,-0.25 -6.2,5.2 -12,10.75 -15.4,18.37 -1.1,2.07 -2.2,4.07 -3.8,5.95 l -0.8,1.4 c 1.8,3.47 0.2,8.03 -3.1,13.13 -1.7,1.46 -3.5,2.36 -5.4,2.74 1.3,1.64 1.6,3.58 -0.2,6.19 z m 56.8,-81.8 c -1.5,0.63 -3.1,0.98 -4.7,0.87 0.4,2.54 0.2,5.12 -0.5,7.76 2,-2.74 3.8,-5.59 5.2,-8.63 z m -2109.2,-204.81 v 0.01 c 1.1,0.61 2.4,0.96 3.6,1.32 z m 1237.5,584.17 c 6.1,0.44 10.2,3.4 12.6,8.8 0.2,-0.28 -0.3,-0.47 -0.4,-0.68 -2.4,-5.08 -3,-10.46 -3.1,-15.9 -2.7,2.8 -5.7,5.44 -9.1,7.78 z m -37.3,8.21 0.6,-0.07 c 1.6,0.46 3.2,0.74 4.7,0.87 1.8,-2.38 4.2,-3.93 7.3,-4.35 -0.4,-0.22 -0.7,-0.39 -1.1,-0.64 -2.4,-2.39 -3,-5.13 -3.1,-7.94 -2.8,4.02 -3.4,9.43 -8.4,12.13 z m -45,10.15 c 1.2,-0.52 2.4,-1.2 3.6,-2.16 l 2,-0.75 c -3.4,0 -6.8,-0.09 -10.3,-0.59 1.6,1.2 3.1,2.37 4.7,3.5 z m 553.5,-102.67 c -6.6,2.98 -11.1,8.08 -13.9,14.29 -1.8,3.53 -2.5,7.46 -4.7,10.79 -1.7,2.23 -3.8,4.15 -6.3,5.68 -3.1,1.53 -6.1,2.51 -9,2.7 l -2.7,3.95 c 5.5,0.07 10.5,1.48 14.2,5.9 l 2.8,-1.84 c 0.8,-2.29 2.1,-4.37 3.9,-6.26 13.1,-8.95 28.9,-12.82 42.2,-21.39 v -0.06 c -3.1,0.31 -6.1,0 -9.1,-1.33 -1.9,-1.39 -3.5,-3.19 -4.3,-5.38 -0.9,-3.73 0.1,-7.4 2.3,-10.97 2.2,-2.84 4.7,-5.24 7.4,-7.37 -7.5,3.98 -15.1,7.82 -22.8,11.29 z m -282.8,103.82 c 1.9,-0.09 3.8,-0.14 5.7,-0.06 -0.8,2.92 2.5,-2.15 -0.6,-1.68 -1.7,0.55 -3.4,1.13 -5.1,1.74 z m -703.8,44.81 c -1.4,0.43 -2.8,0.77 -4.2,0.99 2.3,0.54 4.5,1.15 6.7,1.83 -1,-0.81 -1.9,-1.72 -2.5,-2.82 z m -77.5,-18.4 z m -57,-38.51 -2.2,-0.59 c 0.6,0.54 1.2,1.1 1.8,1.65 0.1,-0.35 0.2,-0.72 0.4,-1.06 z m 553.7,109 c -3,1.09 -5.9,2.7 -8.9,5.01 -17.5,11.79 -40.3,7.68 -60.3,12.33 -6,-0.02 -11.8,0.03 -17.7,-1.19 -5.5,-2.58 -12.5,-3.66 -17.4,-7.32 l -1.6,0.86 c -5.7,2.34 -11.4,2.95 -16.7,-0.07 0.2,0.91 0.3,1.85 0.3,2.82 0.1,2.34 0.2,4.65 2.6,6.34 11.6,3.42 24.2,1.22 36,3.84 3.4,1.2 5.9,2.93 7.4,5.54 2.3,-5.07 8.8,-6.76 14.4,-9.18 4.3,-1.1 8.7,-0.99 13.2,-0.95 8.5,0.57 16.3,-2.66 24.8,-2.43 9.7,-0.05 20.1,3.09 28.9,-3.63 7.3,-5.67 16.6,-12.94 25.7,-4.92 5.7,4.87 4,9.12 0.4,13.04 l 5.1,-1.73 c 2.2,-0.46 4.4,-0.78 6.7,-0.97 0.4,-0.07 0.7,-0.16 1.2,-0.24 2.6,-2.98 2.7,-5.08 0.9,-8.73 -1,-0.25 -1.9,-0.5 -2.8,-0.74 -2.2,-0.76 -4.3,-1.69 -6.2,-2.92 -4.6,-1.75 -9.2,-3.51 -13.9,-4.76 l -14.1,-1.59 c -2.6,1.72 -5.3,2.23 -8,1.59 z m -61.6,33.49 -7,-1.06 c 2.3,0.59 4.6,0.91 7,1.06 z m 22.9,-2901.08 9.8,-1.01 c 4.1,-1.58 8.2,-2.22 12.3,-2.15 4.2,0.19 8.3,1.07 12.3,2.21 11.6,-1.89 23,0.57 34.4,1.14 h 4.9 c 4.5,-3.54 11.2,-0.32 15.9,-3.23 9.4,1.9 18.8,4.11 28.2,6.2 v 0 c 5.6,0.13 11.1,0.19 16.7,0.51 4.9,0.25 9.5,1.26 12.2,5.18 5.1,5.12 9,11 17.8,12.96 l 6.1,-2.84 c 5.4,-4.55 14.8,-1.27 20.3,-5.69 l 14.6,1.95 v 0 l 5.8,0.39 c 6.8,-1.97 13,-0.51 18.8,3.22 l 4.8,0.95 v 0 l 18.6,6.45 v 0 c 3,-2.34 6.8,-2.91 11,-2.09 l 18.9,4.11 c 17.9,2.28 35.7,5.69 52.9,11.44 7.1,0.89 14.2,1.96 21.4,2.59 14.6,1.58 28.1,6.33 40.1,14.36 9.1,4.23 18.5,7.65 27.6,11.82 9,4.3 17.9,8.98 25.8,14.86 0.6,1.01 1.3,1.95 2,2.72 l 3,0.56 c 13.5,4.49 27,8.92 40.2,14.29 -1,-2.91 -3.3,-4.87 -6.4,-6.26 -2.2,-0.95 -5.3,-1.96 -4.5,-4.17 1.1,-3.03 4.7,-1.9 7.7,-1.01 1.5,0.44 3,1.07 4.6,1.64 25.2,8.98 50,19.22 75.8,26.11 4.7,1.2 10,3.23 11.7,7.65 3.1,8.22 11.7,9.74 18.4,13.66 13.2,2.15 24.9,8.98 36.9,14.67 l 1.9,0.06 1.6,1.14 c 1.7,0.44 3.4,0.94 5,1.51 6,1.96 11.7,4.49 17.3,7.21 5.6,2.91 11.1,5.88 16.8,8.47 4.5,2.09 7.9,5.38 9.7,9.61 0,0.82 0.3,1.58 0.8,2.28 l -0.8,-2.28 7.9,4.3 c 6.4,4.68 14.2,7.72 20.1,14.86 -9.1,1.71 -16.5,-1.52 -23.8,-6.96 v 0 c -1.2,-0.44 -2.3,-1.01 -3.4,-1.76 v 0 l -4.2,5.69 v 0 c 5.8,5.75 13.4,8.91 20.4,12.89 v 0 0 c 6.4,1.77 12.9,2.47 18.7,6.45 0.5,2.91 1.8,6.2 4.9,7.14 7,2.22 12.2,6.01 17.3,11.38 4.2,4.3 10.8,6.89 16.3,10.12 2.8,1.77 6.2,3.54 8.6,2.02 5.5,-3.41 9.7,-2.21 15.7,2.97 3,2.66 8.8,2.6 13.3,3.73 6.3,4.81 13.8,8.92 18.8,14.61 13.4,15.49 29.9,25.73 47.1,35.84 16.1,16.13 34.1,29.97 51.8,44.2 4.3,3.41 8.4,8.09 14.2,7.08 v 0 c 2.4,-0.07 4.7,0.06 7.1,1.77 11.2,9.23 22.7,18.46 28.9,31.92 18.4,13.85 34.1,31.42 53.4,44.38 7.7,4.18 13.2,10.44 16.3,18.72 v 0 c -4.3,10.49 -14.3,4.49 -22.4,3.98 l 2.9,3.29 c 11.9,13.84 12.7,17.01 28.5,9.04 1.4,-0.7 2.8,0.32 3.6,2.4 -1,3.61 -2.1,7.4 -3.1,11.19 -11.8,6.39 -12.3,6.45 -21.7,-2.53 -4,-3.73 -7.5,-7.96 -11.3,-11.95 v 0 c -4.5,1.84 -4.5,7.08 -6.6,10.75 -2,3.54 1.3,6.26 3.8,8.98 2.1,0.89 4.2,1.64 6.4,1.2 v -0.06 -0.06 0 0 0 c 3,-1.84 6.2,-1.08 9.7,1.13 3.9,2.4 7.9,4.3 11.9,6.45 5.9,6.58 2.2,8.16 -3,8.98 v -0.06 c -4.8,-2.79 -9.6,-5.57 -14.3,-5.06 l -0.7,2.27 -1.7,2.22 -2.2,1.64 c -1.7,0.63 -3.6,1.01 -5.6,0.89 -1.3,-0.38 -2.7,-0.57 -3.9,-0.57 -3.4,1.7 -3.6,3.66 -1.8,8.72 2.2,1.39 4.3,2.85 5.6,5.06 0.3,0.31 0.3,0.63 0.5,0.95 0.5,-3.99 1.2,-7.59 3,-10.05 -0.4,-0.83 -0.6,-1.59 -0.4,-2.22 0.1,-0.44 0.7,-0.76 1.2,-1.14 0.7,-0.06 1.5,0.26 2.4,0.83 2.6,-0.95 6.1,-0.7 11.3,1.39 0.2,4.04 0.3,8.22 0.4,12.33 0.2,4.29 -5.3,6.7 -2.4,11.94 0.5,-0.19 1.3,0.07 2.3,0.7 v 0 c 3.7,0.38 5.8,4.23 8.9,5.75 l 1,1.27 1,1.26 c 0.8,4.24 -1.3,5.5 -4.8,5.31 0,0.89 -0.2,1.9 -0.5,2.91 -1.6,2.47 -4,3.6 -7.1,3.41 4.7,2.78 8.7,6.58 11.8,11.7 1,2.53 0.9,4.99 -0.2,7.4 -1.4,2.02 -3.3,3.22 -5.4,3.92 1.5,1.32 3,2.65 4.2,4.23 3.6,3.92 6.7,8.22 8.1,13.47 0.3,2.02 0.4,3.92 0.1,5.81 -0.1,0.51 -0.2,0.89 -0.2,1.33 l 4.8,6.64 c 2.6,0.38 5.5,0.38 6.9,2.4 1,0.7 1.9,1.46 2.9,2.28 1,-1.2 2.1,-2.21 3.3,-3.29 0.2,-0.25 0.5,-0.38 0.7,-0.57 l 0.1,-2.15 c 0.8,0.13 1.5,0.38 2.3,0.64 1.9,-0.95 3.9,-1.65 5.8,-2.53 5.2,-1.65 10.7,-1.01 16.4,1.58 l 0.4,0.19 c 1.2,0.69 2.2,1.64 2.9,2.78 0,-0.13 0.1,-0.19 0.2,-0.32 0.6,-0.57 1.4,-0.44 2.5,0.25 l 1.7,1.78 c 0.3,-4.05 2.2,-7.53 2.4,-11.7 -0.5,-2.72 -1.5,-5.37 -2.6,-7.9 -0.9,-1.84 -1.6,-3.8 -2,-5.69 -0.2,-16.82 6.1,-21.25 21.1,-9.17 6.5,3.41 10.9,9.23 15.2,15.24 3.9,5.37 7.7,10.62 13.9,12.51 2.9,4.37 5.7,8.6 8.1,13.09 0.9,-2.02 3.1,-4.3 6.4,-7.77 2.6,0.12 5.1,0.75 7.1,2.84 l 10.7,15.24 h -0.5 c -0.3,2.27 1.1,4.87 -0.4,6.95 l -17,-2.34 c -0.8,-1.14 -1.4,-2.02 -2.1,-2.97 0.6,2.72 0.8,5.63 0.6,8.72 -0.7,13.6 1.3,14.29 17.2,22.38 l 0.6,0.38 c 6.3,6.07 10.7,12.9 3.8,18.91 -3.8,3.41 -4.9,6.83 -3.6,10.81 1.1,-0.89 2.1,-1.65 3.4,-2.21 2.3,-0.95 4.7,-0.95 7.2,0.63 l 8.5,13.34 c 1.6,0.69 3.3,1.52 4.8,2.59 0.8,1.14 1.7,2.21 2.8,3.03 8.5,7.21 20.1,11.38 21.9,25.99 0.7,5.37 -0.4,10.05 -1.4,14.73 0.7,0.06 1.3,0.19 2,0.44 2.4,1.26 4.1,3.1 5.1,5.82 2.4,5.18 7.2,7.08 10.5,10.81 4.7,0.31 9.3,0.82 13.9,0.95 5.5,0.19 8.7,3.92 11.2,9.8 1.2,2.84 3.5,5.37 5.3,8.02 v 0 0 c 1,-0.25 2,-0.44 3,-0.56 12.4,9.35 14.4,23.07 15.4,36.92 -0.6,4.42 1.9,7.71 3.8,11.44 2.4,5.25 4.5,10.75 6.4,16.25 0.3,1.07 -0.6,3.16 -1.5,3.73 -2,1.26 -3.7,-0.63 -4.8,-2.97 -1.1,-2.28 -2,-4.56 -3,-6.89 -6.9,1.2 -11.7,-1.39 -15.6,-5.82 l 0.5,1.33 v 0 0 c 5.8,15.23 5.5,16.18 -4.9,17.76 l -0.1,-0.06 c -1.2,-0.32 -2.4,-0.19 -3.6,0.06 2.5,5.25 5,10.5 7.3,15.81 2.1,5.18 3.9,10.62 8.4,14.22 0.4,1.39 1.1,2.66 2.1,3.67 1.9,1.14 3.8,2.34 5.4,3.92 l -0.2,0.25 c 0.1,3.54 0.5,10.18 -4.3,6.32 -6.9,-5.62 -14.3,-11.06 -19.2,-19.41 -3.2,-2.21 -4.5,-5.11 -3.6,-8.91 l -2,-4.61 c -1,-4.56 -0.1,-8.16 2.6,-10.82 -1.1,-0.06 -2.2,-0.37 -3.3,-1.32 -1.2,2.15 -3,3.41 -5.4,1.39 -3.5,-2.91 -6.4,-6.64 -9.6,-9.99 -1.6,-2.02 -3.5,-3.29 -5.5,-4.05 v 0.13 l -6.8,2.97 h 0.2 v 0 0 0 c 1.1,3.54 1.3,6.89 -0.2,9.93 v 0 c 1.5,4.3 3.1,8.6 4.4,12.89 0.7,2.28 1.7,4.05 2.8,5.31 5.1,0.76 11,-1.7 15.6,1.14 6.2,1.9 8.9,7.02 11.2,12.52 2.2,5.5 3.6,11.57 7.8,15.3 l -0.2,-0.25 c 5.2,3.03 6.9,7.27 4.3,12.89 -1.9,3.42 -2.7,6.89 0.9,10.44 1.7,0.82 2.9,2.27 4,3.98 10.7,-0.76 11.1,0.25 15.9,13.4 0.8,2.21 2.3,4.17 3.4,6.32 2.7,13.28 2,14.86 -6.4,16.76 -3.3,0.76 -6.4,0.76 -9.3,-2.41 v 0 l -7.4,2.91 v 0 c -1.2,5.88 -5.7,6.51 -9.7,7.97 0.4,1.33 0.9,2.53 1.6,3.6 3.1,-0.12 5.9,0.76 8.2,3.73 v -0.06 c 1.9,0.7 3.6,2.02 4.9,4.11 0.6,0.44 1.3,0.76 2.1,1.01 -0.1,-0.13 -0.1,-0.25 -0.1,-0.38 -0.3,-9.99 2.7,-12.83 10.9,-9.92 2.7,0.94 4.9,3.16 7.5,4.8 2.6,2.34 3.1,6.45 5.9,8.72 0.3,1.46 0.8,2.91 1.5,4.24 -1.8,9.48 -2.6,10.24 -8.6,6.77 -0.7,-0.45 -1.4,-0.89 -2.1,-1.33 1.8,4.61 4,9.1 6.4,13.46 1.2,2.03 1.4,4.68 -0.4,6.01 -0.9,0.7 -2.5,0.32 -3.7,-0.13 -3.9,-1.64 -7.2,-4.36 -10.2,-8.21 -2.8,-3.61 -6,-8.92 -10,-7.21 -2.6,1.13 -3.3,3.16 -3.2,5.56 0.5,1.52 1,3.1 1.6,4.62 0.9,2.84 3.4,5.18 5,7.83 3.5,1.84 4.1,4.75 2.7,8.35 l 1.2,4.93 c 1.6,1.2 1.9,2.72 1,4.55 l 2.2,12.27 11.2,-3.23 2.5,0.57 1,0.57 6.6,-1.51 0.9,-2.53 c 4.4,2.27 8.8,3.85 13.4,2.84 8.5,-0.44 3.3,-11 7.1,-16.31 2.9,7.02 5.5,13.4 8.1,19.79 v 0 0 c 2.2,6.89 4.8,13.65 6.4,20.61 0.8,3.79 -1.6,5.5 -4.7,3.92 -2.6,-1.39 -5,-1.96 -6.4,1.52 -1.5,3.72 -1.6,7.52 1.4,10.81 1.9,2.15 4,4.11 6,6.13 2.5,0.06 4.1,1.52 4.8,4.61 v 0 0 l -0.1,-0.06 c 5.5,6.89 5.5,16 7.6,24.28 v 0 l 1.1,1.39 0.3,1.89 v 0 c 7.7,12.9 8,27.95 9.9,42.49 1.7,15.49 3.6,30.92 4.5,46.4 -0.4,0.51 -0.9,1.08 -1.3,1.58 0.2,6.64 -2,13.41 1.9,19.6 1.4,2.97 2.7,6.07 3.8,9.3 0.7,3.22 0.9,6.51 1.2,9.86 0.1,2.15 0.2,4.3 0.1,6.45 -0.9,6.19 -0.1,12.26 1.3,18.27 0.3,2.15 0.5,4.3 0.5,6.51 v 10.12 c 0,2.27 -0.3,4.49 -0.7,6.7 -2,8.66 -2.9,17.13 -2.2,25.48 l 0.9,6.06 c 1,4.62 2.5,9.17 4.7,13.66 0.7,2.09 1.4,4.17 1.8,6.37 0.4,5.63 2.2,10.75 3.3,16.14 0.3,2.46 0.4,4.94 0.3,7.4 0.8,-0.49 1.6,-1.31 2,-2.79 1.9,-6.95 4.3,-13.72 4.2,-21.52 -0.2,-13.63 0.5,-27.03 3.3,-40.24 l -0.4,-0.32 c -5,-5.37 -4.8,-14.1 -8.5,-20.23 -2.2,-6.38 -3.5,-12.84 -1.7,-19.92 3.1,-7.9 -4.4,0 -3.7,-4.3 -4.6,-6.25 -6.3,-14.03 -3,-20.6 7.4,-14.86 9.6,-30.6 8.8,-46.47 -1,-15.87 -4.6,-31.87 -7.4,-47.8 6.1,-3.29 8.7,-2.72 11,2.47 5.1,11.88 5.3,24.47 4,36.86 -0.8,9.29 -1.7,18.08 4.1,25.92 l -1.2,36.98 c -0.2,6.89 0.9,13.15 5.2,18.15 5.2,12.01 2.2,25.22 3.2,37.87 -0.7,1.58 -1.4,2.65 -2,3.35 1.7,8.15 0.5,15.99 -2.5,23.13 -4.6,11.38 -6.1,23.48 -5.6,36.06 l -3.5,10.56 c 0.7,1.19 0.9,2.52 0.7,3.98 0.9,0.58 1.9,1.05 2.9,1.42 l 3.3,5.38 c 0.2,1.44 0.5,2.87 0.8,4.26 v 0 c 4,6.61 1.2,10.21 -3.4,13.6 -5.6,4.19 -11.3,-2.05 -16.8,0.74 5.3,6.75 12.4,12.4 9.2,24.66 l 0.1,0.13 c -1.3,4.2 -5.5,2.49 -7.2,5.83 -0.6,2.72 -1.1,5.45 -1.4,8.19 -0.1,1.03 -0.2,2.02 -0.4,2.93 -0.7,6.21 -0.9,12.46 -0.5,18.77 1.6,4.92 1,9.81 -0.7,14.67 -0.5,0.2 -0.9,0.25 -1.3,0.37 3.6,6.51 -1.6,14.44 0.8,21.18 -0.3,1.4 -0.2,2.75 0.2,4.05 -3.3,21.45 -3.1,43.52 -10.1,64.37 -0.4,5.05 -1.1,10.19 -4.3,13.86 -1.4,1.52 -3.7,2.41 -5.4,2.38 -2.2,-0.04 -3.1,-2.76 -2.9,-5.23 0.5,-5.76 1.4,-11.5 1.9,-17.26 0.4,-5.29 -1,-9.56 -4.8,-11.98 l 0.6,-9.12 c 0.2,-7.69 -2,-15.73 0.4,-23.06 -0.3,-0.86 -0.6,-1.72 -0.9,-2.63 -0.7,-2.77 -1.5,-5.5 -2.4,-8.25 l -0.9,-2.52 c -0.8,-1.62 -1.5,-3.21 -2.1,-4.9 -0.7,-1.6 -1.4,-3.22 -1.9,-4.96 -0.6,-1.71 -1.1,-3.46 -1.4,-5.31 -0.7,-3.71 -0.5,-7.52 -0.2,-11.33 v -5.68 l -0.1,-0.31 c -1,0.02 -2.1,-0.17 -3.1,-0.6 -6.2,-7.19 -10.8,-14.25 -13.9,-21.21 -0.1,0.42 -0.3,0.81 -0.4,1.22 1.7,1.88 2.2,4.57 0.8,8.25 -1.6,4.44 -2.8,8.65 -3.1,12.89 l 3.7,-0.55 c 2,4.94 2.9,10.16 3.2,15.5 l 1.3,1.27 7,10.27 v 0 c 2.9,5.88 2.9,12.02 -0.6,17.86 -0.3,0.4 -0.6,0.81 -0.9,1.18 0.8,6.11 1.1,12.29 0,18.67 -3.2,15.23 -2.8,30.56 -1.7,46 1.4,0.07 2.9,0.02 4.3,0.23 6.8,1 8.8,2.96 6.5,8.09 -3.1,6.83 -2.9,13.91 -4,20.94 v 0 c 0.3,5 -0.6,9.81 -2.6,14.45 -1.2,13.86 -9.8,24.95 -13.2,37.92 v 0 c 0.3,1.29 0.1,2.52 -0.5,3.7 1,0.86 2,1.63 3.2,2.32 -3.9,12.65 -8.4,25.13 -12.7,37.67 -4.4,12.47 -8.3,25.11 -13.2,37.37 l -1.8,8.85 v 0 c 1.6,7.43 -0.5,14.68 -2.8,21.77 -2.2,6.46 -3.3,12.85 -2.3,19.51 -8.3,20.17 -20.3,38.66 -24.7,60.39 l 2.3,6.58 c -0.4,1.4 -0.5,2.81 -0.2,4.21 l 5.8,6.06 c 1,-0.59 2,-1.12 3.2,-1.65 13.2,-5.91 17.7,1.55 17.4,14.51 -4.8,11.82 -11.7,22.63 -18.1,33.65 -6.4,11.01 -12.1,22.3 -15.5,34.89 l -3,8.57 c -0.1,9.09 -9.7,15.48 -8.5,25.01 l -6.7,13.68 c -0.5,10.99 -11.4,18.13 -12.2,29.05 -0.3,1.54 -0.8,3.04 -1.4,4.52 -6.3,10.35 -7.3,24.16 -18.8,31.34 -14.9,31.03 -33.4,60.34 -53.6,88.33 l 0.7,-0.21 v 0 c 2.8,-1.47 5.9,-2.5 8.3,-4.53 4.1,-3.53 8.3,-4.87 12.9,-3.77 -3.1,9.64 -7,18.92 -14.1,26.82 -3.4,3.79 -6.3,8.1 -9.2,12.34 -11.6,16.7 -25.5,31.9 -35.3,49.73 -1.8,4.72 -3.4,9.54 -4.9,14.43 l 1,-1.01 c 14.2,-17.64 27.8,-35.93 42.5,-53.2 7.6,-9.69 15.2,-13.89 19.7,-6.03 l 5.4,-7 c 3.3,-4.28 6.6,-8.67 9.7,-13.1 -1,0.47 -2.2,0.99 -3.5,1.58 l 4.9,-14.97 c -0.2,-4.59 1.6,-7.49 6.4,-7.99 0.8,0.7 1.6,1.35 2.4,1.94 -0.2,2.3 -0.4,4.23 -0.6,5.93 l 2.5,-3.6 c 3.3,-4.46 6.1,-9.19 8.7,-14.11 5.4,-8.31 6.7,-18.33 12.5,-26.42 4,-6.43 8.4,-12.06 16.1,-12.31 7.7,-1.74 9.3,-9.58 13.1,-15.09 2.1,-2.99 4.5,-5.62 7.8,-5.4 4.3,0.29 5.5,3.85 6.2,8.3 0.8,5.38 1,10.84 0.5,16.26 -0.7,5.37 -1.9,10.79 -4,16.27 -8.2,14.9 -17.6,30.32 -31.4,38.34 -12.7,7.21 -19.1,16.5 -24.5,28.84 -2.1,4.71 -5.5,8.95 -8.3,13.41 v -0.01 c 0.3,3.13 0.6,8.91 -1.9,8.84 -6.3,-0.17 -10.9,2.14 -14.6,5.7 -3.9,3.51 -7.1,8.17 -10.3,12.88 l -6.5,1.84 v 0 l -0.1,0.15 c -5.8,8.27 -11.2,17.18 -21.1,8.67 -1.2,-1.02 -6.1,1.53 -8.8,3.34 -5.8,3.92 -10.1,9.41 -13.7,15.62 -5.6,8.85 -11.5,17.51 -17.3,26.27 l -20.7,23.33 c -0.7,6.6 -5.9,10.14 -10.4,14.29 -11.3,10.8 -24.5,20.43 -33.3,32.85 -2.6,3.8 -5.3,7.47 -8.3,11.02 -2.9,3.44 -6,6.79 -9.1,10.07 -6.3,6.58 -12.8,12.9 -19.3,19.29 -7.5,7.3 -15.5,14.19 -19.6,24.02 l -31.2,28.65 c -5,2.82 -9.9,3.5 -14.4,1.11 -9.2,6.87 -14,10.19 -17.9,10.34 -4,0.19 -7.1,-2.66 -13.1,-8.4 4.7,-3.57 6.8,-8.5 9.1,-13.47 -1.1,-0.97 -2.1,-2.06 -2.9,-3.27 v 0 c -3.7,1.06 -7.4,1.99 -11.2,2.88 v 0 l -7.9,6.67 v 0 0 c -0.7,1.36 -1.8,2.38 -3.2,3.07 -1.9,5.53 -6.9,8.72 -11.2,12.42 l -2.6,4.21 v 0.01 0 c 3.1,12.83 3.1,12.86 -9.1,21.9 -0.1,-0.74 -0.2,-1.5 -0.5,-2.23 -3.6,-12.07 -3.7,-12.01 -13.7,-6.54 -16.9,8.42 -33.5,17.46 -50.7,24.45 l -0.6,0.3 c -10.7,7.23 -21.5,14.36 -31.7,22.8 -1,1.35 -2,2.73 -3,4.2 -2.3,15.53 -11.6,21.28 -25.3,19.85 0.7,1.95 0.7,4 0,6.15 -9.2,18.22 -32,20.83 -45,34.85 -2.3,1.48 -4.5,2.91 -6.8,4.25 -21.8,11.31 -42.3,24.47 -63,37.56 8.6,-4.13 17.5,-7.98 24.9,-13.97 6.5,-2.47 13,-5.73 19.7,-5.67 8.7,0.09 12.6,3.34 4.9,11.31 l -7.3,3.79 c -5.8,1.29 -11.6,2.36 -14.6,8.4 -8,7.57 -19.5,12.36 -24.6,22.49 -1.6,0.63 -3.2,1.4 -4.6,2.27 1.1,5.73 10.7,2.27 12,8.63 -8.7,3.94 -17.3,7.89 -26.1,11.85 -5.6,2.54 -10.7,5.61 -13.9,10.8 -10.5,7.06 -22.3,11.06 -34.2,15.03 -0.4,1.79 -1.1,3.59 -2.2,5.4 -5.4,6.34 -12.7,10.3 -20.8,13.37 -4.4,1.83 -8.9,2.89 -13.4,2.35 0,0.19 0.1,0.36 0,0.55 l -2,2.82 c -3.5,2.97 -7.2,5.66 -11.1,7.93 -3.9,2.16 -7.9,4 -12,5.49 -8.4,2.98 -17.2,4.61 -26.5,4.89 -1.8,0.05 -3.6,0.3 -5.3,0.59 l -1.2,0.16 c -11.3,4.08 -22.7,8.1 -34.1,7.88 -3,2.28 -5.6,5.4 -7.6,9.81 -1.1,2.39 -7.8,3.96 -12.1,4.82 -12.3,2.49 -24.6,4.7 -36.9,6.88 -0.7,0.36 -1.3,0.71 -2.1,1.03 -5.3,1.88 -9,5.27 -13,8.53 -4.9,4.17 -10.5,7.07 -17.3,8.38 -2.5,0.66 -5,1.16 -7,2.87 -0.2,-0.02 0.1,0.73 0.3,1.23 2.6,0.09 5,0.76 7.2,1.8 0.9,-1.85 2.1,-3.56 3.9,-5.01 8.5,-5.06 17.4,-7.94 26.7,-9.97 9.1,-2.27 18.6,-3.51 28.1,-4.78 3.8,2.11 7,2.57 9.9,2.07 1.4,-0.66 2.9,-1.19 4.5,-1.62 4.4,-2.38 8.1,-6.57 12.4,-9.18 18.3,-7.64 35.4,-18.8 56.3,-13.56 0.5,0.69 0.8,1.34 1,1.94 0.2,-0.33 0.4,-0.64 0.5,-1 l -0.1,0.38 4.8,-4.58 c 5.2,-4.28 11,-7.17 18,-7.98 12.3,-10.06 27.4,-14.73 42.2,-19.81 l 5.6,-2.18 4.4,-3.28 6.6,-2.58 c 3.8,-3.49 7,-7.65 11.6,-10.26 4.1,-2.62 8.5,-4.52 12.8,-6.58 6.4,-2.91 11.4,-7.48 16.6,-11.7 3.4,-3.25 6.1,-7.01 9.4,-10.23 2.4,-2.94 5.1,-5.51 8.5,-7.48 7.7,-3.85 15.2,-6.7 21.9,-1.4 0.5,0.86 0.8,1.77 0.9,2.7 9.7,-7.9 20.8,-14.77 25.2,-26.36 1.6,-1.85 3.5,-3.49 5.6,-4.82 9.4,-4.56 19.3,-1.74 28.7,-4.94 5.3,0.05 9.9,1.17 8.8,7.09 -1.1,5.84 -4.7,10.26 -12.3,9.89 -1.7,0.49 -3.3,1.37 -4.6,2.63 -1.2,2.2 -2.2,4.45 -4.5,6.12 -10,9.54 -24.4,15.34 -30.8,28.3 -0.8,1.64 -4.4,3.19 -6.8,3.7 -8.4,1.8 -14.5,6.01 -20.5,11.75 -5.1,4.83 -12,7.93 -19.2,9.5 -8.6,5.16 -17.2,10.26 -26.9,13.94 -16.4,5.85 -32.6,12.45 -48.9,18.69 -10.2,9.79 -24.1,12.9 -36.9,17.62 -10.3,3.98 -21.8,6.1 -31,11.46 -24.2,14.55 -51.7,19.33 -78.3,26.83 -6.2,1.73 -12.5,3.36 -18.7,1.8 l -45,19.71 -1.6,-1.78 -0.4,0.41 2,1.37 c -1.7,7.77 -9.3,9.41 -16.7,10.38 -9.1,1.33 -18.3,-0.9 -27.3,2.54 l -12.9,-6.38 c -14.6,2.16 -29.4,2.74 -43.5,7.58 -1.6,1.87 -3.5,3.44 -5.3,4.99 l -0.1,0.03 v -0.01 0.01 l -0.1,-0.05 v 0 l 2.1,13.21 c -5.3,2.43 -10.9,3.05 -16.7,2.26 l -27.2,7.87 c -12,1.64 -23.9,3.63 -35.8,4.86 l -36,3.53 c -0.3,4.1 -2.8,6.83 -7.8,8.33 -12.8,3.64 -25.8,2.36 -38.6,1.82 l -26.9,1.99 c -1,3.64 -1.7,7.9 -8.1,7.2 -5.5,-0.6 -10.6,-3.18 -16,-3.42 -15.4,-0.47 -30.7,-1.74 -45.9,-2.73 -15.3,-0.96 -30.6,-1.64 -46,-1.8 -10.7,-0.01 -22,-1.07 -32.6,1.93 0.5,1.19 0.7,2.39 0.6,3.61 1.6,2.51 1.1,4.61 -1.6,6.31 -7.4,-0.7 -15.9,0.19 -21.9,-2.5 l -0.5,-0.21 c -7.6,-0.59 -15.2,-3.29 -22.7,-5.76 -3.8,-0.53 -7.6,-0.85 -11.4,-1.52 -1,-1.07 -2.4,-1.42 -3.9,-1.04 -1.6,-0.38 -2.6,-1.09 -2.9,-2.09 -3.6,-0.49 -7.1,-1.13 -9.8,-3.45 -4.5,-6.29 -12,-6.43 -19.3,-6.76 -11,-0.5 -21.9,-1.44 -30.6,-8.26 l -0.3,-0.2 c -0.9,-1.43 -0.9,-2.76 -0.4,-4.02 -10,2.22 -15.7,-7.29 -24.8,-7.59 -1.8,-1.05 -3.5,-2 -5.3,-2.86 l -18.9,-3.27 c -0.9,0.14 -1.8,0.29 -2.7,0.54 -4.8,0.79 -9.8,-1.12 -14.5,0.32 -7.4,-1.73 -14.2,-4.14 -20,-8.66 v 0 l -27.8,-4.61 -3.6,-1.81 c -1.5,0.5 -3.1,1.21 -4.8,2.17 -7.2,0.74 -13.3,-0.84 -17.5,-6.55 l -0.4,-0.04 c 0.4,0.82 0.7,1.65 0.9,2.61 -1,3.91 -3.3,6.22 -6.5,7.42 2.6,0.26 5,0.57 7.5,1.03 12,2.31 15.3,7.35 2.4,12.07 v 0 c -4.6,2.37 -2.7,4.88 -0.8,7.38 1.5,-1.01 3.3,-1.61 5.4,-1.73 l 10.6,2.76 c 1.8,1.94 3.8,2.15 5.9,0.84 l 0.2,-0.02 10.2,7.3 -2.2,7.54 0.4,1.05 c -5.8,2.46 -11.7,-0.82 -17.6,-1.66 -4.8,-1.64 -10.7,-1.33 -14.6,-4.8 -0.2,0.14 -0.3,0.3 -0.5,0.44 -3.7,1.5 -7.8,1.44 -11.9,0.34 -6.9,-1.72 -13.8,-2.78 -20.3,-5.58 -2.4,-1.42 -4.2,-3.19 -5.4,-5.34 -4.4,-4.96 -2.3,-10.54 -4.9,-15.66 l -22.4,-5.76 c -9.4,1.73 -18.5,-1.62 -27.7,-4.14 -16.3,-8.14 -32.6,-15.93 -50.9,-18.68 -12.5,-5.76 -24.1,-12.5 -35.5,-19.94 l -4.4,-1.68 -11.6,-7.52 c -1.3,-0.01 -2.7,-0.89 -4.1,-2.69 l -8.4,-3.2 c -10.5,1.54 -20.1,-2.13 -29.3,-7.81 -14.7,-4.5 -29.2,-9.51 -43.9,-14.35 -4.4,-1.73 -8.9,-3.35 -13.3,-5.24 -5.3,-2.26 -10.5,-4.61 -15.5,-7.26 -1.3,-0.67 -2.5,-2.63 -2.5,-3.91 -0.2,-3.04 2.9,-3.39 5.5,-3.09 4.6,0.6 9.1,1.95 13.7,2.98 v 0 l 23.3,-7.06 c 6.9,-2.13 6.3,-5.72 -2,-11.23 -1.5,-0.98 -3.2,-1.52 -5,-2.27 l 0.7,-0.24 c 0.2,-6.15 5.5,-5.96 10.9,-5.81 3.8,0.84 7.5,2.17 11,4.09 2.2,1.32 4.1,2.84 5.8,4.63 2.9,3.38 4.9,7.03 6.2,10.95 0.3,0.9 0.7,1.78 1,2.68 0.7,1.76 1.3,3.49 1.6,5.26 0.2,0.87 0.3,1.72 0.5,2.57 0.1,0.92 0.1,1.8 0,2.66 l 0.9,0.18 c 6.8,3.9 12.8,2.07 18.5,0.02 5.2,-0.16 9.5,1.56 13.3,4.9 3,3.25 4.6,6.88 5.9,10.66 0.7,1.7 1.7,3.29 2.8,4.87 l 0.8,1.11 c -0.4,-2.8 0.2,-5.43 2.3,-7.84 1.8,-1.62 4,-2.77 6.5,-3.41 11.9,-0.59 24.1,-3.48 31.9,10.34 0.1,0.36 0.1,0.7 0.1,1.05 3.1,1.17 5.9,2.76 8.2,4.9 1.6,1.64 3.5,3.13 5.6,4.23 v -0.5 c 3,-0.31 5.5,0.36 7.5,1.94 l 1.2,0.14 c 0,-1.14 0.2,-2.24 0.7,-3.29 2.1,-2.85 5,-4.75 8.8,-5.63 -3.5,-1.24 -6.7,-2.84 -9.7,-4.78 l -12.7,-4.53 c -6.5,-2.43 -13.5,-4.38 -18.7,-9.08 l -2.4,-0.78 c -2.6,1.07 -4.7,0.5 -6,-2.24 v 0 l -0.4,-0.15 v 0 l -5.3,-1.68 c -4.4,-3.25 -9.1,-5.62 -14.8,-5.57 -8.4,3.58 -16.3,1 -23.6,-4.83 -5.3,-6 -14.3,-12.62 -2.7,-18.26 8.5,2.38 17.5,3.7 26,6.02 -0.9,-1.39 -1.7,-2.96 -2.3,-4.79 0.8,-7.55 1,-7.8 7.8,-3.88 3.5,2 6.3,3.53 9.6,1.23 3.9,-1.89 8,-1.59 12.5,0.41 6.6,2.95 13.3,5.64 20,8.4 v 0 c 9.1,2.37 17.1,6.19 23.3,12.88 -3.1,2.27 -6.4,4.08 -11.1,3.66 -2.6,-0.22 -5.2,-0.41 -7.6,0.03 -1.2,0.23 -2.5,1.83 -2.5,2.93 0,1.09 1.4,2.72 2.7,3.43 4.8,2.72 10,2.52 15.1,2.45 3,-2.35 5.3,-1.17 7.3,1.7 v 0.01 l 8.4,4.57 4.4,4.99 0.1,-0.07 c 3.9,6.24 2.2,10.42 -4.9,12.58 l 0.2,0.88 v 0 0 l -1.7,3.1 c -0.5,2.24 -1.2,4.42 -2,6.58 0.6,0.23 1.2,0.44 1.8,0.62 8.8,2.3 17.7,-0.89 26.5,3.29 0.2,-0.31 0.3,-0.66 0.5,-0.96 l 4.4,1.59 c 3.6,-1.07 7.3,-1.83 11.3,-2.02 -4.3,-1.52 -8.6,-2.97 -13,-3.88 -2.3,-1.65 -4.1,-3.66 -5.4,-5.88 -3.6,-2.69 -7.8,-5.17 -6.9,-9.68 0.7,-4.02 3.9,-6.28 8.4,-7.14 6.3,-1.21 12.7,-2.31 19.2,-3.72 0.1,-0.41 0.1,-0.78 0.2,-1.19 2.2,-2.68 5.2,-4.4 9,-5.2 10.1,-0.96 19.8,1.97 29.5,4.77 l 2.1,0.95 2.7,-2.33 c 7.9,1.05 13.6,4.36 18.4,9.02 2.6,0.1 5.3,-0.16 8.1,-1.15 13.3,-1.62 26.5,1.83 39.6,2.26 10.7,1.72 21.2,4.46 31.8,6.93 9.9,3.21 20.6,3.32 30.6,5.8 l 0.4,0.1 c 9.3,-2.13 18.3,-2.36 27.2,-1.05 4.4,0.65 8.8,1.68 13.3,3.04 4.3,1.28 8.7,2.74 13.1,4.55 1.3,1.47 2.5,2.93 3.9,4.22 l 0.3,0.06 c -0.5,-0.73 -0.9,-1.59 -1,-2.66 7.2,-8.99 21,-6.84 30.5,-11.75 9.9,-0.48 18.8,0.82 24.5,8.45 0.7,-1.43 1.9,-2.59 3.7,-3.43 14.1,0.51 32.9,-8.85 38.4,8.61 1.7,0.96 3.4,2 4.8,3.25 2.9,2.75 5.2,5.82 7.9,8.71 1.3,1.25 2.8,2.25 4.4,3.16 1.7,0.43 3.4,0.58 5.1,0.66 0,-2.17 0.2,-4.35 -0.5,-6.32 -1.2,-3.3 -5.9,-6.99 1.4,-8.29 3.7,-0.67 6.6,2.61 7.7,5.44 1.1,2.97 1.4,6.12 1.8,9.24 2.8,-0.19 5.6,-0.93 8.2,-2.31 l 2.9,-1.18 c 1.9,-0.86 3.9,-1.71 5.9,-2.38 2,-0.84 4,-1.6 6.1,-2.13 2.9,-1.33 5.9,-2.84 8.9,-3.93 10.2,-5.2 20.3,0.13 30.5,0.39 3,0.08 6,-0.05 8.9,-0.51 -0.6,-0.18 -1.2,-0.42 -1.9,-0.55 -4.5,-0.94 -8.5,-2.21 -10.8,-5.86 l 0.3,-0.17 c 2.4,-0.88 4,-2.88 6.7,-3.19 l 15.1,0.65 c 7.7,0.18 10.8,3.76 11.2,9.24 0.8,0.38 1.6,0.79 2.3,1.28 0.3,0.4 0.5,0.74 0.5,1.05 l 0.9,0.24 c 0.9,-0.89 0.6,-2.89 1.7,-4.07 3.1,-2.85 6.8,-4.18 11.3,-4.15 4.2,-5.65 11.6,-5.78 19.2,-5.55 0.9,-0.02 1.6,0.24 2.4,0.78 0.5,0.37 0.5,0.85 0.1,1.41 9.9,1.29 20,2.98 30.2,1.22 v -0.02 c 11.8,-6.31 24.4,-4.23 37,-3.92 4.8,1.84 9.4,3.82 11.1,7.64 0.7,-0.26 1.4,-0.56 2.1,-0.79 10.2,-1.29 20.2,-2.76 30.4,-0.92 l 0.5,0.02 c -4.7,-7.35 -1.6,-13.67 8.4,-19.08 12.9,-5.79 27.3,-6.76 40.8,-10.54 9.8,-3.56 19.7,-6.89 30.3,-4.57 0.3,-1.13 0.9,-2.21 1.9,-3.24 11.7,-6.08 24.1,-8.92 36.8,-10.98 12.7,-1.9 25.4,-4.15 37.8,-7.42 3.6,-0.76 6.9,-0.41 10.3,0.22 l 1.2,-0.56 c 6.5,-3.12 12.4,-8.58 20.6,-4.69 l -0.5,0.03 v 6.43 c 7.2,-1.52 11,-6.63 13.7,-12.93 1.6,-1.81 3.5,-3.43 5.6,-4.73 17.3,-5.8 34.2,-12.87 52.9,-13.21 18.9,5.39 35.1,-4.36 50.4,-13.24 7.7,-4.6 15.5,-8.86 23.4,-12.94 7.8,-4.16 15.9,-7.76 24.7,-10.36 3.4,-0.24 6.9,-0.81 10.3,-1.44 6.9,-4.23 13.2,-8.96 15.6,-16.82 v 0.41 c 1.8,-5.66 1.9,-11 -2.2,-15.51 -1.4,-1.24 -2.6,-2.58 -3.8,-4.02 -1.1,-2.39 -2.3,-4.71 -5.2,-5.75 l 0.2,-0.39 c -2.8,-0.28 -5.5,0.05 -8.2,0.55 -2.7,1.18 -5.3,2.79 -8,3.84 -4.2,1.54 -7,5.42 -11.4,6.49 -13.4,2.56 -26.2,8.38 -40,8.29 -3.5,0.76 -7,1.15 -10.2,0.38 1,1.1 1.7,2.36 2.2,3.78 2.9,6.32 3.1,12.4 -3.5,17.92 -10.5,5.18 -21.2,8.91 -32,10.64 -10.7,1.76 -21.9,0.76 -32.9,-2.35 -6.7,-1.56 -12.9,-1.49 -18.6,0.29 -3.2,3.24 -5.4,7.51 -6.5,13.19 -0.9,4.98 -4.8,9.74 -7.4,14.62 -2.4,-0.06 -6.4,0.59 -6.8,-0.3 -3.4,-8.5 -7.6,-7.05 -15.8,-2.94 -8.3,4.13 -18.5,5.11 -27.8,7.32 -1,2.18 -3.5,3.63 -5.3,5.43 -21.5,7.99 -43.1,16.4 -66.7,17.35 -1.7,0.04 -3.5,0.56 -5,1.28 -17.8,9.08 -37.9,10.65 -57,15.01 -11.2,2.38 -22.3,5.59 -33.7,7.53 -11.3,1.82 -22.9,2.91 -34.7,2.03 -16.2,-1.32 -32.6,2.43 -46.3,11.62 -4.3,5.01 -10.3,5.08 -16.7,4.5 -8.6,7.24 -17.6,6.83 -26.6,0.76 -6.9,1.84 -13.9,2.52 -20.6,-0.38 -1.6,0.23 -3.3,0.2 -4.9,-0.09 -3.4,-11.82 -3.3,-11.82 -15.5,-13.62 -1.7,-0.25 -3.4,-0.38 -5.1,-0.57 -4.8,-5.12 -2,-8.86 2.8,-12.2 l 0.4,-0.12 c -4.5,0.09 -9,-0.25 -13.1,-2.23 -1.3,-1.07 -2.2,-2.35 -2.8,-3.73 l -5.5,-1.17 c -12.6,-0.79 -24.7,-2.3 -31.8,-13.48 -1.5,-1.07 -3.1,-1.94 -4.7,-2.45 0.1,0.57 0.2,1.17 0.3,1.89 1,5.4 -2.3,8.17 -5.4,11.07 1.2,1.42 2,2.89 1.9,4.57 -0.2,4.42 -0.8,8.65 -5.9,10.94 -8.7,-0.29 -17.6,-2.19 -25.7,2.01 -10.3,7.48 -22.4,1 -33.4,1.99 0.8,0.33 1.6,0.64 2.3,1.05 3.1,2.28 5.3,4.91 6.3,8.28 v 0.14 c 4.7,-2.32 9.1,-1.48 13.3,2.46 l -0.2,-0.12 c 4,5.72 -2.8,5.95 -5.7,8.12 -5.2,-0.38 -10.4,-0.52 -15.6,-1.12 -1.3,0.51 -2.6,0.51 -4,0 -12.8,3.27 -25.8,-0.2 -38.7,-1.52 l 0.2,1.21 -16,-3.53 c -9.3,-0.97 -19.2,-0.98 -26.8,-7.51 3.1,-2.51 6.9,-3.15 11,-2.8 0.7,-0.82 1.4,-1.55 2.3,-2.17 l 0.5,-1.28 h 2 c 0.2,-0.1 0.4,-0.25 0.6,-0.34 6,-0.94 12.1,-0.73 18.1,-0.94 -6,-0.11 -12,-0.36 -18,-1.2 -5.9,-1 -11.9,-2.44 -17.8,-4.56 -8.5,-3.07 -16.7,-4.33 -17.4,-13.95 -0.3,-3.71 6,-10.64 -2.3,-10.37 -9.8,0.3 -19.2,-1.32 -28.6,-3.46 -9.3,-2.47 -18.5,-5.41 -27.8,-7.36 2.3,0.96 4.7,2.31 6.9,4.18 1.7,16.21 12.9,25.21 31,26.84 4.3,3.06 7.8,6.36 5.3,11.49 l -6.8,3.5 c -6,1.16 -11.6,-0.02 -16.8,-3.03 -4.1,-0.97 -8.5,-3.11 -12.3,-2.74 -14.3,1.38 -26.8,-3.65 -39,-9.78 -0.6,-0.15 -1.1,-0.77 -1.4,-1.88 -0.4,-1.09 0.5,-1.85 2.6,-2.29 0.8,-1.27 1.2,-2.65 1.3,-4.11 l 0.3,-1.63 0.7,-1.53 -0.5,-1.65 1.5,-9.45 1.7,-3.15 c 1.7,-1.84 3.9,-3.16 6.5,-3.96 3.2,-1.38 6.3,-2.18 9.5,-2.37 -4,-0.47 -8,-0.71 -12.1,-0.54 -5.8,-1.51 -11.8,-2.1 -17.6,-3.32 -5.8,-1.29 -11.3,-3.46 -16.1,-7.65 -1.5,-1.69 -3.1,-3.37 -4.6,-5.03 -15.9,1.83 -31.1,-7.95 -47,-8.86 -1.8,0.11 -2.9,0.78 -3.8,1.82 0.2,3.45 1.8,7.22 -1.7,10.05 v 0.01 c -17.2,3.62 -32.3,-3.66 -47.1,-11.87 -10.6,-3.16 -22.2,-2.28 -32,-10.03 -10.4,-8.06 -23.5,-0.05 -35,-5.88 -1.6,-0.78 -3.5,-0.95 -5,-1.69 -19.4,-8.64 -39.2,-14.63 -59.4,-20.68 l -9.9,-4.05 v 0 0 l -11.9,0.43 c -3.2,-1.35 -6.5,-2.81 -9.6,-4.35 -12.8,-6.55 -27.2,-8.27 -39.8,-15.58 l -9.9,-4.59 c -5.5,-1.37 -10.6,-3.52 -14.4,-7.96 v -0.28 c -9.1,-0.61 -15.4,-9.96 -24.7,-10.03 l -31.4,-16.76 -0.6,-0.5 c -1.3,2.8 -4,3.06 -7.6,0.68 -9.7,-5.4 -17.7,-14.52 -29.6,-15.18 -5.8,-6.09 -11.6,-12.19 -18,-18.89 8.4,-0.39 14.3,7.62 21.8,6.51 l 13,8.62 c 8.9,4.06 18.9,6.83 26.3,12.42 16.6,12.69 35.7,19.34 54,27.88 4.6,-1.7 9.2,-0.21 13.8,1.94 4.5,2.1 8.7,4.76 13.8,4.04 8.7,2.44 18.8,1.34 25.3,8.85 2.7,-12.38 11.2,-18.32 28.8,-13.74 l 0.9,-1.91 v 0 c -0.9,-1.07 -1.9,-2.09 -2.9,-3.05 v 0 l -19.5,-8.62 c -3.8,-5.76 -6.5,-12.14 -12.8,-16.25 h -0.1 c -3.5,2.55 -4,8.79 -10.9,7.43 l -4.5,-5.3 c -1.2,-0.58 -2.3,-1.2 -3.4,-1.84 -3.9,-0.12 -7.4,-2.51 -11.3,-2.76 -1.6,-0.22 -3.2,-0.62 -4.8,-1.21 -0.6,-8.63 7.1,-13.2 9.2,-20.54 1.9,-0.8 4.1,-0.96 6.3,-0.45 5.7,1.95 8.5,6.29 11.5,10.54 2.2,-1.2 5.4,-1.41 8.6,-1.51 l 2,0.79 c 1.3,-0.9 2.8,-1.63 4.5,-2.15 5.9,-1.32 11.7,-1.12 17.5,1.42 11.7,7.58 27.5,7.97 36.3,20.37 l 3.7,0.97 c -8.3,-14.73 -29.7,-16.15 -38.7,-30.36 -1.9,-4.35 -2.2,-8.48 0.5,-12.27 0.5,-0.29 0.9,-0.5 1.4,-0.74 l -1,-4.24 c 10.5,-3.74 20,-1.55 29.4,3.36 1,-0.26 2,-0.6 2.9,-1.1 1.1,-0.42 2.2,-0.77 3.3,-1.03 -9.8,-3.77 -20,-7.19 -20.2,-21.1 v -0.15 l -0.4,0.2 c -0.6,0.66 -1.3,0.94 -2.3,0.86 -0.6,0.18 -1.2,0.33 -1.8,0.44 l -1.1,2.09 c -1.4,1.33 -3.2,2.29 -5.2,2.76 -4.1,0.34 -8.2,0.07 -12.3,0.48 -2.5,-0.11 -4.9,0.12 -6.9,0.99 1.3,1.4 2.6,2.92 3.4,4.67 1.7,6.12 1.2,11.44 -4.9,14.78 -1.3,0.32 -2.5,0.49 -3.7,0.53 -0.2,0.66 -0.5,1.31 -0.9,1.93 -6.1,4.83 -14.5,4.6 -22.5,4.28 -7.9,-0.27 -15.8,-0.1 -21.3,6.49 -5.7,3.23 -11.2,2.24 -14.5,-4.05 -3.5,-6.49 -6.1,-13.17 -13.9,-16.48 -4.9,2.34 -10.1,2.9 -15.8,-0.19 l -19,-10.91 c -6.4,0.33 -13.9,0.59 -18.3,-4.5 -7.1,-8.32 -17.2,-9.59 -25.6,-14.51 l -1.4,-6.76 c 2.1,-5.98 7.8,-8.73 12.4,-12.47 0.2,-1.17 0.5,-2.28 1,-3.42 0.2,-0.18 0.2,-1.43 0.2,-1.43 0,0 -1.1,-0.76 -0.9,-0.85 -1.1,-0.03 -2.5,-0.12 -3.7,-0.42 -1.4,-0.25 -2.9,-0.62 -4.3,-1.12 1,6.72 0.4,12.64 -7.6,14.66 -6.9,-1.51 -11,-9.79 -18.9,-9.32 l -0.3,-0.08 c -5.9,0.16 -9.7,-6.17 -15.4,-6.39 l -0.1,-0.47 c -4.3,-2.22 -9.1,-3.73 -12,-8.02 v 0 c -2.7,-3.96 -5.4,-8.15 -7.6,-12.38 -3.4,-6.29 -8.2,-10.06 -15.1,-10.99 -4.3,0.66 -7.2,-1.37 -9.3,-5.1 l -8.7,-8.46 v 0 c -5.7,-0.86 -10.6,-3.49 -15.2,-6.61 -4.6,-3.21 -8.8,-7.05 -13.4,-10.07 -13.2,-5.19 -23.4,-14.95 -33.2,-25.07 0.4,-1.07 0.8,-2.1 1.3,-3.1 v 0 c -1.3,-1.02 -2.3,-2.26 -2.9,-3.71 v 0 c -11.7,-10.02 -22.9,-20.63 -34.3,-30.98 v 0 l -3.2,0.79 c -4.2,-3.78 -8.8,-7.27 -8.5,-13.5 0.3,-7.25 -5.1,-8.78 -10.6,-10.12 -1.9,-2.56 -3.7,-5.16 -4.2,-8.18 -0.3,0.09 -0.7,0.25 -1.2,0.3 -11,1.61 -14.1,-12.07 -23,-14.81 v -0.01 c -2.4,-0.4 -3.3,-1.64 -2.5,-3.84 2,-6.37 9,-3.71 15.3,-6.97 -7.7,-4.78 -16.3,-6.14 -20.9,-14.03 -4.9,-8.75 -11.9,-16.31 -18.9,-23.79 -5.8,-6.36 -10,-13.63 -6.7,-22.15 0.7,-1.85 -0.5,-4.64 -0.9,-7 -4.1,2.74 -7.6,6.99 -14,3.87 v 0.01 l -2.8,1.1 c -8.3,0.56 -9,-5.59 -10,-11.45 l -12.2,-12.98 c -1.5,0.14 -3,0.07 -4.6,-0.42 l -5.5,-7.16 c 0.1,-5.24 -3.1,-8.29 -7.5,-10.46 -0.7,-1.04 -1.6,-1.83 -2.7,-2.38 0,-3.29 1.7,-5.15 4.5,-6.31 3.2,-1.32 6.2,-2.91 9.2,-4.4 -5.3,-4.26 -10.8,-8.47 -15.8,-12.98 l -0.1,-0.01 h 0.1 v 0 l 0.2,-0.05 c -2.1,-1.12 -4.4,-1.8 -6.7,-1.55 0,0.14 0,0.24 0,0.39 v 0 0 l -10.8,6.9 c -1.2,0.17 -2.1,0.7 -2.9,1.59 -10.2,-1.82 -7.1,-8.38 -6,-14.14 v -0.01 c 5.1,-0.15 11.1,6.58 15.3,-0.18 v 0 l -13.6,-19.95 c -2.2,-0.75 -4.4,-1.5 -6.4,-2.83 l -4.3,-6.78 -2.6,0.53 c -4.9,-16.07 -17.3,-26.01 -27.8,-37.77 l 0.2,-6.95 c 0.6,-2.07 0.7,-4.24 0.3,-6.5 v -0.41 c 1,-1.97 2.4,-3.21 4.6,-3.63 l 0.3,-5.22 v 0 l -3.3,-5.38 -0.2,0.2 c -5,3.07 -10.2,1.08 -15.3,-1.37 -6.9,-6.12 -13.5,-12.46 -15.1,-22.51 -0.9,-5.39 -4.6,-8.86 -9.3,-10.93 -6.7,-3.26 -8.1,-6.65 -1.4,-10.16 3.8,2.58 7.9,3.86 12.2,3.72 v 0 l 0.2,-0.07 c 1,-1.96 1.3,-4.29 2.6,-6.03 l 14.5,-7.62 3,2.8 c 7.6,8.63 17.2,16.54 9.7,29.46 -1.5,1.42 -3.1,2.38 -4.8,3.08 1.3,0.14 2.5,0.3 3.8,0.52 0.9,0.55 1.8,1.24 2.6,2.06 8.5,-5.73 8.4,8.02 14,9.35 l 5.4,7.83 c 3.5,5.36 0.8,9.36 -1.3,13.54 l 0.5,5.09 2.7,2.44 c 1.4,1.87 2.6,3.89 3.5,6.1 0.9,3.02 1.2,6.04 1.2,9.09 3.3,3.89 7.2,6.57 13.8,4.21 4.1,-1.45 5.6,4.44 6,8.6 0.4,0.55 0.5,1.31 0.2,2.26 -0.3,0.96 -1.3,0.83 -3,-0.39 -3.8,-1.28 -7.1,-0.52 -10,1.66 l 4.3,8 c 0.2,2.38 1.4,4 3.7,4.68 l 14.5,19.32 c 3.4,-1.15 6.8,-2.47 10.7,-0.41 2.5,-1.05 4.5,0.11 6.2,2.39 v 0 0 0 l 0.3,-0.2 v 0 c 4.9,1.42 7.7,5.27 10.7,9.09 6.8,8.08 13.7,15.97 20.6,23.91 1.5,-0.12 2.6,0.5 3.3,1.7 0.6,-0.04 1.2,-0.04 1.9,0 0.6,-0.24 1.3,-0.14 1.9,0.26 l 1.4,0.31 c 1.6,-10.02 12.9,-14.24 12.7,-25.29 l 0.7,-6.65 c 1.1,-0.84 2.2,-1.77 3.1,-2.76 l -14,-18.55 c -1.4,-0.98 -2.9,-2.05 -4.1,-3.27 -1.4,-1.45 -2.8,-3.01 -4.1,-4.63 -3.3,-4.45 -6.6,-9.08 -9.9,-13.66 l -5.5,-7.79 c -3.9,-1.63 -6.3,-5.25 -8.8,-8.7 v -0.06 c 0.6,-0.45 1.2,-1 1.7,-1.51 l -3.1,-4.61 c -1.5,-2.8 -2.8,-5.78 -4,-8.7 l -4.1,-6.33 c -1.2,-1.25 -2.7,-2.33 -4.5,-3.14 -3.2,-1.6 -6,-3.85 -8.2,-6.73 -0.6,-0.72 -1.1,-1.47 -1.6,-2.23 -8.4,-0.41 -12.3,-8.77 -17.7,-16.04 -10.6,-13.97 -16.5,-30.71 -23.5,-46.61 -3.5,-8 -7,-15.91 -11.2,-23.48 -4,-7.67 -8.4,-15.15 -14.2,-22.02 -11.6,-9.82 -21.6,-21.25 -28.1,-35.66 -7.7,-17.91 -15.7,-35.6 -23.5,-53.41 -0.8,-8.33 -2.8,-18.13 6.8,-21.43 5.9,-2.05 8.8,3.5 10.9,8.77 0.5,1.72 0.6,3.37 0.6,5 0.7,0.29 1.4,0.7 2.1,1.13 -1.2,-3.8 -2.7,-7.53 -3.9,-11.35 -0.5,-1.94 -0.5,-3.86 -0.2,-5.76 -3.3,-8.13 -5.7,-16.59 -9.4,-24.51 -2.6,-6.72 -3.8,-13.53 -2.3,-20.44 0.6,-2.16 1.4,-4.21 2.4,-6.11 1.1,-1.74 2.1,-3.52 3,-5.38 -7.5,-5.22 -11,-14.15 -14.1,-23.32 -2.5,-7.14 -4.7,-14.4 -7.9,-21.28 -7.8,-10.4 -5.5,-23.72 -9.9,-35.08 -0.5,-2.45 -0.5,-4.9 -0.1,-7.33 -0.9,-14.96 -5.8,-29.03 -9.4,-43.47 -3.6,-14.42 -6.9,-28.95 -6.1,-43.94 -0.8,-16.12 -4.8,-30.31 -11.3,-43.82 -6.1,-13.54 -14.7,-26.42 -20.9,-40.11 -2.2,-8.56 -2.9,-17.35 -3.9,-26.09 -0.3,-4.97 -1,-9.86 -1.9,-14.72 -1.1,-5.45 -2.1,-10.91 -4.8,-15.94 -6.4,-12.92 -9.1,-26.35 -10,-39.87 -2.5,5.44 -6.4,9.92 -11.7,13.31 9.8,10.25 1.4,21.73 1.6,33.67 0.1,10.21 20.8,16.29 12.2,33.44 -0.3,0.69 -0.9,1.26 -1.3,1.83 -0.4,0.45 -1,0.78 -1.5,1.16 0,0.29 0,0.56 0,0.85 l -1.3,2.86 c -1.2,1.59 -2.6,2.91 -4.3,3.91 -4.2,1.8 -7.2,4.73 -8.2,9.68 2.7,4.22 3.7,9.68 6.6,13.91 v 0 0 l 1.2,5.08 0.6,2.22 0.3,2.3 c -1.2,0.35 -2.6,0.46 -3.9,0.32 h 0.1 -0.1 c -0.9,0.91 -2.1,1.52 -3.4,1.84 v 0 c -0.6,5.91 2,13.85 -6.8,14.8 l -4.1,-19.39 c -1.4,-6.47 -2.6,-12.95 -3.6,-19.48 -2.3,-6.08 -4.9,-12.21 -2,-18.53 l -0.6,-0.57 c -2.8,-6.74 -4.1,-13.69 -2.3,-20.9 0.6,-1.26 0.8,-2.61 0.5,-4.06 1.3,-4.28 1.1,-8.35 -1.6,-12.16 0.1,-1.44 -0.2,-2.76 -0.9,-3.98 l -0.4,-8.73 c 0.7,-2.64 2.1,-4.79 3.7,-6.76 l 0.1,0.12 c 4.1,-7.5 -1.4,-16.24 1.6,-23.85 -0.3,-0.55 -0.6,-1.1 -0.8,-1.67 -1.8,-10 -1.3,-20.55 -6.6,-29.69 -0.7,-3.74 -1.5,-7.55 2.2,-10.05 l -0.5,0.86 c 4.4,-5.22 7.9,-10.63 4.1,-18.16 l -0.2,-11.75 3.5,-6.73 c 3.6,-3.3 1.5,-12.03 8.8,-11.59 7.1,0.44 7.3,6.48 7.4,12.12 0.2,6.59 3.3,12.13 4.8,18.2 1.3,6.39 5.4,11.46 7.1,17.63 0.4,1.44 0.7,2.85 1,4.25 1.1,-7.14 2.2,-14.31 3.3,-21.46 l -1.8,-9.12 c -1.4,-6.87 -8.5,-10.88 -8.1,-18.8 0.3,-4.5 2.9,-6.8 5.8,-8.95 0.2,-2.6 0.4,-5.19 0.7,-7.78 0.2,-2.34 0.7,-4.62 1.4,-6.89 l 0.6,-2.97 c -1.3,-3.48 -1.4,-7.53 -1.3,-11.63 2.8,-22.51 11.7,-43.75 7.7,-67.08 -1.7,1.52 -3.8,2.21 -7.2,0.25 l 0.7,-18.14 c -1.7,-6.9 -1.2,-11.76 1.5,-15.05 0.7,-4.93 0.2,-9.86 -0.5,-14.73 -0.4,-4.93 -1,-9.8 -0.7,-14.73 0.4,-0.57 0.8,-1.14 1.3,-1.77 -1.5,-9.93 0.8,-20.04 4.3,-29.02 3.3,-8.41 5.1,-16.56 6.8,-25.23 1.1,-5.62 2.4,-11.12 5.9,-15.55 v 0 0 0 0 l 0.1,0.32 8.5,-43.12 v 0 0 c 0.1,-1.64 0.2,-3.29 0.4,-4.87 -0.8,-1.39 -0.8,-3.1 -0.8,-4.74 l -0.9,-5.69 v 0 0 c -1,-0.25 -2,-0.82 -2.8,-1.58 l 1,-3.92 v 0 c -0.5,-1.33 -0.5,-2.72 -0.2,-4.24 -0.9,-2.27 -0.5,-4.23 1.5,-5.69 v 0 l 0.1,-0.82 c -3.5,1.71 -7.5,1.33 -11.2,2.09 l -3.5,-1.2 c 1.5,-5.38 2.7,-10.81 4.5,-16.06 0.9,-2.59 3.8,-3.03 5.5,-1.77 2.6,1.9 5,4.17 7.3,6.38 1.6,-5.62 2.2,-11.44 2.2,-17.44 0,-4.68 0.5,-9.55 1,-14.29 -3.1,-12.27 3.3,-23.71 6.1,-35.41 0.3,-6 1.5,-11.82 4.2,-17.26 l 0.4,-1.32 c -0.8,-0.26 -1.6,-0.95 -2.1,-2.15 10.5,-33.07 22,-65.82 34.6,-98.12 -0.2,0.19 -0.6,0.31 -1,0.44 -1,0.32 -1.5,-0.5 -1.7,-2.47 -1.4,-8.85 1.6,-16.05 8.7,-21.36 0.8,0.44 1.7,0.63 2.5,0.63 0.2,0.31 0.2,0.57 0.4,0.82 4.6,-11.25 9.5,-22.51 14.6,-33.63 l -8.2,0.82 c 4.1,-10.43 13.2,-18.34 14.5,-30.41 0.2,-2.34 4.2,-4.43 6.4,-6.64 l 0.6,6.64 c 8.5,-18.4 17.5,-36.61 26.5,-54.81 l 4.5,-8.92 c 9.6,-23.14 21.4,-45.33 37.7,-64.42 4.7,-3.23 7.2,-8.28 10.4,-12.96 l 16.2,-23.71 8.3,-11.82 8.6,-11.51 4.5,-7.46 v 0 0 c 1,-6.51 4.1,-11.69 10.3,-14.6 v -0.07 l 4.4,-5.75 c 1.8,-7.39 4.6,-14.22 12.4,-17.2 v 0 h -0.4 c 3.1,-9.23 9,-17.06 15.2,-24.78 10.6,-13.4 21,-27.06 32.5,-39.76 12,-13.47 23.5,-27.7 38,-37.81 6.5,-4.43 10.4,-8.92 14.7,-14.86 10.6,-14.16 20,-30.03 37.1,-37.87 l 1.1,-1.89 1.7,-1.58 c 9.4,-14.04 21.7,-25.73 34.6,-36.61 v 0 c 3.1,-3.73 6.2,-7.46 10.8,-9.61 v 0 l 9.5,-6.2 c 2.5,-2.14 5.1,-4.17 8.2,-5.43 l 7.2,-5 7.3,-6.7 v 0 l 1.2,-1.71 1.6,-1.26 c 0.5,-2.72 2,-4.36 5,-3.98 v 0 l 0.1,-0.07 v 0 0 c 10.4,-11.06 22.1,-20.6 35.2,-28.7 4.5,-2.72 8.6,-5.88 12.7,-9.04 4.3,-3.1 8.4,-6.26 12.7,-9.23 6,-4.11 12.1,-7.9 18.2,-11.82 l 8.1,-5.75 v 0 c 11.9,-11.76 26.7,-19.41 41,-27.51 l 4.4,-2.9 c 2.3,8.02 2.3,8.21 -7.4,14.73 3.9,0.37 7.4,-1.21 11,-3.1 4.2,-2.34 8.5,-4.55 12.8,-6.45 3.7,-1.64 5.8,0.7 5,5.5 -0.2,1.33 -0.9,2.72 -1.4,4.11 l -0.3,2.4 c 0.7,-0.38 1.5,-0.76 2.2,-1.14 5.6,3.29 7.2,7.72 2,12.96 -3.3,3.35 -7.4,6.07 -11.1,9.04 l -0.2,-0.12 c -1.9,-1.46 -4,-1.39 -6.2,-0.7 -1.4,0.26 -2.7,0.57 -4,1.14 -2.9,-0.44 -4.4,-1.71 -4.9,-3.79 -3.7,2.08 -7.6,3.79 -11.9,4.93 l 1.3,1.52 -0.8,3.16 c -2.1,3.03 -4.8,5.24 -8.3,6.45 -3.3,0.37 -5.9,0.06 -7.3,-1.65 v 0 l -1.5,0.51 c -2.6,4.3 -4.9,8.66 -7.2,13.02 l -2,2.09 c -3.1,-0.89 -6.2,-2.15 -9.4,-2.53 -1.1,1.64 -1.9,3.48 -2.6,5.56 -3.1,9.49 -10.2,12.96 -17.7,16 -7.5,3.03 -15.6,5.25 -20.8,11.57 -2.8,2.21 -5.7,4.3 -8.7,6.13 -7.3,2.53 -14.1,7.71 -21.8,8.79 0.7,1.52 1,3.28 0.7,5.31 -4.1,8.09 -0.8,16.06 -3.1,24.08 l 4.7,-2.97 c 0.9,0.83 1.9,1.39 3.1,1.84 l 1.4,2.02 c 0.8,1.52 1.2,3.16 1.2,4.93 -0.1,2.78 -0.7,5.44 -1.8,8.16 -1,2.65 -2.4,5.24 -3.8,7.77 -1,1.65 -2,3.29 -3.4,4.81 -2.4,3.03 -5.6,5.44 -8.5,8.09 -2.2,1.9 -4.4,3.92 -7,5.44 -2.5,1.64 -5.1,2.91 -7.9,3.92 -7.5,3.29 -8.4,11.63 -13.7,16.5 -3.1,3.1 -6.4,6.13 -10.4,7.58 1.3,-0.06 2.5,-0.06 3.6,0.32 1.2,0.7 2.1,1.64 2.8,2.84 1.3,-3.34 3.8,-5.68 7.2,-7.08 1,-0.19 1.9,-0.31 2.8,-0.44 l 6.5,-5.88 6.6,-7.52 10.6,-7.97 6.2,2.22 c 4.3,-4.05 6,-8.79 8.4,-14.48 2.4,-5.63 -4.1,-9.93 0.5,-13.97 4.9,-4.36 11.4,-4.43 17.3,-5.5 3,-0.51 6.1,-0.83 9.2,-1.2 1.4,0.63 2.9,0.31 4.2,-0.45 l -4.2,0.45 c 14.1,-9.93 25.1,-24.41 41.6,-31.05 v 0 l -1.4,-1.58 c 6.7,-3.92 13.7,-7.46 20.8,-10.62 5.3,-2.34 13.3,2.4 15,8.28 6.9,-10.49 15.6,-17.76 24.9,-24.46 l 25.5,-10.88 c 5.8,-3.54 11.4,-7.52 17,-11.38 -1.1,-0.76 -2.1,-1.64 -3.1,-2.46 1.3,-5.38 4.8,-8.73 9.9,-10.56 1.2,2.09 2.7,4.17 3.3,6.38 5.3,-3.41 10.9,-6.51 16.9,-8.91 v 0 c 1.7,-2.34 3.1,-6.32 5.1,-6.77 14.3,-3.22 25.1,-14.28 39.1,-17.88 l -1,-1.65 13,-5.31 c 0.8,-3.41 3.8,-4.49 6.9,-5.5 0.7,0 1.3,0.13 1.9,0.25 4.5,-3.35 9.5,-5.44 15,-6 5.1,-0.51 9.8,-2.15 14.3,-4.62 1.2,-4.3 2.4,-8.53 0,-12.45 3.4,-9.61 10.7,-15.68 21.7,-18.15 15.1,5.25 5.4,10.94 0.2,16.5 0.5,-0.19 1,-0.31 1.5,-0.5 4.1,-1.52 8.1,-3.1 12,-4.81 4.2,-2.08 8.3,-4.49 12.1,-7.71 8.1,-6.89 17.8,-10.81 28.2,-11.95 1.9,-1.07 3.8,-1.9 6.3,-1.64 0.7,0.12 1.4,0.44 2.1,0.63 v 0 l 3.1,0.44 c 4.2,-0.57 8.2,-1.45 12.3,-2.46 2.1,-1.27 4.4,-2.34 6.9,-1.9 6.4,-1.83 12.6,-4.05 18.9,-6.13 l 9.7,-2.72 6.3,-2.72 c 1.1,-1.52 2.4,-2.78 3.9,-3.92 2,-2.09 4.2,-3.35 6.8,-3.79 2,-0.95 4,-1.84 6,-2.79 l 4.5,3.1 c 1.5,-0.57 3,-1.07 4.6,-1.32 2.3,-0.38 4.5,-1.14 6.8,-1.9 -1.8,-1.2 -3.5,-2.53 -5.3,-3.67 8.3,-2.97 16.7,-5.37 25.1,-8.09 l 1.1,-1.14 c -1.2,-0.19 -2.5,-0.57 -3.8,-1.2 -4.5,-2.4 -0.2,-4.36 1.6,-6.2 7.7,-1.51 14.3,-5.43 21.4,-8.59 4.9,-2.22 9.8,-4.43 14.7,-6.64 5,-1.96 10,-3.86 15.2,-5.63 10.3,-3.54 21,-6.51 32.4,-8.28 -2.1,8.91 -8.4,11.95 -14.4,14.79 -9.5,4.55 -19.3,8.48 -28.9,12.77 0.8,0.07 1.7,0.07 2.5,0.19 0.6,0.07 1.2,0.19 1.9,0.26 l 2.3,-0.57 c 6.8,-1.46 13.7,-3.04 20.6,-4.81 2,-1.39 3.9,-3.1 5.7,-5.18 1.5,-1.9 5.1,-2.72 7.8,-4.05 h -0.1 c 7.1,2.47 13.4,1.52 19.2,-3.54 1.3,-3.92 4.5,-3.79 8.1,-3.03 2.9,0.19 5.9,-0.19 8.7,-0.82 l 3.4,-1.4 c 1.1,-1.51 2.3,-3.09 3.7,-4.48 3.3,-2.85 5.4,-6.52 8.3,-9.55 6.4,-4.87 13.2,-7.71 20.3,-9.42 -3.6,-0.63 -7.5,-1.9 -11.4,-3.6 -1.3,-0.26 -2.5,-0.19 -3.7,0.25 -0.9,-2.97 -1.8,-5.94 2.9,-7.9 6,-2.47 13.4,-2.09 18.3,-7.02 l 27.8,-3.98 c 0.8,-1.77 1,-4.05 2.5,-5.32 1.8,-1.58 4.5,-0.88 6.2,0.57 3.7,3.23 7.2,6.64 10.7,9.99 -2.2,3.1 -5.1,4.74 -9.5,3.86 -2.9,-0.57 -6,-0.82 -8.9,-1.27 l -3.9,4.81 c -3.8,3.6 -7.7,6.13 -11.7,7.84 6.7,0 13.4,0.44 20.1,0.7 3.4,-1.39 6.1,-0.26 8.7,1.13 l 3.1,-1.2 9.1,2.97 4.6,-4.42 c 16.1,-9.36 19.3,7.33 29.1,10.18 1.5,1.45 2.5,3.03 2.9,4.93 0,2.97 -1.2,5.56 -3.2,7.9 -1.6,1.39 -3.3,2.53 -5.3,3.41 -5.2,1.71 -10.6,2.09 -15.7,3.8 1.2,-0.06 2.4,-0.06 3.6,-0.13 7.6,-0.25 15.1,-1.26 22.2,-3.73 3.9,-1.39 7.9,-2.34 11.9,-3.1 -0.5,-0.19 -1,-0.25 -1.5,-0.5 -2.9,-2.09 -4.4,-4.81 -4.6,-8.03 0,-3.04 1.4,-5.82 3.4,-8.35 7.4,-12.64 22.1,-3.22 32,-8.03 l 0.6,0.07 c 0.8,-2.41 2.7,-4.11 6.7,-4.37 5.3,-0.31 10.6,-0.25 15.9,-0.31 9.4,-0.13 18.8,3.35 28,-0.76 0.4,-1.2 0.6,-2.47 0.4,-3.73 1,-0.32 2.1,-0.57 3.2,-0.82 -4.4,-5.31 -2.7,-10.37 1.8,-15.3 2.6,-2.22 6.4,-2.47 9.6,-3.48 10,-4.62 21.2,-2.46 31.8,-3.16 1.3,0.7 2.6,1.45 4,2.15 8.9,4.3 17.2,8.91 28.2,3.04 4,-2.09 8.4,1.89 12.7,3.28 13.3,4.17 26.5,8.16 38.4,-2.72 4.6,-4.17 8.6,-3.6 13,2.15 2.9,3.8 6.3,5.44 11,6.32 6.3,1.27 12.4,0.76 18.5,-0.5 4.7,-1.01 9.3,-0.19 12.3,3.86 6.6,0.44 13.2,1.77 19.5,-0.51 v 0 c 1.8,-1.2 3.7,-2.34 5.3,-3.67 4.7,-3.54 5.7,-4.99 3.7,-8.4 -2.7,-0.19 -5.3,-0.26 -8,-0.26 -6.2,-0.69 -11.9,-2.34 -17,-5.56 -1.3,-1.01 -2.3,-1.96 -3.2,-2.91 -5.5,2.65 -10.7,2.65 -15.7,0.06 -0.5,0.26 -1,0.57 -1.4,0.82 -8.7,3.74 -16.9,2.47 -25.2,0.7 -8.2,-1.71 -16.4,-4.42 -24.8,-4.36 -4.9,-0.57 -9.9,-0.82 -14.4,-2.91 -1.6,-0.95 -2.9,-2.15 -3.9,-3.41 -8.6,5.69 -17.3,3.92 -26.4,-0.19 -3,-2.53 -4.2,-5.5 -2.9,-9.04 1.3,-1.52 2.8,-2.53 4.5,-3.29 -12.3,-0.38 -24.6,0.25 -36.6,-2.21 -1,-0.57 -2.2,-1.02 -3.4,-1.52 -7.1,2.34 -14.1,4.93 -21,5.37 -6.9,0.51 -13.7,-0.88 -20.4,-7.14 -5.2,6.07 -15.7,4.17 -21.7,8.72 -2.3,0.38 -4.4,0.32 -6.6,-0.12 -2.9,-1.39 -4.7,-3.48 -5.6,-6.07 v -1.08 c -1.6,-0.31 -3,-0.88 -4.3,-1.71 -4.9,-2.46 -9.9,-5.12 -14.9,-7.46 v 0 c 11.5,-4.04 23.4,-3.09 35.3,-1.76 l 13.8,0.88" />
    </g>
  </g>
</svg>
