<?xml version="1.0" encoding="UTF-8" standalone="no"?>
<!-- Created with Inkscape (http://www.inkscape.org/) -->

<svg
   width="37.247025mm"
   height="21.87265mm"
   viewBox="0 0 37.247025 21.87265"
   version="1.1"
   id="svg992"
   xmlns="http://www.w3.org/2000/svg"
   >
  <defs
     id="defs989" />
  <g
     id="layer1"
     transform="translate(-220.22164,-127.64106)">
    <g
       transform="matrix(0.00572014,0,0,-0.00572014,164.29265,187.01015)"
       id="g18">
      <path
         id="path20"
         d="m 16198.5,6639.63 c -56.9,-27.71 -122.1,-28.7 -185.1,-29.43 -1574.2,-18.39 -3148.5,-36.38 -4722.8,-54.36 -224.5,-2.78 -463.6,-0.73 -668.4,79.69 -232.1,-21.49 -472.6,-9.72 -647.93,135.85 -122.69,101.86 -189.56,259.14 -196.18,419.6 -2.37,57.87 3.11,116.4 17,172.95 52.32,210.99 209.31,388.04 401.31,490.29 192,102.26 415.8,134.46 632.7,119.52 -100.1,75.2 -118.2,221.1 -54.4,329.24 63.7,107.74 213.1,155.23 327.4,103.58 -282.7,467.8 -249.8,1088.06 101.6,1506.66 243.6,290.08 619.6,456.38 996.6,465.38 167.4,3.8 334.8,-22.8 491,-83.5 480.6,-186.1 823.7,-678.85 841.3,-1192.69 0,0 0,0 0,-0.39 0.8,-11.38 1.1,-22.16 1.1,-33.6 14.6,109.85 104.3,201.33 210,249.87 52,23.88 109.9,32.21 166.7,26.33 h 0.3 c 78.3,-8.01 154.2,-42.99 207.9,-100.54 92.6,-99.74 112.6,-260.19 46.8,-379.37 1.7,0.99 3.4,2.38 5.2,3.43 0.4,0 0.7,0.33 1,0.67 402,263.03 954,281.02 1365.7,33.66 15.9,-9.72 31.9,-19.78 47.5,-30.16 161.1,-107.81 297.6,-256.82 365.9,-437.31 124,-328.52 -25,-732.57 -320.6,-915.51 -17.3,-10.78 -35.3,-20.77 -53.7,-30.16 25.4,11.44 51,20.44 77,28.04 23.9,6.29 47.8,11.11 72,14.22 76.3,9.4 153.9,1.39 230.1,-25.66 139.7,-49.14 253,-179.44 261.6,-327.06 7,-118.19 -64.1,-238.43 -168,-289.69 26,2.38 53,1.06 85.2,2.38 62.4,2.12 130.6,-31.88 149.8,-90.41 1,-3.11 2,-6.55 2.7,-10.06 13.2,-61.31 -31.9,-123.68 -88.3,-151.46" />
    </g>
  </g>
</svg>
