<?xml version="1.0" encoding="UTF-8" standalone="no"?>
<!-- Created with Inkscape (http://www.inkscape.org/) -->

<svg
   width="39.210892mm"
   height="17.184071mm"
   viewBox="0 0 39.210892 17.184071"
   version="1.1"
   id="svg992"
   xmlns="http://www.w3.org/2000/svg"
   >
  <defs
     id="defs989" />
  <g
     id="layer1"
     transform="translate(-218.6957,-52.282496)">
    <path
       id="path190"
       d="m 257.8953,67.430063 c -0.0864,0.44154 -0.62412,0.60152 -1.06745,0.6729 -10.1913,1.62161 -20.61138,1.79844 -30.85318,0.52224 -0.40593,0.40424 -0.9021,0.78768 -1.47337,0.73854 -0.57132,-0.047 -1.06928,-0.26292 -1.40382,-0.72885 -0.68774,0.26291 -1.41128,0.43006 -2.14232,0.49785 -0.39832,0.0377 -0.80804,0.043 -1.1914,-0.0656 -0.38519,-0.10904 -0.74793,-0.34792 -0.93402,-0.70123 -0.15782,-0.29699 -0.16908,-0.64634 -0.0714,-0.96952 0.0733,-0.25 0.21052,-0.48494 0.39467,-0.66716 0.42281,-0.41894 1.03918,-0.59577 1.63495,-0.6051 0.3683,-0.006 0.73286,0.0452 1.09553,0.12017 -1.61233,-0.5262 -2.65344,-2.05563 -2.96162,-3.8035 -0.34954,-1.97886 0.57504,-4.09474 2.19497,-5.28234 0.42464,-0.31206 0.88885,-0.55812 1.37928,-0.74069 0.002,-0.002 0.004,-0.002 0.004,-0.002 1.38309,-0.52045 2.95797,-0.53551 4.35795,-0.047 0.92648,0.32317 1.77021,0.8551 2.48242,1.53158 0.0282,0.0262 0.0565,0.0545 0.0846,0.0807 -0.0864,-0.27618 -0.1504,-0.55811 -0.19168,-0.84362 -0.17856,-1.27226 0.21984,-2.62521 1.1012,-3.55744 0.88889,-0.9376 2.22499,-1.38488 3.51421,-1.28337 0.33261,0.0244 0.66332,0.0864 0.98283,0.1858 1.55034,0.48494 2.79057,1.79307 3.31489,3.33003 0.35711,1.047 0.39839,2.18582 0.17285,3.27192 -0.007,0.0452 -0.0187,0.0882 -0.0282,0.13343 0.40595,-0.78193 1.03175,-1.44909 1.80224,-1.87736 1.18387,-0.65962 2.83196,-0.53193 3.73211,0.48279 0.0902,0.10151 0.16912,0.20876 0.24244,0.32138 0.002,0.002 0.004,0.004 0.004,0.008 0.55054,0.8777 0.55621,2.0653 0.12403,3.02192 -0.0451,0.1015 -0.0959,0.20086 -0.1504,0.29699 0.032,-0.008 0.0621,-0.0172 0.0959,-0.0208 h 0.002 c 0.1146,-0.0283 0.23307,-0.0488 0.35326,-0.0639 0.52056,-0.0638 1.10314,0.0187 1.50157,0.34183 0,0 0.002,0 0.002,0.002 0.0753,0.0599 0.1429,0.12769 0.20302,0.2066 0.43035,0.56385 0.29117,1.39062 -0.0676,2.00146 -0.0658,0.11263 -0.14093,0.22167 -0.21984,0.32497 -0.002,0.004 -0.006,0.006 -0.008,0.009 0.71389,-0.0843 1.43772,-0.0262 2.07653,0.28767 0.88703,0.4358 1.52585,1.47132 1.26472,2.42398 2.37163,-1.23638 5.31643,-1.64779 7.76696,-0.58429 0.0204,0.009 0.0394,0.0169 0.0599,0.0262 0.42863,0.1901 0.90962,0.5452 0.81959,1.0036" />
  </g>
</svg>
