<?xml version="1.0" encoding="UTF-8" standalone="no"?>
<!-- Created with Inkscape (http://www.inkscape.org/) -->

<svg
   width="38.140289mm"
   height="22.194435mm"
   viewBox="0 0 38.140289 22.194435"
   version="1.1"
   id="svg992"
   xmlns="http://www.w3.org/2000/svg"
   >
  <defs
     id="defs989" />
  <g
     id="layer1"
     transform="translate(-219.81745,-96.496541)">
    <g
       transform="matrix(0.00657644,0,0,-0.00657644,150.79708,128.28402)"
       id="g242">
      <path
         id="path244"
         d="m 16294,2048.5 v -0.34 c -2.9,-53.43 -15.7,-106.18 -39.3,-153.9 -72.2,-147.78 -240.3,-242.53 -403.8,-228.6 -202.3,-153.9 -408.5,-214.39 -662.4,-206.24 -1440.6,45.62 -2880.8,91.16 -4321.3,136.77 -65.6,2.11 -133.9,4.96 -191,36.71 -52.7,29.5 -92.2,91.83 -79.4,149.2 1.1,4.96 2.5,9.59 4.3,14.62 30.3,78.3 134.3,89.38 218.3,87.96 171.3,-3.2 327.7,7.81 499,4.96 -150,13.86 -301.3,28.48 -442.7,79.8 -141.8,51.25 -273.9,144.24 -340.5,279.17 -29.2,59.14 -44.9,125.42 -38.8,190.94 12.1,128.55 116.8,242.88 244.3,265.99 103.3,18.9 231.1,11.08 305.9,-54.85 -72.3,113.99 -85.4,264.62 -29.2,387.86 66.3,144.24 224,241.11 382.5,234.72 138.9,-5.37 269.2,-69.13 370,-164.91 -225,248.93 -276.3,630 -158.1,943.77 118.2,314.11 389.7,558.07 702.3,679.48 313.1,121.47 663.1,127.11 990.8,55.19 205.5,-45.2 411,-124.26 566.6,-263.88 0.4,0 0.4,0 0.4,-0.34 22.1,-19.98 43.1,-40.99 63,-63.42 158.8,-178.77 230.4,-450.47 118.3,-661.33 v -0.34 c -0.5,-1.43 -1.1,-2.17 -1.9,-3.6 260.4,116.51 539.6,208 824.8,198.01 285,-9.58 577.7,-135.34 731.9,-375.02 47.7,-74.02 80.2,-159.88 96.2,-248.92 36.3,-199.78 -12.1,-413.49 -167.1,-535.65 85.5,-4.62 166.7,-58.05 204.5,-134.92 37.7,-76.95 42.7,-170.28 -6.5,-240.77 153.2,60.56 341.3,17.47 452.7,-103.26 75.2,-81.23 112.2,-194.47 106.2,-304.86" />
    </g>
  </g>
</svg>
