<?xml version="1.0" encoding="UTF-8" standalone="no"?>
<!-- Created with Inkscape (http://www.inkscape.org/) -->

<svg
   width="40.889816mm"
   height="20.199665mm"
   viewBox="0 0 40.889816 20.199665"
   version="1.1"
   id="svg992"
   xmlns="http://www.w3.org/2000/svg"
   >
  <defs
     id="defs989" />
  <g
     id="layer1"
     transform="translate(-218.2871,-0.29971587)">
    <g
       transform="matrix(0.0050986,0,0,-0.0050986,211.97821,83.210915)"
       id="g142">
      <path
         id="path144"
         d="m 9257.19,12778.2 c -100.58,-109.5 -265.55,-123.3 -413.75,-128.1 -895.68,-30.9 -1793.14,-14.9 -2686.91,48.4 -40.96,-125.9 -186.56,-182.8 -313.55,-220.5 -862.85,-257.7 -1806.15,-234.6 -2655.96,60.4 -558.25,-35.8 -1118.7,-32.8 -1676.2,9.3 -58.82,4.1 -119.15,9.7 -172.41,35 -53.26,25.3 -98.69,76 -100.92,134.8 -3.73,88.6 84.17,151.6 165.34,188.1 199.62,89.7 422.3,127.3 640.54,108 -174.65,100.5 -330.69,217.4 -457.32,374.2 -126.61,156.8 -200.71,367.6 -151.18,563.1 9.67,38.7 24.21,76 42.44,111 57.72,112.8 153.8,206.6 260.69,277 293.08,192.6 684.46,226.1 1006.22,86.1 135.18,-58.9 255.85,-148.3 355.28,-257 -69.26,293.1 -52.52,613.7 35.38,896.7 148.22,475.6 529.18,866.2 990.21,1055.4 382.46,157.6 814.06,179.9 1217.74,84.9 82.32,-19 163.49,-43.2 242.82,-72.2 490.82,-178.8 928.39,-556 1084.43,-1054.6 96.82,-309.1 80.06,-652.5 -46.18,-951.2 -0.37,-0.7 -0.37,-1.1 -0.73,-1.8 -1.13,-3 -2.61,-6 -4.1,-9.3 224.93,92.7 476.31,121.7 716.13,80.4 143.37,-24.6 294.2,-83 365.7,-209.7 55.51,-98.6 50.61,-223 7.82,-328.4 -2.99,-7.1 -5.97,-14.2 -9.31,-20.9 -51.04,-109.5 -138.89,-197.7 -233.14,-273.7 -97.59,-78.9 -204.43,-146.7 -316.87,-202.9 154.17,7.8 309.05,-12 454.69,-62.2 37.96,-13.1 81.88,-36.5 83.38,-76.8 0.35,-8.1 -1.5,-15.6 -4.48,-22.7 417.87,28.7 838.67,6 1250.57,-69.6 119.92,-22 249.49,-54.4 323.63,-151.2" />
    </g>
  </g>
</svg>
