<?xml version="1.0" encoding="UTF-8" standalone="no"?>
<!-- Created with Inkscape (http://www.inkscape.org/) -->

<svg
   width="57.560902mm"
   height="60.617195mm"
   viewBox="0 0 57.560902 60.617195"
   version="1.1"
   id="svg1277"
   xmlns="http://www.w3.org/2000/svg"
   >
  <defs
     id="defs1274" />
  <g
     id="layer1"
     transform="translate(-40.625089,-48.95204)">
    <g
       transform="matrix(0.05580028,0,0,-0.05580028,-723.33263,457.2824)"
       id="g262">
      <g
         id="g1467">
        <path
           id="path264"
           
           d="m 14164.128,7317.7117 c -2.753,-0.2604 -5.918,0.075 -8.15,-0.9261 l -0.185,-0.083 c -2.827,-0.2195 -5.656,-1.2204 -8.446,-2.1393 -1.413,-0.1972 -2.829,-0.3157 -4.242,-0.5649 -0.372,-0.3981 -0.886,-0.5304 -1.444,-0.389 -0.595,-0.1414 -0.973,-0.4059 -1.084,-0.7779 -1.339,-0.1823 -2.635,-0.415 -3.64,-1.278 -1.673,-2.34 -4.47,-2.3962 -7.186,-2.519 -4.091,-0.186 -8.145,-0.5375 -11.382,-3.0746 l -0.111,-0.074 c -0.335,-0.5319 -0.334,-1.0223 -0.148,-1.491 -3.72,0.8258 -5.839,-2.713 -9.224,-2.8246 -0.669,-0.3907 -1.303,-0.7451 -1.973,-1.065 l -7.029,-1.2132 c -0.335,0.052 -0.674,0.1015 -1.009,0.1945 -1.785,0.2939 -3.642,-0.4153 -5.39,0.1204 -2.753,-0.6436 -5.288,-1.5415 -7.446,-3.2229 l -10.335,-1.7132 -1.343,-0.6668 c -0.558,0.186 -1.154,0.4486 -1.787,0.8057 -2.678,0.2753 -4.948,-0.3116 -6.511,-2.4357 l -0.148,-0.019 c 0.149,0.3051 0.26,0.6152 0.334,0.9724 -0.372,1.4545 -1.228,2.3135 -2.418,2.7598 0.967,0.097 1.867,0.2086 2.797,0.3797 4.464,0.8594 5.688,2.7357 0.889,4.4916 -1.711,0.8817 -1.003,1.8205 -0.296,2.7505 0.557,-0.3757 1.229,-0.6037 2.01,-0.6483 l 3.945,1.028 c 0.669,0.7217 1.414,0.8021 2.195,0.3148 l 0.07,-0.01 3.797,2.7134 -0.825,2.8061 0.149,0.389 c -2.157,0.9151 -4.344,-0.308 -6.539,-0.6205 -1.785,-0.6101 -3.985,-0.4966 -5.436,-1.7874 -0.07,0.052 -0.11,0.1146 -0.185,0.1667 -1.377,0.558 -2.901,0.5389 -4.427,0.1297 -2.567,-0.6398 -5.128,-1.0328 -7.547,-2.0745 -0.892,-0.5282 -1.564,-1.1913 -2.01,-1.9911 -1.637,-1.8452 -0.858,-3.9205 -1.825,-5.8251 l -8.334,-2.1393 c -3.497,0.6436 -6.885,-0.6092 -10.308,-1.5466 -6.063,-3.0282 -12.121,-5.9227 -18.929,-6.9457 -4.65,-2.1428 -8.965,-4.6504 -13.206,-7.4181 l -1.64,-0.6204 -4.315,-2.8061 c -0.484,-0.01 -1.008,-0.3306 -1.528,-1.0002 l -3.121,-1.1854 c -3.906,0.5729 -7.477,-0.7949 -10.9,-2.9079 -5.469,-1.6741 -10.858,-3.534 -16.327,-5.3344 -1.637,-0.6436 -3.318,-1.2509 -4.955,-1.954 -1.971,-0.8407 -3.9,-1.7092 -5.76,-2.695 -0.483,-0.2493 -0.936,-0.9777 -0.936,-1.4539 -0.07,-1.1308 1.08,-1.2694 2.047,-1.1577 1.712,0.2231 3.381,0.7283 5.093,1.1114 l 8.669,-2.6209 c 2.567,-0.7923 2.346,-2.1361 -0.741,-4.1859 -0.558,-0.3645 -1.192,-0.5638 -1.862,-0.8428 l 0.26,-0.083 c 0.07,-2.2879 2.047,-2.2229 4.056,-2.1671 1.413,0.3125 2.791,0.8139 4.093,1.5281 0.818,0.4911 1.526,1.0566 2.158,1.7225 1.079,1.2574 1.822,2.6073 2.306,4.0656 0.111,0.3348 0.259,0.6652 0.371,1.0001 0.26,0.6547 0.49,1.2957 0.602,1.9541 0.07,0.3237 0.111,0.6469 0.185,0.9631 0.04,0.3422 0.04,0.6618 0,0.9817 l 0.333,0.074 c 2.529,1.4508 4.761,0.7693 6.881,0.01 1.934,-0.059 3.531,0.582 4.945,1.8244 1.115,1.2091 1.711,2.5576 2.195,3.9637 0.26,0.6325 0.638,1.218 1.047,1.8058 l 0.296,0.4168 c -0.149,-1.0416 0.07,-2.0207 0.852,-2.9172 0.67,-0.6027 1.488,-1.0306 2.417,-1.2688 4.427,-0.2194 8.972,-1.2979 11.873,3.8433 0.04,0.1339 0.04,0.2681 0.04,0.3983 1.153,0.4353 2.191,1.0191 3.047,1.8151 0.595,0.6102 1.302,1.1652 2.083,1.5744 v -0.1853 c 1.116,-0.1153 2.045,0.1346 2.788,0.7224 l 0.454,0.056 c 0,-0.4241 0.07,-0.8319 0.259,-1.2225 0.781,-1.0602 1.855,-1.7656 3.269,-2.093 -1.302,-0.4613 -2.486,-1.0564 -3.602,-1.7781 l -4.723,-1.6855 c -2.418,-0.9039 -5.03,-1.6317 -6.965,-3.3802 l -0.889,-0.2964 c -0.967,0.398 -1.749,0.1859 -2.232,-0.8334 l -0.148,-0.056 -1.972,-0.6205 c -1.637,-1.209 -3.39,-2.0931 -5.511,-2.0745 -3.125,1.3318 -6.063,0.3723 -8.779,-1.7966 -1.972,-2.232 -5.316,-4.6902 -1,-6.7883 3.162,0.8854 6.507,1.3781 9.668,2.2412 -0.334,-0.5171 -0.629,-1.1066 -0.852,-1.7874 0.297,-2.8087 0.369,-2.903 2.899,-1.4447 1.302,0.744 2.348,1.3187 3.575,0.4631 1.451,-0.7031 2.975,-0.5959 4.649,0.1481 2.455,1.0974 4.944,2.1035 7.436,3.1302 3.386,0.8817 6.361,2.2993 8.668,4.788 -1.153,0.8445 -2.373,1.5176 -4.121,1.3613 -0.967,-0.082 -1.941,-0.1542 -2.834,0.01 -0.446,0.086 -0.926,0.6836 -0.926,1.0928 0,0.4055 0.517,1.0139 1.001,1.278 1.786,1.0119 3.724,0.9336 5.621,0.9076 1.116,-0.8742 1.968,-0.438 2.713,0.6297 v 0.01 l 3.131,1.704 1.63,1.8522 0.04,-0.019 c 1.451,2.3213 0.826,3.8731 -1.816,4.6767 l 0.07,0.3242 -0.629,1.1576 c -0.186,0.8333 -0.453,1.6414 -0.751,2.4449 0.223,0.086 0.453,0.1645 0.676,0.2315 3.274,0.8556 6.58,-0.3325 9.854,1.2225 0.07,-0.1154 0.111,-0.2403 0.185,-0.352 l 1.64,0.5835 c 1.339,-0.398 2.717,-0.6796 4.204,-0.7502 -1.599,-0.5655 -3.197,-1.1062 -4.834,-1.4447 -0.855,-0.6138 -1.526,-1.3597 -2.01,-2.1856 -1.339,-1.0007 -2.9,-1.9247 -2.565,-3.6025 0.26,-1.4955 1.448,-2.3287 3.121,-2.6486 2.344,-0.4502 4.722,-0.8646 7.14,-1.3891 0.04,-0.1525 0.04,-0.2921 0.07,-0.4446 0.818,-0.9969 1.939,-1.6287 3.353,-1.9263 3.757,-0.3571 7.356,0.7273 10.965,1.7689 l 0.787,0.3519 1,-0.8613 c 2.939,0.3906 5.059,1.6189 6.844,3.3525 0.968,0.037 1.978,-0.057 3.019,-0.426 4.948,-0.6026 9.852,0.6828 14.725,0.8428 3.981,0.6399 7.892,1.6556 11.835,2.5745 3.682,1.1942 7.662,1.2353 11.382,2.1578 l 0.148,0.037 c 3.459,-0.7924 6.811,-0.8762 10.122,-0.3889 1.637,0.2418 3.272,0.6239 4.946,1.1298 1.599,0.4762 3.235,1.0215 4.871,1.6948 0.484,0.5468 0.933,1.0852 1.454,1.5651 l 0.111,0.028 c -0.186,-0.2716 -0.333,-0.5929 -0.37,-0.991 2.678,-3.3443 7.81,-2.5445 11.344,-4.3711 3.683,-0.1785 6.993,0.301 9.113,3.1394 0.261,-0.532 0.71,-0.9655 1.38,-1.278 5.245,0.1897 12.235,-3.2909 14.28,3.2043 0.633,0.3571 1.267,0.7482 1.788,1.2132 1.079,1.023 1.931,2.1662 2.936,3.2413 0.484,0.465 1.044,0.8377 1.639,1.1762 0.632,0.16 1.266,0.2111 1.898,0.2408 0,-0.8072 0.08,-1.6194 -0.185,-2.3523 -0.446,-1.2276 -2.197,-2.6003 0.519,-3.0839 1.376,-0.2492 2.452,0.9754 2.861,2.0281 0.41,1.1049 0.527,2.2751 0.676,3.4358 1.041,-0.071 2.079,-0.3479 3.047,-0.8612 l 1.074,-0.4353 c 0.707,-0.3199 1.461,-0.6398 2.205,-0.889 0.744,-0.3125 1.487,-0.59 2.268,-0.7872 1.079,-0.4947 2.191,-1.0578 3.307,-1.4633 3.794,-1.9344 7.55,0.042 11.344,0.139 1.116,0.03 2.237,-0.015 3.316,-0.1853 -0.223,-0.067 -0.452,-0.1553 -0.713,-0.2037 -1.674,-0.3497 -3.164,-0.8277 -4.02,-2.1856 l 0.121,-0.056 c 0.893,-0.3273 1.486,-1.0792 2.491,-1.1946 l 5.612,0.25 c 2.864,0.067 4.019,1.3972 4.168,3.4358 0.297,0.1414 0.601,0.2901 0.861,0.4724 0.112,0.1488 0.185,0.2736 0.185,0.3889 l 0.333,0.093 c 0.334,-0.3311 0.221,-1.0798 0.63,-1.5188 1.154,-1.0602 2.531,-1.5484 4.205,-1.5373 1.562,-2.1018 4.312,-2.1508 7.14,-2.0652 0.334,-0.01 0.601,0.086 0.898,0.2871 0.186,0.1376 0.183,0.3197 0.04,0.5279 3.683,0.48 7.439,1.1086 11.234,0.4538 v -0.01 c 4.39,-2.3473 9.075,-1.5785 13.762,-1.4632 1.786,0.6845 3.497,1.422 4.13,2.8431 0.26,-0.097 0.527,-0.2108 0.787,-0.2964 3.794,-0.4799 7.513,-1.0271 11.308,-0.3426 l 0.185,0.018 c -1.748,-2.7343 -0.599,-5.0907 3.121,-7.1032 4.798,-2.1539 10.157,-2.5111 15.179,-3.9173 3.646,-1.3243 7.327,-2.5672 11.27,-1.7041 0.112,-0.4204 0.341,-0.8208 0.713,-1.2039 4.352,-2.2618 8.964,-3.3178 13.688,-4.0841 4.724,-0.7068 9.446,-1.5433 14.058,-2.7597 1.34,-0.2828 2.57,-0.1513 3.834,0.083 l 0.445,-0.213 c 2.359,-1.1325 4.547,-2.9444 7.483,-1.6947 v 2.3522 c 2.678,-0.5655 4.089,-2.4628 5.093,-4.8064 0.595,-0.6734 1.303,-1.2759 2.084,-1.7596 6.436,-2.1576 12.722,-4.7911 19.679,-4.9176 7.031,2.0052 13.053,-1.6234 18.745,-4.9268 2.864,-1.7112 5.766,-3.2886 8.705,-4.8064 2.901,-1.5475 5.913,-2.8945 9.187,-3.8618 1.265,-0.089 2.569,-0.2936 3.834,-0.5279 2.559,-1.5688 4.89,-3.334 5.788,-6.2419 0.627,-2.053 0.694,-4 -0.797,-5.6399 -0.521,-0.4614 -0.969,-0.9554 -1.416,-1.4911 -0.409,-0.8891 -0.857,-1.7523 -1.936,-2.1392 l 0.07,-0.1482 c -1.041,-0.1042 -2.052,0.018 -3.056,0.2037 -1.004,0.4389 -1.969,1.0449 -2.973,1.4355 -1.562,0.573 -2.604,2.0097 -4.241,2.4078 -4.985,0.9523 -9.75,3.1174 -14.883,3.0839 -1.302,0.2827 -2.606,0.4346 -3.797,0.1482 0.372,0.4092 0.639,0.8701 0.825,1.3984 1.078,2.351 1.15,4.6144 -1.306,6.6679 -3.906,1.927 -7.884,3.3202 -11.901,3.9637 -3.981,0.6548 -8.151,0.2771 -12.243,-0.8798 -2.492,-0.5804 -4.797,-0.5511 -6.918,0.1111 -1.19,1.2053 -2.008,2.7953 -2.417,4.9083 -0.335,1.8526 -1.782,3.6208 -2.75,5.4362 -0.893,-0.022 -2.38,0.22 -2.528,-0.1111 -1.265,-3.162 -2.831,-2.6218 -5.881,-1.0928 -3.088,1.5364 -6.885,1.9005 -10.345,2.7227 -0.372,0.8109 -1.303,1.3493 -1.972,2.0189 -7.999,2.9723 -16.03,6.1015 -24.81,6.4549 -0.632,0.015 -1.304,0.2045 -1.862,0.4723 -6.622,3.3779 -14.101,3.9624 -21.207,5.5844 -4.166,0.8853 -8.289,2.0844 -12.53,2.8061 -4.204,0.677 -8.52,1.0775 -12.91,0.7501 -6.027,-0.491 -12.129,0.9061 -17.226,4.3249 -1.599,1.8637 -3.833,1.8919 -6.214,1.6762 -3.2,2.6933 -6.542,2.5359 -9.89,0.2778 -2.566,0.6845 -5.176,0.9399 -7.669,-0.1389 -0.595,0.086 -1.228,0.079 -1.824,-0.028 -1.265,-4.3971 -1.221,-4.3961 -5.76,-5.0657 -0.632,-0.093 -1.267,-0.1423 -1.899,-0.213 -1.785,-1.9046 -0.749,-3.2955 1.037,-4.5379 l 0.149,-0.046 c -1.674,0.033 -3.347,-0.097 -4.872,-0.8335 -0.483,-0.3981 -0.814,-0.8757 -1.037,-1.3891 l -2.047,-0.4353 c -4.686,-0.2939 -9.185,-0.8512 -11.826,-5.0102 -0.558,-0.398 -1.155,-0.7271 -1.75,-0.9168 0.04,0.212 0.07,0.436 0.111,0.7038 0.372,2.0088 -0.857,3.0423 -2.01,4.1211 0.447,0.5282 0.741,1.0791 0.704,1.7041 -0.07,1.6442 -0.298,3.2136 -2.195,4.0655 -3.237,-0.1079 -6.544,-0.8122 -9.557,0.7502 -3.831,2.7826 -8.336,0.3725 -12.428,0.7408 0.297,0.1228 0.601,0.2365 0.861,0.389 1.153,0.8482 1.971,1.8303 2.343,3.0839 v 0.046 c 1.722,-0.8499 3.331,-0.5106 4.871,0.8983 1.423,2.0854 -1.049,2.1897 -2.12,2.9913 -1.935,-0.1413 -3.863,-0.1935 -5.798,-0.4167 -0.483,0.1897 -0.97,0.1897 -1.491,0 -4.761,1.2165 -9.6,-0.073 -14.4,-0.5649 l 0.08,0.4537 -5.955,-1.315 c -3.46,-0.3608 -7.138,-0.3675 -9.965,-2.7968 1.154,-0.9337 2.568,-1.1675 4.094,-1.0373 0.26,-0.305 0.517,-0.575 0.852,-0.8057 l 0.185,-0.4815 h 0.741 c 0.07,-0.037 0.156,-0.087 0.231,-0.1204 2.232,-0.3497 4.502,-0.2737 6.733,-0.3519 -2.231,-0.041 -4.464,-0.1321 -6.696,-0.4446 -2.194,-0.372 -4.436,-0.9061 -6.631,-1.6947 -3.162,-1.1421 -6.204,-1.6167 -6.464,-5.1954 -0.112,-1.3801 2.227,-3.9531 -0.861,-3.8526 -3.646,0.1116 -7.145,-0.4913 -10.641,-1.2873 -3.46,-0.9189 -6.875,-2.0158 -10.335,-2.7412 0.855,0.3571 1.746,0.8602 2.565,1.5558 0.632,6.0303 4.796,9.3771 11.53,9.9834 1.6,1.1384 2.903,2.3702 1.973,4.2785 l -2.529,1.2966 c -2.232,0.4315 -4.316,0 -6.251,-1.1206 -1.525,-0.3608 -3.162,-1.1564 -4.575,-1.0187 -5.32,0.5134 -9.973,-1.3592 -14.512,-3.6396 -0.223,-0.056 -0.406,-0.2909 -0.518,-0.7038 -0.148,-0.4054 0.191,-0.6883 0.972,-0.852 0.298,-0.4724 0.444,-0.985 0.482,-1.5281 l 0.111,-0.6019 0.259,-0.5742 -0.185,-0.6112 0.556,-3.5192 0.629,-1.1669 c 0.632,-0.6845 1.451,-1.1749 2.418,-1.4725 1.19,-0.5134 2.347,-0.8184 3.537,-0.889 -1.488,-0.1749 -2.976,-0.2578 -4.501,-0.1945 -2.158,-0.5617 -4.39,-0.7871 -6.547,-1.241 -2.158,-0.4799 -4.206,-1.2844 -5.992,-2.8431 -0.558,-0.6287 -1.146,-1.2532 -1.704,-1.8707 -5.915,0.6808 -11.57,-2.9584 -17.485,-3.2969 -0.669,0.041 -1.082,0.2892 -1.417,0.676 0.07,1.2835 0.672,2.6887 -0.629,3.7415 v 0.01 c -6.399,1.3467 -12.017,-1.3633 -17.522,-4.4175 -3.943,-1.1755 -8.265,-0.8491 -11.91,-3.7321 -3.869,-2.9984 -8.742,-0.017 -13.021,-2.1856 -0.595,-0.2902 -1.294,-0.3545 -1.852,-0.6298 -7.217,-3.2142 -14.591,-5.4359 -22.106,-7.6866 l -3.676,-1.5095 -4.427,0.1574 c -1.191,-0.5021 -2.422,-1.0477 -3.575,-1.6206 -4.762,-2.4366 -10.121,-3.0688 -14.808,-5.7881 l -3.677,-1.7133 c -2.046,-0.5097 -3.949,-1.3118 -5.362,-2.9635 v -0.1019 c -3.385,-0.2269 -5.727,-3.7061 -9.187,-3.7322 l -11.678,-6.2326 -0.222,-0.1852 c -0.483,1.0416 -1.495,1.1354 -2.834,0.25 -3.608,-2.0088 -6.584,-5.3944 -11.011,-5.6399 -2.158,-2.2655 -4.316,-4.5366 -6.696,-7.0291 3.124,-0.145 5.323,2.8301 8.113,2.4172 l 4.834,3.2042 c 3.311,1.5103 7.036,2.5418 9.789,4.6213 6.175,4.7207 13.279,7.1953 20.087,10.3722 1.712,-0.6324 3.42,-0.077 5.131,0.7224 1.674,0.7812 3.234,1.7774 5.13,1.5095 3.237,0.9077 7,0.4939 9.418,3.2877 1.005,-4.6055 4.168,-6.8159 10.715,-5.1121 l 0.334,-0.7131 c -0.335,-0.3981 -0.712,-0.7726 -1.084,-1.1298 l -7.251,-3.2043 c -1.414,-2.1428 -2.416,-4.5184 -4.76,-6.0474 h -0.05 c -1.302,0.9487 -1.48,3.2658 -4.047,2.7598 l -1.676,-1.9726 c -0.447,-0.2158 -0.859,-0.4473 -1.269,-0.6853 -1.45,-0.044 -2.753,-0.9257 -4.204,-1.0187 -0.595,-0.082 -1.182,-0.2343 -1.778,-0.4538 -0.223,-3.2104 2.635,-4.9098 3.417,-7.6403 0.707,-0.2976 1.525,-0.3564 2.343,-0.1667 2.121,0.7254 3.163,2.3364 4.279,3.9174 0.819,-0.4464 2.014,-0.5185 3.204,-0.5557 l 0.741,0.2871 c 0.483,-0.3348 1.044,-0.603 1.676,-0.7964 2.196,-0.4911 4.353,-0.4171 6.511,0.5278 4.352,2.8198 10.228,2.9626 13.502,7.5755 l 1.371,0.3612 c -3.088,-5.4796 -11.044,-6.0029 -14.392,-11.2891 -0.706,-1.6182 -0.819,-3.1558 0.185,-4.5657 0.186,-0.1078 0.333,-0.1885 0.519,-0.2778 l -0.37,-1.5744 c 3.906,-1.3913 7.44,-0.5763 10.937,1.2502 0.372,-0.097 0.748,-0.2214 1.083,-0.4074 0.409,-0.1563 0.814,-0.2923 1.223,-0.389 -3.645,-1.4025 -7.437,-2.6694 -7.511,-7.844 v -0.056 l -0.148,0.074 c -0.223,0.2455 -0.489,0.3447 -0.861,0.3149 -0.223,0.067 -0.444,0.1258 -0.667,0.1667 l -0.408,0.7779 c -0.521,0.4948 -1.192,0.853 -1.935,1.0279 -1.526,0.1265 -3.05,0.023 -4.575,0.176 -0.93,-0.041 -1.821,0.046 -2.565,0.3704 0.484,0.5209 0.961,1.0808 1.259,1.7318 0.632,2.2767 0.445,4.2587 -1.824,5.5011 -0.484,0.1191 -0.924,0.1795 -1.371,0.1944 -0.07,0.2456 -0.185,0.4917 -0.333,0.7224 -2.27,1.7967 -5.397,1.7119 -8.372,1.5929 -2.939,-0.1005 -5.882,-0.043 -7.928,2.4078 -2.12,1.2015 -4.162,0.8397 -5.389,-1.5002 -1.303,-2.4143 -2.276,-4.8995 -5.177,-6.1308 -1.823,0.8705 -3.751,1.0757 -5.872,-0.074 l -7.075,-4.0563 c -2.381,0.1228 -5.17,0.2173 -6.807,-1.6762 -2.641,-3.0951 -6.395,-3.5689 -9.52,-5.3992 l -0.519,-2.5097 c 0.782,-2.2245 2.901,-3.2484 4.612,-4.6397 0.07,-0.4352 0.185,-0.8539 0.371,-1.278 0.07,-0.067 0.07,-0.5279 0.07,-0.5279 0,0 -0.418,-0.2814 -0.343,-0.3149 -0.409,-0.011 -0.924,-0.045 -1.371,-0.1574 -0.521,-0.093 -1.082,-0.2308 -1.602,-0.4168 0.372,2.4999 0.152,4.7032 -2.824,5.4547 -2.567,-0.5617 -4.09,-3.6476 -7.029,-3.4728 l -0.112,-0.028 c -2.195,0.059 -3.612,-2.2983 -5.732,-2.3801 l -0.04,-0.1667 c -1.599,-0.8258 -3.385,-1.3953 -4.464,-2.9913 -1.004,-1.4731 -2.016,-3.0291 -2.834,-4.6027 -1.265,-2.3399 -3.045,-3.7381 -5.612,-4.0841 -1.6,0.2455 -2.683,-0.5108 -3.464,-1.8984 l -3.232,-3.1488 c -2.12,-0.32 -3.947,-1.3027 -5.658,-2.4634 -1.711,-1.1941 -3.271,-2.6179 -4.982,-3.7414 -4.91,-1.9307 -8.709,-5.5611 -12.355,-9.3258 0.149,-0.398 0.296,-0.7856 0.482,-1.1576 -0.484,-0.3794 -0.851,-0.8405 -1.074,-1.3799 -4.352,-3.7275 -8.521,-7.6704 -12.762,-11.5207 l -1.185,0.2964 c -1.562,-1.4061 -3.28,-2.7111 -3.168,-5.0287 0.112,-2.697 -1.899,-3.2615 -3.945,-3.76 -0.707,-0.9523 -1.37,-1.9233 -1.556,-3.0468 -0.112,0.033 -0.267,0.092 -0.453,0.1111 -4.092,0.5989 -5.237,-4.491 -8.548,-5.5103 v -0.01 c -0.893,-0.1488 -1.234,-0.6077 -0.936,-1.4262 0.744,-2.3697 3.353,-1.3804 5.696,-2.5931 -2.864,-1.7782 -6.068,-2.2788 -7.779,-5.2139 -1.823,-3.255 -4.425,-6.0709 -7.029,-8.8535 -2.158,-2.366 -3.719,-5.0727 -2.492,-8.2422 0.26,-0.6882 -0.184,-1.7245 -0.333,-2.6024 -1.524,1.0193 -2.834,2.5961 -5.214,1.4355 v 0.01 l -1.037,0.4168 c -3.088,0.2083 -3.351,-2.0801 -3.723,-4.2601 l -4.538,-4.8342 c -0.557,0.052 -1.118,0.025 -1.713,-0.1574 l -2.047,-2.6579 c 0.04,-1.9494 -1.15,-3.0823 -2.787,-3.8896 -0.26,-0.3869 -0.592,-0.6845 -1.001,-0.8891 0,-1.2239 0.626,-1.9115 1.667,-2.343 1.191,-0.4911 2.311,-1.0849 3.427,-1.6392 -1.971,-1.5847 -4.021,-3.1564 -5.881,-4.8342 l -0.04,-0.01 h 0.04 l 0.08,-0.019 c -0.782,-0.4167 -1.637,-0.6672 -2.492,-0.5742 v 0.1482 l -4.019,2.5653 c -0.447,0.063 -0.786,0.2616 -1.083,0.5927 -3.795,-0.6771 -2.641,-3.1174 -2.232,-5.2602 v -0.01 c 1.897,-0.056 4.133,2.4407 5.695,-0.074 l -5.056,-7.418 c -0.818,-0.2789 -1.636,-0.561 -2.38,-1.0558 l -1.602,-2.5189 -0.973,0.1944 c -1.822,-5.9781 -6.429,-9.674 -10.335,-14.0488 l 0.07,-2.5838 c 0.223,-0.77 0.259,-1.5765 0.111,-2.4172 v -0.1574 c 0.372,-0.7328 0.895,-1.1866 1.713,-1.3428 l 0.111,-1.9448 -1.222,-2.0004 -0.07,0.074 c -1.86,1.142 -3.79,0.4021 -5.687,-0.5094 -2.567,-2.2766 -5.025,-4.6332 -5.621,-8.3719 -0.334,-2.0051 -1.715,-3.2955 -3.464,-4.0655 -2.493,-1.2128 -3.011,-2.482 -0.518,-3.7878 1.414,0.9598 2.939,1.4413 4.538,1.3892 l 0.08,-0.028 c 0.372,-0.7292 0.48,-1.5939 0.963,-2.2412 l 5.399,-2.8338 1.112,1.0372 c 2.827,3.2104 6.401,6.1586 3.611,10.965 -0.558,0.5281 -1.155,0.8787 -1.787,1.1391 0.484,0.052 0.933,0.1126 1.417,0.1945 0.335,0.2045 0.666,0.4635 0.963,0.7686 3.162,-2.1316 3.122,2.9874 5.205,3.4821 l 2.009,2.908 c 1.302,1.9939 0.3,3.483 -0.481,5.038 l 0.185,1.8892 1.01,0.9076 c 0.52,0.6957 0.961,1.4468 1.296,2.2689 0.335,1.1235 0.445,2.255 0.445,3.3895 1.228,1.4472 2.683,2.443 5.139,1.5651 1.525,-0.5394 2.083,1.6475 2.232,3.195 0.149,0.2047 0.181,0.4894 0.07,0.8428 -0.112,0.3571 -0.478,0.3057 -1.111,-0.1482 -1.413,-0.4761 -2.644,-0.1904 -3.723,0.6205 l 1.602,2.9728 c 0.07,0.8854 0.516,1.488 1.371,1.741 l 5.399,7.1865 c 1.264,-0.4278 2.531,-0.9144 3.982,-0.1481 0.93,-0.3906 1.673,0.041 2.306,0.889 l 0.111,-0.074 c 1.822,0.5283 2.866,1.9593 3.982,3.3803 2.53,3.0059 5.092,5.9367 7.659,8.8905 0.557,-0.044 0.972,0.1926 1.232,0.639 0.224,-0.015 0.444,-0.015 0.704,0 0.224,-0.089 0.481,-0.056 0.704,0.093 l 0.527,0.1204 c 0.595,-3.7275 4.799,-5.2984 4.724,-9.4091 l 0.259,-2.4727 c 0.409,-0.3125 0.813,-0.6597 1.148,-1.028 l -5.204,-6.8994 c -0.52,-0.3646 -1.083,-0.7686 -1.529,-1.2224 -0.521,-0.5395 -1.034,-1.12 -1.518,-1.7226 -1.227,-1.6554 -2.458,-3.3712 -3.686,-5.075 l -2.047,-2.8987 c -1.452,-0.6063 -2.339,-1.9579 -3.269,-3.2413 v -0.019 c 0.223,-0.1673 0.444,-0.3753 0.63,-0.5649 l -1.158,-1.7133 c -0.558,-1.0416 -1.036,-2.1458 -1.482,-3.2321 l -1.528,-2.3615 c -0.447,-0.465 -1.006,-0.8656 -1.676,-1.1669 -1.19,-0.5953 -2.228,-1.4291 -3.047,-2.5005 -0.223,-0.2678 -0.406,-0.5508 -0.592,-0.8335 -3.125,-0.1525 -4.585,-3.2595 -6.594,-5.964 -3.943,-5.197 -6.13,-11.4217 -8.733,-17.3365 -1.303,-2.976 -2.606,-5.9263 -4.168,-8.7424 -1.488,-2.8533 -3.13,-5.631 -5.288,-8.1867 -4.315,-3.6531 -8.037,-7.9011 -10.455,-13.2617 -2.864,-6.6626 -5.832,-13.2486 -8.733,-19.874 -0.298,-3.0988 -1.044,-6.7461 2.528,-7.9737 2.195,-0.7626 3.266,1.3086 4.047,3.2691 0.186,0.6398 0.231,1.2458 0.231,1.8522 0.261,0.1079 0.517,0.266 0.778,0.426 -0.447,-1.4137 -1.008,-2.802 -1.454,-4.223 -0.186,-0.7217 -0.181,-1.4417 -0.07,-2.1485 -1.228,-3.0244 -2.124,-6.1665 -3.5,-9.1128 -0.967,-2.4999 -1.41,-5.0328 -0.852,-7.6033 0.223,-0.8036 0.517,-1.5714 0.889,-2.2782 0.409,-0.6473 0.785,-1.3083 1.12,-2.0003 -2.79,-1.9418 -4.098,-5.257 -5.251,-8.6683 -0.93,-2.6561 -1.745,-5.3587 -2.935,-7.9181 -2.902,-3.8689 -2.049,-8.8227 -3.686,-13.0487 -0.186,-0.9114 -0.183,-1.828 -0.04,-2.732 -0.335,-5.5652 -2.162,-10.7978 -3.501,-16.1696 -1.339,-5.3643 -2.566,-10.7692 -2.269,-16.3456 -0.297,-5.9967 -1.786,-11.2735 -4.204,-16.2993 -2.27,-5.037 -5.464,-9.8267 -7.77,-14.9194 -0.818,-3.1844 -1.082,-6.4542 -1.454,-9.7055 -0.112,-1.8489 -0.369,-3.6746 -0.704,-5.4825 -0.409,-2.0275 -0.783,-4.0558 -1.787,-5.927 -2.381,-4.8063 -3.388,-9.8066 -3.723,-14.8361 -0.93,2.0237 -2.381,3.6935 -4.353,4.9546 3.646,3.8131 0.528,8.0883 0.602,12.5301 0.04,3.7982 7.737,6.0576 4.538,12.4375 -0.111,0.2567 -0.342,0.464 -0.491,0.676 -0.149,0.1674 -0.37,0.294 -0.556,0.4353 v 0.3149 l -0.481,1.065 c -0.447,0.5914 -0.969,1.0819 -1.602,1.4539 -1.563,0.6697 -2.675,1.7612 -3.047,3.6026 1.004,1.5699 1.375,3.6033 2.454,5.1768 l 0.445,1.8893 0.222,0.8242 0.111,0.852 c -0.435,0.1269 -0.934,0.1666 -1.408,0.1204 h -0.04 c -0.335,0.3385 -0.785,0.5663 -1.269,0.6853 -0.223,2.1986 0.745,5.1569 -2.528,5.5103 l -1.528,-7.2143 c -0.521,-2.4069 -0.961,-4.8221 -1.333,-7.2513 -0.855,-2.2618 -1.829,-4.5391 -0.751,-6.8902 l -0.222,-0.213 c -1.041,-2.5073 -1.522,-5.097 -0.852,-7.7792 0.223,-0.4687 0.296,-0.9701 0.185,-1.5095 0.483,-1.5922 0.412,-3.1021 -0.592,-4.5194 0.04,-0.5357 -0.08,-1.0279 -0.334,-1.4818 l -0.157,-3.2506 c 0.26,-0.982 0.785,-1.7768 1.38,-2.5097 l 0.04,0.037 c 1.526,-2.79 -0.513,-6.041 0.602,-8.872 -0.111,-0.2046 -0.223,-0.4084 -0.297,-0.6205 -0.67,-3.72 -0.492,-7.639 -2.463,-11.0391 -0.261,-1.3913 -0.552,-2.8113 0.824,-3.7414 l -0.185,0.3241 c 1.637,-1.9419 2.933,-3.9593 1.519,-6.7605 l -0.06,-4.3712 1.296,-2.5004 c 1.339,-1.2277 0.564,-4.4792 3.279,-4.3156 2.642,0.1637 2.713,2.412 2.75,4.5101 0.08,2.4516 1.23,4.5117 1.788,6.7697 0.484,2.3771 2.007,4.2615 2.639,6.5568 0.149,0.5357 0.26,1.0629 0.371,1.5836 0.41,-2.6561 0.822,-5.3231 1.231,-7.9829 l -0.667,-3.3895 c -0.521,-2.5557 -3.167,-4.0458 -3.019,-6.9921 0.112,-1.6741 1.079,-2.534 2.158,-3.3339 0.07,-0.9672 0.149,-1.9352 0.26,-2.8987 0.08,-0.8705 0.267,-1.7115 0.527,-2.556 l 0.223,-1.1113 c -0.483,-1.2945 -0.528,-2.7997 -0.491,-4.3249 1.041,-8.3738 4.359,-16.2701 2.871,-24.949 -0.633,0.5655 -1.413,0.8218 -2.677,0.093 l 0.26,-6.7513 c -0.632,-2.5669 -0.449,-4.3697 0.555,-5.5936 0.26,-1.834 0.07,-3.6708 -0.185,-5.4825 -0.149,-1.8339 -0.371,-3.6485 -0.259,-5.4825 0.149,-0.212 0.295,-0.4231 0.481,-0.6575 -0.558,-3.694 0.3,-7.4577 1.602,-10.7983 1.228,-3.1286 1.897,-6.1561 2.529,-9.3813 0.409,-2.0906 0.893,-4.1402 2.195,-5.7881 l 0.04,0.1203 3.158,-16.0399 c 0.04,-0.6101 0.08,-1.2274 0.157,-1.8152 -0.298,-0.5171 -0.306,-1.1495 -0.306,-1.7596 l -0.333,-2.1207 c -0.372,-0.093 -0.739,-0.3008 -1.037,-0.5835 l 0.37,-1.4632 c -0.186,-0.4948 -0.19,-1.009 -0.07,-1.5744 -0.335,-0.8445 -0.178,-1.5684 0.565,-2.1115 l 0.04,-0.3056 c -1.302,0.6361 -2.79,0.4952 -4.167,0.7779 l -1.306,-0.4538 c 0.558,-2.0013 1.007,-4.0203 1.676,-5.9733 0.335,-0.9635 1.414,-1.1262 2.047,-0.6575 0.967,0.7068 1.857,1.5487 2.713,2.3708 0.596,-2.0906 0.824,-4.2506 0.824,-6.4827 0,-1.7409 0.185,-3.5525 0.371,-5.3158 -1.154,-4.5645 1.227,-8.8259 2.269,-13.1783 0.112,-2.2321 0.561,-4.3941 1.565,-6.4179 l 0.148,-0.4908 c -0.298,-0.097 -0.601,-0.35 -0.787,-0.7964 3.906,-12.3023 8.186,-24.4911 12.873,-36.5067 -0.07,0.071 -0.222,0.1183 -0.371,0.1666 -0.372,0.1191 -0.556,-0.1839 -0.63,-0.9168 -0.521,-3.2923 0.592,-5.9705 3.233,-7.9459 0.298,0.1637 0.638,0.2315 0.935,0.2315 0.07,0.1153 0.07,0.2126 0.148,0.3056 1.711,-4.1851 3.53,-8.3748 5.427,-12.5115 l -3.047,0.3056 c 1.525,-3.88 4.907,-6.8176 5.39,-11.3076 0.07,-0.8706 1.561,-1.6505 2.38,-2.4727 l 0.222,2.4727 c 3.162,-6.8449 6.515,-13.6222 9.863,-20.3927 l 1.677,-3.3154 c 3.571,-8.6082 7.957,-16.8658 14.021,-23.9674 1.749,-1.2016 2.681,-3.0839 3.871,-4.8249 l 6.029,-8.8165 3.084,-4.3989 3.195,-4.2786 1.676,-2.7783 c 0.372,-2.4218 1.527,-4.3444 3.834,-5.4269 v -0.028 l 1.639,-2.1393 c 0.669,-2.7491 1.711,-5.2907 4.612,-6.3993 h -0.148 c 1.154,-3.4336 3.342,-6.3519 5.649,-9.2239 3.943,-4.9848 7.817,-10.0653 12.095,-14.7898 4.465,-5.0109 8.737,-10.2972 14.132,-14.0581 2.417,-1.648 3.874,-3.319 5.473,-5.5288 3.943,-5.2675 7.438,-11.1787 13.799,-14.0952 l 0.408,-0.6946 0.629,-0.5927 c 3.497,-5.2229 8.075,-9.5755 12.873,-13.6229 1.154,-1.3876 2.308,-2.7749 4.019,-3.5747 l 3.538,-2.306 c 0.93,-0.7961 1.893,-1.5502 3.047,-2.0189 l 2.676,-1.8614 2.723,-2.4912 0.445,-0.6298 0.592,-0.4723 c 0.186,-1.0119 0.747,-1.6231 1.862,-1.4817 l 0.04,-0.028 c 3.869,-4.1144 8.222,-7.6647 13.095,-10.6779 1.675,-1.0119 3.198,-2.1862 4.723,-3.3617 1.6,-1.1532 3.124,-2.3218 4.723,-3.4266 2.233,-1.529 4.5,-2.9407 6.77,-4.3989 l 3.019,-2.1393 c 4.427,-4.3748 9.934,-7.2202 15.253,-10.2334 l 1.629,-1.0835 c 0.856,2.9835 0.859,3.057 -2.75,5.4825 1.451,0.1376 2.754,-0.4546 4.093,-1.1576 1.563,-0.8705 3.16,-1.6918 4.76,-2.3986 1.377,-0.6101 2.16,0.261 1.862,2.0466 -0.07,0.4947 -0.333,1.011 -0.519,1.5281 l -0.111,0.8983 c 0.26,-0.1413 0.555,-0.2846 0.815,-0.426 2.084,1.2239 2.685,2.8757 0.75,4.825 -1.227,1.2463 -2.753,2.2568 -4.13,3.3617 l -0.08,-0.046 c -0.706,-0.5431 -1.487,-0.516 -2.306,-0.2593 -0.521,0.097 -1.008,0.2139 -1.491,0.426 -1.078,-0.1637 -1.63,-0.6432 -1.816,-1.4169 -1.376,0.7737 -2.836,1.4095 -4.436,1.8336 l 0.491,0.565 -0.296,1.1761 c -0.781,1.1272 -1.791,1.9485 -3.093,2.3986 -1.228,0.1377 -2.193,0.025 -2.714,-0.6112 l -0.555,0.1944 c -0.967,1.5996 -1.822,3.2216 -2.677,4.8435 l -0.75,0.778 c -1.154,-0.331 -2.301,-0.8033 -3.491,-0.9447 -0.41,0.6102 -0.712,1.2914 -0.973,2.0652 -1.152,3.5303 -3.794,4.8239 -6.584,5.9548 -2.79,1.1272 -5.798,1.9553 -7.733,4.3064 -1.041,0.8222 -2.126,1.5974 -3.242,2.2782 -2.716,0.9412 -5.247,2.8673 -8.112,3.2691 0.261,0.5655 0.379,1.2174 0.268,1.9726 -1.526,3.0095 -0.301,5.9811 -1.157,8.9646 l 1.75,-1.1113 c 0.335,0.3088 0.702,0.5179 1.148,0.6853 l 0.528,0.7501 c 0.297,0.5654 0.445,1.1845 0.445,1.843 -0.04,1.0341 -0.266,2.0165 -0.676,3.0283 -0.372,0.9859 -0.887,1.9483 -1.408,2.8894 -0.372,0.6138 -0.748,1.2311 -1.269,1.7966 -0.893,1.1271 -2.079,2.024 -3.158,3.0098 -0.819,0.7068 -1.635,1.4535 -2.602,2.0189 -0.93,0.6101 -1.903,1.0876 -2.945,1.4633 -2.79,1.2238 -3.122,4.319 -5.093,6.1307 -1.154,1.1532 -2.384,2.2851 -3.872,2.8246 0.483,-0.022 0.934,-0.021 1.343,0.1204 0.447,0.2604 0.777,0.6094 1.038,1.0558 0.483,-1.2425 1.42,-2.1186 2.685,-2.6394 0.372,-0.071 0.702,-0.109 1.037,-0.1574 l 2.418,-2.1856 2.454,-2.8061 3.945,-2.9635 2.306,0.8242 c 1.6,-1.5066 2.229,-3.2639 3.121,-5.3806 0.894,-2.0945 -1.516,-3.6924 0.194,-5.1954 1.824,-1.6219 4.233,-1.6487 6.427,-2.0467 1.116,-0.1897 2.274,-0.3069 3.427,-0.4445 5.245,-3.694 9.337,-9.0876 15.475,-11.5577 l -0.519,-0.5834 c 2.492,-1.4582 5.092,-2.779 7.733,-3.9545 1.972,-0.8706 4.953,0.8964 5.585,3.0839 2.567,-3.9024 5.801,-6.6111 9.261,-9.1035 l 9.483,-4.047 c 2.158,-1.317 4.241,-2.7964 6.325,-4.2323 -0.41,-0.2828 -0.776,-0.6117 -1.148,-0.9168 0.484,-2.0014 1.789,-3.2459 3.686,-3.9267 0.447,0.7775 0.999,1.5487 1.222,2.3708 1.971,-1.2685 4.055,-2.4227 6.288,-3.3154 0.632,-0.8706 1.155,-2.3422 1.899,-2.5097 5.32,-1.1978 9.33,-5.3193 14.539,-6.6586 l -0.37,-0.6113 4.834,-1.9726 c 0.298,-1.2685 1.422,-1.6709 2.575,-2.0466 0.261,0 0.481,0.048 0.704,0.093 1.674,-1.2462 3.529,-2.0236 5.575,-2.2319 1.897,-0.1898 3.651,-0.8036 5.325,-1.7225 0.446,-1.5996 0.892,-3.1722 0,-4.6305 1.265,-3.5749 3.983,-5.8324 8.075,-6.7513 5.617,1.953 2.004,4.0718 0.07,6.14 0.186,-0.071 0.37,-0.1145 0.556,-0.1852 1.525,-0.5654 3.013,-1.1512 4.464,-1.7873 1.562,-0.7738 3.086,-1.673 4.5,-2.8709 3.013,-2.5631 6.624,-4.0212 10.493,-4.4453 0.708,-0.398 1.413,-0.7079 2.343,-0.6112 0.26,0.044 0.527,0.1609 0.787,0.2315 l 1.149,0.1667 c 1.562,-0.212 3.05,-0.5411 4.575,-0.9168 0.781,-0.4725 1.635,-0.8677 2.565,-0.7039 2.381,-0.6808 4.694,-1.5045 7.038,-2.2782 l 3.603,-1.0187 2.343,-1.0094 c 0.41,-0.5654 0.896,-1.0299 1.454,-1.454 0.744,-0.7775 1.56,-1.2533 2.528,-1.4169 0.744,-0.3534 1.487,-0.6838 2.232,-1.0372 l 1.676,1.1576 c 0.558,-0.2121 1.117,-0.3979 1.713,-0.4909 0.856,-0.1414 1.674,-0.4303 2.529,-0.713 -0.669,-0.4464 -1.303,-0.9373 -1.973,-1.3614 3.088,-1.1049 6.21,-1.998 9.335,-3.0098 l 0.408,-0.426 c -0.446,-0.071 -0.925,-0.2103 -1.408,-0.4446 -1.674,-0.8929 -0.08,-1.6214 0.593,-2.3059 2.864,-0.5617 5.323,-2.0196 7.964,-3.1951 1.823,-0.8259 3.642,-1.6505 5.464,-2.4726 1.861,-0.7291 3.723,-1.4346 5.658,-2.093 3.832,-1.3169 7.808,-2.4255 12.049,-3.0839 -0.781,3.3145 -3.121,4.4538 -5.353,5.5103 -3.534,1.6926 -7.18,3.1549 -10.752,4.7508 0.298,0.026 0.629,0.02 0.926,0.065 0.223,0.026 0.453,0.076 0.713,0.1018 l 0.852,-0.213 c 2.53,-0.5431 5.092,-1.1288 7.659,-1.7873 0.744,-0.517 1.452,-1.1618 2.121,-1.9356 0.558,-0.7068 1.904,-1.0055 2.908,-1.5003 h -0.05 c 2.641,0.9189 4.992,0.5674 7.149,-1.315 0.484,-1.4582 1.671,-1.4127 3.01,-1.1299 1.079,0.071 2.191,-0.072 3.232,-0.3056 l 1.269,-0.5186 c 0.409,-0.5617 0.86,-1.15 1.38,-1.667 1.228,-1.0603 2.004,-2.429 3.083,-3.5562 2.38,-1.8117 4.915,-2.8645 7.557,-3.5006 -1.34,-0.2344 -2.791,-0.7104 -4.241,-1.3428 -0.484,-0.097 -0.934,-0.071 -1.38,0.093 -0.335,-1.1048 -0.674,-2.2066 1.074,-2.9358 2.232,-0.9188 4.993,-0.7776 6.816,-2.6116 l 10.336,-1.4817 c 0.297,-0.6585 0.377,-1.5095 0.935,-1.9819 0.669,-0.5878 1.673,-0.3264 2.306,0.213 1.376,1.2016 2.679,2.4676 3.982,3.7137 -0.819,1.1533 -1.902,1.7721 -3.538,1.4447 -1.08,-0.212 -2.237,-0.3048 -3.315,-0.4723 l -1.445,1.7874 c -1.413,1.3392 -2.864,2.2811 -4.352,2.9172 2.493,0 4.981,0.1625 7.473,0.2593 1.265,-0.5172 2.275,-0.1006 3.242,0.4167 l 1.148,-0.4445 3.389,1.102 1.704,-1.6391 c 5.989,-3.482 7.181,2.7275 10.827,3.7877 0.558,0.5394 0.934,1.1269 1.083,1.8337 0,1.1049 -0.451,2.0653 -1.195,2.9357 -0.595,0.5172 -1.228,0.9413 -1.972,1.2687 -1.935,0.6361 -3.939,0.7809 -5.835,1.417 0.446,-0.022 0.888,-0.03 1.334,-0.056 2.828,-0.093 5.62,-0.4611 8.261,-1.3799 1.451,-0.5172 2.939,-0.8749 4.426,-1.1576 -0.186,-0.071 -0.369,-0.092 -0.555,-0.1852 -1.079,-0.7775 -1.638,-1.7934 -1.713,-2.9913 0,-1.1308 0.523,-2.1612 1.268,-3.1024 2.752,-4.7022 8.218,-1.202 11.901,-2.9913 l 0.222,0.028 c 0.297,-0.8966 1.003,-1.524 2.491,-1.6207 1.972,-0.1153 3.946,-0.098 5.918,-0.1204 3.496,-0.048 6.995,1.2511 10.418,-0.2778 0.148,-0.4465 0.224,-0.9205 0.149,-1.3892 0.372,-0.1191 0.775,-0.2126 1.185,-0.3056 -1.637,-1.9753 -0.998,-3.8615 0.676,-5.6955 0.968,-0.8258 2.376,-0.9116 3.566,-1.2873 3.721,-1.7186 7.892,-0.9157 11.835,-1.1761 0.484,0.2604 0.961,0.536 1.482,0.7964 3.311,1.5997 6.4,3.3136 10.492,1.1299 1.488,-0.7775 3.123,0.7053 4.724,1.2224 4.947,1.5513 9.863,3.0381 14.289,-1.0094 1.712,-1.5512 3.198,-1.3426 4.834,0.7964 1.08,1.4137 2.345,2.0249 4.094,2.3523 2.343,0.4725 4.612,0.2835 6.881,-0.1852 1.748,-0.3757 3.46,-0.072 4.575,1.4354 2.456,0.1636 4.908,0.6538 7.251,-0.1944 0.67,-0.4464 1.378,-0.8666 1.973,-1.3614 1.748,-1.3169 2.123,-1.8524 1.379,-3.1209 -1.004,-0.071 -1.977,-0.1019 -2.982,-0.1019 -2.306,-0.2567 -4.418,-0.8674 -6.316,-2.0652 -0.483,-0.3757 -0.859,-0.73 -1.194,-1.0835 -2.046,0.9858 -3.983,0.9823 -5.844,0.018 -0.186,0.097 -0.371,0.2126 -0.519,0.3056 -3.237,1.3913 -6.285,0.9178 -9.372,0.2593 -3.05,-0.6361 -6.1,-1.643 -9.224,-1.6207 -1.824,-0.2121 -3.687,-0.3061 -5.362,-1.0835 -0.595,-0.3534 -1.072,-0.8001 -1.444,-1.2688 -3.199,2.1167 -6.441,1.4644 -9.826,-0.065 -1.116,-0.9412 -1.558,-2.0541 -1.075,-3.371 0.484,-0.5655 1.035,-0.9397 1.667,-1.2224 -4.576,-0.1414 -9.15,0.1001 -13.613,-0.815 -0.372,-0.2121 -0.814,-0.3882 -1.26,-0.5742 -2.641,0.8705 -5.249,1.8367 -7.816,2.0004 -2.566,0.1897 -5.093,-0.3291 -7.585,-2.6579 -1.935,2.2581 -5.843,1.5579 -8.075,3.2506 -0.856,0.1413 -1.636,0.1167 -2.454,-0.046 -1.079,-0.5171 -1.749,-1.2962 -2.084,-2.2597 v -0.3982 c -0.595,-0.1154 -1.118,-0.3302 -1.602,-0.639 -1.823,-0.9151 -3.678,-1.9079 -5.538,-2.7783 4.278,-1.503 8.705,-1.143 13.132,-0.6483 l 5.13,0.3242 h 0.01 l 3.639,-0.3797 c 1.525,-0.5878 3.049,-0.8225 4.575,-0.7965 1.562,0.071 3.088,0.4002 4.575,0.8243 4.316,-0.7031 8.559,0.2046 12.799,0.4167 h 1.824 c 1.674,-1.3169 4.17,-0.1122 5.918,-1.1947 3.497,0.7068 6.997,1.5285 10.493,2.306 2.084,0.048 4.121,0.066 6.204,0.1852 1.823,0.093 3.542,0.4681 4.547,1.9263 1.897,1.9047 3.34,4.0959 6.613,4.825 l 2.278,-1.0558 c 2.009,-1.6926 5.503,-0.4764 7.548,-2.1207 l 5.427,0.7316 2.157,0.1389 c 2.53,-0.7328 4.844,-0.1836 7.002,1.2039 l 1.778,0.3519 6.927,2.3986 c 1.116,-0.8705 2.522,-1.0829 4.084,-0.7779 l 7.038,1.5281 c 6.659,0.8481 13.281,2.1117 19.68,4.2507 2.641,0.3311 5.277,0.7288 7.955,0.9632 5.431,0.5878 10.456,2.3564 14.92,5.3436 3.386,1.5736 6.885,2.8477 10.27,4.3989 3.348,1.5996 6.655,3.3414 9.594,5.5288 0.223,0.3758 0.48,0.723 0.741,1.0095 l 1.121,0.213 c 5.023,1.6703 10.045,3.3181 14.956,5.3158 -0.372,-1.0825 -1.227,-1.8167 -2.38,-2.3338 -0.818,-0.3534 -1.973,-0.7244 -1.676,-1.5466 0.41,-1.1272 1.747,-0.7108 2.862,-0.3797 0.559,0.1637 1.118,0.3992 1.713,0.6112 9.375,3.3406 18.601,7.1516 28.199,9.7148 1.749,0.4464 3.721,1.1988 4.353,2.8431 1.154,3.0579 4.352,3.6261 6.844,5.0843 4.911,0.7998 9.261,3.3381 13.725,5.4547 l 0.704,0.028 0.602,0.4167 c 0.632,0.1637 1.257,0.3528 1.852,0.5649 2.232,0.7291 4.353,1.6739 6.436,2.6857 2.084,1.0826 4.13,2.1852 6.251,3.1487 1.674,0.7775 2.943,2.0012 3.612,3.5748 l 2.936,1.6021 c 2.381,1.741 5.289,2.8727 7.483,5.5288 -3.385,0.6361 -6.139,-0.5694 -8.854,-2.5931 -0.447,-0.1637 -0.86,-0.3784 -1.269,-0.6575 l -1.565,2.1208 c 2.157,2.139 4.99,3.3165 7.594,4.7971 2.382,0.6584 4.797,0.9181 6.955,2.3986 0.186,1.0825 0.671,2.3082 1.825,2.6579 2.604,0.8258 4.539,2.2346 6.436,4.2323 1.563,1.5996 4.011,2.5583 6.057,3.7599 1.042,0.6584 2.312,1.3156 3.204,0.7502 2.047,-1.2686 3.612,-0.8157 5.844,1.1113 1.116,0.9895 3.272,0.9595 4.945,1.3799 2.344,1.7893 5.132,3.3195 6.992,5.4362 4.985,5.7624 11.124,9.5748 17.522,13.3357 5.989,6.0005 12.688,11.1539 19.272,16.4475 1.601,1.2686 3.121,3.0058 5.279,2.6301 0.893,-0.026 1.746,0.021 2.639,0.6576 4.167,3.4336 8.445,6.8653 10.752,11.8725 6.845,5.1523 12.685,11.6911 19.865,16.5123 2.864,1.555 4.913,3.8841 6.066,6.9643 -1.599,3.9023 -5.321,1.6715 -8.335,1.4817 l 1.083,1.2225 c 4.427,5.1485 4.727,6.3266 10.604,3.3617 0.521,-0.2604 1.036,0.1152 1.334,0.889 -0.372,1.3429 -0.777,2.7576 -1.149,4.1675 -4.39,2.3772 -4.578,2.3959 -8.075,-0.9446 -1.488,-1.3876 -2.792,-2.961 -4.205,-4.4453 -1.674,0.6845 -1.673,2.6354 -2.454,4.0007 -0.744,1.3168 0.487,2.3313 1.417,3.3432 0.782,0.331 1.562,0.6083 2.38,0.4446 v -0.019 -0.028 c 1.116,-0.6845 2.302,-0.3961 3.603,0.426 1.452,0.8929 2.937,1.5988 4.426,2.3985 2.194,2.4478 0.824,3.029 -1.111,3.334 v -0.019 c -1.785,-1.0379 -3.577,-2.0698 -5.325,-1.88 l -0.259,0.8427 -0.63,0.8243 -0.815,0.6112 c -0.633,0.2343 -1.339,0.3781 -2.084,0.3334 -0.483,-0.1413 -1.007,-0.213 -1.454,-0.213 -1.264,0.6325 -1.335,1.359 -0.666,3.2413 0.818,0.5171 1.599,1.0578 2.083,1.88 0.112,0.1153 0.111,0.2421 0.185,0.3612 0.186,-1.4843 0.443,-2.8263 1.112,-3.7415 -0.148,-0.3088 -0.223,-0.5898 -0.148,-0.8242 0.04,-0.1636 0.258,-0.2845 0.444,-0.426 0.26,-0.022 0.564,0.094 0.898,0.3056 0.968,-0.3534 2.271,-0.2589 4.205,0.5186 0.08,1.5029 0.111,3.0553 0.148,4.5842 0.07,1.596 -1.976,2.496 -0.898,4.4453 0.186,-0.071 0.489,0.025 0.861,0.2593 1.376,0.1413 2.152,1.5739 3.306,2.1393 l 0.371,0.4723 0.379,0.4723 c 0.298,1.5773 -0.485,2.0432 -1.787,1.9726 0,0.3311 -0.07,0.7078 -0.185,1.0835 -0.595,0.9189 -1.487,1.3394 -2.64,1.2688 1.748,1.0341 3.236,2.4479 4.39,4.3526 0.372,0.9412 0.332,1.8539 -0.08,2.7505 -0.521,0.7514 -1.229,1.2029 -2.01,1.4633 0.558,0.491 1.118,0.9866 1.565,1.5743 1.339,1.4583 2.489,3.0572 3.01,5.0102 0.111,0.7515 0.146,1.4547 0.04,2.1578 -0.04,0.1897 -0.07,0.3272 -0.07,0.4908 l 1.788,2.4727 c 0.966,0.1414 2.044,0.1468 2.565,0.8983 0.373,0.2604 0.702,0.5378 1.074,0.8428 0.372,-0.4464 0.786,-0.8208 1.232,-1.2225 0.07,-0.093 0.184,-0.1423 0.259,-0.213 l 0.04,-0.7964 c 0.298,0.048 0.563,0.1347 0.861,0.2315 0.707,-0.3534 1.452,-0.608 2.158,-0.9354 1.935,-0.6138 3.974,-0.38 6.094,0.5835 l 0.157,0.074 c 0.446,0.2566 0.814,0.613 1.075,1.0372 0,-0.048 0.04,-0.072 0.07,-0.1204 0.224,-0.212 0.516,-0.1641 0.926,0.093 l 0.63,0.6575 c 0.112,-1.5067 0.823,-2.8014 0.898,-4.3526 -0.186,-1.0119 -0.563,-1.9945 -0.972,-2.9357 -0.335,-0.6845 -0.592,-1.4177 -0.741,-2.1208 -0.07,-6.2571 2.272,-7.9018 7.853,-3.408 2.418,1.2686 4.049,3.4319 5.649,5.6677 1.45,1.9977 2.862,3.9551 5.168,4.6582 1.079,1.6257 2.127,3.201 3.019,4.8713 0.335,-0.7515 1.151,-1.6079 2.38,-2.8987 0.966,0.044 1.894,0.2876 2.639,1.065 l 3.983,5.6678 h -0.186 c -0.111,0.8445 0.41,1.81 -0.148,2.5838 l -6.325,-0.8706 c -0.297,-0.4241 -0.518,-0.7486 -0.778,-1.102 0.223,1.0119 0.297,2.0918 0.222,3.2413 -0.26,5.0593 0.486,5.3161 6.4,8.3256 l 0.222,0.1389 c 2.343,2.2581 3.974,4.8026 1.407,7.0384 -1.413,1.2685 -1.817,2.5386 -1.333,4.0192 0.41,-0.3311 0.776,-0.6158 1.259,-0.8242 0.855,-0.3534 1.755,-0.347 2.686,0.2408 l 3.158,4.9546 c 0.595,0.2567 1.229,0.5651 1.787,0.9631 0.297,0.4241 0.628,0.8249 1.038,1.1299 3.162,2.6822 7.479,4.2334 8.149,9.6684 0.26,1.9977 -0.146,3.7415 -0.518,5.4825 0.26,0.022 0.481,0.065 0.741,0.1574 0.892,0.4687 1.526,1.1552 1.898,2.1671 0.893,1.927 2.68,2.6317 3.908,4.0193 1.748,0.1153 3.457,0.3127 5.168,0.3611 2.046,0.071 3.237,1.4522 4.167,3.6396 0.447,1.0565 1.304,1.9962 1.973,2.982 0.372,-0.093 0.739,-0.1591 1.111,-0.2037 4.613,3.4783 5.361,8.5817 5.733,13.734 -0.223,1.6442 0.711,2.8724 1.417,4.26 0.894,1.953 1.674,3.9921 2.38,6.0382 0.112,0.398 -0.231,1.1771 -0.565,1.3891 -0.744,0.4688 -1.369,-0.2315 -1.778,-1.102 -0.41,-0.8482 -0.749,-1.6985 -1.121,-2.5653 -2.567,0.4464 -4.355,-0.5191 -5.807,-2.1671 l 0.186,0.5001 c 2.158,5.6656 2.053,6.0153 -1.815,6.6031 l -0.05,-0.018 c -0.447,-0.119 -0.886,-0.075 -1.333,0.018 0.931,1.953 1.857,3.9053 2.713,5.8807 0.781,1.927 1.447,3.9487 3.121,5.288 0.148,0.517 0.415,0.9949 0.787,1.3706 0.707,0.4241 1.415,0.8662 2.01,1.454 l -0.08,0.093 c 0.04,1.317 0.183,3.7883 -1.602,2.3523 -2.567,-2.0906 -5.317,-4.1081 -7.14,-7.2143 -1.19,-0.8221 -1.668,-1.9018 -1.333,-3.3154 l -0.751,-1.7226 c -0.372,-1.6964 -0.03,-3.0297 0.973,-4.0192 -0.409,-0.022 -0.823,-0.1374 -1.232,-0.4908 -0.447,0.7998 -1.118,1.2701 -2.01,0.5186 -1.302,-1.0825 -2.383,-2.4767 -3.574,-3.7229 -0.595,-0.7515 -1.293,-1.2176 -2.038,-1.5003 v 0.046 l -2.537,1.102 h 0.08 c 0.409,1.3169 0.48,2.5643 -0.08,3.6952 0.558,1.5996 1.155,3.2013 1.639,4.7971 0.26,0.8482 0.638,1.5039 1.047,1.9726 1.897,0.2827 4.087,-0.6304 5.797,0.426 2.307,0.7069 3.311,2.6123 4.167,4.6583 0.819,2.046 1.337,4.2986 2.899,5.6862 l -0.07,-0.093 c 1.935,1.1273 2.569,2.7065 1.602,4.7972 -0.707,1.2723 -1.006,2.569 0.334,3.8896 0.632,0.305 1.071,0.8364 1.481,1.4725 3.98,-0.2827 4.132,0.1 5.918,4.9917 0.297,0.8221 0.86,1.5524 1.269,2.3522 1.005,4.9402 0.745,5.5259 -2.38,6.2327 -1.228,0.2828 -2.385,0.281 -3.464,-0.8983 l -2.75,1.0835 c -0.446,2.1874 -2.125,2.4204 -3.612,2.9635 0.149,0.4948 0.333,0.9448 0.593,1.3428 1.153,-0.044 2.201,0.2751 3.056,1.3799 v -0.019 c 0.707,0.2604 1.34,0.7506 1.824,1.5281 0.223,0.1637 0.48,0.2867 0.778,0.3797 -0.04,-0.048 -0.04,-0.1 -0.04,-0.1482 -0.111,-3.7164 1.006,-4.7684 4.056,-3.6859 1.004,0.3497 1.821,1.1773 2.788,1.7874 0.967,0.8705 1.153,2.3968 2.195,3.2413 0.111,0.5431 0.294,1.0796 0.555,1.5744 -0.67,3.5266 -0.963,3.8099 -3.195,2.519 -0.261,-0.1674 -0.526,-0.3272 -0.787,-0.4909 0.67,1.715 1.488,3.3882 2.38,5.0102 0.447,0.7552 0.521,1.7371 -0.148,2.2319 -0.335,0.2604 -0.923,0.1207 -1.37,-0.046 -1.451,-0.6101 -2.68,-1.6238 -3.797,-3.0561 -1.041,-1.3429 -2.234,-3.3219 -3.723,-2.6857 -0.967,0.4203 -1.223,1.1817 -1.186,2.0745 0.186,0.5654 0.37,1.1477 0.593,1.7132 0.335,1.0565 1.265,1.9314 1.861,2.9172 1.301,0.6845 1.521,1.7633 1.001,3.1025 l 0.453,1.8336 c 0.595,0.4464 0.706,1.014 0.371,1.6948 l 0.815,4.5657 4.167,-1.204 0.926,0.213 0.38,0.213 2.454,-0.5649 0.334,-0.9353 c 1.637,0.8444 3.271,1.4314 4.982,1.0557 3.162,-0.1637 1.226,-4.0906 2.639,-6.0659 1.079,2.6114 2.052,4.9853 3.019,7.3624 0.818,2.5632 1.784,5.0697 2.38,7.6589 0.297,1.4099 -0.597,2.051 -1.75,1.4632 -0.967,-0.517 -1.859,-0.7297 -2.38,0.5649 -0.558,1.3839 -0.597,2.7954 0.519,4.0193 0.707,0.7998 1.488,1.5268 2.232,2.2782 0.785,0.019 1.201,0.6409 1.509,1.4539 l -1.5,-1.3984 h -0.05 c 0.386,0.7105 0.938,1.0865 1.546,1.3984 0.05,0.1321 0.203,0.086 0.241,0.2408 2.045,2.5631 2.042,5.9584 2.824,9.0387 l 0.408,0.5094 0.111,0.7038 c 2.864,4.7989 2.98,10.3995 3.686,15.8085 0.633,5.7623 1.341,11.5038 1.676,17.2624 -0.149,0.1898 -0.342,0.3974 -0.491,0.5834 0.07,2.4701 -0.737,4.995 0.713,7.2977 0.521,1.1049 0.999,2.2527 1.408,3.4543 0.261,1.1978 0.342,2.4212 0.454,3.6674 0.04,0.7999 0.07,1.5988 0.04,2.3986 -0.335,2.3026 -0.04,4.5618 0.482,6.7975 0.112,0.7999 0.185,1.6043 0.185,2.4264 v 3.7599 c 0,0.8444 -0.111,1.6783 -0.26,2.5005 -0.744,3.2215 -1.076,6.3676 -0.815,9.4739 l 0.334,2.2505 c 0.372,1.7186 0.931,3.4139 1.75,5.0842 0.26,0.7775 0.518,1.5524 0.667,2.3708 0.148,2.0943 0.813,3.9959 1.222,6.0011 0.112,0.9151 0.158,1.8446 0.121,2.7598 0.297,-0.1823 0.593,-0.4867 0.741,-1.0372 0.707,-2.5855 1.602,-5.1091 1.565,-8.0108 -0.07,-5.0704 0.18,-10.0515 1.222,-14.9657 l -0.148,-0.1204 c -1.86,-1.9977 -1.782,-5.2487 -3.158,-7.5291 -0.818,-2.3734 -1.308,-4.7749 -0.639,-7.4088 1.153,-2.9388 -1.631,0 -1.371,-1.6021 -1.711,-2.325 -2.348,-5.2148 -1.12,-7.6589 2.753,-5.528 3.576,-11.3865 3.278,-17.2902 -0.371,-5.9037 -1.718,-11.855 -2.76,-17.781 2.269,-1.2239 3.238,-1.014 4.094,0.9168 1.897,4.4194 1.974,9.1063 1.491,13.7155 -0.298,3.4559 -0.629,6.7242 1.528,9.6407 l -0.454,13.7617 c -0.07,2.5631 0.336,4.8913 1.936,6.7513 1.934,4.4679 0.822,9.3801 1.194,14.0859 -0.26,0.5878 -0.517,0.9807 -0.741,1.241 0.633,3.0319 0.18,5.9565 -0.935,8.6127 -1.712,4.2333 -2.27,8.73 -2.084,13.4099 l -1.296,3.9266 c 0.261,0.4426 0.333,0.9387 0.259,1.4818 0.335,0.2158 0.702,0.3901 1.074,0.5278 l 1.232,2.0004 c 0.07,0.5357 0.184,1.0665 0.296,1.5836 1.488,2.4589 0.443,3.8047 -1.268,5.0658 -2.083,1.5587 -4.205,-0.7694 -6.251,0.2685 1.972,2.511 4.617,4.6168 3.426,9.1777 l 0.04,0.046 c -0.484,1.5624 -2.044,0.9244 -2.676,2.167 -0.224,1.0118 -0.408,2.0276 -0.519,3.0469 -0.04,0.3832 -0.08,0.7542 -0.148,1.0928 -0.261,2.3101 -0.334,4.6354 -0.185,6.9827 0.595,1.8303 0.373,3.6467 -0.26,5.4547 -0.186,0.074 -0.342,0.094 -0.49,0.139 1.339,2.4217 -0.596,5.3737 0.296,7.881 -0.111,0.5208 -0.07,1.026 0.08,1.5096 -1.228,7.9795 -1.155,16.1833 -3.76,23.9396 -0.148,1.8786 -0.403,3.7931 -1.593,5.1583 -0.521,0.5655 -1.377,0.9003 -2.009,0.8891 -0.818,-0.015 -1.158,-1.0259 -1.084,-1.9448 0.186,-2.1427 0.527,-4.2844 0.713,-6.4271 0.149,-1.968 -0.373,-3.5544 -1.787,-4.4546 l 0.222,-3.3895 c 0.07,-2.8607 -0.746,-5.8581 0.148,-8.5849 -0.112,-0.3199 -0.222,-0.6338 -0.333,-0.9724 -0.261,-1.0304 -0.564,-2.0516 -0.898,-3.0746 l -0.334,-0.9354 c -0.298,-0.6026 -0.555,-1.1957 -0.778,-1.8244 -0.26,-0.5952 -0.527,-1.1956 -0.713,-1.8429 -0.223,-0.6361 -0.406,-1.2844 -0.518,-1.9726 -0.26,-1.3801 -0.181,-2.7963 -0.07,-4.2137 v -2.1208 l -0.05,-0.1111 c -0.373,0.01 -0.777,-0.062 -1.149,-0.2223 -2.306,-2.6747 -4.024,-5.3011 -5.177,-7.8903 -0.04,0.1562 -0.111,0.3013 -0.148,0.4537 0.632,0.6994 0.826,1.6964 0.306,3.0654 -0.596,1.6517 -1.047,3.22 -1.158,4.7972 l 1.38,-0.2037 c 0.744,1.8377 1.073,3.783 1.185,5.7695 l 0.482,0.4724 2.612,3.8155 c 1.078,2.1874 1.07,4.4768 -0.232,6.6493 -0.111,0.1488 -0.222,0.2977 -0.333,0.4353 0.297,2.273 0.409,4.5723 0,6.9457 -1.191,5.6657 -1.039,11.3705 -0.63,17.1143 0.521,0.026 1.081,0.01 1.602,0.083 2.53,0.372 3.272,1.1014 2.417,3.0098 -1.153,2.5408 -1.082,5.1733 -1.491,7.7885 0.111,1.86 -0.219,3.6545 -0.963,5.3806 -0.446,5.156 -3.652,9.2796 -4.917,14.1045 0.112,0.4798 0.04,0.9316 -0.186,1.3706 0.372,0.3199 0.748,0.6139 1.195,0.8705 -1.451,4.7059 -3.123,9.3469 -4.723,14.0119 -1.637,4.6389 -3.084,9.3399 -4.908,13.9007 l -0.676,3.2876 c 0.595,2.764 -0.183,5.4658 -1.038,8.1034 -0.819,2.4031 -1.234,4.783 -0.861,7.2606 -3.088,7.5032 -7.55,14.3741 -9.187,22.4578 l 0.861,2.4541 c -0.149,0.5208 -0.189,1.0443 -0.08,1.5651 l 2.158,2.2505 c 0.372,-0.2195 0.748,-0.4142 1.195,-0.6113 4.91,-2.1986 6.584,0.578 6.473,5.3992 -1.787,4.3971 -4.361,8.4213 -6.742,12.5208 -2.381,4.0958 -4.495,8.2911 -5.76,12.9746 l -1.121,3.1858 c -0.04,3.3815 -3.604,5.7622 -3.158,9.3073 l -2.491,5.0842 c -0.186,4.0883 -4.24,6.7453 -4.538,10.8076 -0.111,0.5729 -0.304,1.1349 -0.528,1.6855 -2.343,3.8503 -2.714,8.9885 -6.992,11.6595 -5.543,11.5433 -12.425,22.4454 -19.939,32.8579 l 0.26,-0.074 c 1.042,-0.5468 2.2,-0.9303 3.093,-1.6855 1.525,-1.3131 3.086,-1.8168 4.797,-1.4076 -1.153,3.5861 -2.601,7.0445 -5.242,9.9833 -1.265,1.4099 -2.347,3.0069 -3.426,4.5842 -4.315,6.2124 -9.487,11.8705 -13.132,18.5034 -0.67,1.7559 -1.267,3.543 -1.825,5.3621 l 0.371,-0.3705 c 5.283,-6.5621 10.348,-13.3661 15.817,-19.7907 2.827,-3.6048 5.652,-5.165 7.326,-2.2411 l 2.009,-2.6023 c 1.228,-1.5922 2.449,-3.2326 3.603,-4.8806 -0.372,0.1748 -0.813,0.3733 -1.297,0.5927 l 1.825,-5.5751 c -0.07,-1.7076 0.594,-2.7867 2.38,-2.9727 0.298,0.2604 0.592,0.5028 0.889,0.7223 -0.07,0.8556 -0.148,1.581 -0.222,2.2134 l 0.926,-1.3429 c 1.227,-1.6592 2.274,-3.4205 3.241,-5.2509 2.009,-3.0913 2.492,-6.8164 4.649,-9.8259 1.489,-2.392 3.128,-4.4912 5.992,-4.5842 2.865,-0.6473 3.457,-3.5623 4.871,-5.6121 0.781,-1.1123 1.672,-2.0916 2.899,-2.0097 1.6,0.1079 2.046,1.4377 2.306,3.0932 0.297,2.0013 0.371,4.0312 0.185,6.0474 -0.261,1.9977 -0.701,4.0088 -1.482,6.0474 -3.05,5.5429 -6.553,11.2877 -11.687,14.2712 -4.724,2.6822 -7.105,6.1337 -9.113,10.7242 -0.781,1.7498 -2.043,3.3257 -3.084,4.9824 v 0.01 c 0.112,1.1666 0.225,3.3043 -0.704,3.2784 -2.343,-0.063 -4.06,0.7965 -5.436,2.1208 -1.451,1.3057 -2.644,3.0358 -3.834,4.7879 l -2.417,0.6853 -0.04,0.056 c -2.158,3.0765 -4.17,6.3886 -7.853,3.2228 -0.446,-0.3794 -2.264,0.5676 -3.269,1.2409 -2.158,1.4583 -3.763,3.5057 -5.103,5.8159 -2.082,3.2922 -4.269,6.5116 -6.427,9.7703 l -7.705,8.6776 c -0.26,2.4553 -2.197,3.772 -3.871,5.3158 -4.204,4.0177 -9.109,7.6041 -12.382,12.2244 -0.967,1.4137 -1.978,2.782 -3.094,4.1026 -1.079,1.2797 -2.227,2.5213 -3.38,3.7415 -2.343,2.4478 -4.768,4.8001 -7.186,7.1772 -2.79,2.7157 -5.764,5.2799 -7.289,8.9368 l -11.604,10.6594 c -1.861,1.0491 -3.687,1.2966 -5.362,0.4075 -3.422,2.5557 -5.206,3.7968 -6.658,3.8526 -1.487,0.071 -2.64,-0.995 -4.872,-3.1303 1.749,-1.328 2.534,-3.1613 3.39,-5.0101 -0.409,-0.3609 -0.786,-0.7631 -1.084,-1.2132 -1.377,0.3943 -2.753,0.7339 -4.167,1.065 l -2.936,2.4819 c -0.26,0.5059 -0.673,0.8917 -1.194,1.1484 -0.707,2.0572 -2.56,3.2448 -4.159,4.6212 l -0.972,1.5651 v 0.01 c 1.154,4.7728 1.159,4.7775 -3.38,8.1404 -0.04,-0.2753 -0.07,-0.5528 -0.186,-0.8243 -1.339,-4.4901 -1.383,-4.4705 -5.102,-2.4356 -6.288,3.1322 -12.458,6.494 -18.856,9.0943 l -0.222,0.1111 c -3.981,2.6896 -8.004,5.3433 -11.798,8.483 -0.372,0.5022 -0.74,1.0183 -1.112,1.5651 -0.856,5.7773 -4.321,7.9129 -9.418,7.381 0.261,0.7253 0.261,1.4876 0,2.2875 -3.422,6.7779 -11.899,7.7498 -16.735,12.9653 -0.855,0.5505 -1.672,1.0852 -2.528,1.5837 -8.109,4.2074 -15.738,9.1053 -23.439,13.9748 3.199,-1.5363 6.508,-2.967 9.261,-5.1954 2.418,-0.9188 4.833,-2.1339 7.325,-2.1115 3.237,0.033 4.688,1.2396 1.824,4.2044 l -2.713,1.4077 c -2.158,0.4799 -4.31,0.8833 -5.427,3.1302 -2.976,2.8161 -7.262,4.5943 -9.159,8.3627 -0.595,0.2344 -1.184,0.519 -1.704,0.8427 0.409,2.1316 3.98,0.8476 4.464,3.2136 -3.236,1.4657 -6.442,2.9351 -9.715,4.4082 -2.084,0.9449 -3.978,2.0885 -5.168,4.0192 -3.906,2.6264 -8.297,4.1169 -12.724,5.5937 -0.149,0.6659 -0.406,1.3269 -0.815,2.0003 -2.009,2.3585 -4.729,3.8403 -7.742,4.9824 -1.637,0.6808 -3.309,1.0715 -4.983,0.8706 0,0.071 0.04,0.1331 0,0.2037 l -0.741,1.0465 c -1.302,1.1048 -2.68,2.1097 -4.13,2.9542 -1.451,0.8035 -2.939,1.4831 -4.464,2.0374 -3.125,1.1086 -6.404,1.7203 -9.863,1.8244 -0.67,0.019 -1.34,0.1144 -1.972,0.2223 l -0.445,0.056 c -4.203,1.5178 -8.446,3.0083 -12.687,2.9264 -1.116,0.8482 -2.081,2.0084 -2.825,3.6489 -0.41,0.8891 -2.901,1.4767 -4.501,1.7966 -4.575,0.9262 -9.149,1.745 -13.725,2.556 -0.26,0.1339 -0.489,0.27 -0.787,0.389 -1.972,0.6994 -3.346,1.9544 -4.834,3.1672 -1.822,1.5512 -3.907,2.6336 -6.436,3.121 -0.931,0.2455 -1.859,0.4289 -2.603,1.065 -0.08,-0.01 0.04,0.277 0.112,0.463 0.967,0.033 1.857,0.2799 2.676,0.6668 0.335,-0.6882 0.785,-1.3221 1.454,-1.8614 3.162,-1.8824 6.477,-2.9586 9.937,-3.7137 3.385,-0.8445 6.912,-1.3057 10.446,-1.7781 1.414,0.7849 2.608,0.9639 3.686,0.7779 0.521,-0.2455 1.081,-0.4512 1.676,-0.6112 1.637,-0.8853 3.013,-2.437 4.612,-3.408 6.808,-2.8421 13.164,-6.9965 20.939,-5.0472 0.186,0.2566 0.305,0.4992 0.38,0.7223 0.07,-0.1227 0.148,-0.2364 0.185,-0.3704 l -0.05,0.1389 1.787,-1.704 c 1.934,-1.5922 4.092,-2.6715 6.696,-2.9728 4.575,-3.7424 10.192,-5.4726 15.697,-7.3625 l 2.084,-0.8149 1.639,-1.2225 2.454,-0.9539 c 1.414,-1.2982 2.605,-2.8445 4.316,-3.8155 1.525,-0.9746 3.16,-1.6877 4.76,-2.4541 2.38,-1.0825 4.242,-2.7828 6.177,-4.3527 1.265,-1.209 2.273,-2.6083 3.501,-3.8062 0.892,-1.0937 1.893,-2.0455 3.158,-2.7783 2.864,-1.4322 5.657,-2.4902 8.15,-0.5186 0.185,0.3199 0.296,0.6541 0.333,1.0001 3.609,-2.9389 7.735,-5.4958 9.372,-9.8073 0.595,-0.6882 1.303,-1.2926 2.084,-1.7874 3.497,-1.6963 7.181,-0.6525 10.678,-1.8429 1.971,0.019 3.687,0.437 3.278,2.6394 -0.41,2.1724 -1.756,3.8142 -4.584,3.6766 -0.632,0.1823 -1.221,0.5129 -1.704,0.9816 -0.447,0.8185 -0.82,1.657 -1.676,2.2782 -3.72,3.549 -9.075,5.7085 -11.456,10.5297 -0.298,0.6101 -1.636,1.181 -2.529,1.3707 -3.124,0.6696 -5.399,2.2358 -7.631,4.3711 -1.898,1.7968 -4.462,2.9537 -7.14,3.5377 -3.2,1.9196 -6.403,3.8172 -10.011,5.1862 -6.102,2.1763 -12.124,4.6336 -18.188,6.9549 -3.794,3.6419 -8.963,4.7917 -13.725,6.5475 -3.831,1.4806 -8.117,2.2754 -11.539,4.2693 -9.002,5.4127 -19.231,7.1841 -29.126,9.9741 -2.306,0.6436 -4.649,1.2564 -6.955,0.6761 l -16.735,7.3254 -0.602,-0.6576 -0.148,0.1482 0.75,0.5094 c -0.633,2.8905 -3.461,3.501 -6.214,3.8618 -3.385,0.4947 -6.811,-0.3351 -10.159,0.9446 l -4.797,-2.3708 c -5.431,0.8035 -10.943,1.0241 -16.188,2.8246 -0.595,0.6957 -1.294,1.2756 -1.964,1.8522 l -0.05,0.01 -0.04,-0.019 0.778,4.9176 c -1.971,0.904 -4.057,1.1367 -6.214,0.8428 l -10.113,2.9264 c -4.464,0.6101 -8.89,1.3483 -13.317,1.8059 l -13.392,1.3151 c -0.111,1.5252 -1.049,2.5351 -2.908,3.0931 -4.762,1.3541 -9.592,0.8861 -14.354,0.6853 l -10.011,0.7316 c -0.372,1.3542 -0.629,2.9461 -3.01,2.6857 -2.046,-0.2232 -3.946,-1.1887 -5.955,-1.278 -5.73,-0.1748 -11.423,-0.6411 -17.077,-1.0094 -5.692,-0.3571 -11.376,-0.6166 -17.105,-0.6761 -3.98,-0.01 -8.189,-0.3936 -12.132,0.7224 0.186,0.4427 0.259,0.889 0.222,1.3428 0.596,0.9338 0.413,1.7106 -0.592,2.343 z m -8.595,-49.3887 c 0,-0.015 0.01,-0.013 0,-0.028 l 0.08,0.046 c -0.02,-0.022 -0.05,0 -0.08,-0.019 z m 178.793,-13.7432 v -0.037 l 0.185,-0.01 c -0.07,-0.035 -0.112,0.077 -0.185,0.046 z m -152.927,55.2231 c 0.856,-1.8862 3.278,-2.517 5.362,-3.4173 1.599,-0.4092 3.235,-0.3667 4.909,-0.3519 3.162,0.2121 6.062,-0.9931 9.224,-0.9076 3.608,-0.019 7.478,1.1478 10.752,-1.3521 2.716,-2.1093 6.171,-4.8079 9.557,-1.8244 2.12,1.8117 1.488,3.3944 0.148,4.8527 l 1.899,-0.6482 c 0.818,-0.1711 1.635,-0.2905 2.491,-0.3612 0.149,-0.026 0.267,-0.053 0.454,-0.083 0.967,-1.1086 1.002,-1.8928 0.333,-3.2506 -0.373,-0.093 -0.712,-0.1885 -1.047,-0.2778 -0.817,-0.2827 -1.598,-0.6259 -2.305,-1.0835 -1.711,-0.651 -3.419,-1.3039 -5.168,-1.7689 l -5.242,-0.5927 c -0.967,0.6399 -1.977,0.8308 -2.982,0.5927 -1.116,0.4055 -2.191,1.0021 -3.306,1.8615 -6.511,4.3859 -14.999,2.8543 -22.439,4.5842 -2.232,-0.01 -4.381,0.01 -6.576,-0.4446 -2.046,-0.9598 -4.65,-1.3612 -6.473,-2.7227 l -0.602,0.3241 c -2.121,0.8705 -4.242,1.0957 -6.214,-0.028 0.07,0.3385 0.111,0.6856 0.111,1.0464 0.04,0.8705 0.08,1.733 0.972,2.3616 4.315,1.2723 9.002,0.4515 13.392,1.4262 1.265,0.4463 2.192,1.0942 2.75,2.0652 z m -126.625,-28.8016 c -0.372,-0.3013 -0.712,-0.6466 -0.935,-1.0558 -0.52,0.16 -1.035,0.2886 -1.556,0.3705 0.856,0.2009 1.673,0.4323 2.491,0.6853 z m 260.881,-17.7255 c 0.707,-0.033 1.414,-0.049 2.121,-0.019 -0.298,1.0862 0.932,-0.8046 -0.222,-0.6298 -0.632,0.2046 -1.267,0.4214 -1.899,0.6483 z m -100.694,-0.426 c 0.446,-0.1934 0.888,-0.4486 1.334,-0.8057 l 0.741,-0.2778 c -1.265,0 -2.524,-0.036 -3.825,-0.2223 0.595,0.4464 1.155,0.8854 1.75,1.3058 z m 18.707,-3.4821 c 0.67,-0.8855 1.561,-1.4552 2.714,-1.6114 -0.148,-0.082 -0.259,-0.1478 -0.408,-0.2408 -0.893,-0.889 -1.111,-1.9089 -1.148,-2.9543 -1.041,1.4955 -1.269,3.5057 -3.13,4.5101 l 0.222,-0.018 c 0.595,0.1711 1.192,0.2665 1.75,0.3149 z m 16.596,-0.074 c 0.07,-0.1042 -0.111,-0.172 -0.148,-0.2501 -0.894,-1.8898 -1.121,-3.894 -1.158,-5.9177 -1.004,1.0416 -2.124,2.0282 -3.389,2.8987 2.269,0.1637 3.802,1.2602 4.695,3.2691 z m -246.61,-0.1204 c 0.04,-0.1302 0.08,-0.2716 0.148,-0.3982 l -0.815,-0.213 c 0.223,0.2008 0.444,0.4066 0.667,0.6112 z m 408.871,-18.4015 1.047,-0.6854 c 0.298,-0.8519 0.784,-1.6306 1.454,-2.3337 4.873,-3.3294 10.75,-4.7671 15.697,-7.9552 v -0.019 c -1.153,0.1153 -2.274,-0.01 -3.39,-0.5001 -0.707,-0.5171 -1.304,-1.1857 -1.602,-2.0004 -0.334,-1.3876 0.05,-2.7561 0.862,-4.084 0.819,-1.0565 1.746,-1.9489 2.75,-2.7413 -2.79,1.4806 -5.618,2.9136 -8.483,4.2045 -2.455,1.1086 -4.126,3.0056 -5.168,5.3158 -0.669,1.3132 -0.932,2.7712 -1.75,4.01 -0.633,0.8296 -1.413,1.5423 -2.343,2.1115 -1.153,0.5691 -2.273,0.9387 -3.352,1.0094 l -1.001,1.4725 c 2.046,0.026 3.903,0.5506 5.279,2.1949 z m -110.15,-8.6498 0.111,-0.1296 -2.009,-1.1577 0.05,0.074 -0.148,-0.019 -0.07,-0.1204 -1.926,-1.0465 v -0.01 h -0.02 c -0.06,0 -0.1,-0.021 -0.167,-0.028 0.52,0.6843 1.216,1.1447 2.177,1.2039 v 0 c 0.41,0.7506 1.037,1.1983 2,1.2317 z m 0.185,-0.2408 c 2.791,-3.7945 7.299,-4.5281 11.651,-5.5102 l 0.481,0.019 c 0.149,-0.4426 0.333,-0.867 0.593,-1.2688 0.558,-0.5915 1.155,-1.1059 1.899,-1.5002 1.488,-0.6622 3.087,-1.0097 4.649,-1.4077 3.237,-0.8891 6.806,-1.0576 9.298,-3.2599 l -1.556,0.4816 c -2.455,0.2008 -4.538,1.3017 -6.696,2.2875 -0.744,0.2753 -1.599,0.5051 -2.417,0.6575 -0.819,0.1526 -1.719,0.237 -2.575,0.2222 -1.339,-0.2307 -2.561,-0.6244 -3.528,-1.4354 l -5.955,1.454 c -0.04,0.1041 -0.07,0.1977 -0.111,0.3056 -0.632,0.5655 -1.376,0.9382 -2.232,1.1576 -0.04,0.2054 -0.04,0.4096 -0.111,0.6112 -2.753,0.8705 -5.546,1.5526 -8.298,2.3338 v 0.01 l 0.676,2.5375 c 0.855,0.1266 1.592,0.4639 2.038,1.1483 1.042,-0.01 1.748,0.4136 2.194,1.1576 z m -4.389,-2.1948 -0.03,-0.037 c -0.04,-0.015 -0.09,-0.032 -0.139,-0.046 0.07,0.016 0.09,0.075 0.167,0.083 z m -208.502,-6.5846 c 0.633,-0.1451 1.221,-0.3512 1.853,-0.5186 l 1.268,-0.6945 c -4.575,-0.1152 -9.185,-0.2019 -13.798,-0.6483 -4.576,-0.5729 -9.076,-1.6023 -13.503,-3.3247 l -0.454,-0.1667 -0.111,0.1852 v 0.01 c 0.335,0.2047 0.638,0.3918 0.973,0.5927 0.633,0.4092 1.192,0.8148 1.75,1.2873 v -0.01 c 0.558,0.3794 1.146,0.7299 1.704,1.1391 0.93,0.4502 1.941,0.6014 2.945,0.7316 0.708,0.022 1.377,0.033 2.084,0.1297 1.785,0.037 3.456,-0.1994 5.241,-0.3705 1.823,-0.097 3.605,0.1755 5.316,0.7224 0.967,0.3013 1.94,0.5786 2.871,0.8427 0.632,0.059 1.229,0.052 1.861,0.093 z m -65.4,-5.0842 c 0.446,-0.1934 0.933,-0.3588 1.454,-0.4816 0.669,-0.1376 1.339,-0.211 2.083,-0.2408 0.669,-0.022 1.303,-0.061 2.01,-0.046 0.07,0.037 0.741,-0.1263 0.889,-0.074 0.112,0.056 0.222,-0.5706 0.333,-0.5371 0.112,0.03 -0.593,-0.5484 -0.481,-0.5186 -0.967,-0.5097 -1.821,-1.1155 -2.491,-1.8893 -1.302,-0.5394 -2.644,-1.083 -3.946,-1.6299 0.781,-1.3541 1.857,-1.6846 2.936,-1.9077 0.07,-0.3237 0.148,-0.6397 0.296,-0.9447 0.409,-0.6325 0.933,-1.1945 1.529,-1.6669 0.297,-0.2047 0.637,-0.3736 1.009,-0.5187 l -0.07,-0.01 c -0.781,0.01 -1.562,-0.038 -2.343,-0.176 -0.781,-0.145 -1.488,-0.3211 -2.232,-0.5927 -1.042,-0.3199 -2.116,-0.6259 -3.195,-0.6297 -1.117,-0.041 -2.274,-0.1453 -3.353,-0.3982 -1.898,-0.4315 -3.532,-1.2422 -4.797,-2.7228 -0.633,-0.3162 0,-1.4098 -1.046,-1.3428 -0.04,0 -0.04,-7e-4 -0.111,0.01 0.149,0.056 0.257,0.2024 0.04,0.5186 1.116,2.738 3.349,5.9721 -0.297,8.0107 -3.299,1.8205 -6.299,-0.01 -8.64,-2.732 0.356,0.8753 0.634,1.7673 0.824,2.6487 2.009,-0.097 3.123,1.6173 4.723,2.3985 5.393,0.744 10.382,2.4303 14.883,5.4733 z m -22.097,-0.8706 c 0.26,-0.037 0.518,-0.064 0.778,-0.1204 l 0.04,0.01 c -0.744,-0.8556 -1.636,-1.6188 -2.38,-2.5004 -0.446,0.2233 -0.961,0.4123 -1.482,0.5649 1.185,0.4309 2.305,0.9901 3.047,2.0466 z m 313.826,-0.889 0.741,-0.8057 c 0.186,-0.2158 0.407,-0.3955 0.556,-0.5927 -0.41,0.086 -0.814,0.091 -1.186,-0.028 -0.446,0.2939 -0.896,0.5512 -1.417,0.7409 -1.005,0.2902 -2.042,0.391 -3.047,0.3426 l -0.75,0.028 c 1.563,0.5506 3.466,-0.024 5.103,0.3149 z m 30.571,-0.2686 c 7.588,-1.7484 14.998,-4.2581 22.476,-6.4827 1.414,-0.8109 2.864,-1.581 4.353,-1.7781 l 1.037,-0.5186 c 1.078,-0.7328 2.236,-1.2799 3.463,-1.704 1.898,-0.5989 3.753,-1.3318 5.501,-2.1948 l 1.158,-0.5742 c 0.186,-0.3794 0.405,-0.7506 0.815,-1.0928 1.004,-0.6399 1.969,-1.2421 3.01,-1.4169 0.93,-0.785 1.903,-1.5446 3.13,-2.0282 5.58,-7.6336 13.726,-8.5054 22.171,-9.335 0.409,-0.2976 0.785,-0.6006 1.157,-0.9354 1.078,-0.7962 2.043,-1.6763 3.01,-2.5468 1.785,-1.3392 3.715,-2.3195 5.798,-3.0746 1.228,-0.3423 2.494,-0.482 3.76,-0.3704 0.149,0.011 0.295,0.04 0.407,0.055 l -1.334,-2.4171 c 0.707,-1.1569 -0.412,-2.2751 0.593,-3.4358 v 0.046 c 1.339,-0.6771 2.643,-1.394 3.982,-2.0189 2.939,-1.3765 3.943,-1.0653 4.835,1.6392 0.223,0.6659 0.111,1.4675 0.111,2.2041 v 0.037 c -0.447,0.6882 -0.702,1.4252 -1.223,2.0837 l -4.204,2.1856 c 0.967,0.086 1.931,0.2209 2.824,0.5371 l 0.26,0.1296 c 1.786,-1.194 3.309,-0.6839 4.76,0.2871 l 0.333,0.3427 c 0.334,-0.093 0.638,-0.1426 1.047,-0.1389 1.637,-0.6659 3.198,-0.9132 4.389,-0.065 l 0.186,-0.083 c 2.009,-0.7588 3.983,-1.0581 5.991,-1.3706 0.409,-0.097 0.851,-0.194 1.26,-0.2871 0.107,-0.057 0.187,-0.1281 0.259,-0.176 v -0.01 l 0.07,-0.056 c -0.111,-0.074 -0.221,-0.1274 -0.333,-0.213 -1.302,-1.0193 -2.047,-2.7596 -4.242,-2.3615 -1.562,0.3236 -3.049,0.2979 -4.389,-0.5279 l -0.741,-0.7965 -0.38,-1.0187 c -0.149,-1.0937 0.148,-2.1865 0.148,-3.2876 -0.04,-1.1421 0.192,-2.2552 0.713,-3.334 0.372,-0.6957 0.85,-1.3367 1.445,-1.8984 2.009,-1.1979 4.021,-2.4282 5.918,-3.76 -0.335,0.01 -0.665,-0.017 -1.037,-0.1019 v -0.019 c 0.447,-0.6919 0.554,-1.4343 0.963,-2.13 l -0.185,-0.065 c 0.447,-0.8741 0.932,-1.7045 1.565,-2.5005 0.521,-0.4092 1.036,-0.795 1.556,-1.1484 -2.827,0.5134 -5.574,1.352 -8.252,2.2968 -4.018,1.369 -7.928,3.0315 -12.095,3.5932 l -0.63,-0.3149 v 0.01 c 0,0.022 0.08,0.046 0.08,0.046 2.418,3.5155 -2.005,4.4693 -3.121,6.6679 l -7.548,4.1582 c -0.707,0.8854 -1.228,2.249 -2.121,2.5838 v 0 c -4.24,1.5736 -7.736,4.1022 -11.53,6.4086 -3.46,2.1019 -7.328,4.7291 -11.085,5.0379 -4.799,0.2716 -8.254,2.2676 -12.086,4.3434 l -1.046,3.6025 c -0.484,0.3237 -1.11,0.5502 -1.408,0.9817 -2.827,4.1219 -6.479,6.4469 -11.873,5.6955 -1.488,-0.1898 -3.27,1.0828 -4.908,1.6855 -1.041,1.7075 -2.864,2.5277 -4.501,3.5469 -1.599,2.9203 -4.72,3.3744 -7.547,4.3156 -2.493,0.7477 -5.363,0.4948 -7.446,2.6116 0.372,0.2306 0.592,0.491 0.741,0.4538 z m -355.557,-4.0748 0.04,-0.093 0.112,0.056 c -0.04,-0.071 -0.07,-0.1443 -0.149,-0.2038 l 0.04,0.1482 -0.518,-0.3519 c -0.04,-0.011 -0.111,-0.03 -0.148,-0.037 0.26,0.1339 0.48,0.303 0.629,0.4816 z m 357.529,-10.0296 c 1.377,0.01 2.679,-0.2507 3.945,-0.5557 -0.224,-0.2121 -0.407,-0.4508 -0.518,-0.7409 -1.265,0.2045 -2.348,0.7498 -3.427,1.2966 z m 21.134,-6.2882 c 1.637,0.2307 3.238,0.205 4.056,-2.306 -0.04,-0.6213 -0.11,-1.2513 -0.148,-1.88 0,-0.3125 -0.111,-0.6248 -0.148,-0.9261 l -0.07,-0.4723 v -0.019 l -0.07,-0.4723 c -0.04,-1.8042 -0.49,-3.5434 -0.899,-5.2695 -0.04,-0.3125 -0.04,-0.6283 0,-0.9446 -0.782,0.2307 -1.488,0.4999 -1.972,0.9724 v 0 c -0.967,0.9412 -2.042,1.6608 -3.195,2.2597 -1.898,2.8458 -6.697,2.6028 -8.595,5.538 v 0.018 c 0.41,-0.059 0.851,-0.1237 1.223,-0.213 4.092,-0.7515 7.815,-5.1632 12.354,-1.3613 0.893,2.8756 -0.705,4.0818 -2.528,5.075 z m -2.612,-12.7524 c 0.08,-0.8259 0.526,-1.424 1.158,-1.9448 l -0.148,-0.1944 -0.05,-0.046 c -0.52,0.1711 -1.072,0.1677 -1.593,-0.074 l -0.259,0.1204 c -0.04,0.1042 -0.03,0.2014 -0.07,0.3056 -0.186,0.2604 -0.453,0.4825 -0.676,0.6945 0.112,0.16 0.231,0.3308 0.306,0.5094 0.26,0.056 0.517,0.1329 0.777,0.2408 0.186,0.1154 0.37,0.2438 0.556,0.3889 z m -366.077,-7.1587 0.04,-0.019 -0.04,-0.065 c 0.298,-0.4725 0.702,-0.724 1.112,-0.7872 -5.023,-1.6183 -8.557,-4.5025 -6.585,-9.8259 1.488,-3.9805 4.721,-5.9886 9.446,-3.7044 0.372,0.2418 0.713,0.5249 1.01,0.815 l 0.815,-0.6298 c 1.154,-0.2455 2.237,0.029 3.204,0.6761 0.07,0.071 0.147,0.1664 0.222,0.2408 -0.112,-0.3794 -0.222,-0.7615 -0.259,-1.1484 0,-0.2864 -0.05,-0.5748 -0.05,-0.8613 -0.819,0.346 -1.784,0.044 -2.788,-0.3982 -1.005,-0.7589 -1.601,-1.7712 -1.861,-2.9728 -0.08,-0.7923 0,-1.56 0.259,-2.3152 0.521,-1.4062 1.487,-2.1095 2.639,-2.6116 -3.645,-0.5506 -4.605,-1.1404 -3.898,-3.0376 -2.939,-0.3348 -5.586,0.4421 -7.743,2.7598 0.372,0.1041 0.822,0.187 1.306,0.213 3.72,0.186 4.053,0.8565 4.76,4.6212 0.26,0.7217 0.151,1.3627 -0.407,1.917 -1.489,0.8147 -2.865,0.4226 -4.13,-0.5186 -2.343,-1.6814 -5.138,-1.874 -7.817,-2.4356 -0.632,0.2082 -1.265,0.4321 -1.861,0.7223 -1.153,0.7923 -2.449,1.3571 -3.751,1.9448 -1.228,0.3795 -2.494,0.4309 -3.797,0.1667 -0.558,-0.1153 -1.081,-0.1167 -1.639,-0.1204 -1.861,2.2729 -1.296,4.1526 0.05,5.9271 0.223,-5.7996 1.675,-6.1863 8.78,-5.2973 1.972,2.1205 3.31,4.621 4.315,7.3069 -0.04,2.4738 2.119,4.2487 2.603,6.4919 v 0.1575 c 0.149,-0.2752 0.333,-0.5489 0.481,-0.8428 1.488,0.3423 2.756,0.9197 3.612,2.0096 0.632,0.2753 1.22,0.6353 1.704,1.1114 z m 191.202,-1.3891 c 14.286,1.8605 23.08,-9.8585 26.376,-35.1639 0.584,-4.4896 -1.935,-21.8361 -7.548,-52.0374 -9.05,-46.8365 -16.039,-103.8897 -20.976,-171.1518 -4.76,-67.0315 -4.562,-120.337 0.592,-159.9276 5.316,-40.8148 16.845,-60.0729 34.599,-57.7606 5.231,0.6812 10.447,2.3915 15.642,4.6768 0.894,0.7335 1.565,1.4446 2.528,2.1856 10.29,8.0261 16.564,16.9784 18.828,26.8568 2.469,9.8782 5.248,23.561 8.335,41.0538 10.496,63.7974 26.857,109.794 49.083,137.9884 22.432,28.1942 50.941,42.2948 85.516,42.2948 18.316,0 33.851,-6.2831 46.61,-18.8368 12.759,-12.3479 19.143,-27.7831 19.143,-46.3048 0,-15.0233 -3.605,-32.1017 -10.808,-51.241 -6.997,-18.9333 -15.023,-28.4033 -24.079,-28.4033 -6.791,0 -10.187,3.3957 -10.187,10.187 l 2.158,29.95 c 0,39.719 -11.113,59.5758 -33.339,59.5758 -24.079,0 -44.036,-23.6703 -59.882,-71.0038 -15.846,-47.1279 -23.773,-85.5066 -23.773,-115.1416 0,-9.4666 6.174,-14.197 18.522,-14.197 53.714,0 85.301,0.1996 94.768,0.6112 9.673,0.4116 14.512,-3.6016 14.512,-12.0393 0,-8.4377 -5.248,-14.9205 -15.744,-19.448 -10.29,-4.3218 -32.926,-8.2258 -67.91,-11.7244 -29.842,-3.087 -46.72,-5.6656 -50.63,-7.7236 -13.789,-76.5569 -20.68,-144.7709 -20.68,-204.658 0,-17.9045 0.817,-31.1787 2.464,-39.8222 1.44,-8.0261 2.167,-13.0744 2.167,-15.1324 -1.441,-5.1449 -5.354,-9.4667 -11.734,-12.9653 -6.379,-3.4986 -12.762,-5.2417 -19.142,-5.2417 -20.992,0 -31.488,15.3259 -31.488,45.9899 0,14.6116 4.84,55.9777 14.512,124.0969 5.968,41.777 8.956,73.4735 8.956,95.0823 0,2.7038 -3.11,6.2125 -7.715,10.1222 -10.711,-6.6247 -21.88,-11.0164 -33.645,-12.5486 -33.672,-4.3854 -54.735,25.871 -63.187,90.7667 -1.436,11.02 -2.374,22.214 -2.816,33.571 -21.632,-47.4375 -46.197,-85.0925 -73.699,-112.9559 -27.528,-27.6595 -54.153,-43.1597 -79.866,-46.5086 -19.795,-2.5781 -36.494,2.9257 -50.093,16.5123 -13.422,13.8173 -21.774,33.3722 -25.069,58.6775 -6.725,51.6309 7.288,107.3169 42.054,167.0492 34.969,59.759 76.74,92.8038 125.31,99.1294 21.224,2.7641 42.104,-3.7529 62.632,-19.5499 l 16.781,205.7786 c 1.28,14.0716 5.7,23.98 13.252,29.7369 7.756,5.7835 13.976,8.9831 18.67,9.5944 z m 268.698,-0.9354 c 0.335,-0.584 0.748,-1.1185 1.232,-1.6021 -0.298,-0.2901 -0.527,-0.6446 -0.676,-1.0836 -0.04,-0.7179 0.192,-1.3792 0.676,-1.9818 l 0.778,-0.4908 c -0.112,-0.2419 0.07,-0.5284 0.555,-0.8706 0.04,-0.048 0.07,-0.1146 0.148,-0.1667 0.112,-0.677 0.416,-1.3437 0.788,-2.0096 -0.07,-1.4805 -1.004,-2.494 -2.566,-3.1302 v -0.019 c 0.819,-1.421 1.855,-2.3225 3.232,-1.0465 0.372,0.3311 0.665,0.7133 0.963,1.1113 1.078,-1.2313 2.421,-2.0092 3.983,-2.556 2.456,-1.09 4.612,-2.6802 6.918,-3.9822 0.819,-0.4279 1.644,-0.7844 2.5,-1.0373 l 1.334,-0.2408 1.343,-0.2037 c 0.186,0.015 0.332,-0.01 0.518,-0.01 0.633,-0.6249 1.34,-1.1463 2.121,-1.6484 1.526,-1.0082 2.975,-2.096 4.464,-3.1302 1.525,-1.0862 3.049,-2.1943 4.649,-3.1765 1.19,-0.6807 2.347,-1.1707 3.537,-1.1669 0.297,-0.5134 0.629,-1.0148 1.001,-1.491 1.005,-1.0379 2.161,-1.848 3.5,-2.3986 1.265,-0.491 2.486,-1.0697 3.677,-1.7133 0.893,-2.1241 2.648,-3.0505 4.769,-3.5192 0.632,-0.5915 1.257,-1.203 1.815,-1.8614 3.721,-3.761 7.931,-7.0348 11.465,-10.9372 7.477,-3.6754 10.75,-12.0413 18.041,-15.9474 3.423,0.1823 6.246,-0.4444 9.446,-3.1117 3.98,-3.3182 7.886,-6.6223 11.122,-10.4093 -0.744,-0.3311 -1.377,-1.1353 -1.898,-2.0652 l 0.565,-0.5556 0.407,-0.6946 c 0.186,-1.6034 0.965,-2.5195 2.64,-2.4079 l -0.07,0.1853 c 0.483,0.5431 0.896,1.0278 1.194,1.4817 1.413,-2.3362 2.526,-4.8577 3.269,-7.6403 l 0.149,-0.1574 c 0.372,-0.7291 0.932,-1.2785 1.713,-1.6207 2.976,-3.1285 5.58,-6.7295 8.631,-9.7055 4.203,-4.851 9.007,-9.2799 12.243,-14.9009 0.93,-1.5959 2.937,-2.287 4.908,-2.3986 -0.186,-0.6994 -0.296,-1.4323 -0.222,-2.1763 0.07,-1.2276 0.332,-2.4252 0.815,-3.5747 0.372,-0.77 0.785,-1.4883 1.38,-2.1393 1.302,-1.5922 2.455,-3.4039 4.278,-4.3897 0.26,-0.4055 0.555,-0.8004 0.89,-1.1947 -0.521,-0.8221 -0.853,-1.7607 -0.964,-2.806 -0.149,-1.7001 0.146,-3.2334 0.63,-4.6768 0.446,-1.4731 1.154,-2.8431 1.973,-4.186 1.599,-2.6822 3.57,-5.2334 4.686,-8.0755 -0.818,0.4353 -1.673,0.7697 -2.603,0.5464 -1.86,-0.3608 -2.378,-1.6944 -2.787,-3.1117 -0.41,0.5765 -0.823,1.1608 -1.232,1.7225 l -0.741,0.9261 c 1.302,1.4508 1.005,2.98 -0.185,4.8065 -1.414,2.1688 -3.125,4.2269 -4.538,6.3808 l -1.565,3.2228 c -0.148,0.4501 -0.295,0.9054 -0.37,1.3891 2.158,3.7163 0.816,7.6872 -1.677,10.6409 l -4.352,5.2787 -4.464,5.1862 -8.928,10.3537 c -2.938,3.4857 -6.255,6.6342 -9.529,9.8074 -3.311,3.1471 -6.727,6.1836 -10.261,9.0294 -0.781,0.5841 -1.673,1.0395 -2.566,1.3892 -2.901,1.6555 -5.469,3.8502 -8.408,5.2787 -3.572,1.7447 -5.995,6.0311 -9.975,6.7975 -0.447,0.6845 -0.886,1.3312 -1.444,1.9263 -0.26,0.3832 -0.602,0.7375 -0.862,1.1021 l 1.491,2.306 c 0.557,0.01 1.119,0.073 1.64,0.2963 -0.483,3.3295 -2.385,5.7862 -5.399,7.5755 -2.53,1.5104 -4.944,3.2386 -7.474,4.7601 -3.794,2.3399 -7.593,4.5232 -10.122,8.4553 -1.117,1.6852 -2.754,3.0404 -4.205,4.5471 -2.158,3.0876 -5.507,2.958 -8.52,3.8248 l -0.04,0.037 c -0.112,1.4917 -1.002,2.5086 -2.38,3.2043 -0.371,0.4649 -0.711,0.9537 -1.009,1.4633 -0.409,0.7813 -0.552,1.6811 -1.334,2.2689 -0.372,0.2716 -0.675,0.6132 -0.861,1.0187 -0.149,0.8184 -0.59,1.2228 -1.445,1.1484 l -4.39,3.2691 c -1.563,2.0907 -3.387,3.753 -6.14,4.0655 -0.521,0.048 -1.007,0.2467 -1.417,0.6113 -0.818,-1.2536 -0.996,-2.4505 0.269,-3.7785 0.818,-0.8259 1.331,-1.9334 1.963,-2.908 l 13.169,-11.7984 0.713,-0.5372 0.704,-0.5 c 0.372,0.097 0.639,0.3026 0.899,0.5556 0.149,-2.6078 2.149,-4.0923 4.01,-5.6399 -1.34,1.1161 -2.708,2.2163 -4.084,3.2691 l -4.288,3.0376 c -1.525,0.9299 -2.975,2.0915 -4.612,2.4449 l -2.047,2.2319 c -2.343,1.808 -4.833,3.4822 -7.288,5.2232 l -11.678,7.6125 c -3.757,2.3623 -7.439,4.8496 -11.382,6.8994 0.409,0.2492 0.812,0.5794 1.259,1.0928 l -0.111,0.1759 c -0.26,0.3162 -0.444,0.6542 -0.63,1.0002 0.186,0.022 0.37,0.038 0.556,0.083 1.227,0.5319 1.935,1.4264 2.121,2.6949 -0.08,0.8073 -0.368,1.5493 -0.852,2.2412 -0.818,0.8258 -1.718,1.4439 -2.871,1.6299 0.07,0.5245 0.675,0.3103 0.898,0.5557 0.967,0.5209 1.748,1.2979 2.306,2.2874 0.893,1.2053 0.593,2.702 0.519,4.1304 z m -543.35,-0.3241 c 0.224,-0.3869 0.453,-0.7951 0.75,-1.1299 -0.04,-0.015 -0.111,-0.041 -0.111,-0.056 -0.186,0.4018 -0.453,0.7874 -0.639,1.1854 z m 156.501,-4.5009 c -1.041,-2.1614 -2.195,-3.8711 -4.501,-1.6762 0.521,-0.022 1.081,0.043 1.639,0.1482 1.115,0.2455 2.007,0.8398 2.862,1.528 z m -175.06,-18.3089 c 0.149,-0.1042 0.333,-0.2219 0.519,-0.2963 2.567,-0.3534 5.054,-0.9477 7.547,-1.5466 l -1.111,-0.4723 -2.788,-2.1949 c -1.674,-1.3392 -3.466,-2.5534 -4.991,-4.0377 -0.781,-0.7328 -0.596,-1.5704 0.259,-2.1023 2.567,3.4708 6.96,3.6885 10.308,5.7048 0.298,-0.2939 0.628,-0.5604 1.037,-0.7687 4.465,-0.7626 6.364,2.041 8.112,5.1398 0.298,-1.7559 -0.592,-3.4397 -2.824,-4.7045 -5.208,-2.9723 -8.366,-7.4888 -11.826,-11.8263 1.339,-1.6034 2.714,-3.0451 4.908,-2.1115 0.707,-0.4984 1.414,-0.8456 2.084,-1.0465 -3.832,-1.2945 -7.075,-3.6343 -9.382,-7.4921 -0.111,-0.1971 -0.185,-0.3919 -0.185,-0.5927 -0.07,0.085 -0.11,0.1775 -0.222,0.2593 1.748,2.9278 1.491,5.7009 -0.04,8.3719 l -0.852,0.7409 c -1.004,0.5654 -2.162,0.7207 -3.353,0.6761 -0.558,-0.015 -1.118,-0.1585 -1.602,-0.352 0.261,1.276 0.266,2.5544 -0.06,3.8341 -0.186,0.718 -0.526,1.4051 -0.935,2.0189 -0.409,0.5989 -0.887,1.1482 -1.445,1.6206 -0.818,0.7254 -1.709,1.3631 -2.713,1.843 l -0.417,0.1481 c 0.708,0.7403 1.083,1.6051 1.009,2.6579 l -1.231,-0.7964 c 0,0.2381 0,0.4788 -0.04,0.7131 -0.67,3.0319 2.569,4.2901 3.908,6.3993 l 0.889,-1.1113 c 1.413,-1.6926 2.935,-2.5482 5.167,-0.4538 z m 649.74,-4.899 c 0.931,-0.8593 1.452,-1.9293 2.047,-2.9821 3.422,-2.9053 2.383,-7.7377 5.991,-10.5204 0.744,-0.4278 1.525,-0.6648 2.343,-0.6946 l 0.334,0.1112 0.555,-0.5094 c -0.07,-0.744 -0.148,-1.4933 0,-2.2782 0.112,-0.2753 0.232,-0.5379 0.343,-0.8057 -0.26,-0.1265 -0.563,-0.1744 -0.935,-0.093 -2.306,1.9345 -4.459,3.9907 -5.723,6.8253 -0.41,0.7701 -0.821,1.514 -1.417,2.2134 l -0.297,0.5279 c 0.669,1.2909 0.07,2.9833 -1.157,4.8805 -0.632,0.5432 -1.303,0.8774 -2.01,1.0187 0.483,0.6101 0.601,1.3351 -0.07,2.306 z m -675.56,-1.7411 c -0.07,-0.1301 -0.148,-0.2754 -0.185,-0.4353 l -0.296,0.019 v 0.01 z m 46.24,-17.1328 v -0.093 l -0.04,-0.019 z m 558.825,-4.6397 c -0.112,-0.4277 -0.294,-0.8284 -0.666,-1.1669 -0.261,0.1822 -0.517,0.333 -0.815,0.426 l 0.185,0.046 z m 89.693,-3.7044 c 0.744,-1.0193 1.414,-2.0828 1.935,-3.2135 -0.558,0.2343 -1.155,0.365 -1.75,0.3241 0.149,0.9449 0.08,1.9074 -0.185,2.8894 z m -720.809,-0.3519 h 0.01 c 0,0 0.04,-0.1346 0.07,-0.2871 l -0.05,-0.056 c -0.04,0.1786 -0.04,0.3427 -0.04,0.3427 z m 648.045,-1.278 c 1.153,-2.4664 2.787,-4.6747 5.131,-6.5012 0.93,-0.7589 1.868,-1.5063 2.76,-2.306 0.744,-0.744 1.368,-1.5668 1.815,-2.5005 l 0.417,-0.889 c 0.224,-0.3943 0.444,-0.7745 0.704,-1.1391 -2.455,1.6368 -4.5,3.9144 -6.955,5.4917 -0.596,0.5282 -1.229,1.0483 -1.899,1.5281 -0.632,0.5209 -1.34,0.9579 -2.084,1.2965 -0.223,0.1599 -0.481,0.3033 -0.741,0.4446 -0.595,0.9784 -1.599,1.7817 -2.343,2.7042 1.302,0.1489 2.227,0.989 3.195,1.8707 z m -638.96,-6.6401 c 1.264,-0.4575 2.385,-1.1318 3.353,-1.9911 0.483,-0.3832 0.998,-0.7305 1.593,-1.0095 0.558,-0.3273 1.156,-0.6762 1.676,-1.0557 -1.116,-0.6919 -2.116,-1.6682 -3.269,-2.2782 -1.935,-1.3132 -3.615,-2.9057 -5.029,-4.7694 -0.632,-1.0752 -1.072,-2.2028 -1.333,-3.3895 -0.297,-1.4099 -1.079,-2.5868 -2.01,-3.6581 -0.186,-0.2419 -0.379,-0.5084 -0.528,-0.7687 -0.588,1.2646 -1.169,2.5391 -3.158,2.2967 -3.83,-0.4059 -2.932,-3.8249 -3.908,-6.0011 -0.04,-0.4427 -0.221,-0.7861 -0.63,-1.0279 -0.446,-0.7812 -1.224,-1.5357 -0.778,-2.3801 -0.111,-0.01 -0.222,0 -0.296,-0.019 -0.67,-0.398 -0.972,-0.9711 -0.898,-1.704 -0.26,-2.7342 -3.648,-3.6858 -3.983,-6.3531 -0.261,-0.4874 -0.554,-0.9538 -0.889,-1.3891 -0.372,-1.9456 -2.311,-2.9286 -3.13,-4.6397 0,-0.6287 0.193,-1.1595 0.602,-1.5837 l -0.222,-0.2408 c -1.115,-0.2121 -2.162,-0.6192 -3.13,-1.3706 -2.529,-2.4293 -4.872,-5.0311 -6.844,-7.9737 -0.148,-0.3608 -0.333,-0.7097 -0.556,-1.0557 0.26,0.6697 0.482,1.3564 0.556,2.0744 0.149,0.7886 0.231,1.5673 0.231,2.3523 0.26,2.8607 0.217,5.5699 -2.759,6.8161 -1.339,0.3199 -2.717,-0.3326 -4.057,-0.5186 0.26,0.3311 0.452,0.6783 0.676,1.0465 0.446,1.1309 1.076,2.3999 0.741,3.408 -0.819,2.4813 -0.966,4.5142 -0.556,6.1771 0.04,-1.2015 0.672,-2.5713 1.973,-4.223 l 2.714,2.0281 c -0.26,2.9016 2.272,4.5416 3.537,6.7327 -1.361,0.5474 -2.758,0.092 -4.149,-0.426 1.604,0.874 3.151,1.7802 5.483,2.1486 1.117,0.1749 2.081,1.1356 2.973,1.9726 2.232,2.3287 3.84,4.9138 4.51,8.02 0.04,0.3683 0,0.7245 -0.05,1.0742 4.056,-0.6548 4.543,-0.01 7.854,4.8157 2.008,2.9017 -1.263,4.8323 -0.519,7.5107 -0.111,0.086 -0.194,0.1885 -0.306,0.2778 l 0.269,0.3704 c 0.26,-0.074 0.481,-0.1351 0.704,-0.1574 l -0.08,-0.5279 c -0.186,-0.8481 -0.18,-1.6876 -0.06,-2.5097 0.446,-1.674 1.409,-2.8179 3.195,-3.0932 5.096,-0.2604 5.655,6.9512 10.492,6.9921 z m -8.705,-16.6235 c 0.111,0.012 0.06,0.1233 0.185,0.1297 l -0.222,-0.1019 c 0.02,0 0.01,-0.031 0.04,-0.028 z m 20.022,5.5381 0.07,-0.176 c 0.07,-0.8407 0.45,-1.4193 1.232,-1.7132 -1.675,-0.3385 -2.347,-2.5745 -3.538,-3.4822 1.338,1.6233 2.045,3.4327 2.232,5.3714 z m -33.043,-1.5373 -0.04,-0.046 -0.04,0.037 z m 694.017,-12.7061 0.04,-0.019 -0.02,-0.01 c 0,0.011 -0.02,0.017 -0.02,0.028 z m 0.05,-0.093 1.111,-1.278 c 1.041,-2.8867 2.749,-4.9752 5.316,-6.2326 0.446,-0.6398 0.861,-1.3157 1.121,-2.0745 0.149,-0.4167 0.332,-0.806 0.518,-1.1854 -1.525,1.5029 -3.085,2.9911 -4.723,4.3527 -2.273,1.8521 -3.174,3.9704 -3.343,6.4178 z m -722.401,-15.6973 v -0.01 c -0.371,-0.186 -0.712,-0.2666 -1.01,-0.2778 0.335,0.052 0.676,0.1383 1.01,0.2871 z m 69.559,-7.381 c -0.447,-0.6696 -0.815,-1.3709 -1.001,-2.1671 -0.149,-2.0311 -1.494,-2.5817 -2.87,-3.0839 0.558,0.8816 1.007,1.8533 1.342,2.9172 0.707,0.7366 1.34,1.4934 2.01,2.2597 0.186,0.01 0.333,0.052 0.519,0.074 z m -79.126,-4.7231 c 0.04,0.089 0.371,-0.4078 0.445,-0.3149 -0.04,-0.4687 0,-1.0131 0.111,-1.4632 0.07,-0.1302 0.12,-0.2385 0.194,-0.3612 l -2.463,-2.4912 c -0.372,0.4204 -0.85,0.7143 -1.371,0.8706 0.707,0.9375 1.23,1.9641 1.491,3.1024 0.52,0.1079 1.072,0.4156 1.593,0.6575 z m 24.551,-1.8985 -0.259,-0.4908 c -0.409,-0.3237 -0.814,-0.6266 -1.223,-0.9354 -0.111,0.056 -0.185,0.076 -0.296,0.1204 l 0.185,0.065 c 0.595,0.3497 1.11,0.7686 1.593,1.241 z m 44.943,-3.0561 c -0.223,-0.1822 -0.444,-0.3513 -0.741,-0.5186 0,-0.026 -0.08,-0.019 -0.157,0 0.335,0.1636 0.6,0.3438 0.898,0.5186 z m -79.496,-12.456 -1.343,-0.5001 v 0.01 c 0.409,0.2269 0.896,0.3568 1.343,0.4908 z m 837.895,-38.822 v 0 l 0.07,-0.037 c -0.149,-0.063 -0.258,-0.1388 -0.333,-0.176 0.08,0.071 0.147,0.1349 0.259,0.213 z m -823.948,-8.5571 c -0.223,-1.2723 -0.635,-2.5196 -1.491,-3.6951 -0.372,-0.6473 -0.711,-1.3047 -0.972,-2.0004 -0.595,-1.3615 -1.109,-2.7576 -1.593,-4.1489 -0.483,-0.9932 -1.007,-1.95 -1.565,-2.9172 l -0.593,0.2315 c 0.07,0.3162 0.07,0.6359 0.07,0.9447 0.07,0.2304 0.111,0.4491 0.111,0.676 0.893,3.3481 3.011,6.0926 4.797,8.9831 z m 840.581,-11.1224 c 0.484,-0.651 1.007,-1.2866 1.528,-1.9078 0.186,-0.2158 0.443,-0.1442 0.778,0.2501 0.744,0.8333 0.07,-1.2665 -0.556,-0.5001 l -0.148,0.1204 c -0.371,0.4613 -0.739,0.9132 -1.148,1.3336 -0.149,0.2306 -0.305,0.4657 -0.454,0.7038 z m -830.986,-7.6866 c 0.967,-0.4241 1.977,-0.7644 3.167,-0.4816 l 0.04,-0.018 c 0,-0.5989 -0.185,-1.1773 -0.482,-1.7688 -0.521,-0.8481 -0.785,-1.7797 -1.009,-2.732 -0.371,-0.3125 -0.74,-0.674 -1.037,-1.1576 -0.112,-0.2344 -0.223,-0.4639 -0.334,-0.6946 0,-0.048 -0.08,-0.094 -0.148,-0.1389 -0.07,0.4947 -0.267,0.9706 -0.639,1.3984 -0.483,-0.01 -1.147,0.1894 -1.408,-0.056 -0.521,-0.5579 -1.007,-1.284 -1.231,-2.0281 -0.372,-1.2238 -0.595,-2.446 -0.186,-3.5285 -0.04,-0.033 -0.04,-0.059 -0.04,-0.093 -0.261,-0.3683 -0.555,-0.6746 -0.815,-1.0094 -1.19,1.0937 -1.123,2.5934 -0.268,4.2785 1.377,2.7157 3.088,5.2578 4.39,8.0293 z m 864.955,-64.6786 c 1.08,-1.3354 1.786,-2.8803 2.232,-4.6027 -0.558,1.4136 -1.077,2.8399 -2.454,3.6211 -0.148,0.033 -0.259,0.046 -0.408,0.065 0.298,0.2306 0.519,0.5188 0.63,0.9168 z m -582.811,-3.2413 c -2.846,0.239 -5.778,0.1605 -8.789,-0.2315 -33.06,-4.3058 -62.888,-31.022 -89.488,-80.1444 -26.628,-48.9184 -37.468,-92.3531 -32.525,-130.311 3.322,-25.5094 13.447,-37.1661 30.385,-34.9601 15.918,2.0731 34.112,12.9513 54.585,32.6356 20.676,19.7109 40.677,49.4064 60.001,89.0719 19.297,39.8698 27.749,68.9828 25.357,87.3494 -1.17,8.9794 -6.543,17.6237 -16.133,25.9215 -7.059,6.3963 -14.855,9.9516 -23.393,10.6686 z m 603.38,-75.5324 0.148,-0.389 c -0.07,-0.01 -0.186,-0.01 -0.297,-0.01 z m -4.02,-60.15 c 0.07,-1.6182 0.378,-3.2198 0.936,-4.8157 -0.223,-0.2827 -0.415,-0.5326 -0.713,-0.7038 -0.707,-1.0825 -1.442,-2.1275 -2.186,-3.1765 -0.04,2.3808 -0.453,4.765 -0.602,7.1494 -0.298,0.2567 -0.591,0.4052 -0.889,0.5094 l 0.148,0.389 c 0.297,-0.2753 0.518,-0.5747 0.741,-0.8984 l 1.084,0.7131 c 0.409,0.4352 0.923,0.6214 1.481,0.8335 z m 15.735,-14.1507 c 0.112,-1.0528 0.184,-2.0924 0.37,-3.1117 l -0.704,1.2687 0.269,1.3892 z m -11.308,-28.6905 c 0.298,-0.1897 0.6,-0.3974 0.898,-0.5834 -0.07,-0.119 -0.148,-0.2662 -0.185,-0.4075 -0.186,0.093 -0.37,0.1979 -0.556,0.2686 -0.112,0 -0.453,0.4445 -0.453,0.4445 0,0 0.408,0.2071 0.296,0.2778 z m -1.232,-62.4837 c 0.08,-0.9895 0.221,-1.9596 0.556,-2.8524 -0.223,-0.026 -0.444,-0.04 -0.63,-0.1111 0,0.093 -0.05,0.1848 -0.05,0.2778 h 0.02 l 0.07,0.5372 c 0.04,0.5878 0,1.1755 -0.04,1.741 z m -28.857,-15.5029 c 0.558,-3.5972 1.669,-6.7513 3.38,-9.3628 0.186,-0.3051 0.416,-0.5878 0.639,-0.8705 -0.557,-2.6338 -1.118,-5.286 -1.713,-7.9459 0.223,-2.046 0,-4.0257 -0.37,-6.0011 l -0.825,-0.093 c -1.637,7.9944 -2.19,15.9251 -1.111,24.2729 z m 14.206,-15.4472 c 0.261,-0.1896 0.491,-0.4026 0.714,-0.6854 -0.446,-0.2566 -0.786,-0.6151 -1.121,-0.9909 0.149,0.5655 0.296,1.1109 0.407,1.6763 z m -42.813,-34.8583 c 0.558,-1.2462 1.559,-2.075 3.01,-2.3801 0.743,-0.048 1.451,0.05 2.195,0.3334 l 0.333,0.046 c 0.447,-0.5171 1.007,-0.8913 1.602,-1.2224 -0.08,-0.2567 -0.111,-0.4972 -0.185,-0.7316 -0.335,-1.927 -0.449,-3.7902 0.37,-5.3899 l -2.676,0.5001 c -0.261,-1.0565 -0.45,-2.2589 0.778,-2.4449 1.004,-0.1674 1.489,0.913 1.973,1.8059 0.186,-0.3497 0.442,-0.6822 0.74,-1.0095 -0.41,-0.097 -0.776,-0.2085 -1.148,-0.3982 -0.67,-0.4241 -1.304,-0.9143 -1.824,-1.5281 l -0.63,-0.9631 c -0.261,-0.517 -0.453,-1.059 -0.602,-1.6021 -1.264,-0.9858 -2.228,-2.3005 -3.158,-3.6211 -0.261,-0.3497 -0.555,-0.634 -0.815,-0.9168 -1.116,-0.398 -2.236,-0.8897 -3.352,-0.7038 -0.558,0.071 -1.119,0.1351 -1.677,0.1574 -0.07,-0.044 -0.592,0.4096 -0.629,0.3612 -0.298,0.4018 -0.517,0.8428 -0.778,1.2409 -0.186,0.3534 -0.379,0.6821 -0.639,1.0095 0.707,1.7186 1.2,3.5327 2.093,5.1769 0.557,0.8705 1.22,1.6245 1.815,2.4726 l 0.444,0.8428 c 0.373,-0.186 0.639,-0.562 0.825,-1.2688 0.186,-0.7031 0.554,-1.7591 1,-1.8522 1.302,-0.238 1.451,1.2427 1.898,2.1578 0.372,0.7552 0.638,1.5748 0.936,2.3523 l 0.407,1.5744 c -0.335,0.6807 -0.562,1.8165 -1.046,1.9355 -1.079,0.2344 -1.676,0.6533 -1.862,1.241 0.223,0.9412 0.453,1.8834 0.602,2.8246 z m 14.54,-11.0298 c 0.633,-0.5171 1.156,-1.1584 1.602,-1.8615 -0.371,0.1861 -0.814,0.2374 -1.26,0.1667 -0.112,0.5654 -0.268,1.1293 -0.342,1.6948 z m -920.633,-16.0863 c 0.297,-0.1413 0.629,-0.4018 0.964,-0.8705 1.079,-1.5513 2.42,-1.7397 3.834,-1.6207 0.595,-0.3051 1.109,-0.1467 1.481,0.3704 0.07,0.6808 -0.04,1.2977 -0.37,1.9078 0.855,-0.2827 1.563,-0.3523 2.158,-0.2593 0.559,-1.6443 1.082,-3.3121 1.491,-4.9824 0.744,-2.7752 1.296,-5.5319 1.519,-8.3071 0.04,-0.7514 0.156,-1.4564 0.268,-2.1856 -2.604,1.3429 -4.582,4.326 -7.112,5.8066 l -0.445,1.5837 c -1.079,2.7715 -2.82,5.1719 -3.639,8.0848 z m 900.842,-1.3891 c 0.149,-0.1413 0.342,-0.2793 0.528,-0.3983 -0.04,-0.1637 -0.08,-0.3087 -0.12,-0.4723 -0.111,-0.022 -0.185,-0.071 -0.297,-0.093 -0.112,0.3051 -0.557,0.5391 -0.111,0.9632 z m 32.552,-22.1801 c -0.372,-3.6903 -0.7,-7.4786 0.75,-10.6778 -0.633,-0.3051 -1.229,-0.7538 -1.787,-1.2225 -1.116,-0.9635 -2.163,-2.022 -3.204,-3.0561 -0.781,-0.8705 -1.524,-1.763 -2.232,-2.7042 v 0.093 c 0,0.8668 -0.184,1.6728 -0.37,2.4727 0.521,0.8927 1.082,1.7891 1.565,2.7042 1.525,1.0602 2.53,3.1784 2.009,4.473 0.186,0.6101 0.371,1.1976 0.482,1.8337 0.335,2.2321 1.337,4.3211 2.787,6.0844 z m -33.811,-4.4637 c -0.04,-0.3758 -0.05,-0.7505 -0.05,-1.1299 0.26,-5.1709 2.53,-6.2602 6.733,-3.2506 0.409,-0.3311 0.822,-0.6106 1.306,-0.7779 0.706,-0.1154 1.377,-0.09 2.121,0.074 0.521,0.1675 1.007,0.4008 1.491,0.6575 v -0.1389 c 1.079,-2.2321 2.008,-4.5914 2.269,-7.2698 1.823,-2.258 1.712,-5.2904 1.75,-8.2516 l -0.454,-0.213 c -0.595,-0.4018 -1.191,-0.8441 -1.787,-1.3613 -1.413,-1.0825 -1.966,-3.1084 -3.64,-3.9082 l -1.232,0.093 c 0.484,0.6101 0.97,1.2492 1.454,1.9077 0.483,0.6808 0.741,1.53 0.04,1.9541 -0.26,0.1637 -1.074,-0.1413 -1.259,-0.4723 -0.744,-1.0788 -1.377,-2.2106 -2.01,-3.3155 l -0.37,-0.019 c -0.632,-0.1674 -1.23,-0.4502 -1.713,-0.852 l -0.186,-0.1667 c 0.558,0.9634 1.192,1.8875 1.936,2.732 0.446,0.6807 0.849,1.4047 1.222,2.1115 0.409,0.7774 0.823,1.5563 1.232,2.3338 1.041,2.6561 2.824,5.2187 3.084,8.0385 0.781,0.4017 0.861,0.8299 0.05,1.2502 l -0.05,0.046 c -0.04,0.398 -0.111,0.8261 -0.259,1.2502 -4.204,4.1404 -7.478,0.4707 -10.789,-3.1302 -0.484,-1.1049 -1.119,-2.1664 -1.751,-3.2043 -0.781,-0.2082 -1.525,-0.5347 -2.232,-1.0742 0.186,0.7515 0.342,1.4973 0.38,2.2041 0,1.5029 -0.56,2.8534 -2.01,3.9359 2.269,2.6078 2.339,5.2606 -1.009,7.7977 l 0.861,0.5927 0.371,0.6298 c 0.04,-0.2344 0.111,-0.4421 0.222,-0.5835 0.26,-0.305 0.961,-0.4024 1.371,-0.2871 0.781,0.2381 1.525,0.6931 2.269,1.0465 0.186,0.279 0.416,0.5158 0.639,0.7502 z m -879.31,-9.224 c 0.07,-0.071 0.148,-0.1423 0.185,-0.213 -0.04,0.022 -0.111,0.076 -0.185,0.1204 z m 1.861,-2.0929 c 0.08,-0.093 0.148,-0.161 0.185,-0.2316 0.707,-0.7291 1.487,-1.3448 2.38,-1.7688 1.302,-0.4911 2.561,-0.4005 3.751,0.1389 l 0.07,-0.2037 c -0.112,-1.6963 0.183,-3.3162 0.704,-4.8898 0,-0.1674 -0.04,-0.3327 -0.04,-0.5186 0.409,-3.296 2.421,-6.0034 3.686,-8.9646 0.447,-1.0602 0.814,-2.1421 0.852,-3.2692 0.04,-0.5395 0.11,-1.0572 0.222,-1.5743 l -0.63,-0.213 0.01,0.046 c 0.07,0.119 0.11,0.2623 0.185,0.426 0.148,1.6703 -0.413,3.1668 -1.454,4.6027 -0.521,0.6362 -1.118,1.1835 -1.75,1.6299 -2.567,1.9307 -4.014,4.4892 -5.168,7.2421 -1.079,2.4664 -1.931,5.0775 -3.01,7.5477 z m 11.9,-23.0969 c 0.521,-0.6621 1.154,-1.2006 1.899,-1.528 l 2.491,-1.4818 c 0,-0.3757 0.07,-0.7262 0.04,-1.102 -0.26,-0.7291 -0.03,-1.2509 0.676,-1.5559 0.446,-0.7515 0.925,-1.5082 1.408,-2.2597 0.893,-1.953 1.978,-3.8072 2.908,-5.7603 -0.04,-0.022 -0.12,-0.016 -0.195,-0.065 0.186,-0.2121 0.379,-0.4548 0.528,-0.6668 0.446,-0.9635 0.814,-1.9478 1.112,-2.982 0.186,-0.7291 0.333,-1.4564 0.481,-2.1856 0.149,-3.6196 2.278,-6.2595 4.733,-8.659 1.637,-1.2462 3.005,-2.796 4.009,-4.7231 0.186,-0.305 0.379,-0.6396 0.565,-0.9446 l 0.704,-0.8891 0.148,-0.1389 c -0.149,-0.1637 -0.296,-0.3563 -0.407,-0.639 -0.744,-6.1158 5.764,-9.9045 6.992,-15.4102 -0.335,-0.119 -0.665,-0.2789 -0.963,-0.4909 l -0.306,0.1204 c -0.372,0.305 -0.74,0.654 -1.037,1.0558 l -0.185,-0.065 c -0.149,2.1167 -1.304,4.0848 -1.936,6.1308 l -0.592,1.065 -0.714,0.9632 -0.777,0.8705 c -0.893,0.7775 -1.866,1.316 -2.908,1.528 l -0.964,-0.046 c -1.079,1.7149 -2.754,2.8456 -3.945,4.4453 -3.162,2.444 -4.95,5.7851 -5.955,9.5944 l -0.518,1.1483 c 0.372,0.4686 0.339,1.0812 -1,2.093 l -0.223,0.213 c -1.451,2.6338 -2.789,5.3671 -4.723,7.6959 -0.08,0.3757 -0.194,0.7743 -0.268,1.1761 -0.521,2.3994 -1.072,4.8852 -1.667,7.3069 l 0.111,0.1945 c 0.334,0.6584 0.556,1.384 0.667,2.1578 0.112,1.2462 0.149,2.4746 -0.186,3.7692 z m 865.576,-0.4723 c 0,-0.044 -0.03,-0.09 -0.06,-0.1389 l -0.08,-0.046 v 0.093 c 0.08,0.048 0.111,0.048 0.148,0.093 z m -53.148,-70.1518 c -0.335,-0.212 -0.676,-0.4489 -0.973,-0.7316 -0.596,-1.4583 -1.56,-2.185 -2.676,-2.7505 0.112,0.3088 0.222,0.6117 0.333,0.9168 0.632,0.7291 1.304,1.44 1.973,2.1208 0.484,0.119 0.897,0.3031 1.343,0.4445 z m -732.033,-27.1902 c 0.26,-0.4018 0.555,-0.7726 0.815,-1.1483 -0.335,0.1637 -0.665,0.3292 -1.037,0.4445 0.04,0.2604 0.148,0.4695 0.222,0.7038 z m 0.07,-12.4652 -0.04,-0.019 v -0.028 l -0.223,-0.8428 c -0.04,0.093 -0.04,0.2089 -0.07,0.3242 -0.07,0.1675 -0.184,0.3086 -0.259,0.4537 0.186,0.044 0.407,0.04 0.593,0.1112 z m -0.04,-2.4912 c 0.335,-0.9189 0.86,-1.7431 1.38,-2.5653 -0.149,0.044 -0.222,0.1183 -0.371,0.1667 -1.822,0.424 -1.604,1.3147 -1.009,2.2782 z m 693.127,-2.7227 c -0.112,-0.1191 -0.268,-0.2182 -0.38,-0.3149 l 0.149,0.1945 z m 11.53,-1.2781 c 0.07,-0.071 0.11,-0.1626 0.185,-0.2593 2.231,-0.6808 4.501,-1.222 6.807,-1.315 -1.488,-0.5878 -3.049,-1.7358 -4.649,-2.9821 -0.893,-0.8258 -1.857,-1.1038 -2.824,-1.1298 -0.112,0.6584 -0.415,1.2239 -0.862,1.7411 v 0.019 c 0.447,1.3169 0.115,3.0115 1.343,3.9266 z m 13.614,-0.463 c -0.707,-0.8966 -1.231,-1.8607 -1.491,-2.9172 -0.633,1.0342 -1.34,1.6397 -2.084,1.9448 1.153,0.1673 2.347,0.4776 3.575,0.9724 z m -708.186,-2.6116 c 0.07,-0.048 0.11,-0.1 0.185,-0.1482 l 1.269,-1.4354 c 0.186,0 0.369,0 0.555,0.028 0.223,-0.2604 0.407,-0.5137 0.593,-0.7965 0,-0.1413 -0.07,-0.2623 -0.07,-0.426 h -0.04 l 0.593,-0.4723 v -0.065 c 0.112,-0.3311 0.193,-0.6413 0.268,-0.9724 -1.266,1.3429 -2.683,2.5691 -3.352,4.2878 z m 87.192,-5.251 c 0.41,-0.186 0.823,-0.3714 1.232,-0.5834 -0.186,-0.022 -0.407,-0.044 -0.593,-0.093 z m -87.34,-0.8427 c 1.19,-0.5617 2.53,-0.8983 4.056,-0.8983 0.111,-0.093 0.295,-0.073 0.593,0.046 0.146,-0.2326 0.26,-0.4902 0.407,-0.7224 3.534,-4.6091 7.778,-8.3044 12.54,-11.1502 -1.117,0.4017 -2.274,0.519 -3.353,-0.4445 -0.111,-0.8481 0.08,-1.6249 0.639,-2.3801 -0.93,0.1674 -1.377,0.9698 -1.898,1.6022 -0.708,1.0379 -1.563,1.9945 -2.381,2.9357 -2.418,2.8682 -5.171,4.6356 -8.594,4.7324 -0.223,0.2343 -0.416,0.4454 -0.676,0.6575 0.111,0.517 0,1.0134 -0.333,1.3891 -0.149,0.5654 -0.37,1.1293 -0.593,1.6948 -0.26,0.5654 -0.599,1.0758 -1.009,1.5929 0.112,0.044 0.231,0.1163 0.342,0.213 0.112,0.2344 0.185,0.4973 0.26,0.7316 z m 679.801,-2.6579 c 0.04,-0.212 0.07,-0.427 0.111,-0.639 0.596,-1.1049 0.629,-2.4376 0.852,-3.7322 0.298,-0.7998 0.971,-1.3402 1.528,-1.954 -1.339,-0.4688 -2.68,-0.8966 -3.945,-1.7411 -3.98,-2.4255 -6.47,-7.6249 -11.752,-7.7885 l -0.519,-0.3056 c -1.488,0.4947 -3.159,0.3596 -4.945,-0.065 l 0.296,0.4445 c 1.004,1.0602 2.338,1.5521 3.454,2.4449 l 0.408,0.3334 c 2.864,-0.6362 3.318,-0.2873 4.88,2.8153 0.07,0.1674 0.111,0.3549 0.185,0.5186 l 0.927,0.4909 c 0.595,0.4502 1.119,0.9255 1.602,1.491 0.894,1.0565 1.673,2.1584 2.417,3.3339 0.372,0.5209 0.74,1.0553 1.037,1.6207 0.521,0.8445 1.303,1.3927 2.121,1.8615 0.26,0.1636 0.601,0.355 0.824,0.5186 z m -576.606,-5.9085 c 0.93,-0.4687 1.857,-0.8931 2.824,-1.2688 -0.818,-0.3757 -1.672,-0.777 -2.602,-0.9631 -0.521,0.2344 -0.705,0.6388 -0.63,1.1113 0.149,0.3758 0.296,0.7449 0.408,1.1206 z m -32.997,-11.8448 c 0.595,-0.2828 1.155,-0.6173 1.75,-0.9261 -0.521,-0.2083 -1.044,-0.5819 -1.602,-0.9353 l 0.37,-2.2319 3.316,-2.2782 c 0.223,-0.7552 0.664,-0.9465 1.222,-0.5001 0.26,0.6807 0.602,1.3399 0.713,2.0467 0.112,0.6808 0.03,1.3161 -0.194,1.9262 1.563,-0.8928 3.132,-1.837 4.695,-2.7782 -0.409,-1.0826 -0.488,-2.2027 1.149,-3.4266 1.041,-0.7738 1.821,-0.4252 2.528,1.1298 2.343,-1.529 4.649,-3.0586 6.955,-4.6582 l 1.343,-0.8243 c 0.781,-0.7552 1.746,-1.3199 2.713,-1.9077 1.227,-1.0342 2.569,-1.8108 3.982,-2.3986 l 4.501,-2.8894 c 0.149,-0.212 0.295,-0.4253 0.482,-0.6112 -1.675,-1.7894 -0.704,-3.72 1.38,-5.2973 0.297,-0.2344 0.592,-0.488 0.852,-0.7224 -1.859,1.2462 -3.976,2.2589 -5.538,3.7878 -0.67,0.3757 -1.377,0.6807 -2.158,0.8705 -1.266,0.212 -2.606,0.4676 -3.797,0.2593 0.335,0.9635 0.444,1.9936 0.04,3.1209 l -0.704,0.9169 c -2.679,0.2567 -5.474,0.051 -7.52,2.7783 -1.302,1.8117 -3.345,1.8566 -5.242,2.1393 -2.604,-0.022 -4.683,2.1893 -7.436,3.0375 0,0.5393 -0.711,1.4306 -1.306,1.7133 -1.786,0.8258 -3.91,-0.1613 -5.733,1.204 -1.823,1.2908 -3.012,3.4757 -2.454,4.9824 0.669,1.8338 2.235,2.2318 4.057,2.2318 0.521,-0.026 1.08,0.1 1.639,0.1482 z m 68.929,-8.8442 c 2.641,-1.5289 5.323,-2.9709 8.076,-4.2878 2.158,-1.0118 2.862,-2.0162 0.704,-3.9915 -0.26,-0.2344 -0.335,-0.6151 -0.26,-0.9909 -4.613,1.2686 -10.528,1.3852 -8.705,8.4645 0.07,0.2567 0.11,0.5453 0.185,0.8057 z m -17.559,-20.5779 4.168,-2.2411 c 0.595,-0.1153 1.119,-0.2735 1.676,-0.4631 -0.855,0.022 -1.635,-0.1047 -2.417,-0.3611 -1.078,0.5654 -2.125,1.253 -3.204,1.8892 -0.04,0.398 -0.112,0.7743 -0.223,1.1761 z m 187.229,-6.2326 -0.111,-0.1389 h -0.407 l -0.408,-0.074 c 0.298,0.1153 0.591,0.187 0.926,0.213 z m -108.205,-2.6857 c 0.447,-0.4241 0.851,-0.8467 1.334,-1.2224 l 0.07,-0.019 c 2.53,-3.8354 4.76,-6.4979 6.955,-8.1682 -0.52,0.186 -1.071,0.3073 -1.63,0.3334 -0.07,0 -0.147,-0.024 -0.259,-0.046 l -0.454,0.676 c -2.641,2.0014 -3.201,5.483 -6.288,7.131 -0.149,0.022 -0.259,0.019 -0.408,0.019 0.298,0.398 0.527,0.8501 0.676,1.2965 z m -50.824,-0.1389 c 0.335,-0.6845 0.739,-1.3477 1.297,-1.9355 0.112,-0.1153 0.23,-0.2497 0.342,-0.3427 l -1.157,-2.2596 c -1.6,-1.131 0.965,-2.2773 0.37,-3.4081 l 0.222,0.019 c 0.04,-0.3497 0.111,-0.6563 0.26,-0.9353 -1.711,0.5171 -3.385,1.028 -4.724,0.5556 -0.781,0.5654 -1.332,1.2744 -1.555,2.1486 l -0.297,1.7596 c -0.08,1.9493 1.82,2.1379 3.047,2.8894 0.856,0.4018 1.525,0.9441 2.195,1.5095 z m 150.62,-1.2039 0.05,-0.046 v -0.019 z m -134.765,-6.0659 c 5.06,-3.9284 10.747,-3.2684 16.253,-2.5653 l 0.454,0.1667 c 0.819,-1.529 0.892,-3.339 2.083,-4.7972 l 0.889,-0.6112 c 1.264,-0.9151 2.643,-1.4586 4.168,-1.667 0.744,-0.048 1.488,-0.048 2.195,0.093 5.543,-0.026 10.675,1.3408 15.512,3.1302 v -0.028 c 0,0 -0.519,-0.4723 -0.482,-0.4723 -0.41,-0.212 -0.823,-0.4875 -1.12,-0.8149 -0.335,-0.331 -0.667,-0.7281 -0.89,-1.1299 -0.26,-0.4687 -0.444,-0.9645 -0.518,-1.4817 -0.112,-0.5654 -0.158,-1.1533 -0.121,-1.7411 0.07,-0.6139 0.12,-1.2236 0.343,-1.8337 -0.261,-3.9768 1.524,-7.0159 4.983,-9.2517 0.04,-0.186 0.07,-0.3916 0.185,-0.6297 0.968,-0.305 1.969,-0.5933 2.973,-0.8983 -1.078,-0.7515 -1.667,-1.8071 -1.519,-3.2877 -1.153,0.3758 -2.42,0.7762 -3.871,1.2225 h -0.01 c -0.818,0.2567 -1.635,0.4252 -2.454,0.6112 l 0.26,0.5834 -2.121,0.6205 c -0.707,0.6807 -1.486,1.3098 -2.751,0.815 l 0.07,0.1204 c -0.112,0 -0.184,-0.029 -0.296,-0.074 l -3.01,0.8983 c -4.874,1.4806 -9.602,3.5071 -14.475,4.612 -0.372,0.071 -0.702,0.1626 -1,0.2593 -0.706,0.6808 -1.45,1.3605 -2.158,2.0189 0.745,1.5067 1.781,2.3733 3.677,0.889 1.08,-0.8667 1.94,-1.9503 3.019,-2.8431 0.893,-0.7998 1.969,-0.8929 3.01,-0.3982 l 0.111,-0.046 c -0.297,0.6808 -0.516,1.4106 -1,2.0467 -0.26,0.6807 -0.712,1.3158 -1.047,2.0003 l -0.148,-0.046 c -2.344,1.4806 -4.312,3.6468 -7.511,3.2228 h 0.04 c -1.264,1.9046 -2.68,1.3851 -4.056,0.6113 -1.749,-1.0118 -3.014,-0.2822 -4.13,1.1761 -0.446,0.6361 -0.961,1.2237 -1.482,1.8337 -0.893,2.2805 -2.826,3.9679 -4.76,5.5936 z m 45.008,-3.0839 c 2.53,-1.2946 5.09,-1.5209 8.326,-0.602 0.558,-0.3311 1.154,-0.6897 1.787,-0.9724 0.335,-0.1376 0.675,-0.2366 1.009,-0.3519 l -0.898,-2.3245 -1.482,0.8242 c -2.529,0.5431 -5.027,1.2232 -7.482,1.9263 l -0.89,1.1484 c -0.111,0.119 -0.221,0.2366 -0.37,0.3519 z m 12.567,-2.2041 0.898,-0.046 c 2.232,0.1637 4.198,-0.3978 5.909,-1.8337 0.595,-0.3534 1.228,-0.6805 1.861,-0.9632 0.558,-0.2121 1.082,-0.5192 1.566,-0.8242 l -2.01,-2.5931 -3.084,0.6854 c 0.07,0.3795 0.111,0.7338 0.148,1.0835 l -0.972,0.3056 c -0.409,0.7254 -0.812,1.4276 -1.556,1.9448 -0.67,0.305 -1.34,0.5493 -2.01,0.7131 l -0.305,0.019 z m 96.462,-1.3707 c 1.525,-0.4687 3.197,-0.5093 4.909,-0.5093 l -0.593,-0.056 c -1.638,-0.1154 -3.088,0.047 -4.316,0.5649 z m 7.928,-0.5093 h 1.296 c 1.302,0 2.57,0.1122 3.834,-0.1482 0.596,-0.1637 1.193,-0.2997 1.825,-0.3704 1.228,-0.305 2.383,-0.7765 3.611,-1.1299 1.264,-0.4204 2.634,-0.64 4.01,-0.852 -0.632,0.022 -1.293,0.1252 -2.037,0.3334 -2.232,0.6362 -4.17,0.1692 -5.881,-0.8427 -0.67,0.6808 -1.377,1.3111 -2.232,1.8059 -1.414,0.7738 -2.901,1.1108 -4.426,1.2039 z m -90.887,-3.8341 c 0.967,-0.5431 1.904,-1.0379 2.722,-1.741 -0.706,0.044 -1.413,0.044 -2.083,0.093 l -0.936,0.1389 z m 156.167,-0.8983 0.05,-0.1111 h -0.05 z m 175.514,-4.9638 v -0.046 l -0.222,-0.213 z m -0.741,-0.7317 c -0.521,-0.4464 -1.007,-0.8875 -1.602,-1.2409 l -0.259,-0.046 c 0.67,0.3758 1.303,0.8185 1.861,1.2872 z m -96.684,-2.9172 c 0.26,-0.022 0.518,-0.037 0.778,-0.037 0,0.044 0.638,-0.1187 0.676,-0.093 l 0.333,-0.1204 c -0.596,0.048 -1.192,0.1347 -1.787,0.25 z m -250.361,-6.39 c 0.223,-0.048 0.444,-0.1238 0.63,-0.1945 0.446,-0.8221 1.155,-1.5693 1.861,-2.3245 -0.967,-1.0119 -2.039,-1.8569 -3.714,-2.0467 1.153,2.0461 1.595,3.4608 1.223,4.5657 z m 152.676,-2.7505 c 0.409,-1.6926 0.368,-3.2698 -1.417,-4.4453 -1.675,-1.0826 -1.825,-2.6066 -1.787,-4.2323 -0.633,0.2827 -1.22,0.6279 -1.815,1.0743 h -0.01 c -0.967,0.7515 -2.005,1.3409 -3.232,1.7874 -0.112,0.026 -0.592,0.2408 -0.704,0.2408 -0.149,0 0.335,0.4167 0.26,0.4167 0.447,0.1897 0.923,0.4303 1.37,0.7131 0.446,0.331 0.934,0.7041 1.269,1.1021 0.372,0.4724 0.666,0.9887 0.852,1.528 0.149,0.4948 0.148,0.987 0.111,1.4818 1.636,0.491 3.355,0.3338 5.066,0.2408 z m 160.372,-3.6303 c -3.013,-1.5736 -6.509,-2.5357 -8.964,-4.7231 v 0.4908 c 2.529,2.165 5.868,2.7331 8.807,4.2137 z m -148.398,-2.7228 0.02,-0.01 -0.02,-0.01 z m 97.426,-2.3245 2.232,-0.6853 c -4.612,-2.1167 -7.439,-5.435 -9.039,-9.6684 -0.04,-0.1376 -0.04,-0.2755 -0.04,-0.4168 -2.604,-0.5171 -4.613,-2.1865 -6.659,-3.7414 -0.223,0.5877 -0.563,1.1242 -1.046,1.5929 -0.371,0.3063 -0.778,0.5504 -1.186,0.8057 0.633,0.8965 1.792,1.4843 2.945,2.2134 1.86,1.1272 1.555,1.9015 -0.602,2.0652 -1.191,0.071 -2.12,0.6378 -1.972,1.7873 0.112,1.0826 0.967,1.86 2.121,2.2134 1.636,0.517 3.317,1.1977 4.991,1.3614 2.939,0.2604 5.537,1.5314 8.252,2.4726 z m -134.738,-5.6954 c 0.855,0.071 1.672,-0.073 2.38,-0.5187 0.483,-0.305 1.007,-0.6286 1.528,-0.889 0.52,-0.2827 1.081,-0.5233 1.639,-0.7131 -0.04,-0.9858 0.217,-2.0227 -0.416,-2.8894 -0.521,0.044 -1.035,0.1162 -1.556,0.213 -0.335,0.1637 -0.712,0.2315 -1.158,0.2315 -1.526,0.3274 -3.05,0.8944 -4.612,1.3891 -6.548,0 -13.021,0.9704 -19.605,0.5464 -0.261,0.1413 -0.518,0.323 -0.704,0.602 -1.748,0.4502 -3.466,0.8761 -5.214,1.2965 2.455,-0.2343 4.879,-0.68 7.298,-1.0557 1.152,-0.2604 2.264,-0.6853 3.454,-0.6853 1.86,0.026 3.687,0.076 5.51,0.1018 0.744,0.022 1.489,0.038 2.158,0.1575 1.042,0.1414 2.043,0.3302 3.047,0.639 0.669,0.1376 1.266,0.3323 1.898,0.5927 0.819,0.3051 1.636,0.6737 2.566,0.815 0.595,0.022 1.192,0.074 1.787,0.1667 z m 28.274,-1.6207 c 0.186,-0.1413 0.295,-0.2885 0.481,-0.4075 0.782,-0.4464 1.599,-0.6053 2.455,-0.676 -0.967,-0.1153 -1.932,-0.1641 -2.825,0.093 -1.562,0.7998 -3.984,-0.5895 -5.621,0.046 0.745,0.048 1.487,0.1622 2.231,0.3519 0.298,0.093 0.639,0.2199 0.936,0.3612 0.07,0.022 0.147,0.019 0.222,0.019 z m 8.298,-6.0011 c 0.335,-0.3311 0.702,-0.6787 1.111,-0.9354 0.855,-0.5653 1.857,-0.9646 2.713,-1.4817 0.52,-0.3534 1.082,-0.6859 1.603,-0.991 -0.818,-0.2827 -1.526,-0.659 -2.084,-1.1761 -1.116,-0.4464 -2.227,-0.965 -3.343,-1.3891 -2.902,0.6585 -6.286,0.5228 -9.15,1.278 0.706,0.2344 1.413,0.5174 2.083,0.7964 l 4.085,0.2038 c 1.153,0.7775 1.456,1.4404 0.861,2.0281 0.819,0.4688 1.6,0.9602 2.121,1.667 z m 19.374,-1.4355 c 0.521,-0.2567 1.081,-0.5583 1.639,-0.7964 l 0.639,-0.3519 c -1.861,-0.7068 -3.799,-1.2506 -5.622,-2.0467 -1.227,-0.6138 -2.531,-0.5825 -3.834,-0.3519 0.335,0.4502 0.675,0.867 1.047,1.2873 0.372,0.1898 0.738,0.3823 1.148,0.6204 0.595,0.3497 1.193,0.6983 1.713,1.1484 1.005,0.8222 2.043,1.127 3.27,0.4908 z m 61.455,-2.4171 h 0.05 l 0.629,-2.945 c 0.08,-1.0825 -0.301,-1.9308 -1.046,-2.6116 -0.743,0.1637 -1.524,0.2392 -2.38,0.1945 -0.372,-0.048 -0.702,-0.144 -1.074,-0.2408 -0.149,0.2828 -0.332,0.5474 -0.667,0.7594 -0.743,0.3534 -1.561,0.5629 -2.454,0.6113 -1.302,-0.071 -2.57,-0.3286 -3.872,-0.6113 -3.05,-0.5431 -6.136,-0.8539 -9.186,-1.278 -3.051,-0.3981 -6.026,-1.0291 -8.928,-2.5097 0.781,1.715 2.004,3.4084 1.111,5.075 4.576,-1.6666 9.077,-0.4638 13.503,1.4632 l 0.815,0.2593 0.861,0.1853 c 4.352,-1.2686 8.438,0.8485 12.641,1.6484 z m -121.235,-4.5656 c 0.335,-0.331 0.675,-0.6578 0.935,-1.0373 v -0.019 z" />
      </g>
    </g>
  </g>
</svg>
