<?xml version="1.0" encoding="UTF-8" standalone="no"?>
<!-- Created with Inkscape (http://www.inkscape.org/) -->

<svg
   viewBox="0 0 24.598114 22.270124"
   version="1.1"
   id="svg992"
   xmlns="http://www.w3.org/2000/svg"
   >
  <defs
     id="defs989" />
  <g
     id="layer1"
     transform="translate(-270.0499,3.5094549)">
    <path
       id="path48"
       d="m 283.33074,13.130042 c -10e-4,0.0024 -0.002,0.0049 -0.004,0.0076 0.001,-0.0028 0.003,-0.0052 0.004,-0.0076 z m -5.11521,-4.6389568 c 0.008,0.00685 0.0161,0.01206 0.0254,0.018111 -0.0262,-0.00367 -0.0523,-0.00888 -0.0785,-0.014073 0.0185,-0.0033 0.0367,-0.00445 0.0531,-0.00403 z m 6.2046,9.8242168 -0.008,0.0081 c -0.004,-0.0044 -0.008,-0.0093 -0.0121,-0.01409 0.006,0.0012 0.0117,0.002 0.0177,0.0024 5.3e-4,0.0012 0.002,0.0024 0.002,0.0037 z m 8.45946,-13.5295841 c -0.0121,-0.00258 -0.0229,-7.21e-4 -0.0346,-3.659e-4 -0.005,-0.00686 -0.01,-0.012871 -0.0148,-0.019312 -0.007,-0.010852 -0.0148,-0.021734 -0.023,-0.031817 -0.0129,-0.018916 -0.0234,-0.038246 -0.0221,-0.060788 0.003,-0.027382 0.006,-0.044285 0.005,-0.053142 0.0367,0.018507 0.0805,0.039454 0.12157,0.044279 -0.0169,0.037038 -0.0285,0.078103 -0.0326,0.1211784 z m -7.327,4.4420938 c -0.068,0.2161867 -0.21296,0.4070111 -0.31964,0.5990425 -0.23914,0.4275418 -0.46338,0.8619288 -0.73875,1.2653158 -0.12157,0.181968 -0.25322,0.371583 -0.41505,0.511682 -0.0793,0.05999 -0.16587,0.105879 -0.24921,0.170695 -0.0117,0.0089 -0.0197,0.01932 -0.0294,0.02939 0.002,-0.0052 0.005,-0.01087 0.003,-0.0157 0,-4.03e-4 0,-4.03e-4 0,-4.03e-4 0.023,-4.03e-4 0.0374,-0.031 0.0177,-0.05073 -0.0406,-0.0467 -0.0737,-0.08132 -0.10226,-0.139293 -0.0177,-0.04187 -0.0278,-0.08978 -0.0479,-0.13084 -0.041,-0.08092 -0.0906,-0.144124 -0.14815,-0.206927 -0.0568,-0.114736 -0.10909,-0.23068 -0.16908,-0.345014 -0.0713,-0.135669 -0.0793,-0.275366 -0.0523,-0.413048 0.004,-0.0084 0.008,-0.01691 0.0121,-0.02536 0.0398,-0.0781 0.0866,-0.148554 0.13527,-0.21659 0.0938,-0.115944 0.18398,-0.2339 0.25563,-0.3611164 0.0463,-0.074478 0.089,-0.1529811 0.12199,-0.2363162 0.0205,-0.04348 0.0342,-0.090983 0.0443,-0.1400982 0.0129,-0.050324 0.0201,-0.101451 0.0249,-0.1537862 0.1236,-0.1992787 0.24638,-0.3957386 0.3426,-0.6062898 0.0362,-0.05918 0.0652,-0.1219811 0.0878,-0.1884064 0.23631,0.1513707 0.54831,0.2041092 0.78785,0.1179571 0.18318,-0.065219 0.31804,-0.2367199 0.38607,-0.4339857 0.14131,0.047908 0.38527,-0.061191 0.54108,-0.1638515 0.0471,0.00403 0.091,0 0.13647,-0.00565 -0.004,0.018507 -0.006,0.037038 -0.008,0.055154 -0.18479,0.1340588 -0.35428,0.2882488 -0.45694,0.5020195 -0.0845,0.181161 -0.10225,0.3925167 -0.15982,0.5821327 z m -3.46542,2.5306313 c 0.007,0.0298 0.0197,0.05596 0.0298,0.08414 -0.01,-0.0153 -0.0217,-0.0298 -0.0298,-0.04509 -0.006,-0.01368 -0.0121,-0.02899 -0.0177,-0.04388 -0.0427,-0.131242 -0.0648,-0.270133 -0.0922,-0.40701 0.0415,0.134462 0.0753,0.270937 0.1099,0.411841 z m 7.93771,-9.6901549 c -0.0383,0.0052 -0.0721,0.01569 -0.10387,0.02899 0.0181,-0.05193 0.0439,-0.0938 0.0886,-0.07086 0.0201,0.01048 0.0318,0.02537 0.0403,0.04227 -0.008,0 -0.0169,-0.0011 -0.0249,-3.67e-4 z m -8.31091,6.6099975 c -0.0487,-0.1570045 -0.0874,-0.3184405 -0.12842,-0.4790701 0.0471,-0.024155 0.0934,-0.052739 0.13929,-0.088572 0.1393,0.048713 0.26772,0.0033 0.38568,-0.079708 0.0298,0.061997 0.0857,0.088971 0.1574,0.090177 -0.0684,0.1863971 -0.16143,0.3611173 -0.21055,0.5555643 -0.027,0.1135286 -0.0326,0.2181991 -0.0266,0.3236753 -0.002,0.016506 -0.004,0.03261 -0.005,0.049116 -0.006,0.094204 0.005,0.1888102 0.025,0.2810022 -0.1401,-0.1888114 -0.25241,-0.4194913 -0.33655,-0.6521848 z M 281.58273,8.200824 c 0.008,0.032622 0.0153,0.065622 0.0205,0.1014516 0,0.0015 3.6e-4,0.00294 3.6e-4,0.00445 -0.008,-0.035043 -0.0153,-0.07005 -0.0225,-0.1054762 5.3e-4,0 10e-4,-3.666e-4 0.002,-3.666e-4 z m 0.75363,-0.084543 c -0.0322,0.065219 -0.0664,0.1292283 -0.10024,0.1940438 0.0153,-0.063203 0.0302,-0.1268122 0.0459,-0.1904187 0.0177,-3.66e-4 0.0354,-3.66e-4 0.0544,-0.00367 z m 1.22264,0.2749652 c 0.002,0.023753 0.006,0.047908 0.0101,0.072063 -0.007,-0.02335 -0.0145,-0.0467 -0.0201,-0.070453 0.003,-7.21e-4 0.007,-0.00108 0.0101,-0.0015 z m 0.003,0.8719924 c -0.0105,0.043882 -0.0117,0.092997 -0.0141,0.1400988 -0.0205,0.056362 -0.0374,0.1139307 -0.0431,0.1775384 0,0.00845 0.002,0.014493 0.002,0.02174 -0.0133,0.031804 -0.0286,0.062803 -0.0463,0.092997 -0.0124,0.015298 -0.0238,0.029798 -0.0367,0.044285 -0.13729,0.1610328 -0.2955,0.3353512 -0.39333,0.5362402 -0.0761,0.09783 -0.13849,0.186798 -0.1562,0.325689 -0.0157,0.132047 0.0471,0.26973 0.093,0.394128 -0.01,-0.0052 -0.0193,-0.01047 -0.0278,-0.0157 -0.0922,-0.04952 -0.15379,-0.132853 -0.19929,-0.23068 -0.031,-0.08937 -0.0543,-0.180759 -0.0882,-0.269328 -0.0261,-0.111917 -0.0463,-0.225043 -0.0729,-0.320858 -0.0398,-0.134865 -0.0994,-0.2548348 -0.16909,-0.367155 -0.0113,-0.051934 -0.0302,-0.1026588 -0.0459,-0.1509681 -0.0161,-0.051531 -0.0322,-0.1026582 -0.0479,-0.1533843 -0.0173,-0.065621 -0.0342,-0.1316438 -0.0458,-0.1988754 -0.0435,-0.242757 0.0314,-0.4726318 0.0528,-0.7081428 0.0745,-0.1839827 0.17552,-0.3578953 0.24879,-0.5434866 0.06,-0.028187 0.11796,-0.060388 0.16546,-0.09179 0.0492,0.00294 0.095,-3.665e-4 0.13809,-0.00645 -0.0258,0.1091008 -0.0278,0.2202109 0.0737,0.2850263 0.0576,0.036215 0.11513,0.047908 0.1727,0.045895 0.017,0.022947 0.0374,0.04509 0.0632,0.065219 0.0978,0.074074 0.21055,0.07649 0.32609,0.0624 5.3e-4,0.00294 3.7e-4,0.00487 5.3e-4,0.00726 0.0282,0.1199694 0.0672,0.2367205 0.0986,0.3574921 0.0463,0.1863983 -0.003,0.3248868 -0.0487,0.5008153 z m 0.32327,-0.6240048 c -0.008,-0.047908 -0.0242,-0.095814 -0.0394,-0.1441235 0.041,-0.00108 0.0853,-0.010077 0.13003,-0.024155 -3.6e-4,7.211e-4 -5.2e-4,0.0015 -0.001,0.00258 0.007,-0.00186 0.0133,-0.00604 0.0197,-0.00847 0.0435,-0.014884 0.0874,-0.033829 0.13003,-0.056362 -0.0169,0.055557 -0.0363,0.1103067 -0.0632,0.1634483 -0.0491,0.092592 -0.10467,0.1783405 -0.14895,0.2729493 -0.007,-0.069647 -0.0158,-0.1376845 -0.027,-0.2057183 z m -0.24195,0.5285927 c -0.004,0.010065 -0.008,0.019324 -0.0117,0.028986 0.0185,-0.080113 0.0358,-0.1582141 0.0415,-0.2403414 0.004,0.071257 -0.003,0.1421111 -0.0298,0.2113554 z m -0.34864,2.9730705 c -0.003,-0.0037 -0.0101,-0.004 -0.0113,0.002 -0.0225,0.104672 -0.0616,0.200889 -0.1087,0.29308 -0.13929,0.157007 -0.26128,0.331325 -0.35065,0.529396 -0.006,0.01368 -0.01,0.02939 -0.016,0.04348 -0.064,0.101853 -0.12319,0.206525 -0.16627,0.320456 -0.007,-0.100243 -0.0217,-0.196863 -0.0511,-0.295093 -0.005,-0.01449 -0.0129,-0.02013 -0.0254,-0.02134 -0.008,-0.05032 -0.0158,-0.100646 -0.0237,-0.150566 -0.0113,-0.159825 -0.0342,-0.317235 -0.0845,-0.469814 -0.0583,-0.175526 -0.16868,-0.316832 -0.27859,-0.459346 -0.0181,-0.03986 -0.0371,-0.08011 -0.0507,-0.12319 -0.0749,-0.22907 -0.0825,-0.471424 -0.16828,-0.697273 -0.0234,-0.06481 -0.0523,-0.126411 -0.0833,-0.186395 -0.0298,-0.08736 -0.0684,-0.171903 -0.11755,-0.255238 -0.2033,-0.355077 -0.48874,-0.616353 -0.76088,-0.9037971 -0.0817,-0.1163462 -0.1562,-0.2383285 -0.21498,-0.3727911 -0.0688,-0.1594231 -0.10024,-0.3333381 -0.13486,-0.5064486 0.0371,-0.017311 0.0741,-0.041869 0.1099,-0.080516 0.0854,-0.087763 0.11876,-0.2033045 0.14816,-0.3196518 0.1723,-7.211e-4 0.31642,-0.08937 0.41706,-0.2391325 0.0346,0.00645 0.0688,0.00726 0.10226,0.00367 0.0342,0.1654649 0.0749,0.3281069 0.13004,0.4883339 0.0942,0.2572507 0.19485,0.5547591 0.36635,0.7636999 0.0978,0.1167481 0.1872,0.2266528 0.26611,0.3450125 0.025,0.1002426 0.0334,0.2073298 0.0608,0.3047548 0.0543,0.178344 0.14413,0.338169 0.1864,0.520539 0.029,0.135267 0.068,0.266509 0.14815,0.376817 0.0383,0.05113 0.0841,0.08857 0.13205,0.122787 0.0809,0.0777 0.1719,0.14654 0.23873,0.237524 0.0849,0.117554 0.19928,0.24477 0.27174,0.382051 0.0141,0.05757 0.029,0.115541 0.0572,0.16224 0.0306,0.05274 0.0282,0.117554 0.0121,0.184786 z m 0.37239,-0.514098 c 0.006,0.0157 0.0137,0.0314 0.0209,0.04549 -0.002,0.0037 0,0.0084 0,0.01127 0.002,0.0056 0.002,0.01087 0.004,0.01651 -0.006,-0.0149 -0.0141,-0.0298 -0.0209,-0.04429 -0.002,-0.0097 -0.002,-0.01932 -0.004,-0.02899 z m 7.81855,-4.5306592 c 3.7e-4,0.00258 0.002,0.00523 0.004,0.00645 0.0117,0.015286 0.0229,0.030609 0.0342,0.046298 -0.0161,0.013676 -0.0322,0.028187 -0.0483,0.041467 -0.0109,-0.03541 -0.0157,-0.06884 0.0104,-0.094201 z m -21.38098,0.510472 c -0.15395,0.2435633 0.0451,0.5237597 0.24775,0.6433254 0.2351,0.1441277 0.54956,0.035446 0.7703,-0.084136 0.12503,-0.070454 0.22202,-0.1831758 0.33817,-0.2677192 0.0535,-0.035812 0.17093,0.056765 0.20616,0.084543 0.0564,0.044687 0.0387,0.1570052 0.0409,0.2202109 10e-4,0.087362 0.10109,0.1509681 0.1779,0.1324502 0.25008,-0.060791 0.48322,-0.119163 0.63592,-0.3478306 0.01,-0.01206 0.0174,-0.026174 0.0217,-0.037441 0.0831,0.101451 -0.12029,0.2387323 -0.17923,0.3272999 -0.0613,0.088567 -0.0505,0.2061214 0.0383,0.2636903 0.0709,0.047109 0.13482,0.059583 0.21679,0.064417 0.14662,0.00565 0.11486,0.019312 0.0616,0.1493548 -0.0692,0.1823711 -0.0285,0.3607152 0.10592,0.4935675 0.20004,0.1980703 0.52843,0.1022561 0.74723,-0.062803 0.21743,0.091789 0.42601,-0.1050742 0.57545,-0.3144164 0.0344,-0.050726 0.0711,-0.1058795 0.1087,-0.1562024 0.002,-0.00487 0.002,-0.00685 0.004,-0.00806 0.0752,0.069243 -0.0374,0.194045 -0.0183,0.28825 0.007,0.029389 0.0159,0.056362 0.0261,0.080919 0.0285,0.071256 0.0733,0.1223843 0.15418,0.1586167 0.0755,0.03583 0.16659,0.00684 0.24011,-0.02174 0.0522,-0.020526 0.099,-0.068036 0.15571,-0.079309 0.0772,-0.017311 0.1792,0.030597 0.25488,0.045895 0.20773,0.045084 0.43398,-0.1602276 0.45854,-0.3683626 0.0148,-0.1119201 0.0692,0.021331 0.0773,0.058375 0.0165,0.065621 0.005,0.1461371 -0.0109,0.2105506 -0.0181,0.079309 -0.0447,0.1839803 -0.005,0.2628863 0.10789,0.216992 0.32005,0.2186017 0.52778,0.2004865 0.19163,-0.016909 0.36072,-0.1396969 0.4364,-0.3264947 0.0463,-0.1115151 0.0278,-0.2077324 0.14171,-0.1654613 0.0765,0.028584 0.17432,0.019324 0.24315,-0.030188 0.0833,-0.058778 0.15138,-0.1268134 0.19888,-0.2181997 0.0254,-0.050726 0.0358,-0.098635 0.0479,-0.1537886 10e-4,-0.00645 3.7e-4,-0.014073 3.7e-4,-0.020123 0.0745,-0.012907 0.15056,-0.048713 0.219,-0.098633 0.11031,0.026174 0.23189,-0.00604 0.34623,-0.095818 0.0556,0.076493 0.14613,0.1147382 0.26287,0.1034639 0.041,-0.00403 0.0986,-0.024558 0.1542,-0.037441 0.0568,0.018507 0.11272,0.032219 0.16787,0.042272 0.0564,0.1002456 -0.002,0.1155415 0.0121,0.2367199 0.0371,0.2814066 0.35428,0.2121621 0.62038,0.083336 0.002,0.010065 0.002,0.020532 0.004,0.030597 0.0362,0.167071 0.2186,0.1843823 0.34945,0.1489558 0.0101,-0.00324 0.0217,-0.00845 0.0322,-0.012486 0.0169,0.027376 0.0403,0.051934 0.0721,0.072465 0.17553,0.1127228 0.35467,0.048713 0.52295,-0.039454 0.16104,0.1489557 0.37883,0.043077 0.53825,-0.129631 0.01,0.036635 0.0197,0.071257 0.029,0.1014504 0.0749,0.2407446 0.16305,0.4637754 0.27859,0.6743253 0.0668,0.1622412 0.15057,0.3148193 0.27255,0.4569313 0.27899,0.320455 0.57287,0.679157 0.71982,1.096232 0.0371,0.137683 0.066,0.280197 0.0986,0.429153 0.0841,0.385271 0.33374,0.68761 0.38728,1.084153 0.0254,0.188409 0.0684,0.373194 0.0938,0.562408 0.0205,0.171098 -0.0145,0.343403 -0.01,0.513695 0.002,0.109502 0.0185,0.219408 0.0592,0.316833 -0.0105,0.127617 -0.0322,0.298716 -0.0133,0.446463 0.003,0.100646 0.008,0.200486 0.017,0.298313 -3.7e-4,0.02818 0.002,0.05596 -0.003,0.08414 -0.008,0.05838 -0.003,0.106282 0.0136,0.150163 0.002,0.174722 0.0849,0.35226 0.18399,0.499605 0.0205,0.03542 0.0431,0.07206 0.0644,0.107087 0.0254,0.12319 0.0777,0.270133 0.13405,0.409828 0.003,0.0161 0.01,0.03945 0.0173,0.06482 0.0354,0.138892 0.0749,0.276977 0.11071,0.417076 0.002,0.01087 0.009,0.01571 0.0181,0.0161 0.002,0.02496 0.068,0.182772 0.14413,0.362324 0.0757,0.300728 0.17874,0.673118 0.23792,0.952912 -0.002,0.03462 -0.005,0.06804 -0.0113,0.100243 l -0.16949,-0.06119 -0.0302,0.0153 c -0.0246,0.0089 -0.0491,0.02456 -0.0769,0.03825 -5.3e-4,4.03e-4 -0.002,0.0016 -0.002,0.002 l -0.005,0.0024 -0.004,0.006 c -0.0278,0.02697 -0.0636,0.09863 -0.0898,0.13084 l -0.006,-0.01127 -0.0254,-0.0081 c -3.7e-4,0 -10e-4,-4.04e-4 -0.002,-4.04e-4 -3.7e-4,-4.03e-4 -3.7e-4,-4.03e-4 -3.7e-4,-4.03e-4 -0.002,-4.02e-4 -0.004,-7.81e-4 -0.005,-0.0012 -0.008,-0.0037 -0.0157,-0.0068 -0.0242,-0.0084 -0.008,-0.0016 -0.0153,-0.0045 -0.0234,-0.006 -0.0165,-0.0052 -0.0334,-0.01006 -0.0499,-0.0153 l -0.0946,-0.02899 -0.005,7.81e-4 c -0.0205,-0.0032 -0.0552,0.0084 -0.0737,0.01006 -0.0298,0.0049 -0.0592,0.0097 -0.0898,0.01369 v 4.03e-4 l -0.004,7.82e-4 c 3.7e-4,0 0,-7.82e-4 3.7e-4,-7.82e-4 -3.7e-4,0 -5.3e-4,7.82e-4 -10e-4,7.82e-4 l -0.006,7.81e-4 -0.005,0.0052 c -0.0322,0.01651 -0.0697,0.06844 -0.0914,0.09058 l -0.0757,0.07569 c -0.004,0.004 -0.008,0.0081 -0.0121,0.01248 0,-4.03e-4 3.7e-4,-7.81e-4 3.7e-4,-7.81e-4 l -0.0636,0.06321 0.002,0.01168 c -0.004,0.03422 0.0105,0.111112 0.0189,0.127216 0.0113,0.02013 0.0447,0.03986 0.0616,0.05515 10e-4,0.0012 0.002,0.0016 0.003,0.0028 l 0.035,0.0314 0.0362,0.002 c 0,0 -3.7e-4,4.03e-4 -3.7e-4,7.81e-4 l 0.43117,0.02456 c -3.7e-4,-4.03e-4 -5.3e-4,-7.81e-4 -0.001,-0.0012 l 0.008,7.81e-4 c 0.0258,-0.0097 0.0507,-0.02214 0.0757,-0.03301 0.0242,-0.0097 0.0491,-0.01852 0.0729,-0.0306 v -4.04e-4 h 3.7e-4 l 0.0495,-0.09501 c 0.004,-0.0072 0.008,-0.0149 0.0117,-0.02214 0.0177,0.02939 0.0709,0.0628 0.099,0.08615 l 0.008,0.0072 c 0.0105,0.0097 0.0201,0.01811 0.0286,0.02496 l 0.029,0.02536 0.0516,0.0084 c 3.6e-4,0 5.3e-4,0 0.001,4.03e-4 0,0 0,0 0,-4.03e-4 l 0.0113,0.002 -3.7e-4,4.04e-4 0.77537,0.125606 v 0 l 0.0133,0.0024 c 0.0942,-0.0161 0.18881,-0.03301 0.28019,-0.05677 l 0.0821,-0.0942 c 0.0109,0.0084 0.0217,0.01691 0.0298,0.02416 l 0.0157,0.01409 c 0.003,0.0028 0.006,0.0064 0.009,0.0089 l 0.0278,0.02576 0.63125,0.03704 c 0.001,-4.04e-4 0.002,-0.0012 0.003,-0.0016 v 0 c 0.066,-0.02617 0.13125,-0.05234 0.19446,-0.08535 0.039,-0.08092 0.0781,-0.161033 0.12197,-0.239134 l 0.004,-0.006 v 0 l 5.3e-4,-0.0012 -10e-4,-0.0012 v 0 c -0.0101,-0.01047 -0.0193,-0.02053 -0.029,-0.03099 0,-0.0012 5.3e-4,-0.0024 -3.6e-4,-0.004 -0.017,-0.01772 -0.035,-0.03421 -0.0528,-0.05153 -0.0124,-0.01328 -0.0249,-0.02617 -0.0378,-0.03905 -0.0221,-0.02697 -0.0418,-0.05515 -0.0656,-0.08011 -0.01,-0.01007 -0.0181,-0.02053 -0.0273,-0.0306 -0.006,-0.0097 -0.0129,-0.01811 -0.0197,-0.02697 l -0.0169,-0.031 -0.0467,-0.01449 c -0.01,-0.0032 -0.0185,-0.0072 -0.0286,-0.0097 -0.008,-0.0016 -0.0153,-0.0044 -0.0229,-0.006 l -0.11473,-0.03585 c -0.0282,-0.0089 -0.0564,-0.01772 -0.0845,-0.02657 -3.7e-4,0 -5.3e-4,0 -10e-4,0 h -3.7e-4 -10e-4 c -0.0254,-0.0064 -0.0709,0.0089 -0.0982,0.01449 l -0.1393,0.02053 -0.0101,0.01047 c -0.0158,0.0089 -0.0322,0.02255 -0.0483,0.04026 -0.0229,-0.0773 -0.0459,-0.154995 -0.0712,-0.232692 -0.0717,-0.220213 -0.49678,-1.216605 -0.61152,-1.415883 -0.13165,-0.229874 -0.35427,-0.437204 -0.49397,-0.679961 -0.003,-0.006 -0.006,-0.01168 -0.01,-0.01731 -0.0383,-0.06884 -0.0676,-0.141306 -0.0882,-0.217395 -0.004,-0.0169 -0.006,-0.03421 -0.009,-0.05113 0.0113,-0.156203 -0.003,-0.308379 0.0266,-0.464581 0.0109,-0.05636 0.0314,-0.108294 0.0507,-0.159825 0.0656,-0.105074 0.0982,-0.224238 0.1405,-0.345416 0.004,-0.0161 -0.0153,-0.03502 -0.0249,-0.01932 -0.0234,0.03382 -0.0487,0.06441 -0.0725,0.09581 0.031,-0.126008 0.0516,-0.252016 0.0383,-0.39292 -0.003,-0.02053 -0.0302,-0.02255 -0.033,-0.0037 -0.005,0.04348 -0.0145,0.08535 -0.0254,0.126813 -0.004,-4.03e-4 -0.008,-4.03e-4 -0.0109,0.0044 -0.0874,0.197667 -0.23672,0.423114 -0.28462,0.656209 -0.0318,-0.100646 -0.062,-0.201291 -0.0874,-0.303144 -0.006,-0.108698 -0.0141,-0.217395 -0.0242,-0.324482 -0.003,-0.03664 0,-0.07166 3.6e-4,-0.107087 0.0431,-0.161838 0.0882,-0.323273 0.11595,-0.490747 0.0282,-0.170293 0.0632,-0.339377 0.12078,-0.499203 0.0398,-0.05717 0.0725,-0.119969 0.10628,-0.18398 0.0318,-0.06119 0.0704,-0.116346 0.1099,-0.171097 0.0547,-0.06039 0.1083,-0.122385 0.16345,-0.178747 0.11111,-0.114736 0.22907,-0.225043 0.34179,-0.336559 0.0902,-0.07609 0.17795,-0.153786 0.26087,-0.235107 0.11997,-0.07327 0.21257,-0.208941 0.29953,-0.341793 0.058,-0.06844 0.11634,-0.135268 0.1723,-0.207732 0.0693,-0.09098 0.13285,-0.185993 0.19445,-0.283015 0.097,-0.135671 0.18196,-0.280197 0.24839,-0.435595 0.16547,-0.320858 0.30999,-0.657819 0.45774,-0.9919627 0.0531,-0.078504 0.0954,-0.1634483 0.13366,-0.2516139 0.0124,-0.010065 0.023,-0.022948 0.025,-0.041467 0.003,-0.00765 0.005,-0.014896 0.004,-0.024155 0.0282,-0.049921 0.0555,-0.1014503 0.0841,-0.1513706 0.11797,-0.1972658 0.20895,-0.4122442 0.30678,-0.625209 0.0765,-0.1239977 0.15982,-0.2475887 0.25,-0.3647424 0.0761,-0.00766 0.15177,-0.039454 0.22504,-0.077696 0.13567,0.1260059 0.32247,0.025766 0.4509,-0.1252036 0.0672,0.022947 0.14533,0.00108 0.21941,-0.077699 0.0624,-0.063206 0.0882,-0.1437209 0.11111,-0.2270549 0.0221,-0.00445 0.0443,-0.00887 0.0648,-0.016494 0.0322,-0.010888 0.0624,-0.026174 0.0906,-0.04509 0.0507,-0.022142 0.0966,-0.054752 0.13648,-0.097826 0.0596,-0.019312 0.11917,-0.040661 0.17794,-0.067232 0.0491,-0.013267 0.0974,-0.037441 0.14493,-0.070856 0.039,-0.011693 0.0777,-0.014481 0.11634,-0.017702 0.12481,0.010888 0.23673,-0.064816 0.33777,-0.1594243 0.0934,0.066828 0.19848,0.061194 0.33576,-0.012907 0.07,-0.037843 0.13003,-0.098629 0.19284,-0.1533837 0.007,-0.00445 0.0133,-0.00927 0.0201,-0.012865 0.0104,0.00108 0.0209,0.00258 0.0358,0.00367 0.031,0.00487 0.14533,0.067231 0.1707,0.029401 -0.0934,0.1409022 -0.15701,0.3486371 0.005,0.470215 0.10186,0.080921 0.22867,0.05757 0.35065,0.037441 0.0504,0.1006452 0.15943,0.1086946 0.27497,0.073269 l -3.7e-4,3.66e-4 c 10e-4,-3.66e-4 0.002,-7.211e-4 0.003,-0.00108 0.041,-0.012907 0.0829,-0.031005 0.12319,-0.052739 0.18237,0.2198077 0.5314,0.3176348 0.78302,0.2274575 0.18157,-0.064009 0.30516,-0.2596657 0.33696,-0.4625646 0.0427,-0.016897 0.0841,-0.037843 0.1236,-0.064417 0.0346,0.00487 0.0696,0.00403 0.10184,-0.012871 0.0495,-0.024155 0.0789,-0.056765 0.099,-0.098633 0.006,-0.01206 0.0121,-0.02496 0.0165,-0.038648 0.0435,-0.030206 0.0858,-0.061997 0.12803,-0.095415 0.11272,0.1324503 0.25766,0.2371238 0.4046,0.1690864 0.16988,0.1207752 0.42472,0.1839815 0.57206,0.026979 0.10065,-0.1058789 0.12722,-0.2443661 0.0668,-0.3808441 -0.0419,-0.096617 -0.0648,-0.1078918 0.0447,-0.1171507 0.0636,-0.00445 0.11192,-0.017702 0.16465,-0.054752 0.0652,-0.047103 0.0713,-0.1356715 0.0234,-0.2033027 -0.048,-0.065622 -0.20814,-0.1638516 -0.14936,-0.244773 0.007,0.010077 0.0148,0.018507 0.0213,0.027382 0.12158,0.1715014 0.30113,0.2093434 0.49437,0.2471849 0.0564,0.011693 0.13366,-0.039454 0.13124,-0.1054757 3.7e-4,-0.049518 -0.0189,-0.1340594 0.0242,-0.1702917 0.0273,-0.022947 0.11553,-0.097428 0.15901,-0.069647 0.0906,0.059986 0.16546,0.1449311 0.26531,0.1932374 0.1715,0.085349 0.41224,0.157412 0.59099,0.041467 0.15016,-0.098633 0.29509,-0.3176384 0.17351,-0.500411 -0.068,-0.096214 -0.15459,-0.1340588 -0.2488,-0.1682757 0.062,-0.098633 0.10427,-0.1928379 0.0427,-0.3313282 -0.0596,-0.1344626 -0.18801,-0.1775383 -0.31603,-0.1972657 0.009,-0.03541 0.0173,-0.067631 0.0201,-0.1074886 0.002,-0.074478 -0.0342,-0.1461371 -0.0745,-0.2049155 -0.0535,-0.072865 -0.11273,-0.09702 -0.17634,-0.1123197 0.006,-0.047103 -5.3e-4,-0.1010484 -0.0386,-0.15942 -0.0189,-0.028187 -0.0431,-0.050323 -0.0684,-0.069646 -0.006,-0.00565 -0.0129,-0.010888 -0.0201,-0.015689 -0.0246,-0.016494 -0.0511,-0.0302 -0.0785,-0.041467 -0.008,-0.0033 -0.0157,-0.00645 -0.0238,-0.00927 -0.007,-0.00258 -0.0145,-0.00604 -0.0221,-0.00847 0,7.21e-4 -3.7e-4,0.00108 -5.3e-4,0.00186 -0.029,-0.00968 -0.0576,-0.017702 -0.0865,-0.024155 3.6e-4,0 3.6e-4,-7.211e-4 5.2e-4,-7.211e-4 -0.0294,-0.00726 -0.0612,-0.012907 -0.0894,-0.016494 -0.0676,-0.01206 -0.1232,-0.010485 -0.17312,-0.05757 -0.0201,-0.018111 -0.0435,-0.032622 -0.068,-0.044285 0.22302,-0.00523 0.35789,-0.1702917 0.33051,-0.402581 h 3.7e-4 c -0.002,-0.02698 -0.007,-0.05435 -0.0148,-0.08253 0.14372,-0.111917 0.19163,-0.302339 0.0809,-0.461763 -0.0141,-0.02496 -0.031,-0.04992 -0.0523,-0.07327 -0.0797,-0.08414 -0.25,-0.140503 -0.3587,-0.0938 -0.0797,0.03464 -0.0592,0.0302 -0.1236,-0.0069 -0.003,-0.0286 -0.01,-0.05395 -0.0205,-0.0773 -0.003,-0.0077 -0.008,-0.01488 -0.0121,-0.02254 -0.005,-0.0093 -0.0105,-0.01892 -0.0173,-0.02778 -0.0148,-0.02537 -0.0338,-0.0475 -0.0564,-0.06643 -0.004,0.0037 -0.008,0.0056 -0.0133,0.0069 -0.0121,-0.0077 -0.0238,-0.01569 -0.0371,-0.02214 -3.6e-4,-3.67e-4 -0.001,-0.0011 -0.002,-0.0015 0.0773,-0.02295 0.13648,-0.07931 0.16667,-0.154992 0.16788,-0.06522 0.39534,-0.20129 0.35991,-0.399362 -0.0242,-0.135669 -0.0962,-0.208537 -0.1884,-0.247589 0.097,-0.130035 0.16827,-0.284224 0.0878,-0.429957 -0.0246,-0.04509 -0.0519,-0.0781 -0.0809,-0.104267 5.3e-4,0 0.002,3.67e-4 0.002,3.67e-4 0,0 -0.004,-0.004 -0.0101,-0.0085 -10e-4,-7.21e-4 -0.002,-0.0029 -0.004,-0.004 -3.6e-4,-3.66e-4 -0.001,-7.21e-4 -0.001,-7.21e-4 -10e-4,-0.0015 -0.003,-0.0015 -0.004,-0.0029 -0.0209,-0.01609 -0.0427,-0.02859 -0.0656,-0.03744 -0.007,-0.0033 -0.0141,-0.006 -0.0209,-0.0085 -0.0226,-0.0077 -0.0447,-0.01327 -0.068,-0.01649 -0.008,-0.0011 -0.0161,-0.0019 -0.0241,-0.0026 -0.0201,-0.0019 -0.0398,-0.0033 -0.0604,-0.0033 -0.0141,0 -0.0286,-3.67e-4 -0.0431,0 -0.0226,3.66e-4 -0.0451,0.0011 -0.068,0.0015 -0.0463,-0.122788 -0.17231,-0.167476 -0.30717,-0.173513 -0.004,-0.150166 -0.037,-0.29429 -0.19364,-0.358702 -0.1397,-0.05878 -0.28704,-0.03061 -0.40218,0.05797 -0.0841,-0.0302 -0.16265,-0.01291 -0.22787,0.03622 -0.003,-0.006 -0.007,-0.01246 -0.0145,-0.01649 -0.0523,-0.05435 -0.0954,-0.08817 -0.16909,-0.103867 -0.0535,-0.01089 -0.10185,-0.01049 -0.14694,-0.0011 -0.01,-0.02456 -0.0205,-0.04831 -0.0394,-0.07045 0.0495,-0.06482 0.0668,-0.145334 0.0161,-0.22906996 -0.0133,-0.02012 -0.0294,-0.03581 -0.0495,-0.04831 -0.0113,-0.08656 -0.035,-0.165864 -0.0741,-0.230276 -0.0704,-0.11715 -0.15499,-0.149359 -0.24437,-0.142112 0.0632,-0.171498 0.0713,-0.359102 -0.0471,-0.505242 -0.0825,-0.100242 -0.0954,-0.236314 -0.18076,-0.334139 -0.0982,-0.110711 -0.18559,-0.05073 -0.27496,-0.0077 -0.0185,-0.07891 -0.054,-0.148153 -0.10468,-0.207734 0.13648,-0.159424 0.24276,-0.360311 0.28463,-0.56281104 0.008,-0.03581 0.0113,-0.06965 0.0129,-0.10185 3.7e-4,-0.0081 -3.7e-4,-0.01448 -3.7e-4,-0.02214 0,-0.02375 -5.2e-4,-0.0463 -0.004,-0.06804 -10e-4,-0.0089 -0.003,-0.0173 -0.005,-0.02617 -0.004,-0.0177 -0.008,-0.03504 -0.0145,-0.05113 -0.004,-0.0092 -0.008,-0.01811 -0.0121,-0.02698 -0.006,-0.01291 -0.0133,-0.02577 -0.0213,-0.03744 -0.006,-0.0092 -0.0129,-0.0177 -0.0197,-0.02617 -0.008,-0.0089 -0.0165,-0.0169 -0.0254,-0.02496 -0.01,-0.0085 -0.0189,-0.0173 -0.0294,-0.02456 -0.008,-0.0049 -0.0157,-0.0089 -0.0238,-0.01327 -0.0141,-0.0077 -0.0278,-0.01569 -0.0431,-0.02134 -0.002,-7.21e-4 -0.004,-0.0011 -0.005,-0.0015 -0.0455,-0.0169 -0.097,-0.02617 -0.15419,-0.02537 -0.0515,-0.182773 -0.14935,-0.385273 -0.34098,-0.392922 -0.11474,-0.0033 -0.19968,0.06039 -0.2798,0.138087 -0.0423,0.03904 -0.0841,0.09984 -0.10507,0.156202 -0.0338,-0.01851 -0.062,-0.04066 -0.0857,-0.06844 -0.0507,-0.004 -0.0588,-0.02093 -0.0173,-0.05234 0.0342,-0.05032 0.0769,-0.09863 0.099,-0.159021 0.0451,-0.126812 0.0423,-0.277377 -0.0165,-0.400165 -0.0467,-0.103464 -0.15178,-0.169888 -0.26208,-0.165465 -0.1083,0.0033 -0.16506,0.03905 -0.22826,0.09461 -0.0314,-0.01649 -0.0628,-0.05556 -0.0998,-0.06441 -0.0785,-0.01931 -0.14775,-0.0026 -0.21297,0.05354 -0.0463,0.03904 -0.0737,0.08776 -0.095,0.142915 -0.1872,0.0097 -0.37924,0.121179 -0.49719,0.260472 -0.10024,0.122385 -0.13929,0.26651 -0.10468,0.423114 0.004,0.01569 0.0109,0.0302 0.0197,0.04428 0.002,0.0026 0.004,0.0052 0.005,0.0073 0.008,0.01206 0.0177,0.02335 0.0282,0.03384 3.7e-4,7.21e-4 5.2e-4,0.0011 0.002,0.0019 0.0177,0.0177 0.0371,0.03423 0.0556,0.04791 0.001,0 0.002,0.0011 0.003,0.0011 0.006,0.0049 0.0125,0.0097 0.0181,0.01371 0.002,0.0033 0.005,0.004 0.008,0.0065 10e-4,0.0015 0.003,0.0029 0.004,0.0044 0.003,0.0026 0.005,0.004 0.009,0.0056 l -0.002,0.0019 v 0 c -0.0124,0.01129 -0.0221,0.02214 -0.0334,0.03464 -0.0262,0.03141 -0.0504,0.07569 -0.0644,0.122788 -0.005,-0.0044 -0.01,-0.0085 -0.0145,-0.01089 5.3e-4,7.21e-4 0.002,0.0015 0.002,0.0029 -0.0564,-0.04187 -0.11394,-0.04791 -0.18479,-0.03383 -0.0282,-0.108698 -0.10225,-0.185991 -0.20129,-0.223837 0.054,-0.07286 0.10185,-0.149358 0.13728,-0.229873 0.0136,-0.03141 0.0242,-0.062 0.0322,-0.09139 0.005,-0.01851 0.008,-0.03665 0.0104,-0.05435 0.002,-0.01045 0.004,-0.02134 0.005,-0.03182 0.002,-0.01771 5.3e-4,-0.03464 0,-0.05113 -3.7e-4,-0.0097 -5.3e-4,-0.01931 -0.002,-0.02859 -0.002,-0.01569 -0.005,-0.03061 -0.009,-0.04509 -0.003,-0.0097 -0.006,-0.01851 -0.009,-0.02779 -0.005,-0.01286 -0.0109,-0.02576 -0.0173,-0.03744 -0.005,-0.0097 -0.0121,-0.01851 -0.0181,-0.02738 -0.008,-0.01008 -0.0148,-0.02053 -0.0234,-0.0294 -0.009,-0.0097 -0.0197,-0.01851 -0.0306,-0.02738 -0.008,-0.0069 -0.0157,-0.01407 -0.0246,-0.02012 -0.0181,-0.01206 -0.0379,-0.02254 -0.0588,-0.03222 -0.004,-0.0015 -0.006,-0.0037 -0.0101,-0.0052 -5.2e-4,-3.67e-4 -0.002,-7.21e-4 -0.003,-0.0011 l 5.2e-4,3.67e-4 c -0.0261,-0.01049 -0.0544,-0.01931 -0.0849,-0.02577 -0.0137,-0.190019 -0.0676,-0.410633 -0.25483,-0.45975 -0.11112,-0.02859 -0.20532,0.01569 -0.29992,0.07166 -0.0487,0.0298 -0.10226,0.08052 -0.13407,0.129631 -0.0286,-0.02295 -0.0503,-0.05153 -0.0692,-0.08615 -0.0511,-0.01407 -0.0519,-0.03222 -0.007,-0.05475 0.0443,-0.04066 0.0934,-0.07891 0.12843,-0.133256 0.0672,-0.115139 0.0966,-0.261678 0.0648,-0.393725 -0.027,-0.111916 -0.11755,-0.198875 -0.22504,-0.220211 -0.10548,-0.02053 -0.16747,0.0026 -0.24195,0.04187 -0.0278,-0.02375 -0.0491,-0.06803 -0.0841,-0.08575 -0.0745,-0.03541 -0.14654,-0.03384 -0.2186,0.0065 -0.0511,0.02859 -0.0906,0.06965 -0.12238,0.118763 -0.18439,-0.03222 -0.39494,0.03423 -0.53544,0.144927 -0.1244,0.09662 -0.19164,0.228667 -0.18881,0.389298 0,0.01609 0.004,0.03182 0.009,0.0475 0.002,0.004 0.004,0.0081 0.005,0.0125 0.005,0.01129 0.0104,0.02254 0.0169,0.03343 0.003,0.004 0.005,0.0081 0.008,0.01206 0.008,0.01129 0.0153,0.02173 0.0237,0.03182 0.002,0.0026 0.003,0.0044 0.005,0.006 0.004,0.0049 0.008,0.01008 0.0121,0.01448 10e-4,0 10e-4,0.0011 0.002,0.0011 0.005,0.006 0.0113,0.0129 0.0165,0.01851 0.005,0.0085 0.0105,0.01447 0.0136,0.01931 -0.0113,0.0085 -0.0254,0.01851 -0.0394,0.02778 -0.0334,0.02576 -0.066,0.0632 -0.0874,0.106278 -0.003,-0.0049 -0.007,-0.0092 -0.0117,-0.01407 0,0.0011 5.2e-4,0.0019 5.2e-4,0.0033 -0.0479,-0.05234 -0.10185,-0.07166 -0.17472,-0.07408 -0.008,-0.175929 -0.13124,-0.311597 -0.33173,-0.327699 -0.22706,-0.0173 -0.34381,0.157811 -0.40903,0.351049 -0.22061,0.04912 -0.41465,0.238329 -0.38486,0.493567 0.004,0.02295 0.0104,0.04549 0.0181,0.06844 -0.0165,-0.0019 -0.0326,-0.0015 -0.0487,-0.0026 3.7e-4,-7.21e-4 5.3e-4,-0.0015 10e-4,-0.0026 -0.0129,0 -0.0258,3.67e-4 -0.0386,7.21e-4 -0.004,0 -0.008,3.67e-4 -0.0129,3.67e-4 -0.029,0.0011 -0.058,0.004 -0.0898,0.01045 -0.0725,0.0177 -0.0455,-0.04147 -0.11796,-0.08414 -0.029,-0.0173 -0.0568,-0.03665 -0.0853,-0.05475 -0.0117,-0.0081 -0.0246,-0.01368 -0.0367,-0.02093 -0.0157,-0.0097 -0.031,-0.01931 -0.0475,-0.02698 0,7.21e-4 -3.6e-4,0.0015 -3.6e-4,0.0026 -0.0117,-0.0056 -0.0225,-0.01371 -0.035,-0.01811 -0.11152,-0.03621 -0.16184,-0.137684 -0.26852,-0.178341 -0.15338,-0.05838 -0.34461,-0.0044 -0.48592,0.06602 -0.14976,0.07287 -0.2645,0.200887 -0.31602,0.363933 -0.0451,0.13245 -0.0121,0.23672 0.033,0.343003 -0.0833,0.02698 -0.15863,0.06763 -0.22263,0.124396 -0.12843,-0.08172 -0.27336,-0.12601 -0.43198,-0.108698 -0.16385,0.01972 -0.19767,0.177139 -0.27898,0.291874 -0.023,0.03262 -0.0487,0.0632 -0.0741,0.093 -0.0507,-0.116348 -0.0853,-0.250407 -0.21417,-0.311194 -0.25402,-0.11997 -0.49799,-0.06723 -0.72827,0.08656 -0.0254,0.0169 -0.0503,0.03704 -0.0805,0.05677 3.6e-4,7.21e-4 5.3e-4,7.21e-4 10e-4,0.0015 -0.0459,0.03545 -0.091,0.07568 -0.13165,0.120373 0,-3.68e-4 0,-3.68e-4 0,-7.21e-4 -0.002,0.0026 -0.004,0.0056 -0.006,0.0081 -0.0153,0.0173 -0.0294,0.03541 -0.0427,0.05395 -0.004,0.0056 -0.009,0.01129 -0.0129,0.0173 -0.0125,0.01892 -0.0229,0.03825 -0.0331,0.05878 -0.003,0.0065 -0.006,0.01287 -0.009,0.01931 -0.009,0.02134 -0.0157,0.04308 -0.0213,0.06562 -0.002,0.006 -0.004,0.01166 -0.005,0.01771 -0.005,0.02899 -0.008,0.05837 -0.005,0.08937 0.002,-0.004 -0.14171,0.160629 -0.16023,0.191225 -0.0354,0.05757 -0.06,0.126412 -0.0837,0.18841 -0.15299,0.145733 -0.19888,0.168682 -0.14292,0.06884 0.0145,-0.02819 0.0242,-0.05757 0.0282,-0.08776 0.0226,-0.165864 0.0318,-0.301133 -0.1256,-0.378429 -0.17472,-0.08575 -0.51008,-0.144931 -0.67473,-0.0097 -0.0745,0.0624 -0.13245,0.146136 -0.19404,0.223029 -0.11997,0.148553 -0.15017,-0.01649 -0.11675,-0.138487 0.0552,-0.195656 0.0121,-0.327703 -0.17835,-0.38205 -0.0157,-0.0056 -0.0294,-0.0015 -0.0443,0.004 -0.0604,-0.0926 -0.13245,-0.163851 -0.23552,-0.18197 -0.16103,-0.0294 -0.31079,0.107089 -0.3603,0.258058 -0.0326,0.09622 -0.0157,0.192837 0.003,0.289861 -0.004,0.01931 -0.004,0.03865 -0.003,0.05595 -0.0455,0.01892 -0.0858,0.04227 -0.12119,0.07247 -0.0656,0.0052 -0.12761,0.01569 -0.19081,0.04549 -0.19646,0.0934 -0.11273,0.25604 -0.1703,0.41627 -0.0346,0.09823 -0.0918,0.225849 -0.12278,0.345818 -0.0499,0.0089 -0.0982,0.02134 -0.14614,0.03622 -0.0789,-0.01609 -0.16265,-0.02254 -0.25041,-0.01811 -0.2496,0.01569 -0.58455,0.10306 -0.76893,0.289056 -0.14251,0.140502 -0.0676,0.441631 0.041,0.586965 -0.009,0.01488 -0.0194,0.0294 -0.0226,0.04549 -0.0261,0.06683 -0.0314,0.132853 -0.0463,0.203706 -0.002,0.0089 -0.001,0.01649 -0.006,0.02214 -0.0507,-0.0037 -0.10346,-0.0097 -0.14574,0.0056 -0.0749,0.02416 -0.14815,0.05234 -0.20089,0.110711 -0.0278,0.0298 -0.0499,0.062 -0.07,0.09581 -0.0797,-0.04871 -0.18439,-0.102259 -0.15097,-0.181567 0.0652,-0.153384 0.12239,-0.27013096 0.0616,-0.44122896 -0.0608,-0.167074 -0.21296,-0.350246 -0.38648,-0.391713 -0.14291,-0.03585 -0.27738,0.01045 -0.39376,0.09742 -0.0444,0.03545 -0.0855,0.09098 -0.12005,0.138491 -0.004,0.0065 -0.009,0.01368 -0.0139,0.02053 -0.11465,-0.09863 -0.25451,-0.119163 -0.41389,-0.06683 -0.0979,0.03182 -0.15592,0.08615 -0.22183,0.167473 -0.005,0.0089 -0.01,0.01609 -0.0148,0.02496 -0.0972,-0.05677 -0.20725,-0.07005 -0.32102,-0.01649 -0.17266,-0.107089 -0.37798,-0.124398 -0.56216,-0.02335 -0.20858,0.11232 -0.23467,0.31642896 -0.21768,0.52657496 -0.1907,0.02617 -0.35733,0.105476 -0.40495,0.281809 -0.0315,0.0026 -0.0626,0.0049 -0.0935,0.0073 -0.0204,0.0019 -0.0405,0.004 -0.0602,0.006 -0.0316,0.004 -0.0625,0.0085 -0.0922,0.01488 -0.006,0.0011 -0.0122,0.0019 -0.0181,0.0037 -0.0365,0.0081 -0.0709,0.02134 -0.10415,0.03704 -0.006,0.0029 -0.0115,0.0056 -0.0172,0.0085 -0.0355,0.01891 -0.0696,0.04106 -0.10024,0.07247 -0.001,7.21e-4 -0.002,0.0015 -0.003,0.0015 -0.006,0.01008 -0.012,0.01488 -0.012,0.01488 0,0 0.002,0 0.002,-7.22e-4 v 0 c -0.0365,0.04066 -0.0698,0.08977 -0.0977,0.155799 -0.0917,0.21538 0.023,0.415465 0.17811,0.582135 -0.12155,0.06642 -0.21398,0.179148 -0.22875,0.36836 -0.023,0.2802 0.30769,0.434789 0.54734,0.499608 0.0564,0.102254 0.14139,0.169083 0.25275,0.190419 -5.3e-4,7.21e-4 -0.002,0.0015 -0.002,0.0029 -0.0179,0.01089 -0.0331,0.02334 -0.0492,0.03625 -0.007,-7.21e-4 -0.0148,-0.0026 -0.02,-0.0077 -0.03,0.0294 -0.0533,0.06401 -0.0709,0.101855 -0.005,0.0085 -0.01,0.01851 -0.0144,0.02778 -0.009,0.0173 -0.0168,0.03504 -0.0228,0.05354 -0.003,0.0097 -0.006,0.01931 -0.008,0.0294 -0.005,0.02254 -0.007,0.04669 -0.007,0.07166 -0.0861,0.0628 -0.0522,0.06361 -0.16679,0.02657 -0.15552,-0.04751 -0.38777,0.05354 -0.48435,0.182773 -0.0263,0.03461 -0.0463,0.07005 -0.0626,0.105073 -0.13458,0.2371193 -0.0457,0.4939669 0.17138,0.6292352 -0.009,0.038246 -0.012,0.078905 -0.0108,0.1159448 3.7e-4,0 5.3e-4,0 0.001,0 -0.009,0.2995201 0.16836,0.5040318 0.44152,0.5145009 0.004,0.01206 0.005,0.023344 0.0104,0.036215 0.0194,0.049921 0.0301,0.08454 0.0365,0.1356679 0.005,-0.00445 0.0111,-0.010077 0.0198,-0.022539 -0.009,0.00927 -0.0135,0.018111 -0.0196,0.029798 -0.0398,0.055557 -0.072,0.109504 -0.0861,0.1598269 -0.0472,-0.018916 -0.0947,-0.026577 -0.1492,-0.015286 -0.0192,-0.1477492 -0.0896,-0.2842241 -0.24316,-0.306766 -0.0922,-0.012901 -0.18463,0.028992 -0.25077,0.093802 -0.0641,0.063202 -0.137,0.066424 -0.22617,0.084539 -0.0717,0.015689 -0.14916,0.035446 -0.22355,0.062001 -2.3e-4,-3.665e-4 -3.7e-4,-3.665e-4 -3.7e-4,-7.21e-4 -0.004,0.0015 -0.008,0.00367 -0.012,0.00487 -0.0178,0.00685 -0.0352,0.013712 -0.0524,0.021337 -0.0374,0.016897 -0.0717,0.037038 -0.10351,0.060384 -0.005,0.00403 -0.009,0.00806 -0.0139,0.01206 -0.0343,0.028187 -0.0657,0.060388 -0.0905,0.1006488 -0.048,0.078099 -0.0566,0.1469392 -0.0435,0.2113557 -0.0842,0.02335 -0.16244,0.057168 -0.22573,0.154589 -0.0503,0.0777 -0.0949,0.1739168 -0.0868,0.2713401 0.003,0.052739 0.0164,0.091789 0.0276,0.1396963 -0.16418,0.033427 -0.33318,0.096621 -0.40254,0.2741594 -0.072,0.1843817 -0.0154,0.3043511 0.0685,0.429151 -0.11964,0.049921 -0.23209,0.1034639 -0.313,0.2343051" />
  </g>
</svg>
