<?xml version="1.0" encoding="UTF-8" standalone="no"?>
<!-- Created with Inkscape (http://www.inkscape.org/) -->

<svg
   viewBox="0 0 17.952515 21.661369"
   version="1.1"
   id="svg992"
   xmlns="http://www.w3.org/2000/svg"
   >
  <defs
     id="defs989" />
  <g
     id="layer1"
     transform="translate(-298.88563,2.9111792)">
    <path
       id="path52"
       d="m 299.84799,7.1345343 c 0.003,8.177e-4 0.006,0.00158 0.006,0.00273 -0.003,0.00158 -0.007,0.00392 -0.0102,0.00588 0.002,-0.00311 0.003,-0.00588 0.004,-0.00861 z m -0.28301,-0.1719049 c 0.0605,0.02506 0.19016,0.00392 0.27712,-0.013312 -0.0235,0.028979 -0.0381,0.059912 -0.0404,0.08654 -0.0466,0.01214 -0.0937,0.021538 -0.13855,0.025845 -0.0874,0.00354 -0.11824,-0.044641 -0.0982,-0.09907 z m 0.58932,-0.3500756 c 0.045,-0.049732 0.11444,-0.087715 0.18806,-0.1221735 0.007,3.887e-4 0.0142,0.0012 0.0214,0.00158 0.003,0.010575 0.009,0.019581 0.0177,0.027017 -0.0156,0.01214 -0.0315,0.02428 -0.0466,0.037985 -0.0427,0.017624 -0.0857,0.036415 -0.13027,0.055605 -0.0178,0.00234 -0.035,0.00431 -0.0544,0.00861 0.002,-0.00431 0.004,-0.00626 0.004,-0.00861 z m 0.21896,-0.5752356 c 0,0 0.006,-0.00234 0.008,-0.00234 0.0249,0.00783 0.0503,0.017624 0.0759,0.023495 -0.0977,0.021146 -0.18279,0.050512 -0.25257,0.087323 0.006,-0.033286 0.0546,-0.072051 0.1686,-0.1084683 z m 0.24306,-0.2545285 c 0.0374,0.039157 0.0802,0.075967 0.12752,0.1119926 -0.009,0.00861 -0.0151,0.016839 -0.0206,0.025452 -0.041,-0.0012 -0.0823,-0.00311 -0.12287,-0.0012 -0.0542,-0.039157 -0.0368,-0.087715 0.0159,-0.1362713 z m 0.43043,-0.1452774 c 0.0451,0.00354 0.0899,0.011748 0.12823,0.024667 -0.0444,-0.00822 -0.0901,-0.010576 -0.13626,-0.00234 -0.0245,-0.00666 -0.0476,-0.014882 -0.0734,-0.020753 0.0292,-0.00158 0.0565,-0.00392 0.0814,-0.00158 z m 0.98197,-0.4695082 c 0.0486,0.013312 0.10705,0.018404 0.16732,0.014882 0.0288,0.00588 0.0596,0.011748 0.0907,0.019581 0.0332,0.023495 0.0762,0.040727 0.12207,0.054039 0,0.00234 0,0.00234 0,0.00234 -0.10261,0 -0.20372,-0.00393 -0.30062,-0.015662 -0.0427,-0.00548 -0.0985,-0.017232 -0.11039,-0.044248 -0.01,-0.019974 0.006,-0.027022 0.0309,-0.030936 z m 0.11084,-0.2157625 c 0.008,-0.00626 0.0175,-0.010183 0.027,-0.011355 0.0174,0.011355 0.033,0.023103 0.0525,0.034458 0.002,0.023495 0.0116,0.046598 0.0271,0.066178 -0.01,0.00548 -0.0155,0.011355 -0.0235,0.018404 -0.0387,-0.00507 -0.0814,-0.010576 -0.12608,-0.010576 -0.01,0 -0.0209,0.00196 -0.0311,0.00196 -0.004,-0.031329 0.0156,-0.066177 0.074,-0.09907 z m 0.38794,-0.2173287 c 0.033,0.011748 0.0639,0.02506 0.0929,0.038764 -0.004,0.00392 -0.009,0.00744 -0.0171,0.013312 -0.0447,-0.0094 -0.0912,-0.013312 -0.13542,-0.0094 -0.004,-0.017624 -0.006,-0.035243 -0.008,-0.052475 0.0273,0.00196 0.0466,0.00588 0.0679,0.00979 z m 0.43854,-0.095155 c 0.0294,0.036028 0.0605,0.066569 0.0914,0.095155 2.2e-4,3.887e-4 -4.5e-4,0.0012 -2.2e-4,0.00196 -0.0129,0 -0.025,0.00158 -0.0377,0.00234 -0.009,-0.00392 -0.018,-0.00861 -0.0281,-0.01214 -0.0387,-0.013705 -0.0796,-0.019581 -0.12249,-0.021146 0.0234,-0.031329 0.0584,-0.061087 0.0971,-0.066178 z m -0.91999,-1.0772452 c -0.0364,0.060304 -0.0425,0.00979 -0.0385,-0.042291 0.006,-0.00626 0.0114,-0.01214 0.0153,-0.023103 0.0145,-0.027017 0.0245,-0.055213 0.0372,-0.082232 2.2e-4,0.0012 -4.4e-4,0.00273 -2.2e-4,0.00431 0.006,0.027017 0.0387,0.021146 0.0466,-0.00626 0.002,-0.00588 0.004,-0.01214 0.006,-0.018011 10e-4,3.887e-4 0.002,3.887e-4 0.002,3.887e-4 -0.0178,0.059912 -0.0389,0.1170831 -0.0681,0.1672059 z m -0.27941,0.1480188 c -0.01,0.010963 -0.0155,0.015275 -0.0233,0.015275 -0.002,0 -0.004,-0.00196 -0.004,-0.00196 0,0 0,0 -0.004,-0.00783 -0.0117,-0.019581 -0.0171,-0.044641 -0.0192,-0.072052 0.0154,0.00234 0.0308,0 0.0465,-0.00392 0.003,-3.882e-4 0.004,-0.00273 0.007,-0.00354 0,0 2.2e-4,0 4.4e-4,0 0.0173,0.00273 0.0336,0.0012 0.0495,-0.00311 -0.0163,0.028587 -0.0334,0.055605 -0.0535,0.077142 z m -1.42619,-0.6739144 c 0.0116,-0.044641 0.0328,-0.084974 0.0546,-0.1260904 0.007,-0.00354 0.0142,-0.00861 0.0214,-0.012533 -0.004,0.018011 -0.006,0.036415 -0.005,0.055214 -0.0237,0.027802 -0.045,0.057954 -0.0713,0.083407 z m 1.24763,-1.7257069 c 0.003,0.00273 0.007,0.00507 0.01,0.00822 -0.007,0.00311 -0.0133,0.00626 -0.0199,0.0094 0.003,-0.00626 0.006,-0.01214 0.0102,-0.017624 z m -0.40382,-0.2709758 c 0.0859,0.042291 0.28156,0.018796 0.40765,-0.00196 -0.0364,0.042684 -0.0582,0.086932 -0.0639,0.1284393 -0.0698,0.01292 -0.1417,0.02506 -0.20729,0.02506 -0.1301,0.00196 -0.17112,-0.072051 -0.13645,-0.1515426 z m 0.89881,-0.47577338 c 0.0696,-0.0693104 0.17242,-0.12256549 0.28535,-0.16642252 0.009,7.6319e-4 0.0171,0.001962 0.0258,0.002726 0.003,0.0168392 0.0127,0.0309363 0.0258,0.0426839 -0.0231,0.0164467 -0.0453,0.0332858 -0.0673,0.051297 -0.0639,0.0254522 -0.13009,0.050512 -0.19567,0.0740089 -0.0275,0.003925 -0.0527,0.003925 -0.0838,0.007441 0.004,-0.003543 0.008,-0.007441 0.01,-0.0117476 z m 0.36871,-0.83446375 c 0.004,0 0.008,-0.001581 0.0118,-0.001581 0.033,0.0152692 0.0698,0.0289793 0.11039,0.0407269 -0.14338,0.0254523 -0.27349,0.0606956 -0.3822,0.11238459 0.0133,-0.050125 0.0873,-0.10455267 0.25996,-0.15154257 z m 0.38053,-0.35829838 c 0.0485,0.0591289 0.10851,0.11864926 0.17665,0.17582061 -0.0142,0.0117476 -0.0231,0.0242802 -0.0317,0.0360278 -0.0594,-0.004688 -0.11911,-0.0109626 -0.17792,-0.0109626 -0.0797,-0.0614784 -0.0522,-0.13313834 0.033,-0.200882 z m 0.64412,-0.18286972 c 0.0692,0.007049 0.12825,0.0231027 0.18534,0.0415064 -0.0656,-0.0140971 -0.13412,-0.0187962 -0.20331,-0.009398 -0.0334,-0.0113551 -0.0645,-0.0250598 -0.10044,-0.0336783 0.0427,-0.003925 0.0837,-0.003925 0.11841,0.001581 z m 1.48884,-0.62496647 c 0.0715,0.02506 0.15483,0.036807 0.24407,0.032893 0.0466,0.011355 0.0916,0.025452 0.13369,0.0372 0.0469,0.03485 0.10894,0.063437 0.17707,0.088889 0,0 -0.002,0.00158 -0.002,0.00392 -0.14954,-0.00744 -0.29909,-0.020753 -0.44084,-0.046205 -0.0639,-0.0094 -0.14508,-0.033286 -0.16118,-0.072443 -0.0133,-0.028979 0.012,-0.042291 0.0491,-0.044248 z m 0.18017,-0.3105251 c 0.0153,-0.00548 0.029,-0.011355 0.0424,-0.015662 0.0237,0.019581 0.0487,0.0372 0.0721,0.054039 0.002,0.036807 0.0155,0.070093 0.0369,0.1014198 -0.0138,0.00783 -0.0252,0.017624 -0.033,0.027409 -0.0603,-0.01214 -0.12037,-0.021538 -0.18639,-0.025452 -0.0173,-0.00196 -0.0328,0 -0.0486,0 -0.003,-0.044248 0.0273,-0.097113 0.11674,-0.1417531 z m 0.59399,-0.2952538 c 0.0443,0.019968 0.091,0.043076 0.13349,0.066569 -0.008,0.00354 -0.0173,0.011748 -0.0269,0.017232 -0.066,-0.017232 -0.13411,-0.027409 -0.20197,-0.02506 -0.002,-0.025452 -0.004,-0.050512 -0.006,-0.075967 0.0368,0.00392 0.0681,0.011748 0.10111,0.017232 z m 0.65387,-0.1084689 c 0.0383,0.054431 0.0836,0.1041613 0.12801,0.1507598 0,3.919e-4 0,7.632e-4 0,7.632e-4 -0.0192,-7.632e-4 -0.037,7.632e-4 -0.0557,7.632e-4 -0.014,-0.00626 -0.0273,-0.014097 -0.0414,-0.019974 -0.0565,-0.023888 -0.1183,-0.035243 -0.17856,-0.039157 0.033,-0.048555 0.0912,-0.085365 0.14763,-0.093197 z m 0.5062,-0.3954988 c -0.15292,0.06931 -0.23499,0.1550669 -0.26758,0.2463058 -0.0292,-0.066178 -0.0543,-0.1311802 -0.0543,-0.1981411 -0.004,-0.09907 0.21933,-0.1084684 0.32193,-0.048163 z m 0.67928,-0.1382288 c 0.0736,0.015662 0.1246,0.046991 0.16137,0.085365 -0.0548,-0.021146 -0.11466,-0.036415 -0.18064,-0.044248 -0.0643,-0.00588 -0.11634,-0.00431 -0.17073,0.00354 0.0366,-0.044641 0.0969,-0.065394 0.19,-0.044641 z m 0.59183,0.3183571 c 0.005,0.00273 0.008,0.00901 0.0125,0.01214 -0.007,-0.0012 -0.0131,-0.00273 -0.0199,-0.00431 0.002,-0.00311 0.002,-0.00626 0.003,-0.00979 0,0 0.002,0 0.004,0.00196 z m 0.19994,-0.2345581 c 0.0197,0.0372 0.0351,0.073617 0.0448,0.1143421 -0.0137,0.0094 -0.0234,0.023495 -0.033,0.03485 -0.033,-0.021538 -0.074,-0.038764 -0.11673,-0.054432 0.0315,-0.036807 0.0664,-0.067744 0.10494,-0.094763 z m 2.79266,0.068136 c 0.0812,-0.097505 0.30841,-0.1965749 0.44276,-0.050512 -0.15315,-0.00393 -0.25978,0.030151 -0.32685,0.080666 -0.0184,-0.00158 -0.0375,-7.632e-4 -0.0558,0.00311 -0.009,0.0012 -0.015,0.00392 -0.0237,0.00588 -0.011,-0.00354 -0.0209,-0.00705 -0.0328,-0.010183 -0.006,-0.00234 -0.0115,-0.00234 -0.019,-0.00469 0.005,-0.00744 0.009,-0.016447 0.0154,-0.02428 z m 0.51277,0.1190412 c -0.004,-7.632e-4 -0.007,-0.00273 -0.0123,-0.00354 -0.0442,-0.00744 -0.0867,-0.00744 -0.12903,-0.00626 0.0421,-0.011355 0.0905,-0.019189 0.14066,-0.022318 0.002,0.010183 2.2e-4,0.021538 5.4e-4,0.032108 z m 1.02975,-0.012533 c -0.1591,0.019189 -0.29889,0.070094 -0.374,0.1374459 -0.016,-0.00158 -0.0315,-0.00354 -0.0451,-0.00548 -0.004,-0.011748 -0.0114,-0.023103 -0.0156,-0.033286 0.0664,-0.071268 0.30697,-0.2228105 0.43474,-0.098679 z m 0.008,0.286639 c -0.0313,-0.036415 -0.0852,-0.073226 -0.18084,-0.1041613 0.0643,-0.031329 0.14614,-0.058345 0.22885,-0.071659 0.008,0.057954 -0.0135,0.1182578 -0.048,0.1758206 z m 0.4715,-0.1096431 c 0.0154,0.020753 0.0172,0.044248 0.0154,0.065394 -0.0328,-0.030936 -0.0909,-0.052862 -0.14724,-0.054432 0.002,-0.027017 0,-0.055997 -0.008,-0.083407 0.0624,0.013705 0.11508,0.034458 0.14003,0.072443 z m 0.21557,0.2051891 c 0.14888,-0.038764 0.38014,-0.060304 0.29466,0.065786 -0.0311,-0.02506 -0.0815,-0.044249 -0.14171,-0.052082 -0.0561,-0.00392 -0.10686,-0.00392 -0.1591,-0.00392 0.002,-0.00626 0.006,-0.00626 0.006,-0.00979 z m 0.44632,0.24239 c 0.0931,0.011748 0.15507,0.04699 0.13177,0.1104265 -0.0721,-0.02506 -0.15142,-0.040727 -0.23311,-0.050125 0.0333,-0.017232 0.0683,-0.038764 0.10134,-0.060304 z m 0.43047,0.6790055 c 0.0814,-0.059912 0.23123,0 0.23123,0.082232 -0.002,0.024667 -0.0137,0.050125 -0.0235,0.0771418 -0.01,0.001581 -0.0184,0.00507 -0.0281,0.006656 -0.0749,-0.0418989 -0.15718,-0.0697017 -0.24071,-0.0865398 0.0123,-0.029759 0.0317,-0.05678 0.0611,-0.079491 z m 1.05305,0.89085176 c 4.4e-4,-0.003162 5.4e-4,-0.005484 5.4e-4,-0.009398 -4.4e-4,-0.002344 -0.003,-0.004307 -0.003,-0.006656 0.003,3.914e-4 0.006,3.914e-4 0.009,3.914e-4 -10e-4,0.005484 -0.004,0.0105701 -0.007,0.0156617 z m 0.51888,0.72599484 c 0.005,0.0176241 -0.003,0.0340654 -0.0156,0.0497325 -0.014,-0.0133121 -0.0279,-0.0278018 -0.0425,-0.0379849 -0.0156,-0.0117476 -0.033,-0.0191887 -0.0502,-0.0309363 0.0178,-0.001962 0.0298,-0.006656 0.0386,-0.0133121 0.0347,0.009791 0.0689,0.0223232 0.0698,0.0325008 z m 0.10322,0.894376 c -0.0495,-0.034065 -0.10341,-0.063436 -0.15949,-0.090456 -0.0364,-0.021146 -0.0768,-0.042291 -0.12162,-0.064611 0.0658,0.00783 0.13176,0.016447 0.19735,0.021538 0.10471,0.027017 0.21173,0.063828 0.31433,0.1065102 -0.0582,0.023495 -0.1358,0.030936 -0.23057,0.027022 z m -0.16626,2.7430393 c -0.009,-0.017624 -0.0184,-0.035243 -0.0298,-0.052862 0.0122,-0.016054 0.0173,-0.034458 0.0169,-0.052082 0.002,-8.177e-4 0.004,-0.0012 0.006,-0.00234 0.0738,0.030151 0.074,0.066177 0.007,0.1072941 z m -0.35049,1.7147431 c 0.0101,0.00626 0.006,0.017624 -0.005,0.027409 -0.0151,-0.00158 -0.0303,-0.0012 -0.0457,0 -0.0104,-0.012533 -0.0218,-0.023103 -0.0333,-0.035243 0.0356,-0.00822 0.0673,-0.0094 0.0844,0.00783 z m 0.3397,0.4056802 c -10e-4,-8.177e-4 -0.003,-0.00158 -0.004,-0.00234 0.0161,3.881e-4 0.0319,0.0012 0.0485,0.0012 -0.0153,3.882e-4 -0.0305,0.00354 -0.0447,0.0012 z m -0.0755,-0.046205 c 0.002,-0.00196 0.008,-0.00588 0.0116,-0.00979 0.0205,0.00469 0.0402,0.01214 0.0597,0.018796 -0.0176,0.00234 -0.0324,0.00431 -0.047,0.00588 -0.008,-0.00507 -0.0163,-0.010183 -0.0243,-0.014882 z m 0.85397,2.2202759 c -5.5e-4,0 -0.001,-3.887e-4 -0.002,-3.887e-4 4.4e-4,-3.881e-4 5.4e-4,-3.881e-4 10e-4,-3.881e-4 4.5e-4,3.881e-4 0.001,7.632e-4 0.001,7.632e-4 z m -0.30865,0.06187 c -0.0384,-0.014097 -0.0641,0.015662 -0.0641,0.044641 -0.0309,-0.025452 -0.0641,-0.053254 -0.099,-0.078317 0.033,-0.00158 0.0738,-0.00158 0.11869,0 0.006,0.01214 0.0173,0.021931 0.0368,0.023495 0.027,0.00158 0.0658,-0.00158 0.1121,-0.00783 0.12292,0.019581 0.24306,0.05678 0.2951,0.122174 -0.13768,-0.00354 -0.2718,-0.055605 -0.39961,-0.1041612 z m 0.12609,0.2905542 c -0.0155,-0.023103 -0.0311,-0.046598 -0.0485,-0.067744 -0.0176,-0.041114 -0.0444,-0.081841 -0.0833,-0.1202159 0.10467,0.044248 0.19943,0.1010283 0.2676,0.1863934 -0.0447,0.010963 -0.091,0.010963 -0.13584,0.00158 z m -0.0427,0.1707301 c -0.0146,0.00158 -0.0287,-0.00548 -0.041,-0.01449 -5.4e-4,-0.00392 -0.002,-0.00744 -0.003,-0.010963 0.0152,-0.017624 0.0296,-0.034458 0.038,-0.053646 0.002,0 0.008,0.00158 0.0133,0.00158 0.004,0.01214 0.0136,0.023495 0.0197,0.0372 0.01,0.02506 0.0134,0.040334 -0.0273,0.040334 z m -0.61131,0.9879661 c 0.008,-0.023495 0.0137,-0.048947 0.0178,-0.071659 0.0231,0.015269 0.0461,0.030936 0.0715,0.040727 -0.0212,0.02506 -0.0561,0.038764 -0.0893,0.030936 z m -0.42729,0.3250145 c 0.0121,-0.0043 0.0241,-0.0078 0.0351,-0.01527 10e-4,0.02154 0.006,0.04386 0.002,0.06618 -0.0144,-0.01566 -0.0245,-0.03407 -0.0372,-0.05091 z m -0.22105,-0.0885 c 0.006,-0.0039 0.0101,-0.009 0.0137,-0.01527 0.005,0.02075 0.0133,0.03916 0.0245,0.0556 -4.4e-4,7.63e-4 -4.4e-4,0.002 -10e-4,0.0027 -0.012,-0.0137 -0.025,-0.02741 -0.0374,-0.04307 z m -3.7025,-0.2694087 c 0.0101,-0.023495 0.014,-0.046598 0.0176,-0.069702 0.0215,0.015275 0.0448,0.028979 0.07,0.038764 -0.0195,0.025452 -0.0529,0.036807 -0.0876,0.030936 z m -0.37612,0.3629977 c -0.0139,-0.01566 -0.0237,-0.03329 -0.0366,-0.05012 0.0134,-0.0047 0.0261,-0.0098 0.0375,-0.01801 0.002,0.02193 0.003,0.04464 -5.4e-4,0.06814 z m -0.23776,-0.120608 c 0.003,-7.63e-4 0.006,-7.63e-4 0.009,-0.002 0.004,0.0094 0.008,0.01762 0.0137,0.02584 -5.4e-4,7.63e-4 -4.4e-4,0.0023 -0.001,0.0031 -0.007,-0.0086 -0.0146,-0.01801 -0.022,-0.02702 z m -4.70769,-1.1218858 c 0.006,-0.00158 0.0105,-8.177e-4 0.0163,-0.00316 0.0296,-0.013705 0.0584,-0.036807 0.0855,-0.06187 0.0118,0.081841 0.0228,0.1648563 0.0365,0.2459138 -0.0461,-0.059912 -0.0922,-0.1206074 -0.13831,-0.1809111 z m -0.33022,-0.4879124 c 0.01,-0.015662 0.0205,-0.032108 0.0308,-0.048163 10e-4,0.012533 -0.002,0.023888 0.003,0.037985 5.4e-4,0.00234 0.003,0.00273 0.004,0.00469 -0.002,0.018404 0.002,0.036807 0.0209,0.039549 0.006,0.0012 0.0127,-0.0012 0.0189,-0.0012 0.0309,0.011748 0.0723,0.00705 0.11677,-0.00354 -0.004,0.015275 -0.009,0.030544 -0.0112,0.045426 -0.002,0.014097 -0.002,0.027022 -0.002,0.038764 -0.0212,0.034065 -0.0351,0.068527 -0.0442,0.102986 -0.0296,-0.044248 -0.0613,-0.085365 -0.0897,-0.131963 -0.0165,-0.027017 -0.0313,-0.057171 -0.0474,-0.084582 z m -1.73758,-0.033286 c -0.005,-0.021538 -0.012,-0.045034 -0.0188,-0.067744 0.006,-0.00744 0.0131,-0.01449 0.0173,-0.02271 5.5e-4,3.887e-4 10e-4,3.887e-4 0.002,3.887e-4 0.009,0.036807 0.0172,0.074401 0.0195,0.1092517 -0.008,-0.00666 -0.014,-0.01214 -0.0195,-0.019189 z m -0.64094,0.4867376 c 0.001,-3.886e-4 0.002,-7.631e-4 0.003,-0.00158 -4.4e-4,0.00158 -4.4e-4,0.00354 -0.001,0.00548 -5.5e-4,-0.0012 -0.002,-0.00273 -0.003,-0.00393 z m -2.9881,-2.7375574 c -0.0225,-0.00626 -0.0438,-0.012533 -0.0622,-0.019968 0.0214,-0.013312 0.0457,-0.025452 0.0711,-0.036028 -0.011,0.022323 -0.0131,0.040334 -0.009,0.055996 z m 2.85191,-1.9179741 c 0.0129,0.00311 0.0258,0.00354 0.0393,0.00354 0.0208,0.00354 0.0407,0.00861 0.0563,0.016839 -0.10236,0.053254 -0.15526,0.1131674 -0.17257,0.1754292 -0.0233,-0.042291 -0.0407,-0.087323 -0.0447,-0.1315717 -0.004,-0.044248 0.0582,-0.065003 0.12167,-0.06422 z m -0.80323,-4.28861791 c -0.0323,-0.0097906 -0.0632,-0.0215382 -0.0907,-0.03328581 0.033,-0.01840369 0.0703,-0.03367831 0.1096,-0.04738295 -0.0189,0.03093629 -0.0233,0.05756276 -0.0189,0.08066603 z m 5.0411,-2.52453639 c 0.004,-0.00234 0.008,-0.00588 0.0127,-0.00822 0.0137,-0.00783 0.0294,-0.00666 0.0461,7.632e-4 -0.0197,0.00273 -0.0381,0.00273 -0.0588,0.00744 z m 3.73531,0.1421445 c -0.0182,0.00744 -0.0385,0.015662 -0.055,0.022323 -5.4e-4,-0.0012 -0.002,-0.00234 -0.003,-0.00354 0.0131,-0.012533 0.0287,-0.023495 0.0482,-0.033286 0.003,0.00273 0.007,0.00548 0.01,0.00823 0,0.00196 -4.4e-4,0.00431 -4.4e-4,0.00626 z m 2.67545,0.7682862 c -0.0499,-0.00354 -0.0979,-0.00392 -0.14555,-0.00311 0.008,-0.021146 -0.009,-0.048162 -0.0425,-0.068135 0.0792,0.00626 0.15907,0.017619 0.23691,0.039549 -0.0159,0.00979 -0.0311,0.021538 -0.0488,0.031716 z m 0.30591,6.7587244 c -0.009,-0.00273 -0.0156,-0.00744 -0.0262,-0.00822 -0.0214,-7.632e-4 -0.0406,0.00311 -0.0594,0.0094 -0.014,-0.00861 -0.0283,-0.016447 -0.043,-0.022323 0.0197,-0.036807 0.0512,-0.079491 0.0848,-0.094763 0.008,0.0012 0.0159,3.881e-4 0.0239,0.0012 0.0114,0.00588 0.0234,0.010183 0.036,0.01449 0.0101,0.021146 0,0.061087 -0.0161,0.100245 z m -8.12657,3.6597358 c 0.008,-0.015662 0.0176,-0.032501 0.0273,-0.048555 -0.006,0.032893 0.0176,0.052475 0.0543,0.038764 0.005,-0.00196 0.0121,-0.00588 0.018,-0.00901 0.002,0.010576 0.003,0.021146 0.005,0.032108 -0.0607,0.06931 -0.16502,0.124915 -0.10452,-0.013312 z m -5.08315,-3.050824 c 5.5e-4,-7.632e-4 0.002,-0.00158 0.002,-0.00234 10e-4,3.887e-4 0.002,3.887e-4 0.003,8.177e-4 -0.002,3.887e-4 -0.003,0.0012 -0.005,0.00158 z m 13.05402,-0.7643701 c 0.003,0.00158 0.006,0.00392 0.009,0.00588 -0.008,0.00744 -0.0141,0.016447 -0.0207,0.025452 0.003,-0.01057 0.008,-0.021146 0.0114,-0.031329 z M 303.41953,4.2473919 c 5.5e-4,0.00196 0.002,0.00392 0.002,0.00548 -0.001,0.00158 -0.002,0.00273 -0.003,0.00431 -0.003,-0.00158 -0.006,-0.00234 -0.008,-0.00354 0.003,-0.00234 0.006,-0.00392 0.009,-0.00626 z m 10.49341,0.9335346 c -0.0152,-0.026237 -0.0425,-0.038377 -0.0738,-0.032108 -0.014,-0.020361 -0.0326,-0.036028 -0.0601,-0.043463 -0.0165,-0.00507 -0.0309,-0.00626 -0.0452,-0.00783 -0.007,-0.014882 -0.0167,-0.028587 -0.0254,-0.043071 0.009,-0.00354 0.0173,-0.00744 0.0261,-0.010963 0.0243,0.02506 0.0493,0.050125 0.0812,0.069702 0.0459,0.028194 0.11466,0.014097 0.15041,-0.018796 -0.0131,0.023103 -0.0237,0.048555 -0.0311,0.075576 -0.007,0.00234 -0.0146,0.00783 -0.022,0.010963 z m -5.43474,4.8008089 c 0.0261,-0.00273 0.0533,-0.00393 0.0768,-0.011355 -0.002,0.017624 -0.006,0.036808 -0.002,0.055997 0.002,0.03015 0.0192,0.05325 0.0505,0.05443 0.10177,0.009 0.1853,-0.02702 0.25551,-0.083799 4.4e-4,0.00392 10e-4,0.00823 10e-4,0.012532 -0.005,0.0074 -0.009,0.01527 -0.0142,0.0231 -0.0173,0.03289 -0.0389,0.06579 -0.0563,0.09868 -0.0736,0.04112 -0.14171,0.110818 -0.2035,0.178562 -0.0389,0.04307 -0.0776,0.0838 -0.1127,0.116692 -0.0766,0.06539 -0.12209,0.11395 -0.14915,0.151542 0.0491,-0.200491 0.10024,-0.399415 0.15377,-0.5963784 z m -4.80778,-5.6039461 c 0.008,-0.00469 0.0174,-0.00354 0.0275,0 -0.0116,0.00196 -0.0224,0.00234 -0.0342,0.00548 0.003,-0.00158 0.004,-0.00393 0.007,-0.00548 z m 9.64708,0.8301561 c 0.004,-0.01449 0.01,-0.029366 0.0192,-0.042684 4.4e-4,0.00548 5.4e-4,0.010963 10e-4,0.016447 -0.007,0.00901 -0.0142,0.018011 -0.0203,0.026237 z m -6.28409,4.0638493 c 0.008,0.017232 0.0159,0.033286 0.0332,0.046598 0.0136,0.00979 0.0406,0.00588 0.0637,-0.00744 0.027,-0.014097 0.0524,-0.033286 0.0781,-0.052861 0.0173,0.013705 0.0404,0.023495 0.0736,0.023495 0.0268,0 0.0503,-0.00431 0.071,-0.011748 0.003,-3.881e-4 0.006,0 0.009,0 -0.0311,0.072051 -0.0173,0.1378374 0.0772,0.1472355 0.0702,0.00588 0.13536,-0.013312 0.1986,-0.043076 -0.14488,0.2615776 -0.26799,0.3876668 -0.38097,0.374745 -0.0173,-0.00158 -0.0326,0.00822 -0.0425,0.029759 -0.004,0.010576 -0.007,0.023888 -0.009,0.037592 -0.003,-0.0012 -0.006,-0.00158 -0.009,-0.00273 -0.0626,-0.1754292 -0.12797,-0.3473341 -0.19375,-0.519239 0.011,-0.00744 0.022,-0.014882 0.0306,-0.022323 z m -3.29677,-5.0310594 c 0.004,3.887e-4 0.005,-0.00158 0.009,-3.887e-4 0.0235,0.00431 0.0433,0.011355 0.0616,0.019189 0.004,0.00861 0.009,0.016839 0.0135,0.02506 -0.0273,-0.00626 -0.0541,-0.014097 -0.0842,-0.015275 -0.005,-3.881e-4 -0.009,8.177e-4 -0.0148,8.177e-4 0.005,-0.00979 0.01,-0.019189 0.0144,-0.029366 z m 3.41037,4.9237658 c 0,0.010576 0.003,0.021931 0.009,0.031329 4.4e-4,3.887e-4 0.001,0.0012 0.002,0.00196 -0.008,0.00744 -0.0161,0.016054 -0.025,0.023103 -0.002,-0.0094 -0.004,-0.020753 -0.004,-0.032501 0.007,-0.00705 0.0122,-0.015662 0.0186,-0.023888 z m -0.10533,-0.02663 c -0.004,0.013312 -0.008,0.025452 -0.0102,0.0372 -0.008,0.00783 -0.0173,0.015275 -0.0253,0.02271 -0.006,-0.014882 -0.006,-0.032501 -0.004,-0.050125 0.01,-0.00783 0.0178,-0.013705 0.0275,-0.02271 0.002,0.00705 0.006,0.011355 0.0117,0.01292 z m 6.13998,-4.0282156 c -0.0317,0.02428 -0.0563,0.054039 -0.0765,0.08654 -0.009,-3.881e-4 -0.0165,-0.00196 -0.0269,3.887e-4 -0.0241,0.00705 -0.0463,0.018796 -0.0666,0.033678 -0.009,-0.00979 -0.0159,-0.020753 -0.0262,-0.029366 -0.0254,-0.023495 -0.0703,-0.030936 -0.0969,-0.00431 -0.0292,0.028979 -0.0546,0.061478 -0.0777,0.095546 -0.0118,0.011355 -0.0212,0.023888 -0.0251,0.038764 -0.0195,-0.00469 -0.0385,-0.00469 -0.0567,0.00273 -0.008,-0.031329 -0.0186,-0.062262 -0.0326,-0.092806 -0.006,-0.01057 -0.0135,-0.017232 -0.0222,-0.021538 0.16838,-0.0012 0.32428,-0.093588 0.48529,-0.1801282 5.5e-4,0.028587 0.007,0.052474 0.0222,0.070485 z m -0.5925,0.1394035 c -0.004,0.01214 -0.009,0.023495 -0.015,0.03642 -0.0211,7.632e-4 -0.0402,0.0094 -0.0575,0.020753 -0.058,-0.094372 -0.1331,-0.1484097 -0.24944,-0.072835 -0.027,0.019189 -0.0444,0.043856 -0.055,0.07166 -0.0146,0.00507 -0.0292,0.0094 -0.044,0.019968 -0.0273,0.019189 -0.0448,0.041899 -0.0557,0.066569 -0.0292,-0.01214 -0.058,-0.019189 -0.0873,-0.014882 -0.0532,-0.078709 -0.12464,-0.1300055 -0.22359,-0.091239 -0.0834,0.031329 -0.10495,0.091239 -0.0895,0.1636816 -0.0328,-0.00392 -0.0641,0.00393 -0.0967,0.024667 -0.0197,0.014097 -0.0313,0.029366 -0.0389,0.046598 -0.0216,-0.00354 -0.0408,-0.00548 -0.0617,-0.00354 -0.0895,0.011355 -0.1246,0.050125 -0.1246,0.098679 -0.0622,-0.015662 -0.12014,-0.00705 -0.15127,0.054431 -0.0279,0.062653 -0.015,0.1131674 0.0182,0.1570244 -0.0473,0.01449 -0.08,0.043856 -0.0774,0.093197 -0.11188,0.021538 -0.20899,0.05169 -0.23816,0.075967 -0.022,0.019581 -0.0225,0.045426 -0.0102,0.067352 -0.0394,0.023888 -0.0738,0.055213 -0.10385,0.091239 -0.002,-0.055213 -0.0271,-0.1006369 -0.0855,-0.1217821 -0.0755,-0.027017 -0.14951,-0.00392 -0.21553,0.046598 -0.025,-0.055605 -0.0639,-0.1025951 -0.12013,-0.1143427 -0.0931,-0.015275 -0.13561,0.038764 -0.15339,0.1260897 -0.0755,-0.035243 -0.16689,0.028587 -0.21322,0.083407 -0.002,0.00392 -0.004,0.00783 -0.008,0.011355 -0.0583,-0.090847 -0.1421,-0.1409698 -0.26017,-0.068136 -0.0349,0.021538 -0.058,0.051297 -0.0738,0.082233 -0.0123,0.00273 -0.0214,0.00744 -0.0311,0.01214 -0.0165,-0.00311 -0.0338,-0.00783 -0.0499,-0.010576 0,-0.0094 0.005,-0.015662 0.005,-0.023103 0.002,-0.068136 -0.0876,-0.1358793 -0.19818,-0.1632902 -0.0243,-0.00548 -0.0457,-0.00626 -0.0681,-0.00901 -0.0125,-0.010963 -0.0258,-0.021146 -0.0391,-0.029759 2.2e-4,-0.00158 10e-4,-0.00273 10e-4,-0.00392 0,-0.00234 -0.002,-0.00234 -0.002,-0.00431 0.0622,-0.018404 0.11614,-0.042291 0.15695,-0.06187 0.0658,-0.038377 -0.0214,-0.120216 -0.1261,-0.1300055 -0.0123,-0.00158 -0.0234,-8.177e-4 -0.0348,-0.0012 0.0127,-0.1229569 0.0217,-0.2470891 0.0253,-0.372787 0.066,-0.3496836 0.15314,-0.6891864 0.27144,-1.0263396 0.0201,-0.055213 0.0438,-0.1069022 0.0649,-0.1605492 0.0707,-0.1296135 0.14614,-0.2615771 0.23374,-0.404505 0.008,-0.019581 0.0137,-0.029366 0.0217,-0.048555 0.0136,-0.030936 0.0267,-0.06187 0.0402,-0.092805 0.0297,-0.02506 0.0586,-0.052082 0.0871,-0.081058 0.0442,0.0094 0.092,0.00861 0.14175,0.00311 10e-4,0.01292 0.002,0.025845 0.005,0.039549 -0.0167,0.028587 -0.0261,0.059521 -0.0252,0.094763 -0.0398,0.055605 -0.0789,0.1119927 -0.11716,0.1703388 -0.0229,0.038764 -0.0485,0.077533 -0.0755,0.1178664 0.0444,-0.063828 0.0895,-0.1300054 0.13392,-0.1938334 0.0192,-0.027409 0.0402,-0.056388 0.0605,-0.084582 5.5e-4,0.01449 0.003,0.029759 0.007,0.045813 0.002,0.00469 0.004,0.00744 0.006,0.011748 -0.005,0.02663 4.5e-4,0.052082 0.027,0.058346 0.009,0.00196 0.0201,-7.632e-4 0.03,-3.887e-4 0.0448,0.019189 0.106,0.016054 0.17136,0.00273 -0.008,0.021538 -0.018,0.043076 -0.0231,0.067352 -0.004,0.017624 -0.004,0.036807 -0.004,0.055997 -0.0529,0.074009 -0.0914,0.1558496 -0.0933,0.2318172 0,0.028979 0.0254,0.051689 0.0544,0.041899 0.062,-0.021931 0.132,-0.06187 0.20562,-0.1143422 -0.0544,0.075575 -0.099,0.1589825 -0.12038,0.2185029 -0.0565,0.1405783 0.0448,0.2282934 0.16522,0.1793454 0.0601,-0.023103 0.11825,-0.06422 0.17409,-0.1166917 0.0159,0.00588 0.0353,0.00783 0.0586,0.00588 0.0156,0.048555 0.0601,0.079883 0.12589,0.075967 0.10087,-0.00744 0.22484,-0.1166917 0.31174,-0.2020568 0.006,-0.0012 0.0125,-0.00273 0.0189,-0.00431 0.0114,0.00234 0.0228,0.00469 0.0342,0.00469 -0.14171,0.1433192 -0.24454,0.3144413 -0.18024,0.4350487 0.008,0.014882 0.0385,0.013312 0.0599,0 0.0197,-0.012533 0.0349,-0.023495 0.0546,-0.0372 -0.0117,0.092805 0.0408,0.201274 0.16498,0.1511512 0.0582,-0.023103 0.11042,-0.072051 0.14954,-0.1264812 0.008,0.010183 0.0134,0.021538 0.021,0.031329 0.0176,0.023103 0.0603,0.014097 0.0912,-0.00979 0.002,0.050512 0.0214,0.089673 0.0779,0.1033779 0.019,0.00311 0.0408,0.00548 0.0601,0.00311 -0.006,0.06187 0,0.1186498 0.0311,0.1621154 0.0159,0.02428 0.0601,0.02663 0.10067,0.00311 0.0233,-0.013312 0.043,-0.02663 0.0622,-0.038764 0.01,0.025452 0.0216,0.048947 0.0449,0.068527 0.0192,0.016054 0.0601,0.010963 0.0931,-0.00469 0.0444,-0.019189 0.0852,-0.046205 0.12182,-0.073226 0.0237,0.023103 0.0567,0.036415 0.10726,0.039942 0.0406,0.00234 0.076,-0.00311 0.10788,-0.013705 0.004,0 0.007,0.0012 0.0106,7.632e-4 -0.0507,0.1025946 -0.0372,0.2036229 0.10283,0.2228105 0.007,0.0012 0.0131,7.632e-4 0.0199,0.0012 -0.0178,0.00548 -0.0343,0.016054 -0.0417,0.032108 z m -0.38963,-0.4252592 c -2.2e-4,0.016054 0.003,0.032501 0.0133,0.046598 2.2e-4,7.632e-4 5.4e-4,7.632e-4 5.4e-4,0.00158 -0.0131,0.011355 -0.0248,0.023495 -0.0396,0.033286 -0.006,-0.01292 -0.008,-0.030544 -0.006,-0.045813 0.0116,-0.011748 0.0205,-0.023888 0.0313,-0.035635 z m -0.21364,-0.03485 c 0.0133,-0.00979 0.029,-0.020753 0.0408,-0.031329 0.006,0.00861 0.0114,0.016054 0.0195,0.019974 -0.008,0.019581 -0.0137,0.03485 -0.0195,0.052474 -0.0118,0.011748 -0.0275,0.02271 -0.0408,0.03485 -0.004,-0.023103 -0.002,-0.050512 0,-0.075967 z m -0.0952,-0.1296135 c -0.0171,0.030544 -0.0308,0.061478 -0.0406,0.090847 -0.0252,-0.00354 -0.0309,-0.040334 -0.0287,-0.085365 0.0211,0 0.0442,-0.00196 0.0693,-0.00548 z m -0.8531,-0.3289299 c 0.0112,0.0012 0.0237,8.177e-4 0.0355,8.177e-4 -0.0307,0.020361 -0.0723,0.040727 -0.10005,0.040727 0.0217,-0.01292 0.0429,-0.027409 0.0645,-0.041506 z M 310.6177,4.2125399 c -0.0112,0.046598 0.0216,0.077925 0.0762,0.060695 0.0228,-0.00783 0.0463,-0.021931 0.0675,-0.029366 -0.007,0.015269 -0.0135,0.030936 -0.0192,0.048163 -0.0909,0.105336 -0.27391,0.2000992 -0.16858,-0.011355 0.0116,-0.023495 0.0271,-0.04699 0.0442,-0.068135 z m -0.64604,2.0785229 c -0.0463,-0.057171 -0.10001,-0.090456 -0.16141,-0.090847 0.0284,-0.024667 0.0664,-0.037592 0.0971,-0.01214 0.0313,0.026237 0.0472,0.066569 0.0645,0.1025951 0,3.881e-4 -2.2e-4,3.881e-4 -2.2e-4,3.881e-4 z m 1.93407,-0.8227161 c -0.022,-0.010183 -0.0452,-0.016054 -0.0683,-0.018796 0.0105,-0.021538 0.0425,-0.035243 0.0979,-0.041899 0.002,0.00392 0.006,0.00626 0.008,0.00822 -0.019,0.015662 -0.0301,0.033286 -0.0377,0.052469 z m -0.71543,0.7197296 c -0.002,0.00234 -0.002,0.00588 -0.004,0.00822 -2.2e-4,7.632e-4 -2.2e-4,0.00158 -4.4e-4,0.00273 -0.003,0.0012 -0.007,0.0012 -0.009,0.00273 0.002,-0.00469 0.003,-0.00861 0.004,-0.01292 0.003,0 0.006,-3.881e-4 0.01,-7.632e-4 z m -2.40048,-0.9198288 c -0.0233,-0.019968 -0.0533,-0.040334 -0.099,-0.05952 -0.01,-0.00431 -0.0192,-0.00783 -0.0273,-0.01214 0.0157,-0.077534 -0.019,-0.1527173 -0.16478,-0.1977496 -0.0717,-0.021146 -0.12816,-0.027409 -0.17472,-0.02506 0.0173,-0.027802 0.0292,-0.054431 0.0308,-0.085757 0,-0.019581 -0.0228,-0.039157 -0.0558,-0.052082 -0.006,-0.011748 -0.0116,-0.023495 -0.0217,-0.032501 0.0332,-0.045813 0.0391,-0.092022 -0.01,-0.1441026 -0.0505,-0.054431 -0.11254,-0.087715 -0.17852,-0.1069022 0.0118,-0.028979 0.01,-0.060304 -0.0195,-0.091239 -0.017,-0.018796 -0.0394,-0.034065 -0.0643,-0.04699 0.005,-0.2020568 0.008,-0.3904083 0.007,-0.5642708 0.005,-0.041114 0.005,-0.087323 0.0113,-0.1339217 0,-0.021146 -0.006,-0.042684 -0.0113,-0.060304 -10e-4,-0.072051 -0.004,-0.1413617 -0.006,-0.2118463 0.10221,0.00588 0.22023,-0.087323 0.32898,-0.1476269 0.006,0 0.0101,0.00158 0.0167,3.882e-4 0.0212,-0.00273 0.0413,-0.011748 0.0607,-0.022318 0.0804,0.021931 0.0948,0.2243773 0.2111,0.2110635 0.0762,-0.00901 0.14829,-0.046598 0.22129,-0.095155 0.002,-0.00158 0.004,-0.00311 0.007,-0.00469 0.0239,-0.016054 0.0482,-0.032893 0.0728,-0.050905 0.005,-0.00273 0.009,-0.00666 0.0144,-0.0094 5.5e-4,0.00901 0.002,0.017232 0.003,0.025845 -0.008,0.087715 -0.0152,0.1762126 -0.0224,0.2682343 -0.0135,0.1687726 -0.025,0.3371532 -0.0366,0.5063166 -0.0277,0.3786613 -0.0563,0.7616297 -0.0933,1.1426399 z m -0.68135,-0.5623133 c -0.0353,-0.010963 -0.0732,-0.014097 -0.11062,-0.018011 4.4e-4,-0.013705 10e-4,-0.027802 10e-4,-0.041506 0.006,-0.00431 0.0119,-0.00783 0.0182,-0.01292 0.0624,0.00783 0.10662,0.027409 0.0912,0.072443 z m 0.36871,0.475382 c -0.008,0.00158 -0.0142,0.00705 -0.0222,0.00901 -0.0513,-0.025452 -0.10471,-0.043076 -0.16079,-0.052082 0.007,-0.021538 0.0192,-0.041506 0.0379,-0.057563 0.0522,-0.043076 0.15674,-0.00626 0.15674,0.047775 0,0.018011 -0.006,0.035243 -0.0116,0.052862 z M 307.9953,4.7599727 c 0.0212,0.00311 0.0421,0.00507 0.063,0.00979 -0.009,0.00783 -0.0214,0.015662 -0.033,0.023103 -0.0107,-3.887e-4 -0.0203,0.00234 -0.0311,0.00234 2.2e-4,-0.011748 0.001,-0.023103 0.001,-0.035243 z m -1.56132,-0.4695082 c 0,-7.632e-4 2.2e-4,-0.00158 2.2e-4,-0.00234 0.008,-0.00234 0.0186,-0.00354 0.0273,-0.00548 0.002,0.00234 0.003,0.00507 0.005,0.00783 -0.0108,0 -0.0218,-0.0012 -0.0322,0 z m 1.42763,-0.8642236 c -10e-4,-0.00901 -0.002,-0.018011 -0.003,-0.02663 0.002,-0.00196 0.003,-0.00354 0.004,-0.00507 -2.2e-4,0.01057 -0.001,0.021146 -0.002,0.031716 z m -0.0569,1.0639314 c -0.003,0 -0.006,3.881e-4 -0.009,3.881e-4 -10e-4,-0.00822 -0.003,-0.016447 -0.004,-0.02506 0.005,-8.177e-4 0.01,-0.0012 0.0146,-0.00158 -5.4e-4,0.00861 -10e-4,0.017619 -0.002,0.026237 z m -0.58319,-0.2404325 c -0.0173,0.00311 -0.0334,0.00744 -0.0497,0.011748 -0.002,-0.01214 -0.005,-0.023888 -0.008,-0.036415 0.0207,0.00311 0.0404,0.0094 0.0575,0.024673 z m 0.0627,-0.2047977 c 0.0105,-0.00783 0.019,-0.018796 0.0213,-0.035635 0,-0.015662 0,-0.035243 0,-0.050905 0.005,0.013705 0.01,0.027022 0.0176,0.043076 0.0334,0.077142 0.12475,0.1609406 0.19669,0.1672058 0.005,0.030151 0.01,0.059912 0.0146,0.090064 -0.0404,-0.010183 -0.084,-0.017232 -0.12628,-0.018404 -0.033,-0.030936 -0.0833,-0.058737 -0.15335,-0.078316 -0.0161,-0.00431 -0.0283,-0.00392 -0.0436,-0.00744 0.0364,-0.017232 0.0597,-0.057171 0.073,-0.1096431 z m -0.0449,0.3986317 c -0.0156,-0.015662 -0.0391,-0.029366 -0.0677,-0.042684 0.005,-0.015662 0.008,-0.032893 0.008,-0.052474 0.0267,-0.00979 0.0552,-0.018796 0.0844,-0.027409 0.006,0.041114 -0.005,0.083798 -0.0252,0.1225655 z m 0.31648,-0.054039 0.001,0.00469 c -0.0245,-0.016054 -0.0573,-0.028194 -0.094,-0.02663 0.002,-0.020753 0,-0.038764 -0.008,-0.057954 0.0421,0.00548 0.0758,0.021146 0.0952,0.043076 0.002,0.01214 0.004,0.024667 0.006,0.036807 z m 0.25762,-0.027022 c -0.0129,-7.632e-4 -0.0248,3.882e-4 -0.0372,0 -0.0199,-0.1268731 -0.0432,-0.2627524 -0.0711,-0.4193854 -0.007,-0.035635 -0.0136,-0.074793 -0.0199,-0.112776 0.009,-0.00705 0.0161,-0.015662 0.0199,-0.02663 0.0213,-0.070485 0.0232,-0.1499764 0.015,-0.2294677 0.022,0.021538 0.0415,0.042684 0.0647,0.062262 0.0222,0.020753 0.0505,0.018796 0.0679,0.00234 -0.01,0.2106715 -0.0207,0.4201687 -0.033,0.6265326 -0.002,0.032108 -0.005,0.065003 -0.006,0.097113 z m 1.55118,-0.7209044 c 0.0108,0.00234 0.0214,0.00626 0.0328,0.00744 -0.0131,0.034458 -0.0266,0.069702 -0.0391,0.1037693 0.002,-0.0372 0.004,-0.074009 0.006,-0.1112104 z m 0.091,2.4806788 c 0.002,0.011355 -0.003,0.023103 -0.0106,0.034065 -0.0101,-0.00861 -0.0201,-0.017624 -0.0304,-0.023888 -0.0112,-0.00861 -0.0235,-0.012533 -0.0349,-0.019968 0.0119,-0.00158 0.0199,-0.00507 0.0254,-0.0094 0.0241,0.00548 0.0486,0.012533 0.0505,0.019189 z m 2.02413,-1.4418087 c 0,0.00158 -0.002,0.00392 -0.004,0.00783 -0.0117,0.017624 -0.0523,0.06187 -0.0523,0.06187 0,0 -0.0463,-0.063828 -0.0446,-0.094763 0,-0.015662 0.004,-0.036807 0.0138,-0.063045 l 0.002,-0.00158 c 0.004,0.04699 0.0389,0.080275 0.0856,0.089673 z m -0.17304,-0.1280479 c -0.0212,0.020753 -0.0425,0.039942 -0.0698,0.062262 -0.006,-0.093197 0.10322,-0.2286849 0.21447,-0.3344123 0.006,-0.0012 0.0123,-0.00234 0.0186,-0.00392 0.007,0.00431 0.0119,0.010183 0.0165,0.017232 -0.0795,0.069702 -0.14003,0.1675978 -0.17981,0.2588367 z m -4.39141,4.5126037 c 0.006,-0.0012 0.011,-0.00158 0.0173,-0.00311 -0.004,0.00861 -0.006,0.016447 -0.009,0.02428 -0.003,-0.00705 -0.005,-0.014097 -0.008,-0.021146 z m 8.83936,-5.2577862 c 0.008,0.011355 -0.006,0.016839 -0.0308,0.016839 -0.0413,-0.023495 -0.0844,-0.040334 -0.12715,-0.058737 0.005,-0.00354 0.0107,-0.00588 0.0144,-0.010576 0.0455,0.034458 0.0937,0.054432 0.14262,0.050905 2.2e-4,8.177e-4 5.4e-4,0.0012 10e-4,0.00158 z M 305.6433,8.4099155 c 0.003,-0.00354 0.007,-0.00666 0.009,-0.01057 0.0316,0.00588 0.0656,0.00311 0.10115,-0.00354 0.001,0.011748 -0.002,0.021538 0.001,0.034065 0,3.887e-4 0,3.887e-4 2.2e-4,3.887e-4 -0.007,0.015662 -0.01,0.032893 -0.01,0.051297 -0.011,0.016839 -0.0216,0.03485 -0.0324,0.052475 -0.0237,-0.040334 -0.0467,-0.082624 -0.0698,-0.1241322 z m 0.25829,0.4166444 c 0.0359,-0.016447 0.074,-0.040334 0.11337,-0.073226 -0.0305,0.048163 -0.0537,0.099462 -0.0686,0.1390121 -0.0154,-0.021146 -0.0296,-0.044641 -0.0448,-0.065786 z M 298.94082,8.365667 c -0.0286,0.057563 -0.0381,0.120216 0.007,0.1820864 0.0245,0.032501 0.051,0.047775 0.0778,0.054431 -0.004,0.028979 0.002,0.058346 0.0233,0.087323 0.005,0.00626 0.0106,0.010183 0.0159,0.014882 -0.002,0.019968 -0.005,0.039942 -0.003,0.063045 0.003,0.030544 0.025,0.065394 0.0525,0.072051 0.0114,0.00234 0.021,0.0012 0.0313,0.00196 -0.001,0.010963 -0.004,0.020361 -0.003,0.032501 10e-4,0.027017 0.0197,0.054432 0.0449,0.058346 0.076,0.012533 0.12735,-0.019581 0.17431,-0.06931 0.008,0.00822 0.0116,0.017232 0.0216,0.024667 4.4e-4,3.887e-4 0.001,3.887e-4 0.002,8.177e-4 0.008,0.027802 0.0222,0.053254 0.054,0.073618 0.0702,0.043856 0.13285,-0.032893 0.18551,-0.1108179 0.007,0.010963 0.016,0.019968 0.0258,0.027017 0.0109,0.031716 0.0262,0.058737 0.0535,0.06931 0.0206,0.00783 0.0389,0.00783 0.0563,0.00354 2.2e-4,0 2.2e-4,3.882e-4 2.2e-4,3.882e-4 0.0146,0.01214 0.0355,0.00469 0.0423,-0.015275 10e-4,-0.00196 10e-4,-0.00431 0.002,-0.00626 0.0322,-0.024673 0.0597,-0.064219 0.0859,-0.1045527 0.014,-0.00273 0.0267,-0.00822 0.0383,-0.016839 0.002,0.00196 0.003,0.00311 0.004,0.00588 0.022,0.050512 0.0486,0.09398 0.0948,0.1002456 0.0867,0.011355 0.14341,-0.099071 0.2088,-0.1754292 0.003,-0.0012 0.005,-0.0012 0.009,-0.00273 0.0117,-0.00666 0.0195,-0.018404 0.0284,-0.028194 0.0309,-0.00705 0.0647,0.030544 0.10088,0.059129 4.4e-4,0.01449 0.001,0.028979 0.0104,0.046205 0.019,0.033678 0.0647,0.045033 0.1062,0.032893 -0.004,0.00393 -0.01,0.00507 -0.0131,0.00979 -0.0307,0.044641 -0.0368,0.077925 -0.006,0.1241322 0.0214,0.039549 0.0797,0.048555 0.12205,0.029366 0.0273,0.015269 0.0622,0.025452 0.0933,0.015269 0.018,0.027802 0.0505,0.04699 0.10852,0.04699 0.0351,0.00158 0.0719,-0.011355 0.10111,-0.030936 0.0131,0.030936 0.0652,0.040334 0.10007,0.029759 0.003,0.00705 0.004,0.015662 0.007,0.022323 0.0134,0.036807 0.0795,0.040727 0.1138,0.021146 0.0278,-0.016839 0.0524,-0.036028 0.0751,-0.05678 0.007,0.019189 0.0148,0.037592 0.0264,0.05678 0.0175,0.033286 0.0834,0.057171 0.11806,0.029366 0.0466,-0.034458 0.0658,-0.079492 0.0798,-0.1303974 0.008,0.00666 0.0154,0.010575 0.0235,0.014097 0.0268,0.059912 0.0715,0.1163003 0.12777,0.166423 0.0123,0.010576 0.0275,0.015662 0.0427,0.019189 0.002,0.00196 0.002,0.00393 0.004,0.00588 0.0137,0.016054 0.0444,0.025845 0.0601,0.01214 0.008,-0.00626 0.0118,-0.01214 0.0156,-0.017232 -0.002,0.023495 -0.004,0.046206 0,0.071268 0.002,0.039157 0.0852,0.062653 0.10321,0.031329 0.002,-0.00273 0.003,-0.00588 0.004,-0.00901 0.0199,0.017624 0.0394,0.036028 0.0613,0.05169 0.0228,0.017232 0.0469,0.022323 0.0686,0.020753 10e-4,0.00158 0.002,0.00311 0.003,0.00469 0.0218,0.025452 0.0721,0.035243 0.0914,0.021146 0.0457,-0.028587 0.0558,-0.075967 0.0531,-0.1260898 0.009,-3.887e-4 0.0161,-0.00234 0.0226,-0.00666 0.007,0.017232 0.012,0.03485 0.0235,0.052861 0.023,0.041506 0.0831,0.056388 0.11084,0.031329 0.0505,-0.041899 0.0592,-0.1139508 0.0569,-0.1836526 0.008,7.632e-4 0.0154,0.00393 0.0224,0.00354 5.4e-4,0 0.001,-3.887e-4 0.002,-3.887e-4 0.003,0.00469 0.006,0.00861 0.01,0.013705 0.0163,0.016054 0.0396,0.019581 0.0586,0.016447 0.0345,0.027017 0.0721,0.050904 0.10871,0.066961 0.0171,0.043463 0.0389,0.087715 0.0694,0.1280479 0.0176,0.025452 0.066,0.046598 0.0833,0.030936 0.0351,-0.02271 0.0508,-0.058346 0.0567,-0.098287 0.006,-0.013312 0.007,-0.029759 0.005,-0.04699 0.008,-0.00666 0.0142,-0.015275 0.018,-0.024667 0.0362,0.016054 0.0743,0.020753 0.10284,0.013705 0.0234,0.026237 0.0467,0.054039 0.0755,0.078708 0.0178,0.016054 0.0466,0.021146 0.0546,0.00979 0.008,-0.011748 0.0133,-0.023103 0.0175,-0.034458 0.0192,0.019189 0.0423,0.038764 0.0677,0.054039 0.027,0.017232 0.0622,0.013312 0.0582,-0.01214 -0.004,-0.020753 -0.01,-0.040334 -0.0156,-0.061478 0.0156,-0.00196 0.0294,-0.00979 0.0367,-0.025845 0.006,-0.00744 0.008,-0.016839 0.0102,-0.029366 0.004,-0.0012 0.008,-0.00705 0.006,-0.014882 -0.002,-0.00588 -0.002,-0.01214 -0.002,-0.019968 -0.002,-0.020753 -0.004,-0.043856 -0.01,-0.067352 0.008,-0.02506 5.4e-4,-0.059912 -0.0133,-0.096721 0.0129,0.00705 0.0232,0.010963 0.034,0.00901 0.001,3.887e-4 0.002,0.00158 0.003,0.00234 0.0116,0.00548 0.0267,0.00548 0.0326,0 0.002,-0.00196 0.002,-0.00392 0.004,-0.00392 0.006,0 0.0134,-0.00354 0.0172,-0.00626 0.0289,-0.022318 0.0364,-0.061087 0.0273,-0.1057274 0.002,0.0012 0.003,0.00273 0.005,0.00392 0.0267,0.047775 0.0571,0.092414 0.094,0.1292226 0.0195,0.019189 0.0468,0.030936 0.0603,0.019189 0.0163,-0.01449 0.026,-0.032893 0.0331,-0.053647 0.0129,0.012533 0.0225,0.027409 0.0371,0.038764 0.029,0.021146 0.0558,0.00354 0.054,-0.025452 -0.002,-0.037592 -0.009,-0.077142 -0.0174,-0.1159089 0.077,0.1296141 0.18557,0.2279015 0.23526,0.1084689 0.019,-0.043463 0.004,-0.1092517 -0.0218,-0.1769959 0.008,3.887e-4 0.0163,0.00158 0.0256,0 0.0364,-0.00507 0.0552,-0.039549 0.0635,-0.08654 0.006,-0.00507 0.012,-0.010183 0.012,-0.019581 0,-0.012533 0,-0.025452 0,-0.0372 0.002,0.00979 0.008,0.019189 0.0116,0.028587 0.0385,0.074401 0.15526,0.1558502 0.19043,0.077925 0.0228,-0.054822 0.0112,-0.1378374 -0.008,-0.2138044 0.008,0.00392 0.014,0.00979 0.0197,0.013705 0.0214,0.01214 0.0446,-0.00196 0.0501,-0.023103 0.01,-0.046205 0.01,-0.1014198 0,-0.1550669 0.014,0.013312 0.0294,0.027409 0.0447,0.040727 0.0256,0.019189 0.0567,0.00744 0.0586,-0.025845 0,-0.044248 -0.004,-0.090847 -0.0156,-0.1374454 0.008,-0.00548 0.0138,-0.015275 0.0138,-0.02506 0,-0.021538 0,-0.044248 -0.006,-0.065395 4.4e-4,-3.887e-4 5.4e-4,-7.632e-4 0.001,-7.632e-4 0.004,0.048947 0.0176,0.09163 0.0535,0.1092517 0.0793,0.036028 0.17007,-0.050125 0.25555,-0.1029865 0.004,-3.882e-4 0.007,8.177e-4 0.0123,-3.882e-4 0.0131,-0.00273 0.0243,-0.011748 0.0362,-0.018796 0.058,0.00705 0.0742,0.1507592 0.15381,0.1374454 0.0528,-0.00861 0.10068,-0.036415 0.14783,-0.072051 4.4e-4,-3.887e-4 0.001,-7.632e-4 0.002,-7.632e-4 0.0148,-0.011748 0.0298,-0.023103 0.0446,-0.035635 4.5e-4,-3.887e-4 0.001,0 0.002,-3.887e-4 0.004,-0.00273 0.007,-0.00705 0.0107,-0.00979 0.003,0.022323 0.006,0.044248 0.0105,0.06422 0.007,0.028979 0.0461,0.016839 0.0658,-0.00822 0.0332,0.035635 0.0749,0.059521 0.13008,0.054822 -0.004,0.02506 0.002,0.048555 0.0235,0.062262 0.0522,0.040334 0.1244,0.040334 0.20561,0.00744 -0.004,0.071659 0.0273,0.1307888 0.11673,0.110426 0.0281,-0.00626 0.0529,-0.018011 0.0768,-0.031716 0.18068,0.4084217 0.36531,0.8105771 0.56141,1.1982445 0.47385,0.9394079 0.87154,1.8122449 0.98009,3.0852829 0.0505,0.561139 0.0505,1.132067 0.0619,1.698295 0.0118,0.559181 0.0582,1.10818 0.0876,1.665403 0.0507,0.98914 -0.0857,1.779354 -0.23292,2.586798 h 1.23259 0.0229 0.11297 c -0.0199,-0.386492 -0.0449,-0.771027 -0.0607,-1.15517 -0.025,-0.661384 0.0216,-1.329033 0.0432,-1.988851 0.019,-0.62105 0.0853,-1.22487 0.0523,-1.839657 -0.0333,-0.618701 -0.16141,-1.335298 0.0368,-1.878424 0.1631,-0.447971 0.41504,-0.801571 0.62657,-1.186105 0.0791,-0.142536 0.15256,-0.293295 0.2234,-0.44758 0.007,-0.01214 0.0144,-0.02389 0.0211,-0.03563 0.009,0.0067 0.0199,0.01097 0.0314,0.01527 0.005,0.0074 0.009,0.01605 0.0136,0.0235 0.006,0.06657 0.0368,0.109253 0.11039,0.113168 0.12441,0.0055 0.19227,-0.08811 0.2348,-0.213413 0.0214,0 0.0387,-0.0039 0.0563,-0.0098 0.0232,0.03641 0.0543,0.05795 0.10303,0.05012 0.0116,-0.0023 0.0197,-0.0059 0.0311,-0.0098 0.002,0.0039 0,0.0063 0.002,0.0098 0.007,0.03642 0.041,0.04856 0.0762,0.04425 0.028,0.01097 0.0635,0.01018 0.11019,-0.01331 0.0298,-0.01566 0.0493,-0.04229 0.0643,-0.07323 0.003,0.0012 0.006,0.0027 0.009,0.0035 0.003,4.44e-4 0.005,-7.63e-4 0.007,-4.44e-4 0.0129,0.03329 0.0348,0.05756 0.0693,0.06853 0.008,0.01801 0.0184,0.03564 0.0319,0.05208 0.0165,0.01919 0.0433,0.02075 0.0639,0.01136 0.0106,0.0278 0.0245,0.05482 0.0451,0.08027 0.0254,0.03054 0.0814,0.02154 0.10111,-0.0078 0.0171,-0.02702 0.0277,-0.0556 0.0404,-0.08341 0.0114,-0.0035 0.0233,-0.007 0.0313,-0.01723 0.008,-0.01097 0.014,-0.0235 0.0212,-0.03524 0.007,0.0016 0.0125,0.0039 0.0216,0.0039 0.0427,0.002 0.0816,-0.01605 0.11763,-0.04346 0.0224,0.02819 0.0448,0.05443 0.0647,0.07479 0.0173,0.01684 0.041,0.01488 0.0601,0.0016 0.0178,-0.01097 0.0279,-0.02741 0.0389,-0.04308 0.01,0.0031 0.0216,0.0043 0.033,0.0059 0.0298,0.05051 0.063,0.09868 0.10662,0.144103 0.0214,0.0231 0.0562,0.01136 0.066,-0.0141 0.01,-0.01919 0.0159,-0.04307 0.0197,-0.065 0.0172,0.01645 0.0463,0.01292 0.0601,-0.0051 0.0449,-0.06579 0.0504,-0.137446 0.0371,-0.206756 0.002,-0.002 0.004,-0.0043 0.006,-0.0059 0.002,-0.01018 0.002,-0.01605 0.002,-0.02545 0.029,0.03133 0.0658,0.05208 0.11231,0.06579 0.0212,0.0055 0.0444,-0.0035 0.0524,-0.02506 0.0134,-0.0325 0.0173,-0.06618 0.0173,-0.1010288 0.0349,0.00744 0.0738,0.00392 0.11442,-0.015269 0.043,-0.019974 0.066,-0.048555 0.0817,-0.081841 0.043,-0.00234 0.0852,-0.017232 0.12609,-0.052082 0.033,-0.029759 0.0482,-0.064611 0.0505,-0.1006364 0.0214,0.018796 0.0658,0 0.0562,-0.029759 -0.0178,-0.055997 -0.045,-0.1100351 -0.0738,-0.1589831 0.008,0.00234 0.0152,0.00234 0.0214,0.00234 0.0195,0.00158 0.0423,-0.010183 0.0446,-0.029366 0.0184,-0.067352 0.0108,-0.1362707 -0.0118,-0.2012734 0.0624,-0.01057 0.10514,-0.046598 0.136,-0.09633 0.01,0.00861 0.0176,0.01449 0.025,0.019974 0.0157,0.027017 0.0315,0.054431 0.0486,0.081058 0.008,0.075967 0.0427,0.1268726 0.12632,0.1303969 0.0524,0.00311 0.0943,-0.01449 0.13158,-0.039942 0.01,0.00861 0.0222,0.014882 0.0389,0.01449 0.0278,0 0.0525,-0.00588 0.0775,-0.011748 0.004,0.00234 0.003,0.00666 0.008,0.00822 0.0224,0.00626 0.0391,0.00431 0.056,3.886e-4 -0.0167,0.018796 -0.0326,0.037985 -0.0459,0.057954 -0.0188,0.029366 -10e-4,0.075576 0.0377,0.077925 -0.004,0.015275 -0.0102,0.030151 -0.0127,0.045813 -0.004,0.043076 0.043,0.077925 0.0874,0.068136 0.004,0 0.01,-0.00196 0.0154,-0.00393 -0.004,0.00901 -0.005,0.018404 -0.009,0.027022 -0.014,0.016447 -0.0309,0.030544 -0.0434,0.048162 -0.015,0.020753 -0.007,0.047775 0.0116,0.06187 -0.006,0.034065 -0.0116,0.068135 -0.0116,0.1022031 0,0.043856 0.0389,0.072835 0.087,0.06931 0.0403,-0.00507 0.0759,-0.020361 0.1098,-0.039157 -10e-4,0.00354 -0.002,0.00666 -0.003,0.00979 -0.005,0.032893 0.012,0.070094 0.0529,0.070094 0.0466,0.002 0.0833,-0.0039 0.12397,-0.01723 -0.005,0.01919 -0.005,0.03877 -0.005,0.05795 0.004,0.03094 0.0209,0.05443 0.0543,0.056 0.10409,0.01057 0.19082,-0.02741 0.26467,-0.08811 0.002,0.02663 0.007,0.0556 0.0161,0.0838 -0.0624,0.158591 -0.0815,0.317574 0.0239,0.384926 0.16099,0.102986 0.30059,-0.05795 0.39977,-0.236516 0.01,0.0067 0.0216,0.01058 0.0339,0.01527 0.005,0.0082 0.009,0.01684 0.0144,0.02545 0.008,0.06618 0.0391,0.112384 0.11446,0.1163 0.12609,0.0059 0.19986,-0.09124 0.2443,-0.221246 0.0218,-0.002 0.0394,-0.0043 0.0565,-0.0098 0.0214,0.0372 0.0543,0.05991 0.10451,0.05247 0.0121,-0.002 0.0237,-0.0059 0.0355,-0.0098 0,0.002 0,0.0063 0,0.0078 0.006,0.03838 0.0442,0.0513 0.0795,0.04699 0.0281,0.01097 0.0637,0.0098 0.11019,-0.0137 0.0406,-0.02075 0.0626,-0.05913 0.0779,-0.102594 0.0118,0.05443 0.0385,0.0975 0.095,0.106118 0.0131,0.0023 0.0239,-4.44e-4 0.0354,-7.63e-4 0.0135,0.01958 0.0292,0.03759 0.0474,0.05286 0.0104,0.03172 0.0245,0.06305 0.0493,0.09163 0.0273,0.03094 0.0836,0.02154 0.10264,-0.0074 0.0198,-0.02976 0.0349,-0.06109 0.0484,-0.09202 0.009,-0.0043 0.0192,-0.0059 0.0258,-0.01488 0.008,-0.01058 0.0142,-0.0231 0.0212,-0.03485 0.008,0.0016 0.014,0.0039 0.0233,0.0039 0.045,0.0031 0.0856,-0.01566 0.12249,-0.04464 0.0231,0.02937 0.0461,0.056 0.0658,0.07558 0.0174,0.01762 0.043,0.01527 0.0639,0.0035 0.0176,-0.01175 0.0288,-0.02859 0.041,-0.04464 0.01,0.0031 0.0218,0.0043 0.0334,0.0059 0.0298,0.05208 0.0647,0.102596 0.10807,0.147627 0.0214,0.0235 0.0582,0.01136 0.0679,-0.0137 0.01,-0.01919 0.0152,-0.04229 0.0216,-0.06579 0.0197,0.01527 0.0463,0.01136 0.0598,-0.0082 0.0489,-0.06539 0.0527,-0.139404 0.0408,-0.213021 0,-0.002 0.002,-0.0039 0.002,-0.0059 0.004,-0.0078 0.004,-0.01527 0.006,-0.0231 0.0287,0.02898 0.0656,0.05208 0.11422,0.06579 0.0211,0.0055 0.0467,-0.0039 0.0525,-0.02545 0.0154,-0.03485 0.0192,-0.07009 0.0192,-0.104554 0.0389,0.0078 0.0774,0.0039 0.12037,-0.01566 0.0427,-0.021146 0.0683,-0.050512 0.0838,-0.084973 0.0425,-0.00234 0.087,-0.017624 0.12777,-0.054431 0.0351,-0.030936 0.0523,-0.066177 0.054,-0.102594 0.0217,0.016839 0.0681,0 0.0586,-0.030936 -0.0197,-0.058737 -0.0463,-0.112776 -0.0774,-0.1656397 0.01,0 0.0172,0.00354 0.0231,0.00354 0.0214,0 0.0411,-0.010963 0.0467,-0.030544 0.0306,-0.1069021 -0.002,-0.21772 -0.0643,-0.3093503 -0.002,-0.00901 -0.004,-0.018011 -0.007,-0.02663 0.0753,-0.015275 0.132,-0.052862 0.14321,-0.127656 10e-4,-0.011355 -0.003,-0.020753 -0.004,-0.030544 0.007,0 0.0124,0.00158 0.0195,0.00158 0.0347,0.00158 0.0617,-0.021146 0.069,-0.050125 0.0283,0.012533 0.0588,0.016054 0.0907,-7.631e-4 0.0504,-0.027022 0.0558,-0.069702 0.0406,-0.1182584 0.0656,0.00469 0.13176,-0.00783 0.18616,-0.036807 0.025,-0.013705 0.037,-0.044641 0.0233,-0.067744 -0.0233,-0.035243 -0.0485,-0.067744 -0.0777,-0.097113 0.0563,0.00548 0.11278,0.0094 0.17265,0.00354 0.0292,-0.00354 0.0429,-0.032893 0.0389,-0.055997 -4.4e-4,-0.00158 -10e-4,-0.00273 -0.002,-0.00392 0.0119,-0.066961 -0.0419,-0.1354879 -0.10706,-0.1628983 -0.004,-0.00196 -0.009,-0.00469 -0.0115,-0.00626 0,-0.00392 0.002,-0.00548 0.002,-0.011355 0,-0.018796 -0.003,-0.035635 -0.007,-0.050904 0.11572,-0.047775 0.20433,-0.1155174 0.18698,-0.2032315 -0.0112,-0.054431 -0.0463,-0.083799 -0.0948,-0.095546 0.0314,-0.047776 0.029,-0.1022032 -0.0328,-0.1687726 -0.0755,-0.082232 -0.22614,-0.059129 -0.37674,-0.00311 -0.006,-0.00392 -0.0102,-0.0094 -0.0171,-0.011748 0.0118,-0.0094 0.0241,-0.016054 0.0348,-0.027802 0.0228,-0.023103 0.0134,-0.054039 -0.0154,-0.067352 -0.0159,-0.00588 -0.0413,-0.014097 -0.0702,-0.019189 0.0543,-0.021931 0.10659,-0.050905 0.14743,-0.095546 0.012,-0.013705 0.0197,-0.034458 0,-0.048163 -0.0368,-0.028979 -0.0772,-0.048947 -0.12037,-0.064611 0.0485,-0.023103 0.0876,-0.056388 0.11466,-0.1041613 0.01,-0.021931 0.01,-0.054821 -0.0152,-0.066569 -0.0819,-0.036807 -0.16521,-0.055997 -0.24665,-0.079491 0.0814,-0.030936 0.16477,-0.057954 0.23863,-0.1100351 0.0273,-0.018011 0.0173,-0.057171 -0.008,-0.072051 -0.0216,-0.014097 -0.0404,-0.025452 -0.066,-0.032893 0,-0.00273 0.002,-0.00469 0.002,-0.00469 0.0214,-0.02428 0.004,-0.059912 -0.0233,-0.067352 -0.07,-0.019189 -0.18636,-0.028979 -0.3063,-0.023888 0.0286,-0.044249 0.0463,-0.086931 0.0463,-0.1178665 0,-0.023495 -0.0177,-0.048555 -0.0486,-0.048555 -0.01,0 -0.0214,0.00234 -0.0328,0.00234 0.0154,-0.025845 0.029,-0.050905 0.0351,-0.082232 0.0114,-0.034458 -0.0197,-0.075576 -0.0624,-0.065786 -0.074,0.017624 -0.13983,0.046598 -0.20562,0.077533 0.006,-0.00901 0.01,-0.015269 0.0155,-0.02506 0.0159,-0.038377 -0.0273,-0.073617 -0.0656,-0.067744 -0.0967,0.014097 -0.18256,0.052082 -0.26487,0.094763 -0.003,-0.00273 -0.007,-0.00354 -0.011,-0.00548 0.009,-0.018011 0.0172,-0.036415 0.025,-0.054822 0.0167,-0.00548 0.0336,-0.013705 0.0506,-0.02663 0.0347,-0.027802 0.0419,-0.066569 0.0342,-0.1096431 0.0431,0.00626 0.0867,-0.020361 0.10404,-0.057563 0.0256,0.00354 0.0516,0.00744 0.0755,0.00626 0.0424,-0.00196 0.0658,-0.03485 0.0504,-0.072443 -0.0138,-0.032501 -0.0333,-0.06187 -0.0548,-0.086931 0.0468,0.00234 0.0915,0.00548 0.1398,0.00234 0.0237,0 0.0408,-0.01214 0.0489,-0.027409 0.0573,-0.0094 0.11085,-0.029366 0.15698,-0.061479 0.006,0.00158 0.01,0.00392 0.0156,0.00548 0.0211,0.00507 0.0351,-0.014097 0.027,-0.031329 -0.007,-0.018011 -0.0186,-0.030544 -0.0315,-0.041114 -0.002,-0.00316 -0.003,-0.00666 -0.005,-0.0094 -0.0593,-0.072443 -0.16227,-0.1116012 -0.26487,-0.1303968 -0.014,-0.00705 -0.0283,-0.01214 -0.04,-0.014882 -0.0117,-0.00234 -0.0176,0 -0.0267,-0.00234 0.0375,-0.05678 -0.056,-0.1037699 -0.11188,-0.108077 -0.007,-0.011355 -0.0109,-0.021931 -0.0222,-0.034065 -0.0101,-0.0094 -0.0192,-0.016839 -0.033,-0.023103 0.0208,-0.038377 0.0228,-0.081058 -0.0137,-0.1253069 -0.0389,-0.045426 -0.10513,-0.04934 -0.1728,-0.031329 -0.002,-0.00666 -0.004,-0.011748 -0.006,-0.015662 -0.0406,-0.076358 -0.10659,-0.083798 -0.17637,-0.056387 -0.0119,-0.023495 -0.0333,-0.042684 -0.0715,-0.060304 -0.0491,-0.016839 -0.10702,-0.00744 -0.16517,0.019581 0.0154,-0.048947 0.0114,-0.091239 -0.0391,-0.1143422 -0.062,-0.030936 -0.12609,-0.025452 -0.18045,0 -0.006,-0.015662 -0.027,-0.027409 -0.0446,-0.027409 -0.008,0 -0.0117,0 -0.0193,0 0,-0.019189 -0.0137,-0.03485 -0.0351,-0.042291 -0.026,-0.0094 -0.0541,-0.011748 -0.0819,-0.011355 -0.007,-0.00273 -0.0148,-0.00311 -0.0224,-0.00273 0.006,-0.032501 -0.008,-0.062653 -0.0588,-0.085365 -0.008,-0.00354 -0.0156,-0.00548 -0.025,-0.00783 0.009,-0.024667 0.0153,-0.05169 0.0153,-0.081057 0,-0.027802 -0.0231,-0.048948 -0.054,-0.042684 -0.0349,0.00588 -0.0819,0.017232 -0.13244,0.035243 0.0229,-0.053254 0.0375,-0.1072941 0.037,-0.1535006 0.0222,7.631e-4 0.0436,0.00273 0.0681,-3.887e-4 0.0273,-0.00392 0.0524,-0.010183 0.0738,-0.019189 0.0601,0.02506 0.13012,0.038377 0.20754,0.034458 0.14935,-0.00548 0.22316,-0.054039 0.24811,-0.129614 0.0254,0.0094 0.0505,0.019968 0.076,0.02506 0.0541,0.013312 0.11994,-0.014097 0.12413,-0.050512 0.007,-0.03485 0.006,-0.070485 0.003,-0.1057274 0.0239,-0.032108 0.0297,-0.070876 0.0262,-0.1123846 0.0545,0.028194 0.11145,0.054822 0.1766,0.074793 0.0658,0.019189 0.14387,0.011748 0.1555,-0.043076 0.006,-0.038377 0.004,-0.07675 -0.002,-0.117475 2.2e-4,0 5.4e-4,0 5.4e-4,-3.887e-4 0.18401,0.1080769 0.39534,0.1801282 0.52331,0.083407 0.16079,-0.1225655 0.0928,-0.2854643 -0.0677,-0.4311331 0.1199,0 0.21682,-0.03485 0.24623,-0.1413616 0.0228,-0.087323 -0.0565,-0.1726883 -0.18871,-0.2463058 0.0351,-0.039549 0.0273,-0.105336 -0.056,-0.2138043 -0.007,-0.00861 -0.0172,-0.016447 -0.0256,-0.02506 0.007,-0.020753 0.013,-0.041899 0.0157,-0.064219 -0.003,-0.00392 -0.007,-0.00783 -0.01,-0.011748 0.0184,-0.018796 0.0313,-0.042291 0.0313,-0.077142 0,-0.00588 -0.002,-0.011748 -0.002,-0.018011 0.18784,0.048555 0.37415,0.081449 0.55503,0.060304 0.0584,-0.00588 0.0793,-0.06422 0.0463,-0.1104265 -0.008,-0.00979 -0.0195,-0.020361 -0.0273,-0.030936 0.008,-0.010183 0.0135,-0.021931 0.0135,-0.035243 0.003,-0.035243 -0.005,-0.06931 -0.018,-0.1025951 0.002,-0.00273 0.005,-0.00469 0.006,-0.00822 0.0334,-0.050512 0.0681,-0.1022032 0.0854,-0.1589826 -0.0324,-0.039549 -0.0631,-0.082233 -0.081,-0.1080769 -0.007,-0.020361 -0.0175,-0.041899 -0.0334,-0.066961 -0.0734,-0.1143422 -0.22696,-0.2141958 -0.40403,-0.2870305 -0.022,-0.029759 -0.0506,-0.057563 -0.0865,-0.083015 -0.006,-0.00822 -0.009,-0.015269 -0.0154,-0.023495 -0.0159,-0.019189 -0.033,-0.0372 -0.055,-0.054432 0.15761,0.015662 0.27986,-0.00354 0.28793,-0.092805 0.007,-0.091239 -0.0529,-0.1754292 -0.14767,-0.2482639 0.15335,0.00744 0.30587,0.00354 0.4345,-0.027802 0.0529,-0.01292 0.0583,-0.061479 0.0214,-0.1104265 0.0447,-0.011355 0.0872,-0.028979 0.12057,-0.051689 0.0404,-0.028979 0.0134,-0.083799 -0.0488,-0.124915 -0.0192,-0.011355 -0.0402,-0.021538 -0.0603,-0.03485 0.002,-0.00979 0.008,-0.020753 0.01,-0.032893 0.004,-0.030936 -0.0252,-0.065786 -0.0679,-0.091239 -0.0738,-0.041114 -0.16329,-0.079491 -0.2543,-0.1104264 0.16521,-0.010183 0.29894,-0.050125 0.34949,-0.1554583 0.0213,-0.040727 -0.0117,-0.1065108 -0.0876,-0.1417531 -0.0306,-0.015275 -0.0619,-0.02506 -0.0933,-0.038764 0.0567,-0.00979 0.10894,-0.02506 0.15358,-0.044248 0.0465,-0.021931 0.0504,-0.066178 0.0102,-0.1092517 0.12754,-0.015269 0.23264,-0.052082 0.29804,-0.11786646 0.0315,-0.0309363 0.0159,-0.092805 -0.0673,-0.13039741 -0.0819,-0.0383774 -0.16709,-0.0736175 -0.25656,-0.10494407 -0.031,-0.0246673 -0.0716,-0.046598 -0.11638,-0.0489475 -0.0116,0 -0.025,-0.001581 -0.0394,-0.001581 -0.0831,-0.0266297 -0.16627,-0.045813 -0.24983,-0.0677442 0.002,-0.0113551 0.01,-0.0211457 0.01,-0.0332858 0.0134,-0.0986789 -0.11442,-0.20558105 -0.27967,-0.25570329 -0.0355,-0.0105756 -0.0693,-0.0168392 -0.10255,-0.0219307 -0.0167,-0.0148821 -0.0341,-0.0289793 -0.0518,-0.0418989 4.4e-4,-0.001199 0.001,-0.002726 0.002,-0.004307 v -0.005877 c 0.091,-0.0250598 0.1743,-0.054039 0.23292,-0.080666 0.10239,-0.0516895 -0.0178,-0.17895402802 -0.17516,-0.20244871 -0.0279,-0.003925 -0.0533,-0.0046881 -0.0793,-0.0066561 -0.011,-0.01801119 -0.0245,-0.03524284 -0.0429,-0.0516895 0.0397,-0.05912892 0.0514,-0.13078882 0.01,-0.22124435 -0.0195,-0.0442484 -0.0933,-0.080666 -0.15527,-0.0975041 -0.029,-0.007049 -0.0561,-0.0109626 -0.0872,-0.0164467 0.0131,-0.0430764 0.0172,-0.0896733 0.01,-0.13783793 -0.008,-0.0552132 -0.10702,-0.1029865 -0.18636,-0.11081788 -0.0643,-0.006264 -0.1284,-0.006264 -0.18871,-0.003543 0.0176,-0.0700932 -0.0309,-0.15545826 -0.19966,-0.23886577 -0.014,-0.008221 -0.0271,-0.0121401 -0.0407,-0.0176241 0.0309,-0.11434223 -0.0154,-0.23064243 -0.22904,-0.30700083 -0.10091,-0.03485 -0.18428,-0.048163 -0.2566,-0.048163 0.0296,-0.036807 0.0488,-0.078316 0.055,-0.1241322 0.002,-0.029366 -0.0292,-0.060304 -0.0755,-0.081449 -0.008,-0.017624 -0.018,-0.033678 -0.0315,-0.050904 0.0521,-0.05952 0.0641,-0.1319635 -0.004,-0.2110634 -0.07,-0.081841 -0.1593,-0.1362707 -0.25426,-0.1695554 0.0213,-0.042291 0.0213,-0.08654 -0.0214,-0.1374454 -0.10091,-0.1186498 -0.3319,-0.1750378 -0.50874,-0.169164 -0.0288,-0.05952 -0.0986,-0.1139508 -0.24031,-0.1625069 -0.0641,-0.021146 -0.13581,-0.035243 -0.20962,-0.042684 -0.0466,-0.04699 -0.11658,-0.090847 -0.2198,-0.1245236 -0.33738,-0.1088597 -0.54892,-0.042684 -0.64795,0.079492 -0.0603,-0.030936 -0.13576,-0.057563 -0.23687,-0.079492 -0.003,-0.00158 -0.007,-0.00158 -0.0134,-0.00158 -0.0368,-0.055996 -0.095,-0.1092517 -0.18424,-0.1531087 -0.33759,-0.1672059 -0.61115,-0.014097 -0.7063,0.1722963 -0.17664,-0.015662 -0.28938,0.030936 -0.3554,0.1033785 -0.002,0 -0.004,0 -0.004,0 -0.0876,-0.083799 -0.21748,-0.1378374 -0.3998,-0.1280479 -0.0857,0.00311 -0.15151,0.020753 -0.194,0.045813 -0.039,-0.028587 -0.0874,-0.055605 -0.15526,-0.077142 -0.25025,-0.079491 -0.50686,-0.015662 -0.66021,0.086931 -0.0288,-0.021146 -0.0658,-0.040334 -0.11019,-0.055605 -0.14003,-0.04699 -0.26208,-0.060696 -0.36491,-0.052862 -0.0271,-0.054431 -0.0719,-0.1069022 -0.13772,-0.157025 -0.0177,-0.013705 -0.043,-0.023495 -0.07,-0.030936 -0.0212,-0.023888 -0.0411,-0.048948 -0.0658,-0.070093 -0.0332,-0.031329 -0.12226,-0.048555 -0.18847,-0.033286 -0.11066,0.027409 -0.24243,0.097504 -0.35877,0.1844359 -0.0664,-0.044248 -0.14743,-0.081058 -0.25257,-0.1069022 -0.33336,-0.077534 -0.49904,0.01057 -0.56631,0.1460607 -0.13052,-0.089281 -0.31683,-0.130006 -0.5705,-0.04699 -0.18063,0.060304 -0.25042,0.1515426 -0.25844,0.2541376 -0.0758,-0.00548 -0.1553,0 -0.24032,0.031329 -0.18255,0.066177 -0.24689,0.1476269 -0.24689,0.232992 -0.25574,-0.081449 -0.52186,-0.089281 -0.6828,0.064219 -0.0834,0.081058 -0.0699,0.178562 -0.002,0.2756747 -0.19231,0.063828 -0.311,0.1879597 -0.28351,0.2960366 h 0.002 c -0.15185,0.053254 -0.23714,0.1554588 -0.19058,0.2568786 0.0313,0.058346 0.10114,0.100637 0.19611,0.1339217 -0.0298,0.00901 -0.0567,0.022318 -0.0846,0.034065 -0.0696,-0.037985 -0.1517,-0.063437 -0.24415,-0.062653 -0.0391,-0.01214 -0.081,-0.022323 -0.12354,-0.027802 -0.0658,-0.035635 -0.13749,-0.067744 -0.21937,-0.091239 -0.0601,-0.017624 -0.16834,0.00588 -0.20562,0.046205 -0.12433,0.1417531 -0.13028,0.2725419 -0.0776,0.39628222 -0.2308,-0.095546 -0.51211,-0.12648122 -0.84233,0.005484 -0.0211,0.008221 -0.0406,0.0176187 -0.0637,0.0274093 -0.0114,0.001962 -0.0234,0 -0.0351,0 -0.0501,0.003925 -0.10663,0.0254523 -0.14177,0.050512 -0.17047,0.0172317 -0.33147,0.0681351 -0.43257,0.16720587 -0.10302,0.0990703 -0.10512,0.18639346 -0.0427,0.25766195 -0.18423,0.050512 -0.3224,0.1397955 -0.36913,0.27998187 -0.0231,0.06539468 -0.006,0.11825839 0.0334,0.16054925 -0.0195,0.03093629 -0.0334,0.06186986 -0.0389,0.0971127 -0.0176,0.11434216 0.0432,0.17660396 0.14746,0.20597245 -0.11806,0.0677442 -0.24263,0.16838063 -0.2989,0.26471051 -0.0889,0.0223232 -0.1705,0.047383 -0.24815,0.0747922 -0.0501,0.0152692 -0.10491,0.0328933 -0.15715,0.052082 -0.32241,0.12648118 -0.6213,0.40998738 -0.33189,0.55526468 0.10763,0.053647 0.23964,0.055997 0.37885,0.03485 -0.004,0.021146 -0.005,0.041899 -0.003,0.063437 -0.006,0.00354 -0.0119,0.00626 -0.0177,0.00979 -0.017,0.00273 -0.0336,0.00431 -0.051,0.00861 -0.0188,0.00431 -0.0334,0.013312 -0.0505,0.019581 -0.0326,-0.019189 -0.0685,-0.035243 -0.10914,-0.041506 -0.0482,-0.00744 -0.0946,0.019189 -0.10662,0.063828 -0.0154,0.049732 -0.008,0.098287 0.009,0.1425364 -0.006,0.00979 -0.0134,0.018404 -0.0182,0.028587 -0.0141,0.012533 -0.0271,0.024667 -0.04,0.0372 -0.0861,0.00588 -0.16416,0.016447 -0.21471,0.021146 -0.0734,0.00783 -0.1081,0.089281 -0.0544,0.1217822 0.007,0.00431 0.014,0.00744 0.0207,0.011355 -0.12267,0.079491 -0.21448,0.1903097 -0.16389,0.2721505 -0.0641,0.031329 -0.11871,0.066178 -0.16692,0.1025945 -0.077,0.059521 -0.16521,0.1562416 -0.19928,0.2447396 -0.0139,0.020753 -0.0173,0.041899 -0.0112,0.061087 -2.3e-4,0.00626 -0.004,0.01292 -0.003,0.018796 -0.0812,0.1069022 -0.15103,0.3085675 -0.0444,0.3919745 0.0214,0.017624 0.0463,0.023103 0.0755,0.023103 -0.0368,0.07166 -0.062,0.1468435 -0.0738,0.2286849 -0.006,0.048947 0.0488,0.081841 0.0895,0.054821 0.0216,-0.015269 0.0444,-0.032893 0.0658,-0.050125 -0.0232,0.096721 -0.0311,0.1954001 -0.0131,0.2964285 0.006,0.03485 0.0402,0.068136 0.0755,0.050512 0.03,-0.01449 0.0565,-0.032501 0.0819,-0.052475 0.0154,0.016054 0.0372,0.02271 0.0539,-0.00196 5.5e-4,-0.0012 0.002,-0.00196 0.002,-0.00311 0.004,0.010576 0.006,0.020361 0.009,0.030936 0.0154,0.032501 0.0485,0.05169 0.0812,0.030936 0.0131,-0.00901 0.0242,-0.020753 0.0364,-0.030936 -0.001,0.011355 -0.005,0.020753 -0.005,0.032501 -0.002,0.033286 0.0195,0.067744 0.0526,0.075576 0.0341,0.00744 0.0641,0.00431 0.0925,-0.00196 0.002,0.016839 0.003,0.033678 0.006,0.050512 0.004,0.030936 0.0366,0.046598 0.0601,0.039157 0.0448,-0.014097 0.0821,-0.038377 0.11423,-0.069702 0.01,0.011748 0.0212,0.02271 0.0353,0.032501 0.0294,0.021146 0.0584,0.02271 0.0867,0.013312 0.009,0.01214 0.0146,0.027022 0.0262,0.035243 0.0209,0.015275 0.04,0.021538 0.0598,0.019581 0.002,0.100245 0.0347,0.1938334 0.10684,0.2639272 0.0192,0.019581 0.0522,0.00744 0.0658,-0.017624 0.0254,-0.056388 0.0446,-0.1147341 0.0622,-0.1730797 0.0173,0.01214 0.0389,0.019581 0.0677,0.016054 0.0548,-0.00196 0.0954,-0.038764 0.12821,-0.091239 0.006,0.028979 0.0135,0.056388 0.0249,0.079883 0.0353,0.061478 0.0994,0.065786 0.15171,0.027017 0.0505,-0.041114 0.0894,-0.1069022 0.11992,-0.1769954 0.0201,0.050125 0.059,0.083408 0.11464,0.054822 0.0584,-0.029366 0.0935,-0.097505 0.12416,-0.1672058 0.0117,0.040727 0.0333,0.079491 0.0605,0.1104259 0.0114,0.011748 0.022,0.019189 0.0322,0.02428 -0.0378,0.052474 -0.0438,0.095155 -0.0167,0.1546755 0.0262,0.050125 0.0926,0.070485 0.1523,0.055997 -0.006,0.00507 -0.0144,0.00705 -0.019,0.013312 -0.0501,0.064611 -0.0573,0.112776 -0.0207,0.1824778 0.029,0.055996 0.11678,0.077925 0.17855,0.052861 0.0368,0.02506 0.0909,0.040334 0.13578,0.028979 0.0233,0.042684 0.0719,0.072051 0.15927,0.077533 0.0523,0.00431 0.10663,-0.015662 0.15104,-0.040727 0.007,0.020361 0.0286,0.033678 0.0527,0.043076 -0.002,7.632e-4 -0.004,7.632e-4 -0.006,0.00196 -0.11829,0.044248 -0.1627,0.1092517 -0.1627,0.1777787 -0.0529,-0.00158 -0.10701,0.00588 -0.1635,0.029759 -0.12015,0.048163 -0.16099,0.1061194 -0.15674,0.1648569 -0.17687,-0.04699 -0.35752,-0.042684 -0.46031,0.065786 -0.0523,0.056388 -0.0408,0.1221741 0.01,0.186002 -0.12753,0.048947 -0.20581,0.1354879 -0.18023,0.2102801 -0.10089,0.040727 -0.15334,0.1116013 -0.11657,0.1781707 0.0212,0.039157 0.0715,0.066177 0.13626,0.083016 -0.0207,0.00822 -0.0381,0.017624 -0.0563,0.02663 -0.051,-0.024667 -0.10978,-0.040334 -0.17471,-0.033678 -0.025,-0.00626 -0.0499,-0.012533 -0.076,-0.014097 -0.0465,-0.02271 -0.0954,-0.043076 -0.15292,-0.056388 -0.0413,-0.0094 -0.11296,0.010183 -0.13835,0.039157 -0.0779,0.09907 -0.0757,0.1879597 -0.0368,0.269801 -0.15674,-0.058346 -0.35326,-0.068528 -0.56864,0.031329 -0.0133,0.00507 -0.0267,0.012925 -0.0427,0.020753 -0.008,0 -0.0154,0 -0.0233,0 -0.0349,0.00392 -0.07,0.019581 -0.0933,0.039157 -0.11403,0.017232 -0.22274,0.055996 -0.28706,0.1264812 -0.0658,0.071268 -0.062,0.129614 -0.0177,0.1758206 -0.12397,0.039157 -0.21471,0.1049446 -0.2403,0.2000992 -0.0134,0.044641 0.002,0.081449 0.0271,0.1084683 -0.0116,0.019581 -0.0195,0.043463 -0.0216,0.066177 -0.005,0.077925 0.0351,0.1182584 0.10532,0.1358793 -0.0757,0.048163 -0.15569,0.1229574 -0.19036,0.188743 -0.0582,0.016839 -0.11233,0.036028 -0.16291,0.057955 -0.0351,0.011355 -0.0706,0.02506 -0.1049,0.040334 -0.21428,0.095155 -0.40446,0.2972113 -0.20413,0.3845345 0.0742,0.033286 0.16395,0.030544 0.25662,0.012533 -0.002,0.014097 -10e-4,0.028194 4.4e-4,0.042684 -0.006,0.00392 -0.011,0.00705 -0.0165,0.010576 -0.01,0.00196 -0.0186,0.0012 -0.0285,0.00392 -0.0125,0.00354 -0.0222,0.010576 -0.0334,0.014882 -0.0228,-0.011748 -0.0476,-0.021931 -0.0755,-0.024667 -0.0336,-0.00393 -0.0639,0.018011 -0.0707,0.04699 -0.008,0.032893 4.4e-4,0.064219 0.0134,0.093196 -0.004,0.00783 -0.01,0.015662 -0.0134,0.023888 -0.008,0.00783 -0.0144,0.015662 -0.0218,0.023888 -0.059,0.00705 -0.11256,0.017232 -0.14682,0.021931 -0.051,0.00705 -0.0719,0.06422 -0.0311,0.083016 0.004,0.00234 0.009,0.00392 0.0135,0.00666 -0.0808,0.057955 -0.1396,0.1370545 -0.10277,0.1914844 -0.0398,0.023103 -0.0779,0.048947 -0.10873,0.073618 -0.0502,0.043463 -0.10618,0.1131674 -0.12523,0.173863 -0.007,0.013312 -0.009,0.026237 -0.005,0.037985 0,0.00431 -0.002,0.0094 -0.002,0.013312 -0.0144,0.021931 -0.0269,0.04934 -0.0372,0.078316 -0.0558,0.063437 -0.0787,0.1444946 -0.0356,0.2537463 0.007,0.015269 0.0192,0.027017 0.0343,0.03485" />
  </g>
</svg>
