<?xml version="1.0" encoding="UTF-8" standalone="no"?>
<!-- Created with Inkscape (http://www.inkscape.org/) -->

<svg
   viewBox="0 0 13.481812 22.677862"
   version="1.1"
   id="svg992"
   xmlns="http://www.w3.org/2000/svg"
   >
  <defs
     id="defs989" />
  <g
     id="layer1"
     transform="translate(-353.22929,3.1428556)">
    <path
       id="path50"
       d="m 365.67736,3.9397127 c 0.005,0 0.0106,0.00291 0.0126,0.00738 6.6e-4,0.0033 0.003,0.00699 0.004,0.01066 0.0134,0.00778 0.0259,0.015168 0.039,0.022136 -0.0237,8.641e-4 -0.0481,0.00251 -0.0714,0.00573 -0.005,-0.014352 -0.008,-0.02952 -0.0152,-0.041813 0.0101,-0.00126 0.0201,-0.00408 0.0308,-0.00408 z m 0.3242,0.03157 c 0.0182,-0.00408 0.0244,-0.027061 0.0386,-0.037304 0.0297,-0.021727 0.087,0.01886 0.10737,0.037721 0.0133,0.01271 0.01,0.02952 0.005,0.046322 -0.01,-0.00126 -0.0197,-0.00244 -0.0292,-0.00165 -0.035,0.00244 -0.062,0.021727 -0.0892,0.039355 -0.006,0.00244 -0.0124,0.00495 -0.0186,0.00778 -0.0118,-0.012301 -0.0246,-0.022552 -0.0388,-0.02952 -0.0104,-0.020086 -0.0228,-0.040179 -0.0412,-0.056573 -6.7e-4,-8.641e-4 -7.9e-4,-4.022e-4 -0.002,-8.641e-4 0.0229,-8.641e-4 0.046,4.022e-4 0.0679,-0.00534 z M 359.7304,19.130473 c 6.7e-4,4.68e-4 0.002,0.0013 0.003,0.002 -6.7e-4,0.0013 -0.002,0.0025 -0.002,0.0037 -3.4e-4,-0.0016 -3.4e-4,-0.0041 -6.7e-4,-0.0057 z m 2.80685,-8.469419 c 1.2e-4,0.0016 3.4e-4,0.0033 6.7e-4,0.0045 -0.003,-4.09e-4 -0.005,-0.0013 -0.009,-0.0013 0.002,-4.08e-4 0.005,-0.0029 0.008,-0.0033 z m 2.23877,-7.4756681 c -0.003,-0.00165 -0.006,-0.00244 -0.009,-0.00448 7.9e-4,-0.00369 0.002,-0.011068 0.002,-0.013118 0.005,0.0033 0.012,0.00613 0.0179,0.00943 -0.004,0.00244 -0.008,0.00534 -0.0115,0.0082 z m -3.80232,7.4756681 c 0.008,-0.310751 -0.0875,-0.8350942 -0.0284,-1.1569141 0.0401,-0.2168707 0.11872,-0.4915455 0.25623,-0.7367028 0.0197,0.018452 0.0405,0.035663 0.0598,0.049606 0.005,0.018036 0.0137,0.034846 0.0226,0.050423 -0.0431,0.0066 -0.0826,0.022544 -0.0901,0.070108 -0.0107,0.064774 0.0297,0.1115095 0.0753,0.1512757 -0.0138,0.040179 0.004,0.0742 0.0335,0.1020808 -0.01,0.031979 0.008,0.068875 0.031,0.093472 0.0503,0.054523 0.171,0.1119195 0.25471,0.087322 0.003,0.00244 0.007,0.00369 0.0104,0.00573 0.0208,0.017627 0.0458,0.030745 0.0748,0.037713 0.006,0.025011 0.0192,0.045097 0.037,0.062724 0.003,0.0082 0.002,0.015577 0.007,0.023369 0.0159,0.024186 0.0656,0.059032 0.0511,0.087322 -0.005,0.00943 -0.01,0.015577 -0.0139,0.019677 v 0 c -0.0137,0.012301 -0.027,0.00613 -0.0516,0.023778 -0.0904,0.064774 0.0408,0.1766942 0.13131,0.2287602 0.007,0.01763 0.0173,0.03279 0.0277,0.04755 -0.0421,0.01148 -0.0804,0.03115 -0.0831,0.07871 -0.002,0.03362 0.009,0.06108 0.0269,0.08445 -0.0543,0.0701 -0.10191,0.127498 -0.13619,0.162345 -0.17924,0.181614 -0.38716,0.485806 -0.50343,0.644461 -0.11668,0.157836 -0.2013,0.09306 -0.19243,-0.21728 z m 0.96599,-0.31936 c -0.0146,-4.09e-4 -0.006,-0.0328 0.0173,-0.08445 0.005,0.0057 0.0104,0.01148 0.0164,0.01681 -0.0102,0.02049 -0.0159,0.04386 -0.0206,0.06764 -0.005,0 -0.0108,0 -0.0131,0 z m -4.29968,-1.8132651 c 0.0979,-0.075842 0.15258,-0.2344993 0.11847,-0.3587177 0.0107,-0.00534 0.0199,-0.01271 0.0297,-0.019677 0.0669,-0.014352 0.12225,-0.052064 0.11983,-0.1172493 3.4e-4,0 6.7e-4,-4.085e-4 7.9e-4,-4.085e-4 0.0591,0.02747 0.11626,0.054523 0.16472,0.079122 0.24872,0.1254494 0.40598,0.4357908 0.55858,0.7244047 -0.25845,0.01066 -0.65025,-0.1344679 -1.0081,-0.3005028 0.005,-0.0033 0.011,-0.0033 0.0157,-0.00699 z m 2.21793,-9.33853908 c -0.009,-0.006991 -0.0181,-0.0139352 -0.028,-0.0200858 0.0117,-0.002906 0.0234,-0.003299 0.0349,-0.007384 h 2.3e-4 c -0.002,0.008609 -0.005,0.0180356 -0.007,0.0274697 z m 0.99773,8.29846328 c 0.0175,-0.5952657 0.12467,-1.2758036 0.39111,-1.8772184 0.0551,-0.1246285 0.1056,-0.2431079 0.15521,-0.3599471 0.0377,-0.013527 0.0647,-0.040996 0.0694,-0.093472 0.002,-0.026645 -0.002,-0.041405 -0.007,-0.055348 0.0122,-0.029111 0.0235,-0.056573 0.0352,-0.084861 0.0377,-0.013527 0.10233,0.010251 0.13996,0.011893 0.0181,8.641e-4 0.0343,-0.00126 0.0496,-0.00448 0.0361,0.00699 0.0718,0.00613 0.10675,-0.00573 0.0416,0.043455 0.0915,0.070516 0.14594,0.081582 -0.002,0.00943 -0.004,0.019269 -0.002,0.030745 0.01,0.075025 0.0691,0.1131496 0.13226,0.1422571 -0.004,0.083222 0.0848,0.1229891 0.17407,0.1274988 0.0115,0.031562 0.0412,0.053298 0.0901,0.058623 0.0381,0.00448 0.072,-0.00738 0.10545,-0.021319 -0.0467,0.4948242 -0.15038,1.0019482 -0.20778,1.2335772 -0.0628,0.2590963 -0.16385,0.5169626 -0.50158,1.0171173 -0.0937,0.1377475 -0.25135,0.2988626 -0.40484,0.4349699 -0.0201,-0.019269 -0.0452,-0.030745 -0.0806,-0.020911 -0.0587,0.016402 -0.0685,0.079943 -0.0629,0.1418471 -0.11274,0.089372 -0.20932,0.1529167 -0.25602,0.1656248 -0.12512,0.03362 -0.0897,-0.3259198 -0.0722,-0.9224157 z m -2.64717,0.024186 c -0.0306,-0.03362 -0.0497,-0.015168 -0.0633,-0.063541 -0.01,-0.034846 0.0538,-0.062724 0.0766,-0.086092 0.0104,-0.010251 0.0186,-0.020911 0.0246,-0.032387 0.0188,-0.01476 0.0348,-0.031979 0.0445,-0.054523 0.0343,-4.085e-4 0.0654,-0.00943 0.093,-0.025011 0.004,-0.00165 0.008,-0.00165 0.0124,-0.0033 0.0888,0.045914 0.23631,0.00902 0.30563,-0.040179 0.031,-0.021728 0.0598,-0.059032 0.0558,-0.097161 0.0399,-0.024595 0.0669,-0.059448 0.0605,-0.1065905 0.0603,-0.034437 0.11626,-0.077484 0.11959,-0.1525058 0.002,-0.054523 -0.0386,-0.081583 -0.0852,-0.098801 0.0135,-0.015577 0.0265,-0.032387 0.0371,-0.051656 0.10828,-0.047964 0.27042,-0.1602951 0.17514,-0.2451573 -0.0232,-0.020502 -0.038,-0.018036 -0.0514,-0.02952 -3.3e-4,-0.00126 -6.7e-4,-0.00204 -7.9e-4,-0.0033 0.002,-4.022e-4 0.002,-0.00126 0.004,-0.00165 -0.004,-0.01066 -0.009,-0.021727 -0.0153,-0.031979 0.0141,-0.016402 0.0243,-0.034846 0.0308,-0.053298 0.0122,-0.01066 0.0241,-0.02091 0.0313,-0.02952 0.037,-0.045914 0.0376,-0.094291 0.006,-0.1348772 0.0206,-0.038129 0.0434,-0.091832 0.0498,-0.1426672 0.26889,0.648971 0.40286,1.188072 0.41152,1.8181842 0.006,0.4755562 0.0815,1.0277761 0.0412,1.1294469 -0.0401,0.1012608 -0.41874,-0.3292002 -0.94632,-0.7735995 -0.20773,-0.1754642 -0.35655,-0.3697865 -0.46109,-0.5419704 0.0583,-0.043047 0.0924,-0.096341 0.0438,-0.1484062 z m 2.75503,-2.3458062 c 0.0269,0.00204 0.054,0.00244 0.0824,-8.641e-4 0.0394,0.021727 0.087,0.043863 0.13599,0.061498 -0.0273,0.050014 -0.0545,0.099621 -0.0775,0.1406169 -0.0716,0.1283181 -0.10056,-0.025011 -0.14082,-0.2012914 z m -2.03305,0.7785184 c -0.0111,-0.054932 -0.0361,-0.099211 -0.10207,-0.096751 -7.9e-4,-0.00983 0.002,-0.01886 -0.003,-0.028287 -0.0235,-0.053706 -0.0624,-0.076251 -0.10605,-0.082403 0.0295,-0.064366 0.0443,-0.1340579 -0.005,-0.186533 -0.0684,-0.073383 -0.13664,-0.050839 -0.21282,-0.030745 -0.0323,-0.045097 -0.0906,-0.050423 -0.15103,-0.038538 -0.0159,-0.062315 -0.0443,-0.1180694 -0.11827,-0.1283181 -0.0668,-0.00983 -0.12754,0.01681 -0.16873,0.066007 -0.0405,-0.00408 -0.072,0.011893 -0.0954,0.038129 -0.002,-0.00165 -0.004,-0.00408 -0.007,-0.00534 -0.0288,-0.01681 -0.0508,-0.026236 -0.0842,-0.025011 -0.005,4.021e-4 -0.008,0.00291 -0.0128,0.0033 -0.002,-8.64e-4 -0.003,-0.00126 -0.004,-0.00204 -0.004,-0.00204 -0.008,-0.00244 -0.012,-0.00448 -0.01,-0.00369 -0.0192,-0.00699 -0.0294,-0.00861 -0.005,-8.641e-4 -0.0107,-8.641e-4 -0.016,-8.641e-4 -0.009,-4.014e-4 -0.0184,-4.014e-4 -0.0279,8.641e-4 -0.005,8.641e-4 -0.0113,0.00165 -0.017,0.0033 -0.004,8.641e-4 -0.008,8.641e-4 -0.0119,0.00165 0,8.641e-4 2.3e-4,0.00126 2.3e-4,0.00165 -0.008,0.00204 -0.017,0.00369 -0.0252,0.00652 -0.008,-0.00652 -0.0181,-0.0082 -0.0268,-0.013118 0.0481,-0.038946 0.0833,-0.092651 0.0689,-0.1500464 -0.0127,-0.049606 -0.042,-0.088963 -0.0932,-0.1065905 -0.007,-0.00204 -0.0241,-0.00534 -0.0397,-0.00943 0.0244,0.00369 0.0487,0.00573 0.0735,0.00126 0.0106,-0.00204 0.0221,-0.00699 0.0332,-0.013118 0.0429,0.07215 0.10626,0.1303683 0.18424,0.1525058 0.15943,0.044272 0.36826,-0.019677 0.48502,-0.1484062 0.0108,0.01886 0.0215,0.037304 0.0383,0.052889 0.0521,0.04633 0.10319,0.057398 0.14772,0.040996 0.0713,0.072975 0.16742,0.1225783 0.2463,0.094701 0.0682,0.1697245 0.13902,0.3562583 0.23032,0.5751776 l -2.4e-4,-4.014e-4 c -0.0594,-0.029104 -0.10142,-4.014e-4 -0.1384,0.040179 z m -0.96316,1.8407325 c 0.012,-0.011068 0.0229,-0.024186 0.0337,-0.037304 0.005,0.021319 0.006,0.036896 0.002,0.044688 -0.002,0.0033 -0.007,0.00448 -0.0108,0.00699 -0.008,-0.00495 -0.0162,-0.00984 -0.0248,-0.014352 z m 6.34183,-0.3078819 c -0.005,0.00369 -0.009,0.00738 -0.0135,0.01066 -0.0126,-0.0066 -0.0263,-0.011893 -0.0398,-0.014352 -0.006,-0.00613 -0.0144,-0.01066 -0.0212,-0.016402 0.0228,4.085e-4 0.0456,-0.00244 0.0682,-0.00902 0.005,0.00613 0.0111,0.011893 0.0168,0.017627 -0.003,0.00408 -0.007,0.00778 -0.0104,0.011476 z m -5.14503,-2.1723922 c 0.0635,-0.043047 0.0591,-0.1123296 0.0397,-0.1791539 0.0292,0.00204 0.0587,0.00244 0.0897,-0.00126 0.0861,0.047964 0.2106,0.096751 0.30316,0.094291 0.0224,0.1451274 0.13156,0.2869745 0.27353,0.3123916 0.0124,0.00204 0.0261,-8.64e-4 0.039,0 0.005,0.030337 0.01,0.058623 0.0138,0.090192 0.0689,0.5145031 0.28324,1.7698086 0.15283,1.7566896 -0.12959,-0.013527 -0.74105,-1.4012522 -0.92,-1.984219 -0.007,-0.024186 -0.0146,-0.050014 -0.0219,-0.075842 0.0102,-0.00408 0.0204,-0.00652 0.0303,-0.013118 z m 5.99456,-0.4029929 c -0.004,0.00204 -0.007,0.00495 -0.0111,0.00613 -0.0203,0.00738 -0.0394,0.0033 -0.0565,-0.020911 0.0218,0.00699 0.0443,0.011068 0.068,0.011068 0,8.641e-4 -3.4e-4,0.00251 -3.4e-4,0.00369 z m -2.39845,0.98637 c 0.0319,0.032387 0.0827,0.052064 0.13619,0.056982 0.0107,0.03157 0.039,0.055348 0.0877,0.062724 0.019,0.0033 0.037,8.641e-4 0.0547,-0.00244 -0.007,0.01476 -0.0117,0.031154 -0.0109,0.051247 0.002,0.058623 0.0472,0.098391 0.0892,0.1369281 -0.0196,0.046322 0.01,0.087732 0.0552,0.1197088 -3.3e-4,0 -3.3e-4,0 -7.8e-4,4.014e-4 7.8e-4,4.022e-4 0.002,8.64e-4 0.003,0.00165 0.005,0.00408 0.0129,0.00699 0.0191,0.01066 0.01,0.012301 0.0204,0.022961 0.0327,0.032387 -0.002,0.011477 -2.3e-4,0.023778 -2.3e-4,0.035663 -0.0986,0.077892 -0.20929,0.1422579 -0.36958,0.239009 -0.30391,0.1840728 -0.45449,0.2418777 -0.45449,0.2418777 0,0 0.0106,-0.1615251 0.21216,-0.6834074 0.039,-0.1008516 0.0897,-0.2033417 0.14594,-0.3033731 z M 362.6174,5.4996222 c 0.002,4.022e-4 0.003,0.00165 0.005,0.00204 0.0139,0.024595 0.0341,0.041813 0.0583,0.055756 7.8e-4,8.641e-4 0.002,0.00244 0.003,0.00369 -0.0421,0.017627 -0.0778,0.044688 -0.0798,0.091012 -0.006,-0.039355 -0.008,-0.093472 -0.008,-0.1557862 0.007,4.014e-4 0.0133,0.0033 0.0208,0.0033 z m 0.0306,-3.8368396 c -0.004,-0.017219 -0.009,-0.034029 -0.0142,-0.050423 0.0124,0.00244 0.0239,0.00613 0.0369,0.00699 -0.009,0.013535 -0.0144,0.029104 -0.0228,0.043455 z M 361.56721,2.45442 c -0.002,8.64e-4 -0.005,0 -0.006,8.64e-4 -7.9e-4,-0.00244 -0.004,-0.00495 -0.005,-0.00738 0.004,0.00204 0.007,0.00448 0.0111,0.0066 z m 2.51184,4.9023333 c 0.0297,0.023369 0.0464,0.054115 0.0771,0.076659 -0.0261,0.00861 -0.046,0.031979 -0.0771,0.042638 -0.0297,0.011068 -0.0697,0.021319 -0.10274,0.036896 -0.0117,-0.00984 -0.0246,-0.019269 -0.0379,-0.02747 -0.0115,-0.022136 -0.027,-0.043455 -0.0459,-0.063541 -0.0527,-0.055756 -0.13996,-0.1180693 -0.21884,-0.1270887 -0.0602,-0.00738 -0.11294,0.068874 -0.12442,0.121759 -0.005,4.084e-4 -0.01,0.00165 -0.0142,0.00291 -0.0208,0.00699 -0.0377,0.018452 -0.056,0.027878 -0.002,0.00126 -0.004,0.00244 -0.005,0.0033 -0.01,-0.013118 -0.019,-0.025828 -0.031,-0.03362 -0.0208,-0.013527 -0.0414,-0.025011 -0.0655,-0.027061 -0.0338,-0.00291 -0.066,0.0066 -0.0965,0.020911 -0.0161,-0.01476 -0.0317,-0.027878 -0.054,-0.036487 -0.0427,-0.016402 -0.0884,-0.00165 -0.12245,0.025011 -0.0208,0.016402 -0.0749,-0.010251 -0.10192,-0.00573 -0.0412,0.00448 -0.0655,0.031154 -0.083,0.066824 -0.002,0.00534 -0.004,0.01066 -0.004,0.016402 0,0.00126 0,0.0033 0,0.00495 0,0.00165 -2.3e-4,0.00369 0,0.00534 0,7.856e-4 0,0.00165 0,0.00291 2.3e-4,0.00126 7.9e-4,0.00244 0.002,0.0033 0.002,0.01681 0.01,0.033204 0.0175,0.047555 6.7e-4,0.00165 7.9e-4,0.00291 0.002,0.00448 3.3e-4,0 6.7e-4,4.085e-4 7.9e-4,4.085e-4 0.002,0.00291 0.003,0.00573 0.004,0.0082 0.0255,0.044688 0.0363,0.052889 -0.0139,0.044272 -0.0489,-0.0082 -0.0902,0 -0.11963,0.027053 -0.007,-0.00291 -0.0148,-0.00408 -0.0223,-0.00613 0,-4.077e-4 0,-7.856e-4 0,-0.00126 -0.003,-4.084e-4 -0.006,-4.084e-4 -0.009,-0.00126 -0.005,-0.00126 -0.0107,-0.00204 -0.0159,-0.00291 -0.009,-0.00126 -0.0173,-0.00126 -0.0259,-4.085e-4 -0.004,0 -0.008,0 -0.0117,7.855e-4 -0.01,0.00126 -0.019,0.00448 -0.0281,0.00861 -0.002,0.00126 -0.005,0.00165 -0.008,0.00291 -0.0115,0.0066 -0.0224,0.01476 -0.0319,0.026236 -0.0109,0.012301 -0.0131,0.029103 -0.016,0.044272 -0.003,0.014351 -0.0504,0.010659 -0.062,0.011893 -0.047,0.0066 -0.079,0.035254 -0.0986,0.075842 -0.0225,0.04633 -6.7e-4,0.098391 0.0341,0.1397977 -0.009,0.00291 -0.0186,0.00291 -0.0265,0.00778 -0.006,-0.00408 -0.0135,-0.00738 -0.0204,-0.01066 0,-4.045e-4 2.3e-4,-7.855e-4 2.3e-4,-7.855e-4 -0.003,-0.00204 -0.006,-0.00291 -0.01,-0.00408 -0.005,-0.00244 -0.01,-0.00408 -0.0145,-0.00573 -0.007,-0.00244 -0.0146,-0.00408 -0.0219,-0.00534 -0.005,-7.855e-4 -0.0109,-0.00204 -0.0161,-0.00204 -0.008,-7.855e-4 -0.0151,4.085e-4 -0.0226,0.00165 -0.005,7.855e-4 -0.01,7.855e-4 -0.0151,0.00204 -6.7e-4,4.085e-4 -0.002,4.085e-4 -0.002,7.856e-4 -0.004,-0.00165 -0.006,-0.00408 -0.0108,-0.00534 -0.0281,-0.00652 -0.0492,-0.00204 -0.0762,0.00699 -0.002,7.855e-4 -0.005,0.00165 -0.008,0.00369 -0.0155,-0.02747 -0.0396,-0.045914 -0.0751,-0.050014 -0.027,-0.048789 -0.0735,-0.081993 -0.13177,-0.085682 0.16945,-0.1902227 0.35725,-0.4001234 0.5694,-0.6276528 0.25849,-0.2771351 0.46556,-0.4382502 0.65045,-0.5632887 0.0259,0.043047 0.0567,0.081583 0.095,0.1065905 0.0695,0.044272 0.16255,0.036079 0.23942,-8.64e-4 0.003,0.0082 0.006,0.017627 0.01,0.025419 0.0146,0.034846 0.0456,0.047147 0.0499,0.084862 0.005,0.045097 0.01,0.075025 0.0403,0.10987 0.0306,0.035671 0.0724,0.045097 0.11405,0.040179 0.002,0.00204 0.003,0.00408 0.005,0.00613 -0.0162,0.1201188 0.0405,0.2607365 0.13489,0.3275601 0.0161,0.011476 0.0359,0.015577 0.0544,0.021319 0.0168,0.01886 0.0365,0.034846 0.0562,0.049606 z m -3.24444,-1.689046 c -0.0254,0.2414676 -0.16784,0.6477408 -0.19309,0.8613312 -0.0248,0.2135911 -0.0831,0.6030549 -0.17739,0.6374921 -0.0939,0.034437 -0.14399,-0.181204 -0.24808,-1.0695925 -0.0201,-0.173004 -0.0511,-0.3792151 -0.093,-0.5993653 0.0954,-0.038129 0.18248,-0.1008508 0.23409,-0.1820234 0.0157,0.00495 0.0314,0.00778 0.0474,0.011068 0.0793,0.056165 0.17165,0.078301 0.23787,0.013118 0.0584,0.025828 0.11934,0.043455 0.17891,0.038129 0.0231,0.1024909 0.024,0.1885833 0.0133,0.289844 z m 2.99179,-4.89536425 c 7.8e-4,0.00699 0.002,0.013118 0.003,0.020086 0.005,0.031154 0.0117,0.062724 0.0184,0.093882 -0.0128,-0.00244 -0.0257,-0.00408 -0.0387,-0.00534 -0.0142,-0.042638 -0.0359,-0.081993 -0.0662,-0.1156091 0.029,-0.00652 0.0593,-0.00983 0.0768,-0.00613 -0.003,-0.01681 -3.3e-4,-0.01271 0.007,0.013118 z M 353.24575,6.385552 c -0.0246,0.044688 -0.0217,0.10167 0.009,0.1418471 0.0364,0.048789 0.0946,0.079942 0.15394,0.088142 0.0276,0.0033 0.056,-0.00408 0.083,-0.00861 0.0208,-0.010251 0.0264,-0.00408 0.0164,0.017219 0.006,0.016402 0.009,0.032795 0.01,0.049606 -0.0273,-0.00291 -0.0598,0.00251 -0.0844,0.011477 -0.047,0.017627 -0.0899,0.039763 -0.11315,0.086912 -0.0379,0.080763 0.0204,0.1623453 0.0813,0.2205595 -0.008,0.01476 -0.01,0.029104 -0.0139,0.043047 -6.6e-4,-0.00165 -0.002,-0.00369 -0.002,-0.00534 -0.002,0.00778 -0.002,0.01476 -0.003,0.022136 -0.002,0.00983 -0.004,0.019269 -0.004,0.028287 -3.3e-4,0.013527 0.002,0.026236 0.005,0.038538 0.002,0.00861 0.004,0.017219 0.008,0.025419 0.006,0.012301 0.0168,0.022961 0.0276,0.034029 0.005,0.00534 0.01,0.011893 0.0168,0.01681 0.0204,0.01476 0.0452,0.027061 0.0762,0.035254 0.0881,0.022961 0.1887,0.020494 0.28127,-0.00244 0.0122,0.032795 0.031,0.061082 0.0584,0.084863 -0.0365,0.028695 -0.0782,0.052064 -0.0558,0.114379 0.0204,0.055348 0.0713,0.088143 0.093,0.1422571 0.0317,0.078713 0.1068,0.1139697 0.1874,0.122579 -0.0217,0.035663 -0.027,0.076659 0.004,0.1299583 0.0171,0.028695 0.0439,0.053706 0.0745,0.076667 6.7e-4,0.01066 0.003,0.021728 0.009,0.030337 0.006,0.010659 0.0151,0.014351 0.023,0.020502 -0.005,0.00369 -0.01,0.00573 -0.015,0.00943 -0.0518,0.04223 -0.10896,0.1049504 -0.091,0.1766936 0.008,0.030337 0.0259,0.052064 0.0379,0.080353 0.006,0.011893 0.0102,0.024186 0.0124,0.037304 7.9e-4,0.00165 7.9e-4,0.00244 7.9e-4,0.00448 -0.0144,0.048372 -0.0507,0.1172492 -0.0257,0.1643946 0.0352,0.065183 0.0824,0.092652 0.1546,0.1057705 -7.9e-4,0 -0.0166,0.015168 -0.0264,0.036079 -0.0155,0.03157 -0.0174,0.066007 -0.007,0.1000306 0.009,0.02747 0.0255,0.04633 0.0459,0.059448 -0.0372,0.036079 -0.0651,0.078712 -0.0348,0.1242184 0.031,0.045505 0.0746,0.071333 0.11712,0.1016708 -0.036,0.063132 -0.0657,0.1315976 0.0189,0.1816133 0.0615,0.035663 0.1539,0.076659 0.22634,0.056573 0.006,4.084e-4 0.0127,0.00126 0.0189,0.00126 0.0184,7.855e-4 0.039,-7.855e-4 0.0594,-0.00408 0.0485,0.05739 0.12624,0.081172 0.21151,0.042222 0.0496,-0.022136 0.0857,-0.028695 0.13905,-0.02952 6.7e-4,0 0.002,-4.085e-4 0.002,-4.085e-4 -0.002,0.031162 0.002,0.062315 0.0144,0.086502 0.0129,0.024595 0.0328,0.034846 0.0554,0.036079 0.0286,0.055756 0.079,0.084452 0.14816,0.079533 -0.008,0.029928 -0.0319,0.057806 -0.0474,0.082402 -0.0404,0.066416 -0.0694,0.1553761 -0.009,0.2205605 0.0324,0.03525 0.0735,0.04756 0.11535,0.04837 0.0328,0.116429 0.14927,0.184893 0.26247,0.131598 0.0268,0.01025 0.0536,0.0164 0.0821,0.01803 0.0685,0.1024912 0.23232,0.1512772 0.33883,0.08486 0.0848,-0.05247 0.14419,-0.162756 0.1537,-0.269346 0.0254,-0.022961 0.036,-0.056573 0.0292,-0.091012 0.009,-0.00495 0.0173,-0.00861 0.0251,-0.013943 3.3e-4,0 6.6e-4,-4.084e-4 7.8e-4,-4.084e-4 -2.3e-4,0 -2.3e-4,0 -2.3e-4,-4.077e-4 0.0155,-0.010251 0.029,-0.021728 0.0397,-0.034846 0.0471,0.017219 0.0974,0.024186 0.14397,-0.00448 0.0342,-0.020911 0.0522,-0.051656 0.0843,-0.0742 0.0208,-0.013935 0.0412,-0.028695 0.0591,-0.045914 0.0192,-0.00495 0.0392,-0.0082 0.056,-0.018444 0.0978,-0.061082 0.16275,-0.1984219 0.15369,-0.3193608 0.002,-0.00204 0.003,-0.00369 0.005,-0.00573 0.0416,0.00699 0.0837,0 0.11627,-0.033204 0.0321,-0.032387 0.0397,-0.062724 0.0469,-0.1074106 0.006,-0.037304 0.0379,-0.048781 0.0548,-0.081582 0.0175,-0.036079 0.0332,-0.081173 0.0294,-0.122579 0.019,0.00534 0.0386,0.0082 0.0596,0.0066 0.0489,-0.00534 0.0793,-0.026645 0.0919,-0.058215 0.0806,-0.00244 0.15878,-0.036487 0.17075,-0.1053604 0.55767,0.3308396 0.88589,0.3361693 1.36981,0.5464801 0.55231,0.2394182 0.9516,1.022038 1.07451,1.908377 0.12271,0.885929 0.0771,6.543004 0.0668,6.890652 -0.008,0.258276 -0.0578,0.569848 -0.10163,0.809676 0.0124,-0.162755 0.0346,-0.307061 0.0346,-0.307061 0,0 -0.15903,0.177513 -0.23101,0.584606 -0.15656,-0.319771 -0.50844,-0.488266 -0.50844,-0.488266 0,0 0.22388,0.236139 0.29784,0.476376 -0.21814,-0.334938 -0.77642,-0.434559 -0.77642,-0.434559 0,0 0.74342,0.310342 0.74076,0.730143 -0.0237,0.06887 0.4416,0.154556 1.19036,0.185304 0.74831,0.03115 1.10686,0.06027 1.16311,-0.05698 0.0565,-0.116429 0.23986,-0.356666 0.54238,-0.409962 -0.39111,0.01844 -0.58691,0.127907 -0.66258,0.233679 0.26373,-0.435791 0.54435,-0.630523 0.54435,-0.630523 0,0 -0.52377,0.03156 -0.79131,0.43907 -6.8e-4,-0.0045 -0.002,-0.01025 -0.002,-0.01476 0.12934,-0.360768 0.14132,-0.56001 0.14132,-0.56001 l -0.1781,0.303373 c -0.17406,-1.561548 -0.15943,-6.834487 -0.0514,-7.386297 0.0917,-0.464078 0.54238,-0.711285 0.87121,-0.799018 0.078,0.05493 0.19891,0.05247 0.27287,-0.0065 0.0235,0.0061 0.0481,0.0082 0.0728,0.0061 0.0366,0.03362 0.0799,0.04386 0.12204,0.03976 -0.0115,0.0013 -0.023,0.0033 -0.0343,0.01025 -0.0558,0.03239 -0.045,0.10577 -0.031,0.158655 0.009,0.03034 0.0339,0.04591 0.0325,0.07912 -0.002,0.03976 0,0.06682 0.0214,0.100441 0.0222,0.03403 0.0574,0.04796 0.0937,0.04879 0.005,0.01271 0.0131,0.02501 0.0213,0.03608 -0.0189,0.03485 -0.002,0.07257 0.0297,0.105771 0,0 0,0 -2.4e-4,0 2.4e-4,0 6.7e-4,4.08e-4 7.9e-4,7.85e-4 0.0119,0.01189 0.0259,0.02337 0.0407,0.03403 -0.0402,0.10454 -0.006,0.248438 0.0723,0.32264 0.0606,0.0574 0.16119,0.06313 0.23962,0.02911 -0.0292,0.04469 -0.0149,0.100441 0.0334,0.125858 0.0339,0.01763 0.0589,0.02664 0.0797,0.0615 0.0248,0.04181 0.06,0.06805 0.10389,0.08937 0.05,0.02501 0.1723,0.05289 0.22146,0.0082 0.029,-0.02542 0.0418,-0.04961 0.0425,-0.08855 0,-0.01312 -0.0148,-0.04469 0.007,-0.0492 0.002,-4.09e-4 0.004,-7.86e-4 0.005,-7.86e-4 0.0762,0.03566 0.13062,-0.0205 0.14148,-0.09798 0.0326,-0.007 0.0576,-0.0328 0.054,-0.08076 -0.002,-0.02378 -0.009,-0.04837 -0.0146,-0.07092 -0.003,-0.0098 -0.006,-0.01886 -0.006,-0.02993 0.002,0 0.006,7.86e-4 0.0122,0.0017 0.0106,7.85e-4 0.0206,4.05e-4 0.0294,-0.0017 0.0224,0.04591 0.0499,0.09183 0.0906,0.10987 0.0696,0.0291 0.12583,0.01312 0.16591,-0.03566 0.019,0.0024 0.0381,-0.0024 0.0536,-0.02132 0.005,-0.0061 0.006,-0.01517 0.01,-0.02254 0.002,0.03771 -3.4e-4,0.07707 0.033,0.107411 0.0214,0.01968 0.0425,0.03075 0.0713,0.0373 0.0454,0.01025 0.0756,0.02296 0.11364,0.05001 0.0667,0.04796 0.13775,0.04141 0.18912,0 0.0166,0.0074 0.0336,0.0123 0.0503,0.01476 0.005,7.86e-4 0.0109,0.002 0.0167,0.0024 0.058,0.02869 0.14435,0.01066 0.20351,-0.0094 0.0811,-0.02788 0.0678,-0.09183 0.0481,-0.152916 0.0419,-0.01803 0.0837,-0.0328 0.11848,-0.06642 0.0334,-0.0332 0.0166,-0.07503 -0.008,-0.112739 0.0197,-0.0074 0.0365,-0.02009 0.0494,-0.04264 0.0153,-0.02665 0.0192,-0.05739 0.0122,-0.08691 -0.005,-0.01968 -0.0159,-0.03566 -0.0167,-0.03566 0.0638,0.0016 0.10941,-0.01435 0.15061,-0.06396 0.0299,-0.03608 0.0108,-0.100441 0.007,-0.145127 2.3e-4,-0.0013 7.9e-4,-0.0024 0.002,-0.0041 0.004,-0.0098 0.01,-0.01968 0.0164,-0.02869 0.0153,-0.02296 0.0345,-0.03772 0.0465,-0.06272 0.0286,-0.05862 -0.01,-0.122168 -0.0465,-0.167674 -0.003,-0.0041 -0.008,-0.0066 -0.0111,-0.01066 0.008,-0.0041 0.0162,-0.0053 0.0233,-0.01353 0.006,-0.0066 0.01,-0.01476 0.0122,-0.02419 0.031,-0.01435 0.058,-0.03157 0.0775,-0.05289 0.0357,-0.04059 0.0383,-0.07666 0.0263,-0.11069 0.0702,0.007 0.14066,-0.01025 0.18162,-0.07174 0.0286,-0.04305 0.0773,-0.06191 0.10388,-0.10659 0.0313,-0.04961 -3.3e-4,-0.07666 -0.027,-0.10782 0.0277,-0.01599 0.0488,-0.03608 0.0651,-0.06231 0.0749,0.03649 0.16079,0.05576 0.24118,0.05166 0.0277,-0.002 0.0509,-0.0078 0.0707,-0.0164 0.007,-0.0037 0.0119,-0.0086 0.0181,-0.01271 0.0111,-0.007 0.0217,-0.01476 0.0292,-0.02419 0.005,-0.0061 0.008,-0.01271 0.011,-0.01968 0.005,-0.01025 0.009,-0.0205 0.0115,-0.03198 0.002,-0.0086 0.002,-0.01722 0.002,-0.02665 0,-0.0061 0.002,-0.01148 7.8e-4,-0.01763 -7.8e-4,7.86e-4 -0.002,0.0024 -0.003,0.0033 -7.9e-4,-0.01271 0,-0.02501 -0.004,-0.03895 0.0625,-0.03895 0.12668,-0.0988 0.10848,-0.1742341 -0.012,-0.0451 -0.0452,-0.07133 -0.0824,-0.09511 -0.019,-0.01148 -0.0467,-0.02214 -0.0696,-0.02419 0.002,-0.01476 0.008,-0.02829 0.0157,-0.041406 -0.004,-0.019677 0.002,-0.023778 0.0175,-0.011893 0.0229,0.00861 0.0456,0.020086 0.0695,0.021729 0.0527,0.0041 0.10785,-0.013119 0.14705,-0.047965 0.0339,-0.02952 0.0465,-0.078301 0.033,-0.1201188 -0.0133,-0.041813 -0.0335,-0.059857 -0.0606,-0.079943 0.002,-0.013527 0.0142,-0.029104 0.0129,-0.045097 -0.002,-0.033204 -0.016,-0.058215 -0.0434,-0.077484 -0.0194,-0.01271 -0.0412,-0.019677 -0.0633,-0.021319 -0.025,-0.072566 -0.0872,-0.136108 -0.15234,-0.1668549 -0.0563,-0.026645 -0.11446,-0.026645 -0.16878,0.00369 -0.0106,0.00613 -0.0184,0.016402 -0.0247,0.028695 -0.004,0.0066 -0.006,0.013527 -0.009,0.020502 -7.9e-4,0.00291 -0.002,0.00573 -0.004,0.00861 2.3e-4,4.084e-4 -2.4e-4,8.64e-4 -2.4e-4,8.64e-4 -7.8e-4,0.0033 -0.002,0.00613 -0.003,0.00861 -6.7e-4,0.00126 -6.7e-4,0.00204 -7.8e-4,0.00291 -3.4e-4,7.855e-4 -7.9e-4,0.00165 -0.002,0.00291 -2.3e-4,0.00126 -7.8e-4,0.00291 -7.8e-4,0.00369 -0.005,-0.00369 -0.0115,-0.0066 -0.0175,-0.00943 -0.0146,-0.0066 -0.0336,-0.012301 -0.0527,-0.012301 0.002,-0.00244 0.002,-0.00408 0.002,-0.0066 -6.7e-4,4.053e-4 -6.7e-4,0.00204 -0.002,0.00291 0.01,-0.027061 0.005,-0.050839 -0.007,-0.077892 0.0587,-0.034846 0.0815,-0.1037202 0.0489,-0.1783338 -0.0376,-0.084862 -0.12005,-0.094701 -0.19822,-0.083222 -0.0589,-0.069283 -0.15968,-0.1041311 -0.24119,-0.047147 -0.006,0.00573 -0.0135,0.011477 -0.0201,0.018036 -0.002,-0.00613 -0.007,-0.011477 -0.0104,-0.017627 7.8e-4,0 0.002,0 0.003,0 -0.008,-0.017219 -0.0174,-0.032387 -0.0303,-0.047964 -0.0197,-0.023778 0.005,-0.024186 0.006,-0.057806 6.8e-4,-0.022961 0.002,-0.045505 0.002,-0.067641 0,-0.00408 7.8e-4,-0.00778 3.3e-4,-0.011893 -2.3e-4,4.084e-4 -6.7e-4,0 -6.7e-4,4.084e-4 -3.3e-4,-0.00534 2.4e-4,-0.01066 -6.7e-4,-0.015577 -0.009,-0.047147 0.0163,-0.083223 0.0105,-0.1287289 -0.004,-0.025011 -0.0153,-0.048789 -0.0295,-0.070925 0.005,-0.021728 0.005,-0.044688 -0.005,-0.069691 -0.0286,-0.06805 0.0549,-0.115199 0.0346,-0.1873531 -0.0233,-0.082402 -0.085,-0.1315976 -0.165,-0.1561954 -0.009,-0.00291 -0.0186,-0.00573 -0.029,-0.0082 0,0 0,4.077e-4 -2.3e-4,7.856e-4 -0.0177,-0.00448 -0.0359,-0.00738 -0.0549,-0.0082 3.3e-4,-4.077e-4 6.6e-4,-7.855e-4 7.8e-4,-0.00126 -0.002,0 -0.003,7.855e-4 -0.005,7.855e-4 -0.0108,-7.855e-4 -0.0211,7.855e-4 -0.0313,0.00244 -0.007,7.855e-4 -0.0142,0.00126 -0.0208,0.00291 -0.0164,0.00495 -0.0314,0.01271 -0.0443,0.025011 7.9e-4,-7.855e-4 -0.0653,-0.0033 -0.0749,-0.00204 -0.0208,0.00291 -0.0405,0.010659 -0.06,0.015985 -0.0635,-0.00778 -0.078,-0.01476 -0.0445,-0.020502 0.01,-0.00204 0.0179,-0.00495 0.0261,-0.010251 0.0386,-0.023369 0.0669,-0.047147 0.0606,-0.091421 0.0724,-0.0082 0.14353,-0.041405 0.18564,-0.096751 0.0279,0 0.0555,-0.00448 0.0826,-0.013118 0.10962,0.05944 0.23036,-0.00165 0.2693,-0.1160192 0.042,0.00204 0.084,-0.0082 0.11828,-0.041405 0.0644,-0.061907 0.0408,-0.1520966 0.004,-0.2209703 -0.0135,-0.025419 -0.0363,-0.054523 -0.0421,-0.084862 0.0683,0.00861 0.11983,-0.01681 0.1528,-0.070925 0.0226,0 0.0427,-0.00861 0.0576,-0.032387 0.0248,-0.040179 0.0237,-0.1041303 0.0155,-0.1537359 0.003,-0.00244 0.005,-0.00573 0.007,-0.00861 0.005,0.00534 0.009,0.01066 0.0151,0.01476 0.027,0.01886 0.0531,0.027878 0.0861,0.030337 0.0536,0.00408 0.0892,0.013118 0.1373,0.038129 0.0835,0.043455 0.16189,0.024595 0.21391,-0.029928 0.0197,0.00448 0.0401,0.00738 0.0589,0.00778 0.006,0 0.0126,-4.084e-4 0.0191,-4.084e-4 0.0706,0.024186 0.16521,-0.011068 0.2292,-0.043455 0.0873,-0.044272 0.0617,-0.1143797 0.0293,-0.1803832 0.044,-0.027878 0.0892,-0.050014 0.12352,-0.094292 0.0324,-0.043047 0.007,-0.087733 -0.0276,-0.1258586 0.0208,-0.011893 0.0379,-0.029111 0.0488,-0.056982 0.0122,-0.032387 0.0122,-0.067641 -6.7e-4,-0.1000314 -0.009,-0.021319 -0.0237,-0.037713 -0.0243,-0.037713 0.0728,-0.00861 0.122,-0.03362 0.16074,-0.095932 0.027,-0.046322 -0.005,-0.1164292 -0.0168,-0.165624 3.4e-4,-0.00165 7.9e-4,-0.0033 0.002,-0.00495 0.003,-0.013118 0.008,-0.024595 0.0148,-0.036487 0.0137,-0.027061 0.0325,-0.047555 0.0425,-0.077484 0.0219,-0.071333 -0.031,-0.1369274 -0.0801,-0.1816133 -0.0157,-0.013935 -0.0313,-0.024595 -0.047,-0.032796 -0.006,-0.00369 -0.0133,-0.00534 -0.0199,-0.00778 -0.009,-0.0033 -0.0181,-0.00738 -0.0272,-0.00902 -0.008,-0.00165 -0.0153,-0.00165 -0.0229,-0.00204 -0.008,-8.641e-4 -0.0163,-0.00165 -0.0246,-0.00126 -0.007,4.014e-4 -0.0146,0.00251 -0.0222,0.00369 -0.005,8.641e-4 -0.0117,8.641e-4 -0.0174,0.00244 -2.3e-4,4.014e-4 -6.7e-4,8.641e-4 -7.9e-4,0.00126 -0.005,0.00165 -0.009,0.00165 -0.0133,0.00291 -0.006,-0.015168 -0.014,-0.030337 -0.0222,-0.045505 -0.0178,-0.034437 -0.0481,-0.058215 -0.0742,-0.086092 0.0649,-0.033204 0.13291,-0.0701 0.12004,-0.1566063 -0.0104,-0.064774 -0.0336,-0.135698 -0.0571,-0.2008813 0.0441,0.018444 0.0899,0.030745 0.13951,0.020502 0.0226,-0.00448 0.0427,-0.012301 0.0609,-0.022544 0.005,-0.00291 0.008,-0.00652 0.0131,-0.010251 0.0119,-0.00861 0.023,-0.017627 0.0319,-0.028695 7.8e-4,-0.00204 0.003,-0.00291 0.005,-0.00448 -6.7e-4,4.014e-4 -0.002,8.641e-4 -0.003,0.00126 0.0184,-0.025419 0.029,-0.056165 0.0251,-0.093471 -0.009,-0.084042 0.0988,-0.1078199 0.0994,-0.1939122 7.9e-4,-0.09839 -0.05,-0.1717739 -0.12999,-0.2246591 -0.009,-0.00613 -0.0189,-0.01271 -0.0295,-0.018452 0,0 -1.1e-4,4.022e-4 -1.1e-4,8.64e-4 -0.0182,-0.01066 -0.0372,-0.020086 -0.0574,-0.027061 3.4e-4,-4.014e-4 7.8e-4,-4.014e-4 0.002,-8.64e-4 -0.002,-4.022e-4 -0.003,-4.022e-4 -0.005,-8.641e-4 -0.0126,-0.00448 -0.0252,-0.00613 -0.038,-0.00778 -0.007,-0.00126 -0.014,-0.00291 -0.0211,-0.00291 -0.0193,0 -0.0385,0.0033 -0.0565,0.013118 7.8e-4,-0.00126 -0.0705,-0.024595 -0.0824,-0.026645 -0.0226,-0.00369 -0.0471,-0.00244 -0.0702,-0.00244 -0.0669,-0.029111 -0.081,-0.041813 -0.0418,-0.036896 0.0106,8.641e-4 0.0212,0 0.031,-0.00291 0.0551,-0.01476 0.0986,-0.030745 0.0997,-0.092242 0.002,-0.068466 -0.0274,-0.1848928 -0.0935,-0.2205594 -0.0297,-0.015577 -0.0636,-0.022961 -0.0965,-0.033204 -0.0629,-0.018444 -0.016,-0.050014 0.0265,-0.055756 0.0684,-0.00902 0.10298,-0.040588 0.0932,-0.1102801 -6.7e-4,-0.00573 -0.005,-0.00983 -0.008,-0.013527 0.0208,-0.031154 0.0317,-0.066007 0.0229,-0.1012608 -0.008,-0.034846 -0.0354,-0.058215 -0.0671,-0.070516 0.01,-0.017627 0.0201,-0.034846 0.0295,-0.052064 -0.008,-0.01886 -0.0196,-0.036079 -0.0306,-0.053706 -0.0146,-0.011893 -0.0275,-0.023369 -0.0388,-0.040179 -0.0137,-0.021319 -0.0211,-0.047147 -0.0374,-0.067641 -0.0186,-0.023369 -0.047,-0.054115 -0.0788,-0.059448 -0.0244,-0.00448 -0.0447,0.00778 -0.0595,0.027053 -0.0188,0.023778 -0.0241,0.045097 -0.0565,0.056165 -0.0172,0.00573 -0.0371,0.0033 -0.0547,0.011476 -0.017,0.00778 -0.0273,0.017219 -0.0394,0.031979 -0.0113,0.013935 -0.0153,0.029104 -0.0276,0.031562 -0.002,0.00448 -0.009,0.00943 -0.0167,0.00613 -0.0348,-0.013118 -0.0682,-0.028287 -0.10076,-0.045097 -0.023,0.00448 -0.0465,0.00902 -0.07,0.013118 -0.004,-0.00943 -0.005,-0.01886 -0.01,-0.028287 -0.0405,-0.077892 -0.11475,-0.1754642 -0.19887,-0.2107208 -0.0636,-0.02747 -0.14594,0.038946 -0.17583,0.093062 -0.005,-8.641e-4 -0.0113,-0.00126 -0.0168,-8.641e-4 -0.0117,0 -0.0223,0.00369 -0.033,0.00613 0.0148,-0.017627 0.0219,-0.038946 0.0159,-0.068875 -0.0138,-0.068058 -0.0667,-0.1746442 -0.13906,-0.1951424 -0.0328,-0.00943 -0.0678,-0.00943 -0.10122,-0.011068 -0.066,-0.00495 -0.027,-0.045914 0.0129,-0.060674 0.0649,-0.023778 0.0921,-0.062724 0.0671,-0.127908 -0.002,-0.00495 -0.005,-0.00902 -0.0108,-0.011477 0.0135,-0.034846 0.0168,-0.071333 6.7e-4,-0.1041303 -0.004,-0.0082 -0.0108,-0.013943 -0.0168,-0.020502 0.15018,0.011893 0.24914,-0.085272 0.23787,-0.230809 0,0 2.2e-4,-4.014e-4 3.3e-4,-4.014e-4 -0.002,-0.015577 -0.003,-0.031979 -0.007,-0.049197 0.10314,-0.068058 0.13709,-0.1971917 0.0443,-0.3017321 -3.4e-4,-8.64e-4 -0.002,-8.64e-4 -0.002,-0.00165 -0.004,-0.00534 -0.005,-0.01066 -0.009,-0.015985 -0.0471,-0.052889 -0.1537,-0.091422 -0.22253,-0.066824 -0.0503,0.017627 -0.0388,0.015985 -0.0768,-0.00699 -7.8e-4,-0.018036 -0.005,-0.034029 -0.0111,-0.049197 -0.002,-0.00408 -0.004,-0.00738 -0.005,-0.011068 -0.005,-0.010251 -0.0119,-0.019677 -0.02,-0.027878 -0.008,-0.011477 -0.0146,-0.023369 -0.0254,-0.032796 -0.003,0.00408 -0.009,0.00165 -0.0135,8.641e-4 -0.005,-0.0033 -0.009,-0.00652 -0.0146,-0.00943 -6.7e-4,-0.00126 -0.002,-0.00204 -0.003,-0.0033 0.049,-0.01271 0.0866,-0.043046 0.11012,-0.087322 0.10716,-0.03362 0.25291,-0.1074106 0.23626,-0.2275294 -0.0108,-0.081583 -0.054,-0.1279088 -0.11138,-0.1533259 0.0655,-0.075434 0.11384,-0.1652147 0.0682,-0.2545874 -0.0146,-0.029104 -0.0319,-0.049197 -0.0498,-0.066824 3.4e-4,8.64e-4 0.002,0.00126 0.002,0.00126 1.2e-4,0 0.002,4.014e-4 0.002,4.014e-4 0,0 -0.003,-0.00291 -0.006,-0.00699 -3.4e-4,-4.014e-4 -7.8e-4,-8.641e-4 -0.002,-0.00126 -0.0188,-0.015985 -0.0396,-0.026236 -0.0614,-0.033612 -0.005,-0.00204 -0.012,-0.0033 -0.0181,-0.00534 -0.0163,-0.00408 -0.0336,-0.00738 -0.0514,-0.00943 -0.008,-4.014e-4 -0.0148,-0.00165 -0.0224,-0.00204 -0.0222,-0.00126 -0.0447,-0.00165 -0.0679,-0.00204 -0.007,-0.020502 -0.0184,-0.036896 -0.0321,-0.051247 6.7e-4,-4.014e-4 0.002,-4.014e-4 0.003,-8.641e-4 0.15058,-0.1049504 -0.01,-0.2943537 -0.0959,-0.430051 0.0419,-4.021e-4 0.0827,-0.00204 0.12914,-0.0217281 0.0412,-0.01681 0.0268,-0.081583 0.0108,-0.10905 -0.004,-0.00699 -0.009,-0.014344 -0.0128,-0.021319 0.12114,-0.045914 0.1072,-0.19514237 0.009,-0.29394367 0.006,-0.0233693 0.006,-0.0450968 0.003,-0.065591 -6.6e-4,4.0219e-4 -0.002,4.0219e-4 -0.002,0.001257 -3.4e-4,-0.004477 3.3e-4,-0.009426 -6.7e-4,-0.0139352 -0.002,-0.008609 -0.008,-0.0155769 -0.0117,-0.0237777 -0.006,-0.0151684 -0.0122,-0.0299284 -0.0229,-0.0426381 -0.007,-0.008609 -0.0163,-0.0147599 -0.0248,-0.022136 -0.0113,-0.0102511 -0.0219,-0.0209106 -0.0356,-0.0286951 -0.01,-0.005734 -0.0213,-0.009426 -0.0324,-0.0139352 -0.012,-0.004949 -0.0226,-0.0118928 -0.0355,-0.0151684 -1.1e-4,8.6408e-4 -6.7e-4,0.00165 -6.7e-4,0.002435 -0.006,-0.00165 -0.0115,-0.005342 -0.0179,-0.006598 -0.006,-0.0541146 -0.0308,-0.10413028 -0.0821,-0.13815671 -0.0339,-0.0229529 -0.07,-0.0340288 -0.10745,-0.0409964 7.9e-4,0 0.002,0 0.002,0 -0.002,-4.0219e-4 -0.005,-4.0219e-4 -0.007,-8.6408e-4 -0.0181,-0.003299 -0.0366,-0.004949 -0.0551,-0.006127 -0.004,-4.014e-4 -0.008,-8.6408e-4 -0.0128,-0.001257 -0.023,-0.001257 -0.0461,-0.00165 -0.0694,-0.002042 -0.0121,-8.6408e-4 -0.0239,-0.001257 -0.0365,-0.002042 0.0277,-0.0131182 0.0541,-0.0282866 0.0687,-0.0508389 0.0296,-0.0459137 0.0502,-0.0873217 0.0314,-0.14307642 -0.002,-0.007384 -0.004,-0.0131182 -0.005,-0.0180356 0.005,-0.006127 0.01,-0.0131182 0.0129,-0.0217275 0.0449,-0.14266717 -0.0521,-0.24064839 -0.10524,-0.36076795 -0.0363,-0.0819919 -0.0359,-0.18243261 -0.13725,-0.21727991 -0.099,-0.0348457 -0.19781,-0.0282866 -0.29174,0.002042 -0.0323,-0.043455 -0.0755,-0.0791232 -0.12352,-0.10659053 0.0434,-0.0590319 0.0793,-0.11765931 0.0697,-0.20375166 -0.0117,-0.10740977 -0.0678,-0.20170137 -0.15283,-0.26811567 -0.081,-0.063541 -0.19507,-0.1238083 -0.30161,-0.1106893 -0.0738,0.00943 -0.11984,0.063541 -0.19601,0.070516 -0.009,4.014e-4 -0.0164,0.00369 -0.0246,0.00534 0,-4.022e-4 0,-0.00126 2.3e-4,-0.00204 -0.013,0.00244 -0.0254,0.00652 -0.0383,0.01066 -0.0279,0.00902 -0.0558,0.01886 -0.0846,0.02747 -0.0511,0.015168 -0.0423,0.054932 -0.087,0.03362 -0.0264,-0.011477 -0.0521,-0.018452 -0.0782,-0.023778 -0.003,-8.641e-4 -0.006,-0.00204 -0.01,-0.00291 0,4.014e-4 2.4e-4,8.64e-4 2.4e-4,0.00126 -0.0104,-0.00204 -0.0204,-0.00448 -0.0313,-0.00573 0.007,-0.013118 0.0142,-0.025828 0.0201,-0.038538 0.0539,-0.1512766 -0.042,-0.2935337 -0.17669,-0.3558483 -0.015,-0.127908 -0.0651,-0.2508971 -0.21347,-0.2734447 -0.12914,-0.019269 -0.22638,0.045505 -0.25627,0.1512757 -0.047,-0.00902 -0.0844,-0.00448 -0.12245,0.020502 3.4e-4,-8.641e-4 0.002,-0.00165 0.002,-0.00244 -0.003,0.00204 -0.007,0.00369 -0.01,0.00613 -0.007,-0.029104 -0.0237,-0.056573 -0.0408,-0.076667 -0.007,-0.0082 -0.0146,-0.015577 -0.0217,-0.022544 0.002,-8.641e-4 0.002,-0.00204 0.005,-0.0033 7.8e-4,-0.00165 0.002,-0.00244 0.003,-0.0033 0.002,-0.00126 0.003,-0.00204 0.005,-0.00369 0.004,-0.00244 0.008,-0.00573 0.0124,-0.00861 6.8e-4,0 7.9e-4,-4.014e-4 0.002,-4.014e-4 0.002,-8.641e-4 0.002,-0.00251 0.004,-0.0033 0.0129,-0.00943 0.0257,-0.019269 0.0375,-0.030745 0.002,-0.00204 0.003,-0.00408 0.005,-0.00613 0.0124,-0.01271 0.0229,-0.02747 0.027,-0.043047 0.0241,-0.09798 -6.7e-4,-0.1873523 -0.0662,-0.2644253 -0.0749,-0.088142 -0.20063,-0.1590657 -0.32268,-0.1668549 -0.0135,-0.034029 -0.033,-0.065183 -0.0615,-0.090192 -0.0415,-0.034846 -0.086,-0.045914 -0.13844,-0.034846 -0.0257,0.00534 -0.0452,0.030337 -0.066,0.039763 -0.0419,-0.035254 -0.0786,-0.057807 -0.14931,-0.060265 -0.0717,-0.00369 -0.14127,0.036487 -0.17296,0.1008508 -0.0385,0.07625 -0.0412,0.1693144 -0.013,0.2496669 0.013,0.037304 0.0408,0.067641 0.0635,0.099211 0.0252,0.020086 0.0215,0.030745 -0.0119,0.031978 -0.0168,0.018036 -0.0353,0.031979 -0.0567,0.043047 -0.002,-0.0066 -0.007,-0.013118 -0.0107,-0.019677 -0.007,-0.038538 -0.0314,-0.0701 -0.0654,-0.086502 -0.0332,-0.029928 -0.0682,-0.054932 -0.10848,-0.068874 0.0633,-0.249667 0.007,-0.5731281 -0.19846,-0.6760283 -0.0481,-0.023778 -0.0954,-0.029111 -0.13906,0.0082 -0.0414,0.036079 -0.0804,0.071742 -0.11647,0.1086399 -0.0611,-0.075842 -0.1712,-0.095931 -0.26734,-0.068874 -0.0336,-0.020502 -0.0629,-0.042638 -0.06,-0.068875 0.008,-0.055756 0.0235,-0.1106902 0.0244,-0.167675 6.7e-4,-0.051247 -0.0418,-0.1012608 -0.0945,-0.1053604 -0.0644,-0.0033 -0.1309,8.64e-4 -0.18444,0.039763 -0.0501,0.036079 -0.12914,0.1373375 -0.19715,0.085272 -0.046,-0.035663 -0.093,-0.052473 -0.15144,-0.049197 -0.007,4.022e-4 -0.0146,0.00573 -0.0222,0.01271 -0.005,0.00495 -0.01,0.01066 -0.0144,0.016402 -0.002,0.00204 -0.003,0.0033 -0.005,0.00534 -7.8e-4,0.00126 -0.002,0.00251 -0.003,0.0033 2.3e-4,0 2.3e-4,0 2.3e-4,0 -0.0111,0.01476 -0.0208,0.02747 -0.025,0.025419 -0.0306,-0.01681 -0.0644,-0.040996 -0.0999,-0.064774 -0.0569,-0.038538 -0.11827,-0.076251 -0.17981,-0.083222 0,0 2.4e-4,0 2.4e-4,-4.022e-4 -3.4e-4,0 -7.9e-4,4.022e-4 -0.002,0 -0.0162,-0.00165 -0.0321,-0.00204 -0.0483,0.00126 -0.12265,0.022544 -0.13618,0.1676751 -0.10474,0.2623759 0.019,0.057807 0.006,0.078301 -0.0348,0.079943 0,0 -2.2e-4,0 -2.2e-4,-4.014e-4 -0.0142,0.00126 -0.0315,-4.015e-4 -0.0519,-0.00291 -0.0339,-0.00495 -0.0671,-0.00943 -0.10208,-0.00699 -0.0731,0.00534 -0.12291,0.032796 -0.17034,0.088552 -0.0584,0.068466 -0.0504,0.1594758 -0.0201,0.244748 -0.0436,-0.00369 -0.0888,-0.00204 -0.12733,0.011068 -0.0778,0.026653 -0.13508,0.060674 -0.15878,0.1205288 -0.0388,-0.011893 -0.0859,-8.64e-4 -0.13533,0.036487 -0.0811,0.060674 -0.13508,0.078301 -0.23896,0.063541 -0.0359,-0.00573 -0.0899,-0.094701 -0.14107,-0.1135597 -0.0283,-0.00983 -0.0594,-0.01886 -0.0899,-0.012301 -0.0188,0.00291 -0.0372,0.00738 -0.0545,0.014344 -0.009,0.00165 -0.0157,0.00448 -0.0206,0.00652 -0.0324,-0.031154 -0.0756,-0.047964 -0.12491,-0.046739 -0.0954,0.00126 -0.18494,0.026645 -0.26689,0.068874 l 2.3e-4,-8.641e-4 c -0.002,8.641e-4 -0.002,0.00165 -0.004,0.00244 -0.0285,0.01476 -0.0562,0.031979 -0.0828,0.050839 -0.11676,0.011476 -0.27263,0.081583 -0.2846,0.2135903 -0.003,0.040588 6.7e-4,0.075025 0.012,0.1139697 6.7e-4,0.00408 0.002,0.00738 0.002,0.010251 -0.008,0.010251 -0.0155,0.020086 -0.0217,0.030745 -0.0324,0.045914 -0.0465,0.086912 -0.0481,0.135288 -0.0622,0.034437 -0.13287,0.091012 -0.15522,0.1533259 -0.0128,0.036487 -0.004,0.067641 0.0155,0.092242 -0.0352,0.095521 -0.0102,0.1869423 0.0879,0.2595056 0.0587,0.041813 0.14504,0.041405 0.22675,0.034846 0.005,0.013118 0.0122,0.027878 0.0229,0.041813 0.006,0.00778 0.009,0.011477 0.0111,0.01476 -0.0148,0.00699 -0.0302,0.012301 -0.0456,0.016402 -0.0363,0.011068 -0.0773,0.020911 -0.11073,0.037721 -0.07,0.035254 -0.085,0.091421 -0.0667,0.14266636 -0.0168,0.0135345 -0.0308,0.0282866 -0.0434,0.0438635 -0.0824,-0.0496057 -0.18534,-0.0795325 -0.28123,-0.0709247 -0.018,-0.031562 -0.0425,-0.059857 -0.0746,-0.079533 -0.0459,-0.027878 -0.0922,-0.032795 -0.14222,-0.013527 -0.0239,0.00902 -0.0401,0.036488 -0.0594,0.049197 -0.0456,-0.02747 -0.0854,-0.045097 -0.15612,-0.037304 -0.0716,0.00778 -0.13401,0.058215 -0.15615,0.12667773 -0.0257,0.0811726 -0.0141,0.17423412 0.0257,0.24884765 0.0188,0.0344373 0.0505,0.0610821 0.0778,0.0881418 0.0286,0.0159854 0.0268,0.0274697 -0.006,0.0340288 -0.0141,0.0196773 -0.0302,0.0368959 -0.0498,0.0504226 -0.0184,-0.0323871 -0.051,-0.0664158 -0.0819,-0.0869117 -0.0587,-0.0397631 -0.11959,-0.0705162 -0.19309,-0.0586235 -0.12361,0.022136 -0.16989,0.1570155 -0.18629,0.27426555 -0.0549,0.006991 -0.0994,0.0258279 -0.13398,0.0528813 -0.002,0.002042 -0.005,0.003692 -0.007,0.005342 -0.0197,0.0172186 -0.035,0.0377129 -0.0459,0.0614906 -0.002,0.002906 -0.003,0.00652 -0.004,0.009843 -0.01,0.0241862 -0.0148,0.0504226 -0.0146,0.0803525 2.4e-4,0.004085 7.9e-4,0.007777 7.9e-4,0.0118928 0.002,0.0315701 0.008,0.0647741 0.0218,0.10167081 0.0454,0.11970952 0.13086,0.23408849 0.23434,0.32100093 -0.0284,0.0409964 -0.0453,0.0856823 -0.0494,0.13692736 -0.0633,-0.018444 -0.12423,-0.047147 -0.1776,0.0307453 -0.0467,0.0676412 -0.0436,0.1533259 -0.0877,0.22260967 -0.064,0.10126083 -0.0434,0.21645983 0.0133,0.31608123 -0.0587,0.00495 -0.10987,0.031979 -0.14574,0.11068947 -0.019,0.042638 -0.0268,0.094292 -0.0277,0.148817 -0.0113,0.00983 -0.021,0.020911 -0.0277,0.034437 -0.0261,0.056573 -0.007,0.1045403 0.0303,0.1397976 -0.025,0.037304 -0.0314,0.077075 -0.0204,0.1184786 -0.0335,0.028287 -0.0419,0.068875 -0.0456,0.1123304 -0.0751,-0.075434 -0.17498,0.010251 -0.10077,0.092241 0.0272,0.029928 0.035,0.083632 0.0425,0.1352872 -0.0709,0.013943 -0.13132,0.045505 -0.1537,0.1102801 -0.0246,4.022e-4 -0.0483,0.00126 -0.0717,0.00244 -0.008,8.641e-4 -0.0151,0.00165 -0.0224,0.00244 -0.0186,0.00165 -0.0363,0.00495 -0.0537,0.00943 -0.006,0.00165 -0.013,0.0033 -0.0194,0.00573 -0.0224,0.00778 -0.0437,0.018036 -0.0631,0.034437 -6.7e-4,8.64e-4 -6.7e-4,0.00165 -0.002,0.00165 -0.005,0.00448 -0.007,0.00699 -0.007,0.00699 0,0 6.6e-4,-4.022e-4 7.8e-4,-8.641e-4 2.4e-4,0 0.002,-4.014e-4 0.002,-4.014e-4 -0.0188,0.017627 -0.0368,0.038946 -0.0519,0.069283 -0.0474,0.092652 0.002,0.186123 0.0709,0.2644261 -0.0595,0.027053 -0.1045,0.0742 -0.11631,0.159475 -0.0168,0.1254485 0.13512,0.2025215 0.24606,0.2377789 0.0241,0.045914 0.064,0.077892 0.11495,0.090191 -7.8e-4,0.00126 -0.002,0.00251 -0.003,0.00408 -0.005,0.00291 -0.0102,0.00613 -0.0151,0.00943 -0.005,8.641e-4 -0.0106,0.00291 -0.0144,-4.022e-4 -0.0122,0.010251 -0.0204,0.023369 -0.0288,0.036487 -0.007,0.00778 -0.0124,0.015993 -0.0175,0.025011 -0.002,0.00448 -0.005,0.00861 -0.006,0.013118 -0.006,0.015168 -0.0104,0.03157 -0.0113,0.050014 -0.0406,0.024595 -0.0277,0.026645 -0.0804,0.0082 -0.0718,-0.025828 -0.18247,0.013935 -0.23208,0.0701 -0.005,0.00495 -0.005,0.010251 -0.009,0.015168 -6.7e-4,8.641e-4 -0.002,0.00126 -0.002,0.00204 -0.0967,0.10946 -0.0614,0.2435179 0.0464,0.3144418 -0.005,0.017627 -0.007,0.034846 -0.008,0.051656 3.4e-4,0 6.7e-4,0 0.002,0 -0.0119,0.1574256 0.0988,0.2619659 0.26574,0.2390082 0.0341,0.042638 0.0793,0.063541 0.14287,0.055348 0.0263,-0.00408 0.0544,-0.019269 0.0779,-0.032387 7.9e-4,0.00573 0.003,0.015985 0.005,0.03362 0.002,0.011893 -0.003,0.022545 -0.009,0.033204 -0.007,0.00943 -0.0133,0.018444 -0.0191,0.028287 -0.008,0.01066 -0.0157,0.021319 -0.0195,0.034029 -0.0106,0.035254 0.0332,0.089372 0.0609,0.1041311 0.0799,0.041813 0.16697,0.079943 0.25203,0.1078199 0.01,0.00244 0.0166,0.00573 0.0211,0.00738 -6.7e-4,0.00244 -0.002,0.00495 -0.003,0.00738 -0.007,0.020086 -0.0184,0.040996 -0.0281,0.054523 -0.0334,0.045505 -0.0739,0.083223 -0.0939,0.1373374 -0.0312,0.082813 0.045,0.1455367 0.1152,0.1701353 0.11757,0.040588 0.34125,0.032387 0.446,-0.070516 0.002,0 0.004,-4.014e-4 0.006,0 -0.0153,0.029928 -0.029,0.059857 -0.0341,0.091011 -0.0449,-0.029103 -0.11425,-0.032387 -0.15254,0.011068 -0.0248,0.027053 -0.0315,0.063132 -0.0277,0.1008507 -0.005,8.641e-4 -0.01,0.00369 -0.0133,0.00738 -0.0419,0.056982 -0.0259,0.1016708 0.0303,0.1414379 0.035,0.025011 0.0614,0.075434 -0.003,0.062316 -0.0337,-0.00699 -0.0667,-0.016402 -0.10077,-0.016402 -0.0749,0 -0.15501,0.089372 -0.18514,0.1508664 -0.0281,0.054932 0.002,0.089781 0.0434,0.1283181 0.008,0.00652 0.0163,0.012301 0.027,0.01681 0.0363,0.013943 0.0177,0.018452 -0.0547,0.013534 -0.0208,-0.011068 -0.0412,-0.024186 -0.0629,-0.031162 -0.0115,-0.00448 -0.0857,-0.01681 -0.085,-0.015985 -0.0118,-0.017219 -0.0273,-0.029104 -0.0447,-0.038538 -0.005,-0.00204 -0.01,-0.0033 -0.0145,-0.00495 -0.0138,-0.00573 -0.0279,-0.01066 -0.0432,-0.013118 -0.002,0 -0.002,-8.641e-4 -0.004,-8.641e-4 2.4e-4,0 3.4e-4,4.022e-4 6.7e-4,8.641e-4 -0.0212,-0.0033 -0.0423,-0.00408 -0.0631,-0.0033 0,0 0,-4.014e-4 0,-8.641e-4 -0.0124,4.014e-4 -0.0233,0.00126 -0.0346,0.00291 -0.0959,0.00902 -0.17518,0.049606 -0.22015,0.1373374 -0.0398,0.075842 0.0437,0.1475868 -0.004,0.2172799 -0.017,0.025828 -0.022,0.051656 -0.0222,0.076659 -0.0208,0.022144 -0.039,0.045914 -0.0489,0.073383 -0.0177,0.049606 0.002,0.095932 -0.0177,0.1455367 -0.002,0.00613 -0.003,0.011893 -0.005,0.017627 -2.3e-4,0 -6.6e-4,0 -6.6e-4,0 -0.002,0.00369 -0.002,0.00861 -0.002,0.013118 -0.005,0.025011 -0.009,0.050423 -0.013,0.075842 -0.006,0.038129 0.0208,0.044272 -0.006,0.066824 -0.0181,0.01476 -0.0317,0.029103 -0.0449,0.045914 6.7e-4,8.641e-4 0.002,4.014e-4 0.002,0.00126 -0.005,0.00613 -0.0111,0.01066 -0.0157,0.017219 -0.006,-0.0082 -0.0115,-0.016402 -0.0174,-0.025011 -0.0788,-0.081993 -0.19911,-0.066416 -0.28168,-0.00204 -0.0851,-0.031154 -0.17899,-0.038129 -0.24056,0.048789 -0.0536,0.075434 -0.0436,0.1574256 0.014,0.2099007 -0.0211,0.02747 -0.0308,0.053706 -0.0261,0.086092 -6.7e-4,-0.00126 -6.7e-4,-0.0033 -0.002,-0.00408 6.7e-4,0.00291 7.8e-4,0.00534 0.002,0.00778 -0.0207,-0.00369 -0.0434,-0.00244 -0.0616,0.00204 -0.006,0.00165 -0.0137,0.00408 -0.0204,0.00699 0,-4.014e-4 0,-4.014e-4 0,-4.014e-4 -3.4e-4,0 -3.4e-4,0 -7.9e-4,4.014e-4 0,-0.00204 0,-0.0033 0,-0.00448 -6.6e-4,-0.00204 -7.8e-4,-0.0033 -0.002,-0.00495 -2.2e-4,-8.641e-4 -2.2e-4,-0.00126 -3.3e-4,-0.00204 -2.3e-4,-0.00251 -7.8e-4,-0.00573 -0.002,-0.0082 2.3e-4,-0.00126 -3.3e-4,-0.00291 6.7e-4,-0.00408 -7.8e-4,-0.00699 -0.003,-0.014344 -0.005,-0.021319 -6.7e-4,-0.00495 -0.002,-0.00943 -0.003,-0.013935 -0.005,-0.01476 -0.0108,-0.028287 -0.0215,-0.037304 -0.0538,-0.046738 -0.11893,-0.059857 -0.18822,-0.04223 -0.0798,0.019269 -0.16435,0.075842 -0.20801,0.1508665 -0.0258,-0.00291 -0.052,0 -0.0768,0.010251 -0.0348,0.014352 -0.0562,0.039763 -0.0662,0.076659 -0.005,0.017627 0.005,0.037713 0.004,0.054115 -0.0353,0.015168 -0.0614,0.030745 -0.0857,0.074617" />
  </g>
</svg>
